<svg id="yoga" xmlns="http://www.w3.org/2000/svg" width="34.232" height="34.232" viewBox="0 0 34.232 34.232">
  <g id="Group_936" data-name="Group 936" transform="translate(0.501 0.501)">
    <path id="Path_2540" data-name="Path 2540" d="M37.387,7.5H10.843A3.343,3.343,0,0,0,7.5,10.843v23.2l16.615,2.674L40.73,34.043v-23.2A3.343,3.343,0,0,0,37.387,7.5Z" transform="translate(-7.5 -7.5)" fill="#f5f5fc"/>
  </g>
  <g id="Group_937" data-name="Group 937" transform="translate(0.501 0.501)">
    <path id="Path_2541" data-name="Path 2541" d="M11.82,10.843v23.9l-4.32-.7v-23.2A3.343,3.343,0,0,1,10.843,7.5h4.32A3.343,3.343,0,0,0,11.82,10.843Z" transform="translate(-7.5 -7.5)" fill="#ebebf5"/>
  </g>
  <g id="Group_939" data-name="Group 939" transform="translate(6.862 6.656)">
    <g id="Group_938" data-name="Group 938">
      <path id="Path_2542" data-name="Path 2542" d="M103.757,111.576a14.628,14.628,0,0,0,9.134,8.37,14.658,14.658,0,0,0-7.313-20.277,1.409,1.409,0,0,0-1.854.768A14.611,14.611,0,0,0,103.757,111.576Z" transform="translate(-102.638 -99.558)" fill="#ffa1c8"/>
    </g>
  </g>
  <g id="Group_940" data-name="Group 940" transform="translate(6.863 10.009)">
    <path id="Path_2543" data-name="Path 2543" d="M113.444,154.352a14.613,14.613,0,0,0-3.078-4.659l-.022.023a5.7,5.7,0,0,1-5.756,1.449,14.986,14.986,0,0,0-1.8-.434,14.661,14.661,0,0,0,10.111,16A14.628,14.628,0,0,0,113.444,154.352Z" transform="translate(-102.651 -149.693)" fill="#ff8fb8"/>
  </g>
  <g id="Group_942" data-name="Group 942" transform="translate(15.457 6.656)">
    <g id="Group_941" data-name="Group 941">
      <path id="Path_2544" data-name="Path 2544" d="M241.971,111.576a14.628,14.628,0,0,1-9.134,8.37,14.658,14.658,0,0,1,7.313-20.277,1.409,1.409,0,0,1,1.854.768A14.611,14.611,0,0,1,241.971,111.576Z" transform="translate(-231.177 -99.558)" fill="#ffa1c8"/>
    </g>
  </g>
  <g id="Group_943" data-name="Group 943" transform="translate(15.457 10.009)">
    <path id="Path_2545" data-name="Path 2545" d="M235.375,149.693a14.669,14.669,0,0,0-2.538,17.036,14.661,14.661,0,0,0,10.112-16,14.98,14.98,0,0,0-1.8.434,5.7,5.7,0,0,1-5.756-1.449Z" transform="translate(-231.177 -149.693)" fill="#ff8fb8"/>
  </g>
  <g id="Group_944" data-name="Group 944" transform="translate(3.176 13.056)">
    <path id="Path_2546" data-name="Path 2546" d="M51.255,205.509a12.8,12.8,0,0,0,10.185,3.707,12.823,12.823,0,0,0-12.7-13.94,1.233,1.233,0,0,0-1.241,1.241A12.783,12.783,0,0,0,51.255,205.509Z" transform="translate(-47.5 -195.276)" fill="#ffb9d5"/>
  </g>
  <g id="Group_945" data-name="Group 945" transform="translate(17.068 13.056)">
    <path id="Path_2547" data-name="Path 2547" d="M259.032,199.031a12.8,12.8,0,0,0-3.707,10.185,12.823,12.823,0,0,0,13.94-12.7,1.233,1.233,0,0,0-1.241-1.241A12.783,12.783,0,0,0,259.032,199.031Z" transform="translate(-255.276 -195.276)" fill="#ffb9d5"/>
  </g>
  <g id="Group_946" data-name="Group 946" transform="translate(17.068 14.782)">
    <path id="Path_2548" data-name="Path 2548" d="M255.325,233.306a12.844,12.844,0,0,0,6.891-1.322,8.336,8.336,0,0,0,1.493-4.769,12.08,12.08,0,0,0-2.04-6.123,12.838,12.838,0,0,0-6.344,12.214Z" transform="translate(-255.276 -221.092)" fill="#ffa1c8"/>
  </g>
  <g id="Group_947" data-name="Group 947" transform="translate(8.733 14.782)">
    <path id="Path_2549" data-name="Path 2549" d="M139,233.307a12.838,12.838,0,0,0-6.344-12.214,12.079,12.079,0,0,0-2.04,6.123,8.336,8.336,0,0,0,1.493,4.769A12.844,12.844,0,0,0,139,233.307Z" transform="translate(-130.613 -221.093)" fill="#ffa1c8"/>
  </g>
  <g id="Group_948" data-name="Group 948" transform="translate(0.501 27.045)">
    <path id="Path_2550" data-name="Path 2550" d="M40.73,404.5H7.5v3.343a3.343,3.343,0,0,0,3.343,3.343H37.387a3.343,3.343,0,0,0,3.343-3.343Z" transform="translate(-7.5 -404.5)" fill="#897bad"/>
  </g>
  <g id="Group_949" data-name="Group 949" transform="translate(13.049 17.262)">
    <path id="Path_2551" data-name="Path 2551" d="M195.175,258.175h8.134v8.1h-8.134Z" transform="translate(-195.175 -258.175)" fill="#99d3f2"/>
  </g>
  <g id="Group_950" data-name="Group 950" transform="translate(15.434 23.68)">
    <path id="Path_2552" data-name="Path 2552" d="M237.943,354.179h-5.42a1.682,1.682,0,0,0,0,3.364h5.42a1.682,1.682,0,0,0,0-3.364Z" transform="translate(-230.841 -354.179)" fill="#99d3f2"/>
  </g>
  <g id="Group_951" data-name="Group 951" transform="translate(10.014 23.68)">
    <path id="Path_2553" data-name="Path 2553" d="M156.881,354.179h-5.42a1.682,1.682,0,1,0,0,3.364h5.42a1.682,1.682,0,1,0,0-3.364Z" transform="translate(-149.779 -354.179)" fill="#cdebfc"/>
  </g>
  <g id="Group_952" data-name="Group 952" transform="translate(19.279 16.244)">
    <path id="Path_2554" data-name="Path 2554" d="M289.847,242.959s3.118,3.859,2.9,6.152-3.01,2.509-3.942,1.863-.421-2.025,1.165-2.428a10.131,10.131,0,0,0-1.629-5.588Z" transform="translate(-288.343 -242.959)" fill="#a7ddfa"/>
  </g>
  <g id="Group_953" data-name="Group 953" transform="translate(10.537 16.244)">
    <path id="Path_2555" data-name="Path 2555" d="M160.5,242.959s-3.118,3.859-2.9,6.152,3.01,2.509,3.942,1.863.421-2.025-1.165-2.428a10.131,10.131,0,0,1,1.629-5.588Z" transform="translate(-157.591 -242.959)" fill="#a7ddfa"/>
  </g>
  <g id="Group_954" data-name="Group 954" transform="translate(10.166 4.084)">
    <circle id="Ellipse_1050" data-name="Ellipse 1050" cx="6.95" cy="6.95" r="6.95" fill="#cdebfc"/>
  </g>
  <g id="Group_955" data-name="Group 955" transform="translate(10.166 4.084)">
    <path id="Path_2556" data-name="Path 2556" d="M155.329,68.038a6.952,6.952,0,0,1,5.31-6.754,6.95,6.95,0,1,0,0,13.508A6.952,6.952,0,0,1,155.329,68.038Z" transform="translate(-152.049 -61.088)" fill="#a7ddfa"/>
  </g>
  <g id="Group_956" data-name="Group 956" transform="translate(0.501 27.045)">
    <path id="Path_2557" data-name="Path 2557" d="M15.163,411.186h-4.32A3.343,3.343,0,0,1,7.5,407.843V404.5h4.32v3.343A3.343,3.343,0,0,0,15.163,411.186Z" transform="translate(-7.5 -404.5)" fill="#806e9c"/>
  </g>
  <g id="Group_957" data-name="Group 957" transform="translate(7.555 29.051)">
    <circle id="Ellipse_1051" data-name="Ellipse 1051" cx="1.337" cy="1.337" r="1.337" fill="#f5f5fc"/>
  </g>
  <g id="Group_958" data-name="Group 958">
    <path id="Path_2558" data-name="Path 2558" d="M85.708,428.337H66.649a1.838,1.838,0,0,0-3.537,0H60.5a.5.5,0,0,0,0,1h2.611a1.838,1.838,0,0,0,3.537,0H85.708a.5.5,0,0,0,0-1Zm-20.827,1.337a.836.836,0,1,1,.836-.836A.837.837,0,0,1,64.881,429.674Z" transform="translate(-55.988 -398.451)"/>
    <path id="Path_2559" data-name="Path 2559" d="M30.388,0H3.844A3.849,3.849,0,0,0,0,3.844V30.388a3.849,3.849,0,0,0,3.844,3.844H30.388a3.849,3.849,0,0,0,3.844-3.844V3.844A3.849,3.849,0,0,0,30.388,0ZM3.844,1H30.388A2.845,2.845,0,0,1,33.23,3.844v22.7H24.371a2.172,2.172,0,0,0,.281-.641,13.342,13.342,0,0,0,6.906-11.6,1.734,1.734,0,0,0-1.746-1.746,13.472,13.472,0,0,0-1.946.153,15.094,15.094,0,0,0-1.118-5.361,1.91,1.91,0,0,0-2.513-1.041c-.34.143-.677.3-1.007.469a7.446,7.446,0,0,0-12.222,0c-.33-.168-.668-.326-1.008-.469A1.91,1.91,0,0,0,7.485,7.347a15.093,15.093,0,0,0-1.119,5.361,13.47,13.47,0,0,0-1.946-.153A1.734,1.734,0,0,0,2.674,14.3,13.343,13.343,0,0,0,9.58,25.9a2.172,2.172,0,0,0,.281.641H1V3.844A2.845,2.845,0,0,1,3.844,1ZM18.952,26.544a2.176,2.176,0,0,0,0-2.362h.039a1.621,1.621,0,0,0,.468.491,2.761,2.761,0,0,0,1.538.4,3.789,3.789,0,0,0,1.571-.333,3,3,0,0,0,.605-.374,1.18,1.18,0,0,1-.636,2.175Zm-3.517-3.364c0-.012,0-.024-.005-.035a2.384,2.384,0,0,0-1.611-1.681,9.608,9.608,0,0,1,.781-3.414,7.449,7.449,0,0,0,5.032,0,9.61,9.61,0,0,1,.781,3.414A2.384,2.384,0,0,0,18.8,23.144c0,.012,0,.024-.005.035H15.435ZM9.6,24.754A12.327,12.327,0,0,1,3.677,14.295a.728.728,0,0,1,.214-.523.719.719,0,0,1,.523-.214,12.248,12.248,0,0,1,6.923,2.176,7.519,7.519,0,0,0,1.068,1.07c-1.055,1.483-2.521,3.893-2.358,5.64A2.872,2.872,0,0,0,10.4,23.6a2.2,2.2,0,0,0-.8,1.15ZM23.4,9.578a.5.5,0,1,0,.977-.225,7.388,7.388,0,0,0-.63-1.717c.288-.145.581-.281.877-.406a.907.907,0,0,1,1.195.495A14.1,14.1,0,0,1,26.867,12.9a13.189,13.189,0,0,0-2.884,1.032,7.4,7.4,0,0,0,.571-2.437.5.5,0,1,0-1-.061A6.444,6.444,0,1,1,23.4,9.578Zm1.231,15.176a2.2,2.2,0,0,0-.8-1.149,2.873,2.873,0,0,0,.357-1.161c.164-1.746-1.3-4.154-2.357-5.639A7.508,7.508,0,0,0,22.9,15.73a12.25,12.25,0,0,1,6.918-2.172.731.731,0,0,1,.737.737,12.329,12.329,0,0,1-5.924,10.459Zm-4.08-7.108q.235-.122.459-.26c1.467,2.061,2.276,3.9,2.176,4.964a1.718,1.718,0,0,1-1.043,1.483,2.469,2.469,0,0,1-2.115.015.5.5,0,0,1-.239-.526,1.544,1.544,0,0,1,1.242-1,.5.5,0,0,0,.376-.442,9.674,9.674,0,0,0-.857-4.231Zm-10.3-3.714A13.188,13.188,0,0,0,7.365,12.9,14.1,14.1,0,0,1,8.414,7.725.908.908,0,0,1,9.609,7.23c.3.125.589.261.877.406a7.447,7.447,0,0,0-.235,6.3Zm.8,8.418c-.1-1.065.709-2.9,2.176-4.964q.224.138.459.26a9.676,9.676,0,0,0-.857,4.231.5.5,0,0,0,.376.442,1.544,1.544,0,0,1,1.242,1,.5.5,0,0,1-.239.526,2.469,2.469,0,0,1-2.115-.015A1.717,1.717,0,0,1,11.047,22.35ZM30.388,33.23H3.844A2.845,2.845,0,0,1,1,30.388V27.546H13.4a.5.5,0,1,0,0-1H11.7a1.18,1.18,0,0,1-.637-2.175,3,3,0,0,0,.606.374,3.788,3.788,0,0,0,1.571.333,2.761,2.761,0,0,0,1.538-.4,1.621,1.621,0,0,0,.468-.491h1.874a1.181,1.181,0,0,1,0,2.362H15.409a.5.5,0,1,0,0,1H33.23v2.842A2.845,2.845,0,0,1,30.388,33.23Z"/>
    <path id="Path_2560" data-name="Path 2560" d="M185.275,140.663a.5.5,0,0,0-.707.049.31.31,0,0,1-.236.108h0a.31.31,0,0,1-.236-.107.5.5,0,1,0-.755.66,1.316,1.316,0,0,0,.991.451h0a1.316,1.316,0,0,0,.992-.453A.5.5,0,0,0,185.275,140.663Z" transform="translate(-170.967 -131.144)"/>
    <path id="Path_2561" data-name="Path 2561" d="M296.772,140.608a.31.31,0,0,1-.236.108h0a.31.31,0,0,1-.236-.107.5.5,0,0,0-.755.66,1.316,1.316,0,0,0,.991.451h0a1.316,1.316,0,0,0,.991-.453.5.5,0,0,0-.757-.658Z" transform="translate(-275.669 -131.046)"/>
    <path id="Path_2562" data-name="Path 2562" d="M237.084,148.316a.5.5,0,0,0-.708.049.754.754,0,0,1-1.138,0,.5.5,0,0,0-.756.659,1.757,1.757,0,0,0,2.65,0A.5.5,0,0,0,237.084,148.316Z" transform="translate(-218.69 -138.284)"/>
  </g>
</svg>
