<svg xmlns="http://www.w3.org/2000/svg" width="40.141" height="34.232" viewBox="0 0 40.141 34.232">
  <g id="sleeping" transform="translate(0 -37.68)">
    <circle id="Ellipse_1046" data-name="Ellipse 1046" cx="4.382" cy="4.382" r="4.382" transform="translate(23.63 57.879)" fill="#d1c4e9"/>
    <path id="Path_2525" data-name="Path 2525" d="M305.791,295.325a4.381,4.381,0,0,0-4.071,6,10.543,10.543,0,0,0,1.385-.662A9.917,9.917,0,0,0,310.1,298.9,4.382,4.382,0,0,0,305.791,295.325Z" transform="translate(-277.779 -237.446)" fill="#b0ade2"/>
    <circle id="Ellipse_1047" data-name="Ellipse 1047" cx="2.744" cy="2.744" r="2.744" transform="translate(16.64 65.834)" fill="#a2ddfd"/>
    <path id="Path_2526" data-name="Path 2526" d="M41.559,62.443a6.825,6.825,0,0,0-7.112-4.213,1.14,1.14,0,0,1-1.02-.428,8.255,8.255,0,0,0-12.89,0,1.139,1.139,0,0,1-1.02.428,6.825,6.825,0,0,0-7.112,4.213,1.133,1.133,0,0,1-.786.672A5.4,5.4,0,0,0,13.774,73.7a1.143,1.143,0,0,1,1.041.38,7.581,7.581,0,0,0,6.957,2.451,1.144,1.144,0,0,1,.805.151,8.26,8.26,0,0,0,8.811,0,1.143,1.143,0,0,1,.805-.151,7.581,7.581,0,0,0,6.957-2.452A1.142,1.142,0,0,1,40.19,73.7a5.4,5.4,0,0,0,2.155-10.581A1.133,1.133,0,0,1,41.559,62.443Z" transform="translate(-6.912 -15.69)" fill="#f8d2e3"/>
    <path id="Path_2527" data-name="Path 2527" d="M29.49,96.064c-3.262-.438-5.452-2.455-4.837-5.047a.888.888,0,0,0-.633-1.055c-3.335-.942-3.8-4.782-1.819-7.272a.886.886,0,0,0-.024-1.127c-1.729-2.037-1.339-4.459-.042-6.783a8.3,8.3,0,0,0-1.6,1.523,1.165,1.165,0,0,1-1.043.426,6.825,6.825,0,0,0-7.089,4.215,1.134,1.134,0,0,1-.786.672A5.4,5.4,0,0,0,13.774,92.2a1.114,1.114,0,0,1,1.022.358,7.581,7.581,0,0,0,6.994,2.469,1.117,1.117,0,0,1,.787.154,8.266,8.266,0,0,0,6.913.884Z" transform="translate(-6.912 -34.192)" fill="#f1b3c1"/>
    <g id="Group_925" data-name="Group 925" transform="translate(12.208 51.721)">
      <g id="Group_924" data-name="Group 924">
        <ellipse id="Ellipse_1048" data-name="Ellipse 1048" cx="2.119" cy="1.688" rx="2.119" ry="1.688" fill="#fff"/>
        <ellipse id="Ellipse_1049" data-name="Ellipse 1049" cx="2.119" cy="1.688" rx="2.119" ry="1.688" transform="translate(11.486)" fill="#fff"/>
      </g>
    </g>
    <path id="Path_2528" data-name="Path 2528" d="M19.384,65.246a3.332,3.332,0,1,0,1.685,6.207.588.588,0,0,0-.6-1.014,2.156,2.156,0,1,1,1.052-1.612.588.588,0,0,0,1.168.135,3.336,3.336,0,0,0-3.31-3.715ZM35.572,46.853a.546.546,0,0,1-.38-.321,7.374,7.374,0,0,0-2.017-2.814h2.713a.588.588,0,1,0,0-1.176H33.513L36.231,38.6a.588.588,0,0,0-.484-.922H32.482a.588.588,0,1,0,0,1.176h2.145c-.671.973-2.7,3.908-2.735,3.97a7.385,7.385,0,0,0-4.426-.87.55.55,0,0,1-.492-.212,8.843,8.843,0,0,0-13.808,0,.55.55,0,0,1-.493.212,7.369,7.369,0,0,0-2.341.1.588.588,0,1,0,.236,1.152,6.2,6.2,0,0,1,1.968-.082,1.719,1.719,0,0,0,1.547-.644,7.667,7.667,0,0,1,11.972,0,1.72,1.72,0,0,0,1.547.645,6.243,6.243,0,0,1,6.5,3.85A1.725,1.725,0,0,0,35.294,48a4.815,4.815,0,0,1-1.919,9.43A1.722,1.722,0,0,0,31.8,58a6.967,6.967,0,0,1-6.419,2.262,1.73,1.73,0,0,0-1.218.234,7.671,7.671,0,0,1-8.183,0,1.729,1.729,0,0,0-1.218-.234A6.964,6.964,0,0,1,8.343,58a1.724,1.724,0,0,0-1.577-.57A4.815,4.815,0,0,1,4.847,48a1.725,1.725,0,0,0,1.191-1.022,6.218,6.218,0,0,1,2.229-2.782.588.588,0,1,0-.67-.967,7.391,7.391,0,0,0-2.649,3.307.547.547,0,0,1-.38.321A5.991,5.991,0,0,0,6.958,58.586a.555.555,0,0,1,.5.19,8.133,8.133,0,0,0,7.5,2.641.557.557,0,0,1,.392.069,8.846,8.846,0,0,0,7.694.85,4.969,4.969,0,1,0,9.026-2.941,8.343,8.343,0,0,0,.609-.618.553.553,0,0,1,.5-.189,5.991,5.991,0,0,0,2.39-11.733Zm-7.56,19.2A3.8,3.8,0,0,1,24.248,61.8q.276-.148.543-.317a.558.558,0,0,1,.392-.069,8.126,8.126,0,0,0,5.965-1.291,3.794,3.794,0,0,1-3.135,5.93ZM24.579,52.291a2.038,2.038,0,0,0,1.537-.7.588.588,0,1,0-.887-.773.861.861,0,0,1-1.3,0,.588.588,0,1,0-.886.773,2.038,2.038,0,0,0,1.537.7ZM28.3,50.517H30.62a.588.588,0,1,0,0-1.176h-1.2l1.591-2.307a.588.588,0,0,0-.484-.922H28.358a.588.588,0,0,0,0,1.176h1.048L27.815,49.6A.588.588,0,0,0,28.3,50.517ZM20.916,52.7a.847.847,0,1,0-.845.9A.875.875,0,0,0,20.916,52.7Zm-5.354-.406a2.038,2.038,0,0,0,1.537-.7.588.588,0,1,0-.886-.773.861.861,0,0,1-1.3,0,.588.588,0,1,0-.887.773,2.038,2.038,0,0,0,1.537.7Z" transform="translate(0 0)"/>
  </g>
</svg>
