<svg xmlns="http://www.w3.org/2000/svg" width="32.031" height="35.594" viewBox="0 0 32.031 35.594">
  <g id="calendar" transform="translate(-25.627)">
    <g id="Group_980" data-name="Group 980" transform="translate(26.148 2.848)">
      <path id="Path_2622" data-name="Path 2622" d="M62.029,361.589H35.212a2.086,2.086,0,0,1-2.086-2.086v-2.9l30.988-5.631V359.5A2.086,2.086,0,0,1,62.029,361.589Z" transform="translate(-33.126 -329.42)" fill="#cdbfba"/>
      <path id="Path_2623" data-name="Path 2623" d="M56.355,71.061H35.215a2.089,2.089,0,0,1-2.089-2.089v-25.9a2.089,2.089,0,0,1,2.089-2.089h26.81a2.089,2.089,0,0,1,2.089,2.089V63.3c0,.554-1.263,1.085-1.655,1.477l-4.627,4.627C57.44,69.8,56.909,71.061,56.355,71.061Z" transform="translate(-33.126 -40.978)" fill="#f9f3f1"/>
      <path id="Path_2624" data-name="Path 2624" d="M331.145,329.374H332.8a1.712,1.712,0,0,0,1.712-1.712v-3.48a1.712,1.712,0,0,1,1.712-1.712h3.48a1.712,1.712,0,0,0,1.712-1.712v.846a2.089,2.089,0,0,1-.612,1.477l-5.68,5.68a2.089,2.089,0,0,1-1.477.612h-2.5Z" transform="translate(-310.427 -299.29)" fill="#efe2dd"/>
      <path id="Path_2625" data-name="Path 2625" d="M64.118,43.06v5.366H33.13V43.06a2.086,2.086,0,0,1,2.086-2.086H62.032A2.086,2.086,0,0,1,64.118,43.06Z" transform="translate(-33.13 -40.974)" fill="#fece85"/>
      <g id="Group_975" data-name="Group 975" transform="translate(3.295)">
        <g id="Group_973" data-name="Group 973">
          <path id="Path_2626" data-name="Path 2626" d="M83.129,44.613H82.106a1.587,1.587,0,0,1-1.586-1.585V40.973h1.043v2.055a.543.543,0,0,0,.543.542C82.394,43.57,83.417,44.613,83.129,44.613Z" transform="translate(-80.52 -40.973)" fill="#fdb441"/>
        </g>
        <g id="Group_974" data-name="Group 974" transform="translate(18.941)">
          <path id="Path_2627" data-name="Path 2627" d="M355.589,44.613h-1.024a1.587,1.587,0,0,1-1.585-1.585V40.973h1.043v2.055a.543.543,0,0,0,.542.542A1.824,1.824,0,0,1,355.589,44.613Z" transform="translate(-352.98 -40.973)" fill="#fdb441"/>
        </g>
      </g>
      <g id="Group_979" data-name="Group 979" transform="translate(3.128 10.579)">
        <g id="Group_976" data-name="Group 976">
          <path id="Path_2628" data-name="Path 2628" d="M81.105,196.618H78.623a.5.5,0,0,1-.5-.5v-2.483a.5.5,0,0,1,.5-.5h2.483a.5.5,0,0,1,.5.5v2.483A.5.5,0,0,1,81.105,196.618Z" transform="translate(-78.126 -193.142)" fill="#fedba6"/>
          <path id="Path_2629" data-name="Path 2629" d="M183.021,196.618h-2.483a.5.5,0,0,1-.5-.5v-2.483a.5.5,0,0,1,.5-.5h2.483a.5.5,0,0,1,.5.5v2.483A.5.5,0,0,1,183.021,196.618Z" transform="translate(-172.957 -193.142)" fill="#fedba6"/>
          <path id="Path_2630" data-name="Path 2630" d="M284.937,196.618h-2.483a.5.5,0,0,1-.5-.5v-2.483a.5.5,0,0,1,.5-.5h2.483a.5.5,0,0,1,.5.5v2.483A.5.5,0,0,1,284.937,196.618Z" transform="translate(-267.788 -193.142)" fill="#fedba6"/>
          <path id="Path_2631" data-name="Path 2631" d="M386.853,196.618h-2.483a.5.5,0,0,1-.5-.5v-2.483a.5.5,0,0,1,.5-.5h2.483a.5.5,0,0,1,.5.5v2.483A.5.5,0,0,1,386.853,196.618Z" transform="translate(-362.618 -193.142)" fill="#fedba6"/>
        </g>
        <g id="Group_977" data-name="Group 977" transform="translate(0 6.45)">
          <path id="Path_2632" data-name="Path 2632" d="M81.105,289.391H78.623a.5.5,0,0,1-.5-.5v-2.483a.5.5,0,0,1,.5-.5h2.483a.5.5,0,0,1,.5.5v2.483A.5.5,0,0,1,81.105,289.391Z" transform="translate(-78.126 -285.915)" fill="#fedba6"/>
          <path id="Path_2633" data-name="Path 2633" d="M183.021,289.391h-2.483a.5.5,0,0,1-.5-.5v-2.483a.5.5,0,0,1,.5-.5h2.483a.5.5,0,0,1,.5.5v2.483A.5.5,0,0,1,183.021,289.391Z" transform="translate(-172.957 -285.915)" fill="#fedba6"/>
          <path id="Path_2634" data-name="Path 2634" d="M284.937,289.391h-2.483a.5.5,0,0,1-.5-.5v-2.483a.5.5,0,0,1,.5-.5h2.483a.5.5,0,0,1,.5.5v2.483A.5.5,0,0,1,284.937,289.391Z" transform="translate(-267.788 -285.915)" fill="#fedba6"/>
        </g>
        <path id="Path_2635" data-name="Path 2635" d="M386.853,291.618h-2.483a.5.5,0,0,1-.5-.5v-2.483a.5.5,0,0,1,.5-.5h2.483a.5.5,0,0,1,.5.5v2.483A.5.5,0,0,1,386.853,291.618Z" transform="translate(-362.618 -281.538)" fill="#fedba6"/>
        <g id="Group_978" data-name="Group 978" transform="translate(0 12.899)">
          <path id="Path_2636" data-name="Path 2636" d="M81.105,382.164H78.623a.5.5,0,0,1-.5-.5v-2.483a.5.5,0,0,1,.5-.5h2.483a.5.5,0,0,1,.5.5v2.483A.5.5,0,0,1,81.105,382.164Z" transform="translate(-78.126 -378.688)" fill="#fedba6"/>
          <path id="Path_2637" data-name="Path 2637" d="M183.021,382.164h-2.483a.5.5,0,0,1-.5-.5v-2.483a.5.5,0,0,1,.5-.5h2.483a.5.5,0,0,1,.5.5v2.483A.5.5,0,0,1,183.021,382.164Z" transform="translate(-172.957 -378.688)" fill="#fedba6"/>
          <path id="Path_2638" data-name="Path 2638" d="M284.937,382.164h-2.483a.5.5,0,0,1-.5-.5v-2.483a.5.5,0,0,1,.5-.5h2.483a.5.5,0,0,1,.5.5v2.483A.5.5,0,0,1,284.937,382.164Z" transform="translate(-267.788 -378.688)" fill="#fedba6"/>
        </g>
      </g>
    </g>
    <path id="Path_2639" data-name="Path 2639" d="M51.029,17.481h2.483a1.019,1.019,0,0,0,1.018-1.018V13.98a1.019,1.019,0,0,0-1.018-1.018H51.029a1.019,1.019,0,0,0-1.018,1.018v2.483A1.019,1.019,0,0,0,51.029,17.481Zm.025-3.476h2.433v2.433H51.054Zm-.025,10.08h2.483a1.019,1.019,0,0,0,1.018-1.018V20.585a1.019,1.019,0,0,0-1.018-1.018H51.029a1.019,1.019,0,0,0-1.018,1.018v2.483A1.019,1.019,0,0,0,51.029,24.085Zm.025-3.476h2.433v2.433H51.054Zm-7.11-3.128h2.483a1.019,1.019,0,0,0,1.018-1.018V13.98a1.019,1.019,0,0,0-1.018-1.018H43.944a1.019,1.019,0,0,0-1.018,1.018v2.483A1.019,1.019,0,0,0,43.944,17.481Zm.025-3.476H46.4v2.433H43.968ZM32.256,25.861H29.773a1.019,1.019,0,0,0-1.018,1.018v2.483a1.019,1.019,0,0,0,1.018,1.018h2.483a1.019,1.019,0,0,0,1.018-1.018V26.879A1.019,1.019,0,0,0,32.256,25.861Zm-.025,3.476H29.8V26.9h2.433Zm.025-16.375H29.773a1.019,1.019,0,0,0-1.018,1.018v2.483a1.019,1.019,0,0,0,1.018,1.018h2.483a1.019,1.019,0,0,0,1.018-1.018V13.98A1.019,1.019,0,0,0,32.256,12.962Zm-.025,3.476H29.8V14.005h2.433Zm11.712,7.492h2.483a1.019,1.019,0,0,0,1.018-1.018V20.43a1.019,1.019,0,0,0-1.018-1.018H43.944a1.019,1.019,0,0,0-1.018,1.018v2.483A1.019,1.019,0,0,0,43.944,23.931Zm.025-3.476H46.4v2.433H43.968ZM55.048,2.383H52.818v-.8A1.587,1.587,0,0,0,51.233,0h-.239a1.587,1.587,0,0,0-1.585,1.586v.8H33.877v-.8A1.587,1.587,0,0,0,32.292,0h-.239a1.587,1.587,0,0,0-1.586,1.586v.8H28.237a2.613,2.613,0,0,0-2.61,2.61V32.987a2.61,2.61,0,0,0,2.607,2.607H55.051a2.61,2.61,0,0,0,2.607-2.607V4.993a2.614,2.614,0,0,0-2.611-2.61Zm-4.6-.8a.543.543,0,0,1,.543-.543h.239a.543.543,0,0,1,.543.543v.8H50.451Zm-18.941,0a.543.543,0,0,1,.543-.543h.239a.543.543,0,0,1,.543.543v.8H31.51v-.8Zm25.106,31.4a1.566,1.566,0,0,1-1.564,1.564H28.234a1.566,1.566,0,0,1-1.564-1.564v0a2.6,2.6,0,0,0,1.568.525h21.14a2.593,2.593,0,0,0,1.846-.765l5.392-5.392ZM50.691,31.8a2.23,2.23,0,0,0,.063-.526V27.8a1.192,1.192,0,0,1,1.19-1.19h3.48a2.23,2.23,0,0,0,.526-.063ZM56.615,9.834H34.4a.521.521,0,1,0,0,1.043H56.615v13.5a1.192,1.192,0,0,1-1.19,1.19h-3.48A2.236,2.236,0,0,0,49.711,27.8v3.48a1.192,1.192,0,0,1-1.19,1.19H28.237A1.569,1.569,0,0,1,26.67,30.9V10.877h5.643a.521.521,0,1,0,0-1.043H26.67V4.993a1.569,1.569,0,0,1,1.568-1.568h2.229V4.959a1.587,1.587,0,0,0,1.586,1.586.521.521,0,0,0,0-1.043.543.543,0,0,1-.543-.543V3.426h17.9V4.959a1.587,1.587,0,0,0,1.586,1.586.521.521,0,0,0,0-1.043.543.543,0,0,1-.543-.543V3.426h4.6a1.569,1.569,0,0,1,1.568,1.568ZM32.256,19.412H29.773a1.019,1.019,0,0,0-1.018,1.018v2.483a1.019,1.019,0,0,0,1.018,1.018h2.483a1.019,1.019,0,0,0,1.018-1.018V20.43A1.019,1.019,0,0,0,32.256,19.412Zm-.025,3.476H29.8V20.455h2.433Zm4.627-5.407h2.483a1.019,1.019,0,0,0,1.018-1.018V13.98a1.019,1.019,0,0,0-1.018-1.018H36.858a1.019,1.019,0,0,0-1.018,1.018v2.483A1.019,1.019,0,0,0,36.858,17.481Zm.025-3.476h2.433v2.433H36.883Zm7.085,15.332a.521.521,0,0,0-1.042.025,1.019,1.019,0,0,0,1.018,1.018h2.483a1.019,1.019,0,0,0,1.018-1.018V26.879a1.019,1.019,0,0,0-1.018-1.018H43.944a1.019,1.019,0,0,0-1.018,1.018V27.6a.521.521,0,1,0,1.043,0V26.9H46.4v2.433Zm-7.109-5.407h2.483a1.019,1.019,0,0,0,1.018-1.018V20.43a1.019,1.019,0,0,0-1.018-1.018H36.858a1.019,1.019,0,0,0-1.018,1.018v2.483A1.019,1.019,0,0,0,36.858,23.931Zm.025-3.476h2.433v2.433H36.883Zm-.025,9.926h2.483a1.019,1.019,0,0,0,1.018-1.018V26.879a1.019,1.019,0,0,0-1.018-1.018H36.858a1.019,1.019,0,0,0-1.018,1.018v2.483A1.019,1.019,0,0,0,36.858,30.38Zm.025-3.476h2.433v2.433H36.883Z"/>
  </g>
</svg>
