<svg xmlns="http://www.w3.org/2000/svg" width="34.154" height="34.154" viewBox="0 0 34.154 34.154">
  <g id="presentation" transform="translate(0)">
    <g id="Group_971" data-name="Group 971" transform="translate(0.5 0.5)">
      <g id="Group_970" data-name="Group 970">
        <g id="Group_967" data-name="Group 967">
          <path id="Path_2602" data-name="Path 2602" d="M40.654,45.856H7.5V27.5a2,2,0,0,1,2-2H38.652a2,2,0,0,1,2,2Z" transform="translate(-7.5 -24.299)" fill="#a6e4ff"/>
          <path id="Path_2603" data-name="Path 2603" d="M437.168,25.5H434.5a2,2,0,0,1,2,2V45.856h2.668V27.5A2,2,0,0,0,437.168,25.5Z" transform="translate(-406.016 -24.299)" fill="#8cdcff"/>
          <path id="Path_2604" data-name="Path 2604" d="M116.527,9.9H97.641a1.2,1.2,0,0,1,0-2.4h18.886a1.2,1.2,0,1,1,0,2.4Z" transform="translate(-90.507 -7.5)" fill="#ff8fe9"/>
          <path id="Path_2605" data-name="Path 2605" d="M360.228,7.5H357.56a1.2,1.2,0,1,1,0,2.4h2.668a1.2,1.2,0,1,0,0-2.4Z" transform="translate(-334.208 -7.5)" fill="#ff75e4"/>
          <path id="Path_2606" data-name="Path 2606" d="M38.652,333.608H9.5a2,2,0,0,1-2-2v-.957H40.654v.957A2,2,0,0,1,38.652,333.608Z" transform="translate(-7.5 -309.093)" fill="#51acdb"/>
          <path id="Path_2607" data-name="Path 2607" d="M436.5,330.65v.957a2,2,0,0,1-2,2h2.668a2,2,0,0,0,2-2v-.957Z" transform="translate(-406.016 -309.093)" fill="#32a2db"/>
        </g>
        <g id="Group_969" data-name="Group 969" transform="translate(11.825 5.365)">
          <g id="Group_968" data-name="Group 968">
            <path id="Path_2608" data-name="Path 2608" d="M235.986,252.382a1.429,1.429,0,0,1-1.429-1.429v-1.429h2.858v1.429A1.429,1.429,0,0,1,235.986,252.382Z" transform="translate(-231.236 -238.744)" fill="#8e58d1"/>
            <path id="Path_2609" data-name="Path 2609" d="M194.271,92.673a4.75,4.75,0,1,0-7.337,3.983.81.81,0,0,1,.336.64c0,1.243,1.008,1.763,2.251,1.763s2.251-.52,2.251-1.763a.8.8,0,0,1,.33-.636A4.745,4.745,0,0,0,194.271,92.673Z" transform="translate(-184.771 -87.923)" fill="#fdfd95"/>
          </g>
        </g>
      </g>
    </g>
    <g id="Group_972" data-name="Group 972" transform="translate(0)">
      <path id="Path_2610" data-name="Path 2610" d="M31.653,1.2H28.146A1.7,1.7,0,0,0,26.52,0H11.9a.5.5,0,0,0,0,1H26.52a.7.7,0,0,1,0,1.4H7.634a.7.7,0,0,1,0-1.4H9.228a.5.5,0,0,0,0-1H7.634A1.7,1.7,0,0,0,6.008,1.2H2.5A2.5,2.5,0,0,0,0,3.7V23.014a2.5,2.5,0,0,0,2.5,2.5H16.577v4.159a2.268,2.268,0,1,0,1,0V25.516h6.17a.5.5,0,0,0,0-1H2.5a1.5,1.5,0,0,1-1.5-1.5v-.457H33.154v.457a1.5,1.5,0,0,1-1.5,1.5H26.416a.5.5,0,0,0,0,1h5.237a2.5,2.5,0,0,0,2.5-2.5V3.7A2.5,2.5,0,0,0,31.653,1.2ZM18.345,31.886a1.267,1.267,0,1,1-1.267-1.267A1.269,1.269,0,0,1,18.345,31.886ZM1,21.557V3.7A1.5,1.5,0,0,1,2.5,2.2H6.008A1.7,1.7,0,0,0,7.634,3.4H26.52a1.7,1.7,0,0,0,1.626-1.2h3.507a1.5,1.5,0,0,1,1.5,1.5V21.557Z" transform="translate(0)"/>
      <path id="Path_2611" data-name="Path 2611" d="M182.6,80.436a5.261,5.261,0,0,0-2.733,9.651.319.319,0,0,1,.108.221,2.053,2.053,0,0,0,.822,1.72v1.116a1.929,1.929,0,0,0,3.858,0V92.028a2.053,2.053,0,0,0,.822-1.72.316.316,0,0,1,.1-.216A5.263,5.263,0,0,0,182.6,80.436Zm1.055,12.708a.929.929,0,0,1-1.857,0v-.672a4.385,4.385,0,0,0,1.857,0Zm1.38-3.891a1.3,1.3,0,0,0-.558,1.056c0,.5-.231,1.089-1.25,1.231v-4.19a1.905,1.905,0,0,0,1.823-.492.5.5,0,0,0-.708-.707.9.9,0,0,1-1.262,0,.507.507,0,0,0-.708,0,.9.9,0,0,1-1.262,0,.5.5,0,0,0-.707.707,1.905,1.905,0,0,0,1.823.492v4.19c-1.019-.142-1.25-.728-1.25-1.231a1.306,1.306,0,0,0-.563-1.059,4.249,4.249,0,1,1,4.622,0Z" transform="translate(-165.649 -75.07)"/>
      <path id="Path_2612" data-name="Path 2612" d="M123.795,152.91h1.567a.5.5,0,0,0,0-1h-1.567A.5.5,0,0,0,123.795,152.91Z" transform="translate(-115.074 -141.776)"/>
      <path id="Path_2613" data-name="Path 2613" d="M141.578,202.62l-1.369.763a.5.5,0,1,0,.487.874l1.369-.763A.5.5,0,0,0,141.578,202.62Z" transform="translate(-130.616 -189.043)"/>
      <path id="Path_2614" data-name="Path 2614" d="M338.017,203.834a.5.5,0,0,0,.257-.93l-1.346-.8a.5.5,0,1,0-.513.859l1.346.8A.5.5,0,0,0,338.017,203.834Z" transform="translate(-313.746 -188.552)"/>
      <path id="Path_2615" data-name="Path 2615" d="M349.6,151.77a.5.5,0,0,0,.5.5h1.567a.5.5,0,0,0,0-1H350.1A.5.5,0,0,0,349.6,151.77Z" transform="translate(-326.282 -141.179)"/>
      <path id="Path_2616" data-name="Path 2616" d="M336.385,90.891a.5.5,0,0,0,.243-.063L338,90.065a.5.5,0,0,0-.487-.874l-1.369.763A.5.5,0,0,0,336.385,90.891Z" transform="translate(-313.481 -83.18)"/>
      <path id="Path_2617" data-name="Path 2617" d="M140.224,89.991l1.346.8a.5.5,0,1,0,.513-.859l-1.346-.8A.5.5,0,0,0,140.224,89.991Z" transform="translate(-130.642 -83.118)"/>
      <path id="Path_2618" data-name="Path 2618" d="M355.223,274.916h-6.458a.5.5,0,1,0,0,1h6.458A.5.5,0,0,0,355.223,274.916Z" transform="translate(-325.032 -256.577)"/>
      <path id="Path_2619" data-name="Path 2619" d="M58.88,274.916H52.421a.5.5,0,1,0,0,1H58.88A.5.5,0,0,0,58.88,274.916Z" transform="translate(-48.457 -256.577)"/>
      <path id="Path_2620" data-name="Path 2620" d="M52.483,243.025h2.162a.5.5,0,0,0,0-1H52.483a.5.5,0,0,0,0,1Z" transform="translate(-48.519 -225.879)"/>
      <path id="Path_2621" data-name="Path 2621" d="M415.4,242.024h-2.162a.5.5,0,0,0,0,1H415.4A.5.5,0,0,0,415.4,242.024Z" transform="translate(-385.207 -225.879)"/>
    </g>
  </g>
</svg>
