<svg xmlns="http://www.w3.org/2000/svg" width="32.694" height="36.233" viewBox="0 0 32.694 36.233">
  <g id="barbell" transform="translate(-25 0)">
    <g id="Group_966" data-name="Group 966" transform="translate(25.531 0.531)">
      <path id="Path_2577" data-name="Path 2577" d="M282.281,41.546a1.124,1.124,0,0,1-1.124-1.124V8.624A1.124,1.124,0,0,1,282.281,7.5a1.012,1.012,0,0,1,.983,1.124v31.8A1.012,1.012,0,0,1,282.281,41.546Z" transform="translate(-263.56 -7.5)" fill="#b5adb6"/>
      <path id="Path_2578" data-name="Path 2578" d="M290.731,8.625v31.8a1.125,1.125,0,0,1-1.691.972,1.125,1.125,0,0,0,.558-.972V8.625a1.123,1.123,0,0,0-.329-.8,1.135,1.135,0,0,0-.229-.176,1.124,1.124,0,0,1,1.691.972Z" transform="translate(-270.885 -7.5)" fill="#a79ba7"/>
      <path id="Path_2579" data-name="Path 2579" d="M195.561,41.546a1.124,1.124,0,0,1-1.124-1.124V8.624A1.124,1.124,0,0,1,195.561,7.5c.621,0,.912.5.912,1.124v31.8C196.473,41.042,196.182,41.546,195.561,41.546Z" transform="translate(-182.977 -7.5)" fill="#b5adb6"/>
      <path id="Path_2580" data-name="Path 2580" d="M204.011,8.625v31.8a1.125,1.125,0,0,1-1.691.972,1.125,1.125,0,0,0,.558-.972V8.625a1.123,1.123,0,0,0-.329-.8,1.136,1.136,0,0,0-.229-.176,1.124,1.124,0,0,1,1.691.972Z" transform="translate(-190.302 -7.5)" fill="#a79ba7"/>
      <path id="Path_2581" data-name="Path 2581" d="M62,194.881v-4.243a.557.557,0,0,1,.607-.485h1.67v5.212h-1.67A.556.556,0,0,1,62,194.881Z" transform="translate(-59.912 -177.227)" fill="#fe646f"/>
      <path id="Path_2582" data-name="Path 2582" d="M419.49,195.366h-1.67v-5.212h1.67a.557.557,0,0,1,.607.485v4.243A.557.557,0,0,1,419.49,195.366Z" transform="translate(-390.552 -177.228)" fill="#fb2b3a"/>
      <path id="Path_2583" data-name="Path 2583" d="M369.436,19.186h-1.187l-.575.226h-.758a.485.485,0,0,1-.485-.485V12.018a.485.485,0,0,1,.485-.485h.741l.52.157,1.207-.06a.485.485,0,0,1,.485.485l.053,6.586A.485.485,0,0,1,369.436,19.186Z" transform="translate(-342.8 -11.248)" fill="#fe646f"/>
      <path id="Path_2584" data-name="Path 2584" d="M97.185,19.186H96l-.575.226h-.758a.485.485,0,0,1-.485-.485V12.018a.485.485,0,0,1,.485-.485h.741l.52.157,1.207-.06a.485.485,0,0,1,.485.485L97.67,18.7A.485.485,0,0,1,97.185,19.186Z" transform="translate(-89.815 -11.248)" fill="#fe646f"/>
      <path id="Path_2585" data-name="Path 2585" d="M97.185,178.964H96l-.575.226h-.758a.485.485,0,0,1-.485-.485V171.8a.485.485,0,0,1,.485-.485h.741l.52.157,1.207-.06a.485.485,0,0,1,.485.485l.053,6.587A.485.485,0,0,1,97.185,178.964Z" transform="translate(-89.815 -159.719)" fill="#fd4755"/>
      <path id="Path_2586" data-name="Path 2586" d="M97.185,338.742H96l-.575.226h-.758a.485.485,0,0,1-.485-.485v-6.909a.485.485,0,0,1,.485-.485h.741l.52.157,1.207-.06a.485.485,0,0,1,.485.485l.053,6.587A.485.485,0,0,1,97.185,338.742Z" transform="translate(-89.815 -308.19)" fill="#fe646f"/>
      <path id="Path_2587" data-name="Path 2587" d="M369.436,178.964h-1.187l-.575.226h-.758a.485.485,0,0,1-.485-.485V171.8a.485.485,0,0,1,.485-.485h.741l.52.157,1.207-.06a.485.485,0,0,1,.485.485l.053,6.587A.485.485,0,0,1,369.436,178.964Z" transform="translate(-342.8 -159.719)" fill="#fe646f"/>
      <path id="Path_2588" data-name="Path 2588" d="M62,354.659v-4.243a.557.557,0,0,1,.607-.485h1.67v5.212h-1.67A.556.556,0,0,1,62,354.659Z" transform="translate(-59.912 -325.698)" fill="#fd4755"/>
      <path id="Path_2589" data-name="Path 2589" d="M32.5,365.285v-2.838c0-.179.249-.324.557-.324h1.531v3.487H33.057C32.749,365.609,32.5,365.464,32.5,365.285Z" transform="translate(-32.5 -337.026)" fill="#fe646f"/>
      <path id="Path_2590" data-name="Path 2590" d="M111.328,331.575v6.91a.485.485,0,0,1-.485.485H108.72a.485.485,0,0,0,.485-.485v-6.91a.485.485,0,0,0-.485-.485h2.123A.485.485,0,0,1,111.328,331.575Z" transform="translate(-103.326 -308.191)" fill="#fd4755"/>
      <path id="Path_2591" data-name="Path 2591" d="M111.328,171.8v6.91a.485.485,0,0,1-.485.485H108.72a.485.485,0,0,0,.485-.485V171.8a.485.485,0,0,0-.485-.485h2.123A.485.485,0,0,1,111.328,171.8Z" transform="translate(-103.326 -159.719)" fill="#fb2b3a"/>
      <g id="Group_965" data-name="Group 965" transform="translate(5.394 0.285)">
        <path id="Path_2592" data-name="Path 2592" d="M111.328,12.018v6.91a.485.485,0,0,1-.485.485H108.72a.485.485,0,0,0,.485-.485v-6.91a.485.485,0,0,0-.485-.485h2.123A.485.485,0,0,1,111.328,12.018Z" transform="translate(-108.72 -11.533)" fill="#fd4755"/>
        <path id="Path_2593" data-name="Path 2593" d="M383.578,171.8v6.91a.485.485,0,0,1-.485.485H380.97a.485.485,0,0,0,.485-.485V171.8a.485.485,0,0,0-.485-.485h2.123A.485.485,0,0,1,383.578,171.8Z" transform="translate(-361.704 -160.004)" fill="#fd4755"/>
        <path id="Path_2594" data-name="Path 2594" d="M383.578,12.018v6.91a.485.485,0,0,1-.485.485H380.97a.485.485,0,0,0,.485-.485v-6.91a.485.485,0,0,0-.485-.485h2.123A.485.485,0,0,1,383.578,12.018Z" transform="translate(-361.704 -11.533)" fill="#fd4755"/>
      </g>
      <path id="Path_2595" data-name="Path 2595" d="M369.436,338.742h-1.187l-.575.226h-.758a.485.485,0,0,1-.485-.485v-6.909a.485.485,0,0,1,.485-.485h.741l.52.157,1.207-.06a.485.485,0,0,1,.485.485l.053,6.587A.485.485,0,0,1,369.436,338.742Z" transform="translate(-342.8 -308.19)" fill="#fe646f"/>
      <path id="Path_2596" data-name="Path 2596" d="M419.49,355.144h-1.67v-5.212h1.67a.557.557,0,0,1,.607.485v4.243A.557.557,0,0,1,419.49,355.144Z" transform="translate(-390.552 -325.699)" fill="#fe646f"/>
      <path id="Path_2597" data-name="Path 2597" d="M451.531,365.61H450v-3.487h1.531c.307,0,.557.145.557.324v2.838C452.088,365.465,451.838,365.61,451.531,365.61Z" transform="translate(-420.455 -337.027)" fill="#fd4755"/>
      <path id="Path_2598" data-name="Path 2598" d="M383.578,331.575v6.91a.485.485,0,0,1-.485.485H380.97a.485.485,0,0,0,.485-.485v-6.91a.485.485,0,0,0-.485-.485h2.123A.485.485,0,0,1,383.578,331.575Z" transform="translate(-356.31 -308.191)" fill="#fd4755"/>
      <path id="Path_2599" data-name="Path 2599" d="M72.936,474.872l-2.123.071H45.191a1.125,1.125,0,0,1,0-2.251H70.813l2.123.071a1.055,1.055,0,1,1,0,2.109Z" transform="translate(-43.248 -439.772)" fill="#efedef"/>
      <path id="Path_2600" data-name="Path 2600" d="M425.278,473.816a1.126,1.126,0,0,1-1.125,1.125H422.03a1.126,1.126,0,0,0,0-2.251h2.123A1.125,1.125,0,0,1,425.278,473.816Z" transform="translate(-394.464 -439.77)" fill="#d7d0d6"/>
    </g>
    <path id="Path_2601" data-name="Path 2601" d="M55.22,33.982a.595.595,0,1,1,0,1.19H32.329a.531.531,0,1,0,0,1.062H55.22a1.656,1.656,0,1,0,0-3.313H45.907V28.608h.029a6.575,6.575,0,0,0,2.7-.769v2.985a1.017,1.017,0,0,0,1.016,1.016h2.667a1.017,1.017,0,0,0,1.016-1.016v-.318h1.139a1.106,1.106,0,0,0,1.124-.863h1.015c.62,0,1.087-.368,1.087-.855V25.951c0-.488-.467-.855-1.087-.855H55.592a1.106,1.106,0,0,0-1.124-.863H53.329v-.318A1.017,1.017,0,0,0,52.314,22.9H49.647a1.017,1.017,0,0,0-1.016,1.016v2.739a6.512,6.512,0,0,1-2.7.893h-.029V17.3h.029a6.575,6.575,0,0,0,2.7-.769v2.985a1.017,1.017,0,0,0,1.016,1.016h2.667a1.017,1.017,0,0,0,1.016-1.016V19.2h1.139a1.083,1.083,0,0,0,1.138-1.016V13.942a1.083,1.083,0,0,0-1.138-1.016H53.329v-.318a1.017,1.017,0,0,0-1.016-1.016H49.647a1.017,1.017,0,0,0-1.016,1.016v2.739a6.512,6.512,0,0,1-2.7.893h-.029V5.994h.029a6.575,6.575,0,0,0,2.7-.769V8.211a1.017,1.017,0,0,0,1.016,1.016h2.667a1.017,1.017,0,0,0,1.016-1.016V1.3A1.017,1.017,0,0,0,52.314.285H49.647A1.017,1.017,0,0,0,48.631,1.3V4.04a6.512,6.512,0,0,1-2.7.893h-.029V1.655a1.655,1.655,0,1,0-3.31,0v2.06a5.266,5.266,0,0,0-2.827-.009V1.655a1.655,1.655,0,1,0-3.31,0V4.932H36.4A5.892,5.892,0,0,1,34.063,4.2V1.3A1.017,1.017,0,0,0,33.047.285H30.381A1.017,1.017,0,0,0,29.365,1.3V8.211a1.017,1.017,0,0,0,1.016,1.016h2.667a1.017,1.017,0,0,0,1.016-1.016V5.378a6.119,6.119,0,0,0,2.337.616h.06V16.239H36.4a5.892,5.892,0,0,1-2.337-.729v-2.9a1.017,1.017,0,0,0-1.016-1.016H30.381a1.017,1.017,0,0,0-1.016,1.016v.318H28.226a1.083,1.083,0,0,0-1.138,1.016v4.243A1.083,1.083,0,0,0,28.226,19.2h1.139v.318a1.017,1.017,0,0,0,1.016,1.016h2.667a1.017,1.017,0,0,0,1.016-1.016V16.685A6.119,6.119,0,0,0,36.4,17.3h.06V27.546H36.4a5.892,5.892,0,0,1-2.337-.729v-2.9A1.017,1.017,0,0,0,33.047,22.9H30.381a1.017,1.017,0,0,0-1.016,1.016v.318H28.226A1.106,1.106,0,0,0,27.1,25.1H26.087c-.62,0-1.087.368-1.087.855v2.838c0,.488.467.855,1.087.855H27.1a1.106,1.106,0,0,0,1.124.863h1.139v.318a1.017,1.017,0,0,0,1.016,1.016h2.667a1.017,1.017,0,0,0,1.016-1.016V27.992a6.119,6.119,0,0,0,2.337.616h.06V32.92H27.475a1.656,1.656,0,0,0,0,3.313h2.541a.531.531,0,1,0,0-1.062H27.475a.595.595,0,1,1,0-1.19Zm-.751-19.994a.2.2,0,0,1,.077.014v4.123a.2.2,0,0,1-.077.014H53.329V13.987Zm-4.776-1.333h2.575v6.818H49.693ZM52.268,1.347V8.165H49.693V1.347ZM30.426,8.165V1.347H33V4.522c0,.005,0,.01,0,.015V8.165Zm-2.2,9.974a.2.2,0,0,1-.076-.014V14a.2.2,0,0,1,.076-.014h1.139v4.151ZM33,19.472H30.426V12.654H33Zm-6.94,9.11V26.158h1.026v2.425H26.062Zm2.164.863a.2.2,0,0,1-.076-.014V25.308a.2.2,0,0,1,.076-.014h1.139v4.151ZM33,30.779H30.426V23.961H33ZM44.845,27.4a4.408,4.408,0,0,1-1.023-.491l-.164-.1v-2.23a.531.531,0,1,0-1.062,0v1.742a5.266,5.266,0,0,0-2.827-.009V16.139a3.973,3.973,0,0,1,2.827.014v6.121a.531.531,0,1,0,1.062,0V16.737a4.29,4.29,0,0,0,1.187.455Zm-5.075.042a3.973,3.973,0,0,1,2.827.014v5.46H39.77ZM44.845,16.1a4.408,4.408,0,0,1-1.023-.491l-.164-.1V5.43a4.29,4.29,0,0,0,1.187.455ZM43.658,1.655a.593.593,0,1,1,1.187,0V4.79A4.408,4.408,0,0,1,43.822,4.3l-.164-.1Zm-6.137,0a.593.593,0,0,1,1.187,0V4.184l-.2.115a4.5,4.5,0,0,1-.991.481Zm0,4.223a4.34,4.34,0,0,0,1.187-.465V9.518a.531.531,0,1,0,1.062,0V4.832a3.972,3.972,0,0,1,2.827.014V15.022a5.266,5.266,0,0,0-2.827-.009V11.831a.531.531,0,1,0-1.062,0v3.66l-.2.115a4.5,4.5,0,0,1-.991.481Zm0,11.307a4.34,4.34,0,0,0,1.187-.465V26.8l-.2.115a4.5,4.5,0,0,1-.991.481Zm0,11.307a4.34,4.34,0,0,0,1.187-.465V32.92H37.521Zm7.324,4.428H43.658V28.044a4.29,4.29,0,0,0,1.187.455Zm4.848-8.959h2.575v6.818H49.693Zm4.852,5.47a.2.2,0,0,1-.077.014H53.329V25.294h1.139a.2.2,0,0,1,.077.014v4.123Zm2.088-.849H55.607V26.157h1.026Z" transform="translate(0)"/>
  </g>
</svg>
