<?xml version="1.0"?>
<svg xmlns="http://www.w3.org/2000/svg" xmlns:xlink="http://www.w3.org/1999/xlink" xmlns:svgjs="http://svgjs.com/svgjs" version="1.1" width="512" height="512" x="0" y="0" viewBox="0 0 512 512" style="enable-background:new 0 0 512 512" xml:space="preserve"><g><g xmlns="http://www.w3.org/2000/svg"><g><g><g><g><g id="XMLID_972_"><g id="XMLID_973_"><g id="XMLID_974_"><g id="XMLID_975_"><g id="XMLID_976_"><g id="XMLID_977_"><g id="XMLID_978_"><g id="XMLID_979_"><g id="XMLID_980_"><g id="XMLID_981_"><g id="XMLID_982_"><g id="XMLID_983_"><g id="XMLID_984_"><g id="XMLID_985_"><g id="XMLID_986_"><circle cx="256" cy="256" fill="#f4e471" r="256" data-original="#f4e471"/></g></g></g></g></g></g></g></g></g></g></g></g></g></g></g></g></g></g></g><path d="m226.849 510.358c9.567 1.085 19.294 1.642 29.151 1.642 141.385 0 256-114.615 256-256 0-9.674-.537-19.223-1.582-28.619l-39.941-39.941-423.173 143.373z" fill="#e8c44f" data-original="#e8c44f"/><g><path d="m261.107 321.075c-58.361 0-244.847-6.714-244.847-65.075 0-58.361 47.311-105.671 105.671-105.671h268.138c58.361 0 105.671 47.311 105.671 105.671 0 58.361-234.633 65.075-234.633 65.075z" fill="#e23d71" data-original="#e23d71"/><g><g><g><path d="m121.931 361.671h268.138c58.099 0 105.247-46.888 105.668-104.887h-479.474c.421 58 47.569 104.887 105.668 104.887z" fill="#aa1d57" data-original="#aa1d57"/></g></g></g><g><path d="m69.675 223.704v64.592c0 12.596 13.774 20.349 24.542 13.814l53.215-32.296c10.367-6.292 10.367-21.336 0-27.627l-53.215-32.297c-10.769-6.535-24.542 1.217-24.542 13.814z" fill="#ffffff" data-original="#ffffff"/><path d="m94.217 302.11 53.215-32.296c4.929-2.992 7.515-7.962 7.756-13.03h-85.513v31.512c0 12.597 13.773 20.349 24.542 13.814z" fill="#d6d6d6" data-original="#d6d6d6"/><g><g><path d="m316.274 221.346-13.468.011-26.373 69.229h17.058l3.654-9.612h24.609l3.622 9.612h17.036zm-13.053 43.696 6.288-16.516 6.235 16.516z" fill="#ffffff" data-original="#ffffff"/><path d="m293.492 290.586 3.653-9.612h24.61l3.622 9.612h17.036l-12.76-33.802h-17.027l3.117 8.258h-12.522l3.144-8.258h-17.054l-12.877 33.802z" fill="#d6d6d6" data-original="#d6d6d6"/><path d="m233.663 272.516c-1.869 10.515-11.853 18.141-23.728 18.141-9.506 0-18.438-3.845-24.503-10.536l-5.353-5.895 11.811-10.706 5.342 5.905c3.006 3.314 7.753 5.3 12.703 5.3 4.886 0 7.69-2.984 8.051-5.003.552-3.091-4.588-5.236-6.171-5.831-8.316-3.059-15.709-6.352-16.017-6.489-.382-.17-.754-.372-1.105-.605-6.054-3.94-9.177-10.865-8.147-18.056 1.094-7.637 6.66-13.85 14.519-16.219 15.242-4.589 27.764 5.735 28.295 6.182l1.296 1.094-8.945 11.897-2.228-1.54c-.483-.305-7.063-4.409-13.829-2.37-2.708.818-3.239 2.517-3.335 3.218-.074.531-.064 1.466.722 2.177 2.039.892 7.955 3.431 14.286 5.767 14.212 5.247 17.76 15.614 16.336 23.569z" fill="#ffffff" data-original="#ffffff"/><path d="m195.799 257.402c.308.138 7.701 3.431 16.017 6.489 1.583.595 6.723 2.74 6.171 5.831-.361 2.018-3.165 5.003-8.051 5.003-4.95 0-9.697-1.986-12.703-5.3l-5.342-5.905-11.811 10.706 5.353 5.895c6.065 6.691 14.997 10.536 24.503 10.536 11.875 0 21.859-7.626 23.728-18.141.879-4.916-.139-10.752-4.399-15.732h-34.59c.006.004.013.008.019.013.351.233.722.435 1.105.605z" fill="#d6d6d6" data-original="#d6d6d6"/><path d="m283.81 221.346v15.932h-14.796v53.308h-15.932v-53.308h-14.678v-15.932z" fill="#ffffff" data-original="#ffffff"/><path d="m253.082 256.784h15.932v33.802h-15.932z" fill="#d6d6d6" data-original="#d6d6d6"/><path d="m442.655 221.346v15.932h-14.796v53.308h-15.932v-53.308h-14.678v-15.932z" fill="#ffffff" data-original="#ffffff"/><g><path d="m411.927 256.784h15.932v33.802h-15.932z" fill="#d6d6d6" data-original="#d6d6d6"/></g><path d="m378.082 263.374c8.21-3.282 13.999-11.099 13.999-20.191 0-12.034-10.154-21.837-22.623-21.837h-22.167v69.24h15.932v-19.851l18.173 19.851h21.582zm-8.625-14.285c-1.115 0-6.139.011-6.139.011l-.032-1.816c-.011-1.604-.011-3.07-.011-4.1 0-1.211-.011-3.516-.011-5.906h6.192c3.622 0 6.691 2.708 6.691 5.906.001 3.207-3.068 5.905-6.69 5.905z" fill="#ffffff" data-original="#ffffff"/><path d="m363.222 290.586v-19.851l18.173 19.851h21.582l-24.896-27.212c3.572-1.428 6.685-3.714 9.063-6.59h-39.854v33.802z" fill="#d6d6d6" data-original="#d6d6d6"/></g></g></g></g></g></g></svg>
