<?xml version="1.0"?>
<svg xmlns="http://www.w3.org/2000/svg" xmlns:xlink="http://www.w3.org/1999/xlink" xmlns:svgjs="http://svgjs.com/svgjs" version="1.1" width="512" height="512" x="0" y="0" viewBox="0 0 512 512" style="enable-background:new 0 0 512 512" xml:space="preserve"><g><g xmlns="http://www.w3.org/2000/svg"><path d="m458.734 404.595c26.673-39.224 42.268-86.588 42.268-137.597 0-135.311-109.691-245.002-245.002-245.002s-245.002 109.691-245.002 245.002c0 51.01 15.595 98.374 42.268 137.597z" fill="#fc90ce" data-original="#fc90ce"/><path d="m170.356 57.329c0 18.063-14.643 32.706-32.706 32.706h321.083v-32.706z" fill="#becaf5" data-original="#becaf5"/><path d="m53.266 57.329v32.706h86.432c18.063 0 32.706-14.643 32.706-32.706z" fill="#3c58a0" data-original="#3c58a0"/><path d="m148.124 87.987.831.484c-3.835 5.838-17.118 28.803.456 43.31-.867 3.569-3.469 16.288-.657 30.824 2.99 15.452 12.927 35.765 43.215 45.222l11.395 67.003c-5.317 4.021-35.255 28.562-16.531 58.135-1.894 3.376-7.641 15.803 4.372 24.69v13.812c-1.817 1.355-6.622 5.479-7.988 12.065-1.035 4.991.136 10.219 3.48 15.555-2.995 3.265-13.105 15.192-18.638 32.98-5.069 16.297-6.839 40.252 9.527 67.11 24.619 8.313 50.989 12.823 78.414 12.823 84.301 0 158.652-42.582 202.734-107.405v-316.608z" fill="#deeeff" data-original="#deeeff"/><path d="m53.266 87.987v316.608c30.167 44.362 74.512 78.302 126.519 95.312-35.606-56.095 8.813-100.649 8.813-100.649-11.539-17.056 4.106-27.014 4.106-27.014v-15.361c-13.85-9.598-4.106-23.952-4.106-23.952-20.956-31.716 16.399-57.442 16.399-57.442l-11.704-68.827c-58.594-17.652-42.186-75.448-42.186-75.448-20.531-15.849 0-43.228 0-43.228h-97.841z" fill="#d3dcfb" data-original="#d3dcfb"/><path d="m423.015 0h-258.445s-9.606 10.029 0 19.635l1.311 19.081s-8.171 12.36 4.476 20.518h288.377v-23.516c0-19.645-16.074-35.718-35.719-35.718z" fill="#2a428c" data-original="#2a428c"/><path d="m88.984 0c-19.644 0-35.718 16.073-35.718 35.718v23.515h119.138c-12.647-8.159-4.476-20.518-4.476-20.518l-1.31-19.081c-9.606-9.606 0-19.635 0-19.635h-77.634z" fill="#1c2e7a" data-original="#1c2e7a"/><path d="m108.736 29.617c0 6.359-5.155 11.514-11.514 11.514s-11.514-5.155-11.514-11.514 5.155-11.514 11.514-11.514 11.514 5.155 11.514 11.514z" fill="#ff4155" data-original="#ff4155"/><path d="m140.57 29.617c0 6.359-5.155 11.514-11.514 11.514s-11.514-5.155-11.514-11.514 5.155-11.514 11.514-11.514 11.514 5.155 11.514 11.514z" fill="#ffdd40" data-original="#ffdd40"/><path d="m172.404 29.617c0 6.359-5.155 11.514-11.514 11.514s-11.514-5.155-11.514-11.514 5.155-11.514 11.514-11.514 11.514 5.155 11.514 11.514z" fill="#88ce65" data-original="#88ce65"/><path d="m271.053 29.617c0-4.242 3.439-7.681 7.681-7.681h-68.518c-4.242 0-7.681 3.438-7.681 7.681s3.439 7.681 7.681 7.681h68.518c-4.242 0-7.681-3.439-7.681-7.681z" fill="#3c58a0" data-original="#3c58a0"/><path d="m334.451 29.617c0-4.242-3.439-7.681-7.681-7.681h-50.085c-4.242 0-7.681 3.438-7.681 7.681s3.439 7.681 7.681 7.681h50.085c4.242 0 7.681-3.439 7.681-7.681z" fill="#6289cc" data-original="#6289cc"/><g><path d="m419.596 37.298h-10.011c-4.242 0-7.681-3.438-7.681-7.681s3.439-7.681 7.681-7.681h10.011c4.242 0 7.681 3.438 7.681 7.681s-3.44 7.681-7.681 7.681z" fill="#6289cc" data-original="#6289cc"/></g><g><path d="m384.79 37.298h-10.012c-4.242 0-7.681-3.438-7.681-7.681s3.439-7.681 7.681-7.681h10.012c4.242 0 7.681 3.438 7.681 7.681s-3.439 7.681-7.681 7.681z" fill="#3c58a0" data-original="#3c58a0"/></g><path d="m393.193 131.215h-244.418c.214.188.412.38.636.565-.867 3.569-3.469 16.288-.657 30.824 2.99 15.452 12.927 35.765 43.215 45.222l11.395 67.003c-5.317 4.021-35.255 28.562-16.531 58.135-.283.505-.653 1.215-1.036 2.082h229.697v-181.53c.001-12.316-9.984-22.301-22.301-22.301z" fill="#ff4155" data-original="#ff4155"/><path d="m204.998 275.49-11.704-68.827c-58.594-17.652-42.186-75.448-42.186-75.448h-32.3c-12.317 0-22.301 9.984-22.301 22.301v181.53h90.921c.639-1.324 1.172-2.115 1.172-2.115-12.462-34.105 16.398-57.441 16.398-57.441z" fill="#e80054" data-original="#e80054"/><path d="m186.813 332.931c.007.011.013.022.02.033-1.894 3.376-7.641 15.803 4.372 24.69v13.812c-1.817 1.355-6.622 5.479-7.988 12.065-1.035 4.991.136 10.219 3.48 15.555-.045.049-.107.119-.156.173h206.653c12.317 0 22.301-9.984 22.301-22.301v-44.026h-228.682z" fill="#3c58a0" data-original="#3c58a0"/><path d="m96.505 332.931v44.026c0 12.317 9.984 22.301 22.301 22.301h69.792c-11.539-17.056 4.106-27.014 4.106-27.014v-15.361c-13.85-9.598-4.106-23.952-4.106-23.952z" fill="#2a428c" data-original="#2a428c"/><path d="m256 164.023c-2.493 0-4.952.146-7.375.409-2.743 3.132-9.271 11.665-9.302 22.046-.021 6.858 2.812 13.18 8.423 18.79 17.83 17.829 13.95 43.07 13.699 44.571-.603 2.083-9.436 34.538 17.928 44.818 25.703-9.504 44.028-34.227 44.028-63.233 0-37.224-30.177-67.401-67.401-67.401z" fill="#deeeff" data-original="#deeeff"/><path d="m281.474 293.829c-29.131-9.487-18.567-43.649-18.567-43.649s4.993-26.878-14.102-45.973c-18.746-18.746 1.298-39.226 2.037-39.968-34.812 2.637-62.243 31.698-62.243 67.185 0 37.225 30.176 67.401 67.401 67.401 9.017.001 17.613-1.783 25.474-4.996z" fill="#d3dcfb" data-original="#d3dcfb"/><path d="m235.197 211.912v39.025c0 6.984 7.619 11.298 13.608 7.705l32.52-19.512c5.816-3.49 5.816-11.919 0-15.409l-32.52-19.512c-5.988-3.595-13.608.719-13.608 7.703z" fill="#ff4155" data-original="#ff4155"/><g><path d="m129.44 376.948c-4.242 0-7.681-3.438-7.681-7.681v-9.372c0-4.242 3.439-7.681 7.681-7.681s7.681 3.438 7.681 7.681v9.372c0 4.243-3.439 7.681-7.681 7.681z" fill="#ff4155" data-original="#ff4155"/></g><g><path d="m157.99 376.948c-4.242 0-7.681-3.438-7.681-7.681v-9.372c0-4.242 3.439-7.681 7.681-7.681s7.681 3.438 7.681 7.681v9.372c0 4.243-3.439 7.681-7.681 7.681z" fill="#ff4155" data-original="#ff4155"/></g><g><path d="m370.366 372.244h-125.139c-4.242 0-7.681-3.438-7.681-7.681 0-4.242 3.439-7.681 7.681-7.681h125.138c4.242 0 7.681 3.438 7.681 7.681s-3.439 7.681-7.68 7.681z" fill="#deeeff" data-original="#deeeff"/></g><g><path d="m245.227 372.244h-52.523c-4.242 0-7.681-3.438-7.681-7.681 0-4.242 3.439-7.681 7.681-7.681h52.523c4.242 0 7.681 3.438 7.681 7.681s-3.439 7.681-7.681 7.681z" fill="#ff4155" data-original="#ff4155"/></g><g><path d="m248.4 376.948c-4.242 0-7.681-3.438-7.681-7.681v-9.372c0-4.242 3.439-7.681 7.681-7.681s7.681 3.438 7.681 7.681v9.372c-.001 4.243-3.439 7.681-7.681 7.681z" fill="#ff7186" data-original="#ff7186"/></g></g></g></svg>
