<svg xmlns="http://www.w3.org/2000/svg" width="31.588" height="36.723" viewBox="0 0 31.588 36.723">
  <g id="survey" transform="translate(0 0)">
    <path id="Path_2437" data-name="Path 2437" d="M150.558,92.711H134.3a2.956,2.956,0,0,0-2.956,2.956v24.162a2.956,2.956,0,0,0,2.956,2.956h16.256a2.956,2.956,0,0,0,2.956-2.956V95.666A2.956,2.956,0,0,0,150.558,92.711Zm0,0" transform="translate(-121.926 -86.061)" fill="#ce795f"/>
    <path id="Path_2438" data-name="Path 2438" d="M152.5,94.012v2.862l-16.994,24.9h-2.863a2.957,2.957,0,0,0,2.863,2.217h16.256a2.956,2.956,0,0,0,2.956-2.956V96.874a2.957,2.957,0,0,0-2.217-2.862Zm0,0" transform="translate(-123.131 -87.269)" fill="#a05a4b"/>
    <path id="Path_2439" data-name="Path 2439" d="M178.324,149.257H163.916a1.663,1.663,0,0,1-1.663-1.663V125.28a1.663,1.663,0,0,1,1.663-1.663h14.408a1.663,1.663,0,0,1,1.663,1.663v22.315A1.663,1.663,0,0,1,178.324,149.257Zm0,0" transform="translate(-150.616 -114.751)" fill="#fff9eb"/>
    <path id="Path_2440" data-name="Path 2440" d="M178.324,123.617h-.554v21.761a1.662,1.662,0,0,1-1.662,1.662H162.254v.554a1.663,1.663,0,0,0,1.663,1.663h14.408a1.663,1.663,0,0,0,1.663-1.663V125.28a1.663,1.663,0,0,0-1.663-1.663Zm0,0" transform="translate(-150.616 -114.751)" fill="#e9e3d5"/>
    <path id="Path_2441" data-name="Path 2441" d="M212.525,5.179c-.416-.028-1.4.029-1.61-.042a.641.641,0,0,1-.435-.607.759.759,0,0,1,.284-.59,2.219,2.219,0,0,0,.82-1.589.035.035,0,0,1,0-.005A2.217,2.217,0,1,0,207.98,3.94a.759.759,0,0,1,.284.59c0,.02,0,.048,0,.048a.641.641,0,0,1-.639.593h-1.206a2.957,2.957,0,0,0-2.956,2.956,1.871,1.871,0,0,0,1.871,1.847h8.1a1.847,1.847,0,0,0,1.847-1.847,2.956,2.956,0,0,0-2.758-2.948Zm-3.153-3.517a.558.558,0,0,1,.554.568v.015a.562.562,0,0,1-.617.521.554.554,0,0,1,.064-1.1Zm0,0" transform="translate(-188.868 0)" fill="#8b9ba9"/>
    <path id="Path_2442" data-name="Path 2442" d="M213.067,73.422v.829a1.662,1.662,0,0,1-1.662,1.663h-7.919a2.982,2.982,0,0,0-.024.37,1.871,1.871,0,0,0,1.871,1.847h8.092a1.862,1.862,0,0,0,1.859-1.854,2.958,2.958,0,0,0-2.217-2.854Zm0,0" transform="translate(-188.868 -68.156)" fill="#6c7a88"/>
    <path id="Path_2443" data-name="Path 2443" d="M5.819,130.059H5.265a4.716,4.716,0,0,0-4.711,4.71v4.84a.554.554,0,1,0,0,1.108h.554a.554.554,0,0,0,.554-.554v-5.394a3.608,3.608,0,0,1,3.048-3.559v23.048a.554.554,0,1,0,1.108,0v-23.09a.554.554,0,0,0,0-1.108Zm0,0" transform="translate(0 -120.73)" fill="#8b9ba9"/>
    <path id="Path_2444" data-name="Path 2444" d="M48.3,189.047c-1.107,0-1.94-1.625-1.94-2.678V170.63a1.939,1.939,0,0,1,3.879,0v15.738C50.238,187.422,49.406,189.047,48.3,189.047Zm0,0" transform="translate(-43.034 -156.592)" fill="#6697cc"/>
    <path id="Path_2445" data-name="Path 2445" d="M48.9,168.69a1.965,1.965,0,0,0-.277.02v16.642a1.478,1.478,0,0,1-1.478,1.478H47c.189,1.008.939,2.217,1.893,2.217,1.107,0,1.939-1.625,1.939-2.678V170.63A1.941,1.941,0,0,0,48.9,168.69Zm0,0" transform="translate(-43.633 -156.591)" fill="#4b7cb1"/>
    <path id="Path_2446" data-name="Path 2446" d="M233.187,331a4.433,4.433,0,1,1-4.433-4.433A4.433,4.433,0,0,1,233.187,331Zm0,0" transform="translate(-208.231 -303.144)" fill="#ff7c8c"/>
    <path id="Path_2447" data-name="Path 2447" d="M238.957,335.137a4.433,4.433,0,0,1-6.07,6.07,4.433,4.433,0,1,0,6.07-6.07Zm0,0" transform="translate(-216.184 -311.1)" fill="#ff5368"/>
    <g id="Group_876" data-name="Group 876" transform="translate(18.159 26.444)">
      <path id="Path_2448" data-name="Path 2448" d="M254.413,369.534v-.222a.62.62,0,1,0-1.241,0v.222a.62.62,0,1,0,1.241,0Zm0,0" transform="translate(-253.172 -368.692)" fill="#c91d32"/>
      <path id="Path_2449" data-name="Path 2449" d="M302.406,368.691a.621.621,0,0,0-.621.621v.222a.621.621,0,1,0,1.241,0v-.222A.621.621,0,0,0,302.406,368.691Zm0,0" transform="translate(-298.299 -368.691)" fill="#c91d32"/>
      <path id="Path_2450" data-name="Path 2450" d="M262.961,407.859a1.108,1.108,0,0,1,1.568,0,.554.554,0,0,0,.784-.784,2.216,2.216,0,0,0-3.135,0,.554.554,0,0,0,.784.784Zm0,0" transform="translate(-261.381 -403.719)" fill="#c91d32"/>
    </g>
    <path id="Path_2451" data-name="Path 2451" d="M228.754,178.844a4.433,4.433,0,1,1,4.433-4.433A4.438,4.438,0,0,1,228.754,178.844Zm0,0" transform="translate(-208.231 -157.785)" fill="#c4ea73"/>
    <path id="Path_2452" data-name="Path 2452" d="M238.97,178.559a4.43,4.43,0,0,1-6.068,6.068,4.432,4.432,0,1,0,6.068-6.068Zm0,0" transform="translate(-216.198 -165.752)" fill="#a4d541"/>
    <path id="Path_2453" data-name="Path 2453" d="M254.413,212.94v-.222a.62.62,0,1,0-1.241,0v.222a.62.62,0,1,0,1.241,0Zm0,0" transform="translate(-235.014 -196.885)" fill="#4c7e08"/>
    <path id="Path_2454" data-name="Path 2454" d="M302.406,212.1a.621.621,0,0,0-.621.621v.222a.621.621,0,0,0,1.241,0v-.222A.621.621,0,0,0,302.406,212.1Zm0,0" transform="translate(-280.14 -196.885)" fill="#4c7e08"/>
    <path id="Path_2455" data-name="Path 2455" d="M264.525,250a1.108,1.108,0,0,1-1.567,0,.554.554,0,1,0-.784.784,2.217,2.217,0,0,0,3.135,0,.554.554,0,1,0-.784-.784Zm0,0" transform="translate(-243.219 -231.916)" fill="#4c7e08"/>
  </g>
</svg>
