<svg xmlns="http://www.w3.org/2000/svg" width="34.144" height="34.144" viewBox="0 0 34.144 34.144">
  <g id="medical-kit" transform="translate(-16 -16)">
    <path id="Path_2569" data-name="Path 2569" d="M151.967,24c-4.4,0-7.967,2.548-7.967,5.691h2.276c0-1.886,2.548-3.414,5.691-3.414s5.691,1.529,5.691,3.414h2.276C159.934,26.548,156.367,24,151.967,24Z" transform="translate(-118.895 -7.431)" fill="#dcdee0"/>
    <rect id="Rectangle_525" data-name="Rectangle 525" width="34" height="22" rx="11" transform="translate(16.073 25.072)" fill="#dcdee0"/>
    <ellipse id="Ellipse_1052" data-name="Ellipse 1052" cx="8" cy="7" rx="8" ry="7" transform="translate(25.073 29.072)" fill="#e9eef2"/>
    <path id="Path_2570" data-name="Path 2570" d="M206.829,242.845h-1.707V240h-2.276v2.845H200v2.276h2.845v2.845h2.276v-2.845h2.845v-2.276Z" transform="translate(-170.912 -208.066)" fill="#eb423f"/>
    <path id="Path_2571" data-name="Path 2571" d="M80,456h25.039a2.276,2.276,0,0,1-2.276,2.276H82.276A2.276,2.276,0,0,1,80,456Z" transform="translate(-59.448 -408.702)" fill="#c3c6c7"/>
    <path id="Path_2572" data-name="Path 2572" d="M136,456h2.276v2.276H136Z" transform="translate(-111.464 -408.702)" fill="#e9eef2"/>
    <path id="Path_2573" data-name="Path 2573" d="M344,456h2.276v2.276H344Z" transform="translate(-304.669 -408.702)" fill="#e9eef2"/>
    <path id="Path_2574" data-name="Path 2574" d="M48.489,23.967H41.608V22.26a5.551,5.551,0,0,0-2.572-4.487A10.313,10.313,0,0,0,33.072,16a10.313,10.313,0,0,0-5.964,1.773,5.551,5.551,0,0,0-2.572,4.487v1.707H17.654A1.656,1.656,0,0,0,16,25.621V46.213a1.656,1.656,0,0,0,1.654,1.654h2.386a2.85,2.85,0,0,0,2.788,2.276H43.315A2.85,2.85,0,0,0,46.1,47.867H48.49a1.656,1.656,0,0,0,1.654-1.654V25.621A1.656,1.656,0,0,0,48.489,23.967Zm-9.158,0V22.829H40.47v1.138ZM27.95,22.26c0-1.542,2.345-2.845,5.122-2.845s5.122,1.3,5.122,2.845v1.707H27.95Zm5.122-5.122c3.8,0,6.942,2,7.352,4.552H39.269c-.422-1.955-2.992-3.414-6.2-3.414s-5.776,1.46-6.2,3.414H25.72C26.13,19.133,29.27,17.138,33.072,17.138Zm-7.4,5.691h1.138v1.138H25.674ZM21.219,47.867h2.747v1.138H22.829a1.71,1.71,0,0,1-1.609-1.138Zm19.819,0v1.138H39.9V47.867Zm-2.276,1.138H27.381V47.867H38.762Zm-12.519,0H25.1V47.867h1.138Zm17.072,0H42.177V47.867h2.747a1.71,1.71,0,0,1-1.609,1.138Zm5.691-2.792a.517.517,0,0,1-.516.516H17.654a.517.517,0,0,1-.516-.516V25.621a.517.517,0,0,1,.516-.516H48.489a.517.517,0,0,1,.516.516Z"/>
    <path id="Path_2575" data-name="Path 2575" d="M151.967,184a7.967,7.967,0,1,0,7.967,7.967A7.967,7.967,0,0,0,151.967,184Zm0,14.8a6.829,6.829,0,1,1,6.829-6.829A6.829,6.829,0,0,1,151.967,198.8Z" transform="translate(-118.895 -156.05)"/>
    <path id="Path_2576" data-name="Path 2576" d="M200.536,234.845H198.26v-2.276a.569.569,0,0,0-.569-.569h-2.276a.569.569,0,0,0-.569.569v2.276h-2.276a.569.569,0,0,0-.569.569v2.276a.569.569,0,0,0,.569.569h2.276v2.276a.569.569,0,0,0,.569.569h2.276a.569.569,0,0,0,.569-.569V238.26h2.276a.569.569,0,0,0,.569-.569v-2.276A.569.569,0,0,0,200.536,234.845Zm-.569,2.276h-2.276a.569.569,0,0,0-.569.569v2.276h-1.138v-2.276a.569.569,0,0,0-.569-.569h-2.276v-1.138h2.276a.569.569,0,0,0,.569-.569v-2.276h1.138v2.276a.569.569,0,0,0,.569.569h2.276Z" transform="translate(-163.481 -200.635)"/>
  </g>
</svg>
