<svg id="vision" xmlns="http://www.w3.org/2000/svg" width="37.816" height="31.514" viewBox="0 0 37.816 31.514">
  <path id="SVGCleanerId_0" d="M8.531,129.519h0a21.607,21.607,0,0,1,36.556,0h0a21.607,21.607,0,0,1-36.556,0Z" transform="translate(-7.901 -113.762)" fill="#f0e4d6"/>
  <g id="Group_418" data-name="Group 418" transform="translate(0.63 5.67)">
    <path id="SVGCleanerId_0_1_" d="M8.531,129.519h0a21.607,21.607,0,0,1,36.556,0h0a21.607,21.607,0,0,1-36.556,0Z" transform="translate(-8.531 -119.432)" fill="#f0e4d6"/>
  </g>
  <ellipse id="Ellipse_61" data-name="Ellipse 61" cx="10.084" cy="10.084" rx="10.084" ry="10.084" transform="translate(8.824 5.672)" fill="#4398d1"/>
  <g id="Group_419" data-name="Group 419" transform="translate(3.151 0)">
    <rect id="Rectangle_59" data-name="Rectangle 59" width="1.261" height="10.084" transform="translate(15.126)" fill="#e8594a"/>
    <rect id="Rectangle_60" data-name="Rectangle 60" width="10.084" height="1.261" transform="translate(0 15.126)" fill="#e8594a"/>
    <rect id="Rectangle_61" data-name="Rectangle 61" width="1.261" height="10.084" transform="translate(15.126 21.429)" fill="#e8594a"/>
    <rect id="Rectangle_62" data-name="Rectangle 62" width="10.084" height="1.261" transform="translate(21.429 15.126)" fill="#e8594a"/>
    <path id="Path_403" data-name="Path 403" d="M43.925,48.337h-1.26V43.3a.631.631,0,0,1,.63-.63h5.042v1.261H43.925Z" transform="translate(-42.665 -42.665)" fill="#e8594a"/>
    <path id="Path_404" data-name="Path 404" d="M398.2,48.337h-1.261V43.925h-4.412v-1.26h5.042a.631.631,0,0,1,.63.63Z" transform="translate(-366.69 -42.665)" fill="#e8594a"/>
    <path id="Path_405" data-name="Path 405" d="M397.573,398.2h-5.042v-1.261h4.412v-4.412H398.2v5.042A.631.631,0,0,1,397.573,398.2Z" transform="translate(-366.69 -366.69)" fill="#e8594a"/>
    <path id="Path_406" data-name="Path 406" d="M48.337,398.2H43.3a.631.631,0,0,1-.63-.63v-5.042h1.261v4.412h4.412Z" transform="translate(-42.665 -366.69)" fill="#e8594a"/>
  </g>
  <g id="Group_420" data-name="Group 420" transform="translate(5.697 9.155)">
    <path id="Path_407" data-name="Path 407" d="M267.791,166.62q-1.3,1.2-2.7,2.262A10.066,10.066,0,0,1,256,183.306a21.429,21.429,0,0,0,18.278-10.084h0A21.53,21.53,0,0,0,267.791,166.62Z" transform="translate(-242.787 -166.62)" fill="#e8dccf"/>
    <path id="Path_408" data-name="Path 408" d="M81.307,316.337c-1.492.451-2.9.826-4.176,1.134a21.552,21.552,0,0,0,13.211,4.493A10.075,10.075,0,0,1,81.307,316.337Z" transform="translate(-77.131 -305.279)" fill="#e8dccf"/>
  </g>
  <path id="Path_409" data-name="Path 409" d="M152.784,201.585a10.025,10.025,0,0,0-.992-4.339,58.022,58.022,0,0,1-18.128,8.8,10.078,10.078,0,0,0,19.12-4.457Z" transform="translate(-123.792 -185.829)" fill="#3e8fc9"/>
  <ellipse id="Ellipse_62" data-name="Ellipse 62" cx="3.782" cy="3.782" rx="3.782" ry="3.782" transform="translate(15.126 11.975)" fill="#3077a6"/>
  <path id="Path_410" data-name="Path 410" d="M.1,58.757A22.109,22.109,0,0,0,18.278,69.116v5.062h1.261V69.116A22.108,22.108,0,0,0,37.719,58.757a.631.631,0,0,0,0-.672A22.108,22.108,0,0,0,19.538,47.726V42.664H18.278v5.062A22.108,22.108,0,0,0,.1,58.085.631.631,0,0,0,.1,58.757Zm9.389-.966A9.454,9.454,0,0,1,18.278,49v3.749h1.261V49a9.454,9.454,0,0,1,8.792,8.792H24.581v1.261H28.33a9.454,9.454,0,0,1-8.792,8.792V64.093H18.278v3.749a9.454,9.454,0,0,1-8.792-8.792h3.749V57.791Zm26.95.63a20.862,20.862,0,0,1-10.86,8.372,10.692,10.692,0,0,0,4.014-7.742h5.074V57.79H29.591a10.692,10.692,0,0,0-4.014-7.742A20.862,20.862,0,0,1,36.437,58.421Zm-24.2-8.372a10.692,10.692,0,0,0-4.014,7.742H3.151v1.261H8.226a10.692,10.692,0,0,0,4.014,7.742A20.865,20.865,0,0,1,1.38,58.421,20.861,20.861,0,0,1,12.239,50.049Z" transform="translate(0 -42.664)"/>
  <path id="Path_411" data-name="Path 411" d="M200.677,205.089a4.412,4.412,0,1,0-4.412-4.412A4.412,4.412,0,0,0,200.677,205.089Zm0-7.563a3.151,3.151,0,1,1-3.151,3.151A3.152,3.152,0,0,1,200.677,197.525Z" transform="translate(-181.769 -184.92)"/>
  <path id="Path_412" data-name="Path 412" d="M43.925,43.925h4.412v-1.26H43.3a.631.631,0,0,0-.63.63v5.042h1.261V43.925Z" transform="translate(-39.514 -42.665)"/>
  <path id="Path_413" data-name="Path 413" d="M398.2,48.337V43.3a.631.631,0,0,0-.63-.63h-5.042v1.261h4.412v4.412Z" transform="translate(-363.539 -42.665)"/>
  <path id="Path_414" data-name="Path 414" d="M396.944,396.944h-4.412V398.2h5.042a.631.631,0,0,0,.63-.63v-5.042h-1.261Z" transform="translate(-363.54 -366.691)"/>
  <path id="Path_415" data-name="Path 415" d="M42.665,392.531v5.042a.631.631,0,0,0,.63.63h5.042v-1.261H43.925v-4.412Z" transform="translate(-39.514 -366.69)"/>
</svg>
