<svg xmlns="http://www.w3.org/2000/svg" width="40.466" height="40.452" viewBox="0 0 40.466 40.452">
  <g id="Page-1" transform="translate(0 -0.856)">
    <g id="_001---Eye-Drops" data-name="001---Eye-Drops" transform="translate(0 0.856)">
      <path id="Shape" d="M20.176,23.012c10.052-.019,18.419,5.3,20.155,12.314a.932.932,0,0,1,0,.392c-1.732,7.014-10.1,12.328-20.155,12.328S1.753,42.732.021,35.719a.932.932,0,0,1,0-.392C1.753,28.314,10.116,23,20.176,23" transform="translate(0 -7.594)" fill="#fdd7ad"/>
      <path id="Shape-2" data-name="Shape" d="M20.176,28.008C30.228,28,38.595,31.839,40.331,36.9a.493.493,0,0,1,0,.284c-1.732,5.065-10.1,8.9-20.155,8.9S1.753,42.251.021,37.184a.493.493,0,0,1,0-.284c1.732-5.062,10.1-8.9,20.155-8.9" transform="translate(0 -9.115)" fill="#f9c795"/>
      <path id="Shape-3" data-name="Shape" d="M39.938,37.847a.278.278,0,0,1,0,.221c-1.67,3.893-9.746,6.847-19.457,6.847S2.693,41.961,1.023,38.068a.278.278,0,0,1,0-.221C2.693,33.954,10.769,31,20.48,31S38.268,33.954,39.938,37.847Z" transform="translate(-0.304 -10.028)" fill="#ecf0f1"/>
      <path id="Shape-4" data-name="Shape" d="M34.48,37.957a9.646,9.646,0,0,1-2.372,6.359,45.662,45.662,0,0,1-14.736,0,9.708,9.708,0,0,1,0-12.718,45.662,45.662,0,0,1,14.736,0A9.646,9.646,0,0,1,34.48,37.957Z" transform="translate(-4.564 -10.028)" fill="#3b97d3"/>
      <path id="Shape-5" data-name="Shape" d="M32.746,36.766a2.263,2.263,0,0,0,.689.1A2.435,2.435,0,1,0,31,34.435a2.41,2.41,0,0,0,.1.682v.007Z" transform="translate(-9.432 -10.332)" fill="#ecf0f1"/>
      <circle id="Oval" cx="3.479" cy="3.479" r="3.479" transform="translate(16.697 24.451)" fill="#2c3e50"/>
      <path id="Shape-6" data-name="Shape" d="M55.154,39.535a8.026,8.026,0,0,1-3.6,3.493,12.091,12.091,0,0,1,0-7.208,8.027,8.027,0,0,1,3.6,3.493A.308.308,0,0,1,55.154,39.535Z" transform="translate(-15.518 -11.494)" fill="#f09372"/>
      <path id="Shape-7" data-name="Shape" d="M4.479,39.579a11.836,11.836,0,0,1-.438,3.249A7.4,7.4,0,0,1,1.021,39.69a.308.308,0,0,1,0-.223A7.4,7.4,0,0,1,4.04,36.33,11.837,11.837,0,0,1,4.479,39.579Z" transform="translate(-0.304 -11.65)" fill="#f09372"/>
      <path id="Shape-8" data-name="Shape" d="M41.637,14.445,33.283,21.8a1.391,1.391,0,0,1-1.964-.125l-.522.46a1.391,1.391,0,1,1-1.84-2.088l.522-.46a1.391,1.391,0,0,1,.125-1.964l8.353-7.357Z" transform="translate(-8.668 -3.72)" fill="#67b9cc"/>
      <path id="Shape-9" data-name="Shape" d="M51.627,7.044,48.5,9.806a1.391,1.391,0,0,1-.125,1.962l-.522.459a1.391,1.391,0,0,1-1.962-.125l-4.6-5.218a1.391,1.391,0,0,1,.125-1.962l.522-.466a1.391,1.391,0,0,1,1.948.111l.014.014,1.044-.918,2.094-1.837a3.479,3.479,0,1,1,4.592,5.218Z" transform="translate(-12.458 -0.856)" fill="#955ba5"/>
      <path id="Shape-10" data-name="Shape" d="M48,7.951a.689.689,0,0,1-.459.174.68.68,0,0,1-.522-.237l-1.83-2.08,1.044-.918,1.83,2.08A.7.7,0,0,1,48,7.951Z" transform="translate(-13.75 -2.083)" fill="#894b9d"/>
    </g>
  </g>
</svg>
