<svg xmlns="http://www.w3.org/2000/svg" width="40.141" height="29.399" viewBox="0 0 40.141 29.399">
  <g id="brain" transform="translate(0 -68.505)">
    <g id="Group_934" data-name="Group 934" transform="translate(0.784 69.289)">
      <path id="Path_2529" data-name="Path 2529" d="M32.887,102.053A8.584,8.584,0,0,0,40.693,97a4.671,4.671,0,1,0,5.047-7.689,4.674,4.674,0,0,0-5.658-5.832,6.99,6.99,0,0,0-9.558-2.911,3.893,3.893,0,0,0-6.274-.836,4.672,4.672,0,0,0-7.008,2.743,3.9,3.9,0,0,0-4.673,3.814q0,.151.011.3a4.672,4.672,0,0,0,.4,8.532,3.948,3.948,0,0,0-.02.394,3.9,3.9,0,0,0,4.676,3.813,5.563,5.563,0,0,0,10.495,1.3,8.542,8.542,0,0,0,4.739,1.426h.02Z" transform="translate(-10 -78.504)" fill="#ff9eb1" fill-rule="evenodd"/>
      <path id="Path_2530" data-name="Path 2530" d="M312.939,315.7a4.655,4.655,0,0,1-3.209-1.277,8.584,8.584,0,0,1-7.806,5.053,6.987,6.987,0,0,0,13.236-4.336A4.65,4.65,0,0,1,312.939,315.7Z" transform="translate(-279.037 -295.922)" fill="#ff7d97" fill-rule="evenodd"/>
      <path id="Path_2531" data-name="Path 2531" d="M215.515,365.033a6.979,6.979,0,0,1-2.31-2.929h-.02a8.542,8.542,0,0,1-4.739-1.426,5.582,5.582,0,0,1-2.789,2.725,6.987,6.987,0,0,0,9.857,1.63Z" transform="translate(-190.318 -338.555)" fill="#ff7d97" fill-rule="evenodd"/>
      <path id="Path_2532" data-name="Path 2532" d="M140.89,253.155a5.78,5.78,0,0,1-4.806-1.8q-.091-.091-.178-.185a4.443,4.443,0,0,0-2.732,1.987,4.566,4.566,0,0,0,7.716,0Z" transform="translate(-123.517 -237.631)" fill="#ffc144" fill-rule="evenodd"/>
      <path id="Path_2533" data-name="Path 2533" d="M148.534,196.455a5.78,5.78,0,0,0,4.806,1.8,6.593,6.593,0,0,1-2.423-5.33q0-.013,0-.026a5.577,5.577,0,0,0-4.185-1.252,5.719,5.719,0,0,0,1.624,4.621Q148.443,196.364,148.534,196.455Z" transform="translate(-135.967 -182.733)" fill="#ffcd69" fill-rule="evenodd"/>
      <path id="Path_2534" data-name="Path 2534" d="M200.692,145.878a6.593,6.593,0,0,0,2.423,5.33,6.593,6.593,0,0,0,2.423-5.33c0-.009,0-.017,0-.026a6.587,6.587,0,0,0-2.423-5.3,6.586,6.586,0,0,0-2.422,5.3C200.692,145.861,200.692,145.869,200.692,145.878Z" transform="translate(-185.742 -135.684)" fill="#ffda8f" fill-rule="evenodd"/>
      <path id="Path_2535" data-name="Path 2535" d="M234.016,192.927a6.593,6.593,0,0,1-2.423,5.33,5.78,5.78,0,0,0,4.806-1.8q.091-.091.178-.185a5.72,5.72,0,0,0,1.624-4.621,5.577,5.577,0,0,0-4.185,1.252Z" transform="translate(-214.22 -182.733)" fill="#ffcd69" fill-rule="evenodd"/>
      <path id="Path_2536" data-name="Path 2536" d="M236.4,251.354a5.78,5.78,0,0,1-4.806,1.8,4.566,4.566,0,0,0,7.716,0,4.443,4.443,0,0,0-2.732-1.987Q236.49,251.262,236.4,251.354Z" transform="translate(-214.22 -237.632)" fill="#ffc144" fill-rule="evenodd"/>
    </g>
    <g id="Group_935" data-name="Group 935" transform="translate(0 68.505)">
      <path id="Path_2537" data-name="Path 2537" d="M40.141,84.391a5.45,5.45,0,0,0-2.719-4.72,5.458,5.458,0,0,0-6.155-6.285,7.776,7.776,0,0,0-9.678-3.041,4.676,4.676,0,0,0-6.671-.788A5.458,5.458,0,0,0,7.488,72.4q-.121-.006-.242-.006a4.682,4.682,0,0,0-4.674,4.521A5.457,5.457,0,0,0,2.959,86.4a4.682,4.682,0,0,0,4.675,4.573q.1,0,.195,0a6.336,6.336,0,0,0,8.025,4.1,7.764,7.764,0,0,0,10.128,1.638,7.769,7.769,0,0,0,11.8-7.833,5.452,5.452,0,0,0,2.359-4.488ZM23.455,96.124a6.245,6.245,0,0,1-6.133-1.754A6.371,6.371,0,0,0,19.2,92.5a9.317,9.317,0,0,0,3.962,1.109,7.753,7.753,0,0,0,1.492,2.055A6.192,6.192,0,0,1,23.455,96.124Zm12.861-5.991a6.2,6.2,0,0,1-11.389,3.4c.071-.01.142-.018.212-.029a.784.784,0,0,0-.247-1.548,7.887,7.887,0,0,1-1.24.1,7.762,7.762,0,0,1-4.3-1.293l0,0a7.812,7.812,0,0,1-1.209-.988.784.784,0,0,0-1.109,1.109,9.381,9.381,0,0,0,.862.762,4.778,4.778,0,0,1-8.7-1.669s0-.006,0-.009a4.783,4.783,0,0,1-.088-.915.784.784,0,1,0-1.568,0c0,.119,0,.239.011.358a3.113,3.113,0,0,1-2.951-2.47,5.458,5.458,0,0,0,.863.07.784.784,0,1,0,0-1.568,3.873,3.873,0,0,1-1.408-.264l-.014,0a3.888,3.888,0,0,1-.317-7.095l.01-.006.018-.008a3.907,3.907,0,0,1,1.711-.4h.017a.784.784,0,0,0,0-1.568H5.455a5.46,5.46,0,0,0-1.2.135,3.11,3.11,0,0,1,3.605-2.2l.009,0a3.1,3.1,0,0,1,1.575.847.784.784,0,1,0,1.109-1.109,4.665,4.665,0,0,0-1.505-1.009,3.888,3.888,0,0,1,5.564-1.582l0,0a3.9,3.9,0,0,1,.672.537A.784.784,0,0,0,16.4,70.609c-.035-.035-.072-.069-.109-.1a3.108,3.108,0,0,1,3.912.617c-.065.046-.13.092-.194.14a.784.784,0,1,0,.94,1.255,6.222,6.222,0,0,1,.74-.476l.013-.008a6.206,6.206,0,0,1,8.466,2.579l.006.013a6.23,6.23,0,0,1,.7,2.857.784.784,0,1,0,1.568,0,7.8,7.8,0,0,0-.443-2.581h.048a3.889,3.889,0,0,1,3.735,4.964l0,.013a3.9,3.9,0,0,1-.983,1.659A.784.784,0,1,0,35.9,82.644a5.467,5.467,0,0,0,1.027-1.431,3.887,3.887,0,1,1-4.908,6l0,0A3.885,3.885,0,0,1,30.932,85.4a.784.784,0,0,0-1.515.406,5.452,5.452,0,0,0,1.115,2.123c-.114.213-.237.423-.371.624a.784.784,0,0,0,1.308.865q.14-.212.269-.433a5.459,5.459,0,0,0,4.554.622q.022.264.023.528Z" transform="translate(0 -68.505)"/>
      <path id="Path_2538" data-name="Path 2538" d="M351.868,351.365h0a.784.784,0,1,0,.785.784A.784.784,0,0,0,351.868,351.365Z" transform="translate(-323.559 -329.189)"/>
      <path id="Path_2539" data-name="Path 2539" d="M137.938,139.646a6.28,6.28,0,0,0,1.117-4.382.784.784,0,0,0-.657-.656,5.989,5.989,0,0,0-3.634.667,7.1,7.1,0,0,0-2.628-4.576.784.784,0,0,0-.928,0,7.105,7.105,0,0,0-2.628,4.576,5.986,5.986,0,0,0-3.634-.667.784.784,0,0,0-.657.656,6.278,6.278,0,0,0,1.117,4.382,5.2,5.2,0,0,0-2.121,1.938.784.784,0,0,0,0,.813,5.3,5.3,0,0,0,4.528,2.5,5.361,5.361,0,0,0,3.858-1.63,5.361,5.361,0,0,0,3.858,1.63,5.3,5.3,0,0,0,4.528-2.5.784.784,0,0,0,0-.813A5.2,5.2,0,0,0,137.938,139.646Zm-.393-3.528a5.279,5.279,0,0,1-1.621,3.515,5.687,5.687,0,0,1-2.32,1.423,7.977,7.977,0,0,0,1.266-4.018A5.008,5.008,0,0,1,137.545,136.118Zm-5.873-3.759a6.463,6.463,0,0,1,0,8.6,6.463,6.463,0,0,1,0-8.6Zm-3.2,4.679a7.977,7.977,0,0,0,1.266,4.018,5.685,5.685,0,0,1-2.32-1.423,5.279,5.279,0,0,1-1.621-3.515A5.008,5.008,0,0,1,128.474,137.038Zm-.661,6.291a3.765,3.765,0,0,1-2.9-1.34,3.7,3.7,0,0,1,1.55-1.1,7.1,7.1,0,0,0,3.44,1.818A3.826,3.826,0,0,1,127.814,143.33Zm7.716,0a3.827,3.827,0,0,1-2.092-.62,7.106,7.106,0,0,0,3.44-1.818,3.7,3.7,0,0,1,1.55,1.1A3.765,3.765,0,0,1,135.53,143.33Z" transform="translate(-113.515 -125.682)"/>
    </g>
  </g>
</svg>
