<svg xmlns="http://www.w3.org/2000/svg" width="34.232" height="33.656" viewBox="0 0 34.232 33.656">
  <g id="sports" transform="translate(0 -4.035)">
    <path id="Path_2563" data-name="Path 2563" d="M27.079,14.948A11.4,11.4,0,0,0,10.941,31l.041.045a11.4,11.4,0,1,0,16.1-16.1Z" transform="translate(-7.452 -7.389)" fill="#f15a24"/>
    <path id="Path_2564" data-name="Path 2564" d="M184.209,144.512a10.27,10.27,0,1,1,11.156,7.924" transform="translate(-170.832 -118.802)" fill="#e6e6e6"/>
    <path id="Path_2565" data-name="Path 2565" d="M204.478,141.22a10.213,10.213,0,0,0-1.66-4.533,10.349,10.349,0,0,0-.9-1.141h-.793a.571.571,0,0,0-.548.414l-1.073,3.755-1.745.891-2.91-1.94v-2.252l3.18-2.225a.57.57,0,0,0,.223-.618l-.2-.72a10.3,10.3,0,0,0-7.5-.019l-.238.707a.57.57,0,0,0,.213.65l3.18,2.225v2.25l-2.919,1.946-2.347-.939-1.05-2.624a.575.575,0,0,0-.275-.3l-1.038-.517a10.179,10.179,0,0,0-2.04,5.564c-.011.2-.03.4-.03.6,0,.218.009.434.022.649l.864.432a.57.57,0,0,0,.658-.107l2.587-2.586,2.244.9,1.064,3.724a.57.57,0,0,0,.548.412h4.328l1.255,1.255-1.528,3.056a.57.57,0,0,0,.067.614l1.184,1.465a10.175,10.175,0,0,0,5.876-4.7l-.4-.8a.57.57,0,0,0-.513-.315H198.51l-1.307-1.307.97-3.4,1.772-.905,3.145,2.1a.571.571,0,0,0,.571.036l.883-.442c0-.023,0-.046,0-.069A10.322,10.322,0,0,0,204.478,141.22Z" transform="translate(-170.888 -118.964)" fill="#1a1a1a"/>
    <path id="Path_2566" data-name="Path 2566" d="M56.48,313.323l-1.627-1.492a14.668,14.668,0,0,0-19.822,0L33.4,313.323a1.141,1.141,0,0,0,.087,1.754l1.835,1.376a14.662,14.662,0,0,0,8.8,2.934h1.633a14.662,14.662,0,0,0,8.8-2.934l1.835-1.376a1.141,1.141,0,0,0,.087-1.754Z" transform="translate(-30.678 -282.266)" fill="#ff902a"/>
    <path id="Path_2567" data-name="Path 2567" d="M34.194,22.686A10.844,10.844,0,0,0,23.459,12.592,11.978,11.978,0,1,0,7.075,26.943a15.257,15.257,0,0,0-3.108,2.2L2.34,30.636a1.712,1.712,0,0,0,.129,2.631L4.3,34.643a15.332,15.332,0,0,0,9.144,3.048H15.08a15.332,15.332,0,0,0,9.142-3.048l.646-.484a10.815,10.815,0,0,0,9.363-10.731c0-.149-.017-.294-.022-.442a.562.562,0,0,0-.015-.3Zm-2.3,5.051a.57.57,0,0,0-.513-.315H27.622l-1.307-1.307,1.006-3.521,1.726-.8L32.2,23.9a.571.571,0,0,0,.571.036l.3-.149a9.667,9.667,0,0,1-1.09,4.136ZM25.665,30.16,24.56,29.144a15.257,15.257,0,0,0-3.283-2.293h4.161l1.255,1.255ZM3.934,8.77l7.241,7.242L9.368,17.818a11.944,11.944,0,0,0-7.21-3.081l-.919-.066a10.772,10.772,0,0,1,2.695-5.9Zm6.774-2.582a11.941,11.941,0,0,0,3.085,7.205L11.982,15.2,4.741,7.963a10.771,10.771,0,0,1,5.9-2.693Zm9.328,2.578a10.826,10.826,0,0,1,2.25,3.879,10.764,10.764,0,0,0-5.2,1.984,10.865,10.865,0,0,1-1.678-1.237Zm5.953,5.33.148.44-2.746,1.92-2.746-1.923.148-.44a9.451,9.451,0,0,1,5.2,0Zm.1,8.4c0,.012,0,.025.009.037a.5.5,0,0,0,.035.057l-.893,3.122h-3.7l-.908-3.179,2.76-1.841ZM19.9,21.646l-2.347-.939-1.05-2.624a.571.571,0,0,0-.275-.3l-.513-.258a9.742,9.742,0,0,1,3.709-2.94.571.571,0,0,0,.215.637l3.18,2.228V19.7Zm-4.835-3.169.456.228.921,2.3L14.15,23.3l-.44-.22a9.624,9.624,0,0,1,1.358-4.607Zm1.078-3.087a10.9,10.9,0,0,0-1.674,1.9.57.57,0,0,0-.147.183.582.582,0,0,0-.017.062l-1.519-1.519L14.6,14.2a12.031,12.031,0,0,0,1.546,1.191Zm-4.165,1.426,1.739,1.74a10.75,10.75,0,0,0-1.13,4.108,11.88,11.88,0,0,0-2.416-4.039Zm1.879,8.33c-.046-.256-.089-.513-.114-.771l.263.132a.571.571,0,0,0,.658-.107l2.587-2.586,2.244.9,1.064,3.724a.5.5,0,0,0,.039.083,15.213,15.213,0,0,0-6.336-1.378c-.135,0-.269.006-.4.009Zm17.358-7.423a9.629,9.629,0,0,1,1.826,4.8l-.484.242-2.8-1.867.91-3.179Zm-.963-1.141h-.017A.571.571,0,0,0,29.69,17l-1.069,3.741-1.833.846L23.962,19.7V17.45l3.18-2.225a.571.571,0,0,0,.215-.637,9.731,9.731,0,0,1,2.9,1.994ZM19.223,7.963,14.6,12.584a10.807,10.807,0,0,1-2.755-6.477l-.066-.921A10.8,10.8,0,0,1,19.223,7.963ZM1.157,15.81l.921.066a10.814,10.814,0,0,1,6.481,2.75L3.932,23.253A10.8,10.8,0,0,1,1.157,15.81Zm3.576,8.258,4.635-4.633A10.791,10.791,0,0,1,12.045,25.3a15.175,15.175,0,0,0-3.547.97A10.868,10.868,0,0,1,4.733,24.067Zm18.8,9.663A14.184,14.184,0,0,1,15.08,36.55H13.447A14.184,14.184,0,0,1,4.99,33.731L3.155,32.354a.57.57,0,0,1-.043-.877l1.625-1.492a14.075,14.075,0,0,1,3.937-2.534.566.566,0,0,0,.238-.106,14.063,14.063,0,0,1,14.88,2.64l1.627,1.492a.571.571,0,0,1-.043.877Zm3.053-1.151a1.627,1.627,0,0,0-.091-1.54l1.238-2.477h3.288l.254.508a9.66,9.66,0,0,1-4.69,3.509Z" transform="translate(0 0)"/>
    <path id="Path_2568" data-name="Path 2568" d="M115.992,365.117h-.571v-.571a.571.571,0,0,0-1.141,0v.571h-1.141v-.571a.571.571,0,0,0-1.141,0v.571h-1.141v-.571a.571.571,0,0,0-1.141,0v.571h-1.141v-.571a.571.571,0,0,0-1.141,0v.571h-1.141v-.571a.571.571,0,0,0-1.141,0v.571h-.571a.571.571,0,1,0,0,1.141h.571v.571a.571.571,0,1,0,1.141,0v-.571h1.141v.571a.571.571,0,1,0,1.141,0v-.571h1.141v.571a.571.571,0,1,0,1.141,0v-.571H112v.571a.571.571,0,1,0,1.141,0v-.571h1.141v.571a.571.571,0,1,0,1.141,0v-.571h.571a.571.571,0,1,0,0-1.141Z" transform="translate(-96.593 -334.272)"/>
  </g>
</svg>
