<svg id="bar-chart" xmlns="http://www.w3.org/2000/svg" width="58.226" height="31.054" viewBox="0 0 58.226 31.054">
  <g id="Group_338" data-name="Group 338" transform="translate(0)">
    <g id="Group_337" data-name="Group 337">
      <path id="Path_217" data-name="Path 217" d="M83.4,0a5.829,5.829,0,0,0-5.823,5.823,5.767,5.767,0,0,0,1.17,3.465l-9.5,10.3a5.64,5.64,0,0,0-4.6.8l-6.772-5.077a5.738,5.738,0,0,0,.29-1.725,5.823,5.823,0,0,0-11.645,0,5.738,5.738,0,0,0,.29,1.725l-6.772,5.077a6.062,6.062,0,1,0,2.309,3.118l6.772-5.077a5.793,5.793,0,0,0,6.446,0l6.772,5.077a5.738,5.738,0,0,0-.29,1.725,5.823,5.823,0,0,0,11.645,0,5.767,5.767,0,0,0-1.17-3.465l9.5-10.3a5.762,5.762,0,0,0,1.378.183A5.823,5.823,0,1,0,83.4,0Z" transform="translate(-31)" fill="#fec62d"/>
    </g>
  </g>
</svg>
