<svg xmlns="http://www.w3.org/2000/svg" width="64.428" height="51.543" viewBox="0 0 64.428 51.543">
  <path id="weightlifting" d="M77.207,79.033H76.133v-4.3a3.22,3.22,0,0,0-4.3-3.037v-4.48A3.225,3.225,0,0,0,68.617,64H66.469a3.225,3.225,0,0,0-3.221,3.221V79.033H59.841a3.218,3.218,0,0,0-4.224-1.919,3.218,3.218,0,0,0-4.3-2.148,3.218,3.218,0,0,0-5.255-1.553,3.219,3.219,0,0,0-5.369,2.4v1.074H39.624a3.227,3.227,0,0,0-3.037,2.148H33.181V67.221A3.225,3.225,0,0,0,29.959,64H27.812a3.225,3.225,0,0,0-3.221,3.221V71.7a3.22,3.22,0,0,0-4.3,3.037v4.3H19.221A3.225,3.225,0,0,0,16,82.255V84.4a3.225,3.225,0,0,0,3.221,3.221H20.3v4.3a3.22,3.22,0,0,0,4.3,3.037v4.48a3.225,3.225,0,0,0,3.221,3.221h2.148a3.225,3.225,0,0,0,3.221-3.221V87.624H36.4v3.221a1.074,1.074,0,0,0,.18.6L40.7,97.613v16.856a1.074,1.074,0,0,0,1.074,1.074H56.8a1.074,1.074,0,0,0,1.074-1.074V97.462l2.092-6.277a1.073,1.073,0,0,0,.055-.34V87.624h3.221V99.435a3.225,3.225,0,0,0,3.221,3.221h2.148a3.225,3.225,0,0,0,3.221-3.221v-4.48a3.22,3.22,0,0,0,4.3-3.037v-4.3h1.074A3.225,3.225,0,0,0,80.428,84.4V82.255A3.225,3.225,0,0,0,77.207,79.033Zm-20.4,0a1.075,1.075,0,0,1,1.074,1.074v4.3a1.074,1.074,0,0,1-2.148,0v-4.3A1.075,1.075,0,0,1,56.8,79.033Zm-4.3-2.148a1.075,1.075,0,0,1,1.074,1.074V84.4a1.074,1.074,0,0,1-2.148,0V77.959A1.075,1.075,0,0,1,52.509,76.886Zm-4.3-2.148a1.075,1.075,0,0,1,1.074,1.074V84.4a1.074,1.074,0,0,1-2.148,0v-8.59A1.075,1.075,0,0,1,48.214,74.738ZM44.993,84.4a1.074,1.074,0,0,1-2.148,0V83.328h1.074a3.207,3.207,0,0,0,1.074-.185Zm-2.148-8.59a1.074,1.074,0,0,1,2.148,0v1.074H42.845ZM19.221,85.476A1.075,1.075,0,0,1,18.148,84.4V82.255a1.075,1.075,0,0,1,1.074-1.074H20.3v4.3Zm4.3,7.517a1.075,1.075,0,0,1-1.074-1.074V74.738a1.074,1.074,0,1,1,2.148,0V91.919A1.075,1.075,0,0,1,23.517,92.993Zm7.517,6.443a1.075,1.075,0,0,1-1.074,1.074H27.812a1.075,1.075,0,0,1-1.074-1.074V67.221a1.075,1.075,0,0,1,1.074-1.074h2.148a1.075,1.075,0,0,1,1.074,1.074Zm2.148-13.959v-4.3H36.4v4.3Zm24.7,5.195-2.092,6.278a1.074,1.074,0,0,0-.055.34v16.107H42.845V100.509h3.221a1.074,1.074,0,0,0,0-2.148H42.845V97.288a1.074,1.074,0,0,0-.18-.6L38.55,90.52V80.107a1.075,1.075,0,0,1,1.074-1.074h5.369v1.074a1.075,1.075,0,0,1-1.074,1.074H41.771A1.074,1.074,0,0,0,40.7,82.255v4.3a1.074,1.074,0,0,0,1.074,1.074,5.375,5.375,0,0,1,5.369,5.369,1.074,1.074,0,0,0,2.148,0,7.493,7.493,0,0,0-2.263-5.369H57.878Zm1.963-5.195a3.206,3.206,0,0,0,.185-1.074V81.181h3.221v4.3ZM69.69,99.435a1.075,1.075,0,0,1-1.074,1.074H66.469A1.075,1.075,0,0,1,65.4,99.435V67.221a1.075,1.075,0,0,1,1.074-1.074h2.148a1.075,1.075,0,0,1,1.074,1.074Zm4.3-7.517a1.074,1.074,0,1,1-2.148,0V74.738a1.074,1.074,0,0,1,2.148,0Zm4.3-7.517a1.075,1.075,0,0,1-1.074,1.074H76.133v-4.3h1.074a1.075,1.075,0,0,1,1.074,1.074Z" transform="translate(-16 -64)" fill="#fec62d"/>
</svg>
