<svg xmlns="http://www.w3.org/2000/svg" xmlns:xlink="http://www.w3.org/1999/xlink" width="89.82" height="43.36" viewBox="0 0 89.82 43.36">
  <defs>
    <linearGradient id="linear-gradient" x1="0.5" x2="0.5" y2="1" gradientUnits="objectBoundingBox">
      <stop offset="0" stop-color="#00cb75"/>
      <stop offset="1" stop-color="#ace233"/>
    </linearGradient>
  </defs>
  <path id="Subtraction_6" data-name="Subtraction 6" d="M22.711,48.971a9.05,9.05,0,0,1-1.8-.185V5.612h47V48.889c-.236.018-.472.027-.7.027a10.477,10.477,0,0,1-4.854-1.278,19.154,19.154,0,0,1-4.25-3.14,51.584,51.584,0,0,1-6.293-7.686c-.726-1.026-1.3-1.837-1.743-2.344a6.361,6.361,0,0,0-4.6-2.34,2.753,2.753,0,0,0-.555.047,2.834,2.834,0,0,0-.744-.085,5.942,5.942,0,0,0-4.416,2.378c-.448.512-1.029,1.339-1.764,2.387a51.689,51.689,0,0,1-6.251,7.7,19,19,0,0,1-4.213,3.139,10.314,10.314,0,0,1-4.81,1.278h0Zm55.2-3.8V5.9a15.151,15.151,0,0,1,6.226,2.5,13.9,13.9,0,0,1,3.609,3.757,14.374,14.374,0,0,1,2.075,4.917V34.851c0,1.949-1.11,3.772-3.394,5.574a40.764,40.764,0,0,1-8.514,4.745Zm-67-.449h0a36.079,36.079,0,0,1-7.845-4.608C1,38.387,0,36.666,0,34.851V17.078A13.908,13.908,0,0,1,1.859,12.4a13.676,13.676,0,0,1,3.3-3.674,14.67,14.67,0,0,1,5.75-2.635V44.721Z" transform="translate(0 -5.612)" fill="url(#linear-gradient)"/>
</svg>
