<svg xmlns="http://www.w3.org/2000/svg" width="80.867" height="58.143" viewBox="0 0 80.867 58.143">
  <g id="bounce" transform="translate(0 -71.937)">
    <path id="Path_546" data-name="Path 546" d="M10.075,99.611a16.144,16.144,0,1,0-.073-1.6v.11Q10,98.869,10.075,99.611Z" transform="translate(-8.422 -8.423)" fill="#c4e04c"/>
    <g id="Group_432" data-name="Group 432" transform="translate(0 71.937)">
      <path id="Path_547" data-name="Path 547" d="M74.71,108.122,56.564,126.267,31.3,101a17.619,17.619,0,1,0-7.953,5.442l5.832,5.832a1.579,1.579,0,0,0,2.234-2.234l-4.976-4.976a17.655,17.655,0,0,0,2.63-1.83L52.75,126.922H38.1a1.579,1.579,0,1,0,0,3.159H75.023a1.579,1.579,0,1,0,0-3.159H60.377l16.567-16.566a1.58,1.58,0,0,0-2.234-2.234ZM31.931,86.608A11.532,11.532,0,0,1,20.748,75.415,14.53,14.53,0,0,1,31.931,86.608ZM3.478,92.685a11.456,11.456,0,0,1,7.82,3.374,11.462,11.462,0,0,1,3.373,7.82A14.561,14.561,0,0,1,3.478,92.685ZM24.1,102.726l-.957-.957a1.579,1.579,0,0,0-2.352,2.1,14.66,14.66,0,0,1-2.952.325,14.6,14.6,0,0,0-4.3-10.369,14.593,14.593,0,0,0-10.369-4.3A14.542,14.542,0,0,1,17.585,75.1,14.691,14.691,0,0,0,32.248,89.771h0a14.512,14.512,0,0,1-3.2,8.986l-4.5-4.5a1.579,1.579,0,0,0-2.234,2.234l4.5,4.5A14.472,14.472,0,0,1,24.1,102.726Z" transform="translate(0 -71.937)" fill="#000001"/>
      <path id="Path_548" data-name="Path 548" d="M494.287,276.655a1.58,1.58,0,0,0-2.234-.007l-.078.077a1.579,1.579,0,0,0,2.227,2.24l.078-.077A1.579,1.579,0,0,0,494.287,276.655Z" transform="translate(-413.879 -243.929)" fill="#000001"/>
      <path id="Path_549" data-name="Path 549" d="M204.817,331.053a1.58,1.58,0,0,0-2.24,2.227l.027.027a1.58,1.58,0,1,0,2.24-2.227Z" transform="translate(-170.194 -289.735)" fill="#000001"/>
      <path id="Path_550" data-name="Path 550" d="M249.4,264.469a1.579,1.579,0,0,0,2.234-2.234l-7.255-7.256a1.58,1.58,0,0,0-2.234,2.234Z" transform="translate(-203.508 -225.68)" fill="#000001"/>
    </g>
  </g>
</svg>
