<svg id="XMLID_80_" xmlns="http://www.w3.org/2000/svg" width="59.015" height="59.015" viewBox="0 0 59.015 59.015">
  <g id="XMLID_1311_" transform="translate(1.153 8.875)">
    <path id="XMLID_1297_" d="M225.919,167.1A3.919,3.919,0,0,1,222,163.183V136.3a3.919,3.919,0,1,1,7.838,0v26.884A3.919,3.919,0,0,1,225.919,167.1Z" transform="translate(-197.564 -125.997)" fill="#80b6ff"/>
    <path id="XMLID_1266_" d="M299.913,349.826A9.913,9.913,0,0,1,290,339.913V330h9.913a9.913,9.913,0,0,1,0,19.826Z" transform="translate(-257.726 -300.838)" fill="#ff7d97"/>
    <path id="XMLID_1296_" d="M347.688,391.377A3.688,3.688,0,0,1,344,387.688V384h3.688a3.688,3.688,0,0,1,0,7.377Z" transform="translate(-305.502 -348.614)" fill="#80b6ff"/>
    <path id="XMLID_1265_" d="M59.913,349.826a9.913,9.913,0,0,0,9.913-9.913V330H59.913a9.913,9.913,0,0,0,0,19.826Z" transform="translate(-45.389 -300.838)" fill="#ff7d97"/>
    <path id="XMLID_1067_" d="M314.436,77h-11.7A12.737,12.737,0,0,0,290,89.737v16.425h11.7a12.737,12.737,0,0,0,12.737-12.737Z" transform="translate(-257.726 -77)" fill="#ffcd69"/>
    <circle id="XMLID_1094_" cx="4" cy="4" r="4" transform="translate(42.355 6.632)" fill="#ff7d97"/>
    <circle id="XMLID_1093_" cx="2.5" cy="2.5" r="2.5" transform="translate(38.355 17.632)" fill="#fff"/>
    <path id="XMLID_1066_" d="M10,77H21.7A12.737,12.737,0,0,1,34.436,89.737v16.425h-11.7A12.737,12.737,0,0,1,10,93.425Z" transform="translate(-10 -77)" fill="#ffcd69"/>
    <circle id="XMLID_1096_" cx="4" cy="4" r="4" transform="translate(6.355 6.632)" fill="#ff7d97"/>
    <circle id="XMLID_1095_" cx="2.5" cy="2.5" r="2.5" transform="translate(13.355 17.632)" fill="#fff"/>
    <path id="XMLID_1295_" d="M107.688,391.377a3.688,3.688,0,0,0,3.688-3.688V384h-3.688a3.688,3.688,0,0,0,0,7.377Z" transform="translate(-93.165 -348.614)" fill="#80b6ff"/>
  </g>
  <g id="XMLID_248_" transform="translate(0 0)">
    <path id="XMLID_781_" d="M57.863,7.723h-11.7A13.909,13.909,0,0,0,33.459,16,5.079,5.079,0,0,0,30.7,14.249,12.971,12.971,0,0,1,43.614,2.305a1.153,1.153,0,1,0,0-2.305A15.282,15.282,0,0,0,29.508,9.443,15.282,15.282,0,0,0,15.4,0a1.153,1.153,0,0,0,0,2.305A12.971,12.971,0,0,1,28.316,14.249,5.079,5.079,0,0,0,25.557,16a13.909,13.909,0,0,0-12.7-8.28H1.153A1.153,1.153,0,0,0,0,8.875V25.3A13.914,13.914,0,0,0,9.8,38.576,11.064,11.064,0,1,0,26.52,50.157a5.057,5.057,0,0,0,5.975,0A11.065,11.065,0,1,0,49.211,38.575a13.893,13.893,0,0,0,8.655-7.735,1.153,1.153,0,0,0-2.114-.92,11.588,11.588,0,0,1-10.627,6.964H34.579V21.612A11.6,11.6,0,0,1,46.163,10.028H56.71V20.114a1.153,1.153,0,1,0,2.305,0V8.875A1.153,1.153,0,0,0,57.863,7.723ZM32.274,23.168v4.764H26.741V23.168Zm-5.533,7.07h5.533V35H26.741Zm0,7.07h5.533v4.764H26.741Zm2.766-20.9a2.77,2.77,0,0,1,2.766,2.766v1.685H26.741V19.178A2.77,2.77,0,0,1,29.508,16.411ZM13.889,36.885A11.6,11.6,0,0,1,2.305,25.3V10.028H12.852A11.6,11.6,0,0,1,24.436,21.612V36.885ZM24.436,47.95a8.76,8.76,0,1,1-8.76-8.76h8.76Zm5.072.878a2.77,2.77,0,0,1-2.766-2.766V44.377h5.533v1.685A2.77,2.77,0,0,1,29.508,48.828ZM43.339,39.19a8.76,8.76,0,1,1-8.76,8.76V39.19Z" transform="translate(0 0)"/>
    <path id="XMLID_953_" d="M338.841,383.682a4.841,4.841,0,0,0,0-9.682h-3.688A1.153,1.153,0,0,0,334,375.153v3.688A4.847,4.847,0,0,0,338.841,383.682Zm-2.536-7.377h2.536a2.536,2.536,0,1,1-2.536,2.536Z" transform="translate(-295.502 -330.891)"/>
    <path id="XMLID_1045_" d="M381.682,127.841a4.841,4.841,0,1,0-4.841,4.841A4.847,4.847,0,0,0,381.682,127.841Zm-7.377,0a2.536,2.536,0,1,1,2.536,2.536A2.539,2.539,0,0,1,374.305,127.841Z" transform="translate(-329.122 -108.822)"/>
    <path id="XMLID_1048_" d="M336,223.688A3.688,3.688,0,1,0,339.688,220,3.693,3.693,0,0,0,336,223.688Zm5.072,0a1.383,1.383,0,1,1-1.383-1.383A1.385,1.385,0,0,1,341.072,223.688Z" transform="translate(-297.271 -194.642)"/>
    <path id="XMLID_1144_" d="M102.53,374H98.841a4.841,4.841,0,1,0,4.841,4.841v-3.688A1.153,1.153,0,0,0,102.53,374Zm-1.153,4.841a2.536,2.536,0,1,1-2.536-2.536h2.536Z" transform="translate(-83.165 -330.891)"/>
    <path id="XMLID_1161_" d="M65.682,127.841a4.841,4.841,0,1,0-4.841,4.841A4.847,4.847,0,0,0,65.682,127.841Zm-4.841,2.536a2.536,2.536,0,1,1,2.536-2.536A2.539,2.539,0,0,1,60.841,130.377Z" transform="translate(-49.545 -108.822)"/>
    <path id="XMLID_1169_" d="M115.688,220a3.688,3.688,0,1,0,3.688,3.688A3.693,3.693,0,0,0,115.688,220Zm0,5.072a1.383,1.383,0,1,1,1.383-1.383A1.385,1.385,0,0,1,115.688,225.072Z" transform="translate(-99.09 -194.642)"/>
    <path id="XMLID_1180_" d="M493.153,209.5a1.153,1.153,0,1,0,.815.338A1.161,1.161,0,0,0,493.153,209.5Z" transform="translate(-435.29 -185.352)"/>
  </g>
</svg>
