<svg xmlns="http://www.w3.org/2000/svg" width="60.144" height="55.013" viewBox="0 0 60.144 55.013">
  <g id="focus_2_" data-name="focus (2)" transform="translate(-45 -62.999)">
    <path id="Path_598" data-name="Path 598" d="M152.669,135.16A17.24,17.24,0,1,1,135.43,152.4a17.24,17.24,0,0,1,17.239-17.24Zm12.7,17.239a12.7,12.7,0,1,0-12.7,12.673A12.7,12.7,0,0,0,165.372,152.4Z" transform="translate(-77.542 -61.877)" fill="#00efd1"/>
    <path id="Path_599" data-name="Path 599" d="M179.963,167.21a12.672,12.672,0,1,1-12.7,12.672A12.672,12.672,0,0,1,179.963,167.21Z" transform="translate(-104.835 -89.359)" fill="#fedb41"/>
    <path id="Path_600" data-name="Path 600" d="M46.14,77.69a1.14,1.14,0,0,0,1.14-1.14V65.279h11.3a1.14,1.14,0,1,0,0-2.28H46.146A1.127,1.127,0,0,0,45,64.118V76.55A1.14,1.14,0,0,0,46.14,77.69Z" transform="translate(0 0)" fill="#083863"/>
    <path id="Path_601" data-name="Path 601" d="M377.294,63H364.86a1.14,1.14,0,1,0,0,2.28h11.3V76.55a1.14,1.14,0,0,0,2.28,0V64.118A1.127,1.127,0,0,0,377.294,63Z" transform="translate(-273.296)" fill="#083863"/>
    <path id="Path_602" data-name="Path 602" d="M377.3,345.92a1.14,1.14,0,0,0-1.14,1.14v11.271h-11.3a1.14,1.14,0,1,0,0,2.28h12.433a1.127,1.127,0,0,0,1.146-1.119V347.06A1.14,1.14,0,0,0,377.3,345.92Z" transform="translate(-273.296 -242.599)" fill="#083863"/>
    <path id="Path_603" data-name="Path 603" d="M58.579,358.331H47.28V347.06a1.14,1.14,0,1,0-2.28,0v12.432a1.127,1.127,0,0,0,1.146,1.119H58.579a1.14,1.14,0,1,0,0-2.28Z" transform="translate(0 -242.599)" fill="#083863"/>
    <path id="Path_604" data-name="Path 604" d="M173.1,159.21a13.812,13.812,0,1,0,13.843,13.812A13.843,13.843,0,0,0,173.1,159.21Zm0,25.344a11.532,11.532,0,1,1,11.563-11.533A11.532,11.532,0,0,1,173.1,184.554Z" transform="translate(-97.976 -82.499)" fill="#083863"/>
    <path id="Path_605" data-name="Path 605" d="M136.242,119.309h3.423a1.14,1.14,0,0,0,0-2.28h-3.424a18.385,18.385,0,0,0-17.258-17.186V96.4a1.14,1.14,0,0,0-2.28,0v3.443a18.4,18.4,0,0,0-17.147,17.186H96.02a1.14,1.14,0,1,0,0,2.28h3.535A18.426,18.426,0,0,0,116.7,136.53v3.407a1.14,1.14,0,0,0,2.28,0V136.53A18.418,18.418,0,0,0,136.242,119.309ZM117.9,134.286a16.1,16.1,0,1,1,16.1-16.1A16.1,16.1,0,0,1,117.9,134.286Z" transform="translate(-42.771 -27.663)" fill="#083863"/>
  </g>
</svg>
