<svg xmlns="http://www.w3.org/2000/svg" width="55.875" height="60.063" viewBox="0 0 55.875 60.063">
  <g id="clap" transform="translate(-17.849)">
    <path id="Path_342" data-name="Path 342" d="M136.862,112.973h0c-1.667.077-5.761,1.123-7.1,2.113l-2.9,2.205-11.436-14.965a8.863,8.863,0,0,0,2.8-2.978l5.424-14.635c.695-1.83,1.66-2.684,3.236-2.473h0a2.88,2.88,0,0,1,2.473,3.236l-.836,5.764a.59.59,0,0,0,.942.553l18.1-13.825a2.922,2.922,0,0,1,4.042.44,2.88,2.88,0,0,1-.493,4.1l2.67-2.04a2.88,2.88,0,0,1,4.037.54h0a2.88,2.88,0,0,1-.54,4.037l-3.27,2.5a2.88,2.88,0,0,1,4.037.54h0a2.88,2.88,0,0,1-.54,4.037l-3.164,2.418a2.88,2.88,0,0,1,4.037.54h0a2.88,2.88,0,0,1-.54,4.037l-16.328,12.2A8.448,8.448,0,0,1,136.862,112.973Z" transform="translate(-86.128 -68.281)" fill="#f4c892"/>
    <g id="Group_379" data-name="Group 379" transform="translate(54.167 11.814)">
      <path id="Path_343" data-name="Path 343" d="M397.636,221.564h0a2.865,2.865,0,0,0-1.179-.909,2.878,2.878,0,0,1-1.107,2.657l-7.73,5.783a2.853,2.853,0,0,0-.559,4.015h0L397.1,225.6A2.88,2.88,0,0,0,397.636,221.564Z" transform="translate(-379.548 -206.584)" fill="#e2b583"/>
      <path id="Path_344" data-name="Path 344" d="M367.805,168.391l3.162-2.416a2.882,2.882,0,0,0,.542-4.039h0a2.866,2.866,0,0,0-1.182-.91,2.878,2.878,0,0,1-1.108,2.653l-3.164,2.418-7.667,5.856a2.887,2.887,0,0,0-.543,4.046h0Z" transform="translate(-353.755 -153.95)" fill="#e2b583"/>
      <path id="Path_345" data-name="Path 345" d="M344.42,105.654a2.88,2.88,0,0,0,.54-4.037h0a2.865,2.865,0,0,0-1.183-.91,2.878,2.878,0,0,1-1.108,2.652l-14.1,10.771a2.889,2.889,0,0,0-.543,4.048h0Z" transform="translate(-327.434 -100.707)" fill="#e2b583"/>
    </g>
    <path id="Path_346" data-name="Path 346" d="M311.938,84.1a2.88,2.88,0,0,0,.493-4.1,2.8,2.8,0,0,0-1.133-.841,2.879,2.879,0,0,1-1.11,2.643l-11.431,8.732a2.888,2.888,0,0,0-.543,4.046h0Z" transform="translate(-246.953 -69.879)" fill="#efcebd"/>
    <path id="Path_347" data-name="Path 347" d="M210.4,43.547h0c-.949,1.373-2.6,5.263-2.625,6.932l0,3.641-18.834.028a8.864,8.864,0,0,0-.669-4.036L179.911,36.93a2.88,2.88,0,0,1-.006-4.073h0a2.88,2.88,0,0,1,4.073-.006l4.078,4.158a.59.59,0,0,0,1.011-.414l-.031-22.773a2.922,2.922,0,0,1,2.8-2.948,2.88,2.88,0,0,1,2.961,2.875l-.005-3.36A2.88,2.88,0,0,1,197.667,7.5h0a2.88,2.88,0,0,1,2.885,2.876l.006,4.115a2.88,2.88,0,0,1,2.876-2.884h0a2.88,2.88,0,0,1,2.884,2.876l.006,3.982a2.88,2.88,0,0,1,2.876-2.884h0a2.88,2.88,0,0,1,2.884,2.876l-.191,20.381A8.446,8.446,0,0,1,210.4,43.547Z" transform="translate(-142.303 -6.623)" fill="#fed9a8"/>
    <g id="Group_380" data-name="Group 380" transform="translate(48.176 0.88)">
      <path id="Path_348" data-name="Path 348" d="M425.2,76.375h0a2.866,2.866,0,0,0-1.428.381,2.878,2.878,0,0,1,1.449,2.494l-.085,9.67a2.839,2.839,0,0,0,2.839,2.864h0l.11-12.534A2.88,2.88,0,0,0,425.2,76.375Z" transform="translate(-406.48 -68.295)" fill="#f4c892"/>
      <path id="Path_349" data-name="Path 349" d="M378.842,49.365l-.006-3.982a2.88,2.88,0,0,0-2.884-2.876h0a2.866,2.866,0,0,0-1.441.389,2.878,2.878,0,0,1,1.434,2.486l.006,3.982.012,9.7A2.839,2.839,0,0,0,378.8,61.9h.055Z" transform="translate(-362.997 -38.401)" fill="#f4c892"/>
      <path id="Path_350" data-name="Path 350" d="M329.668,10.377A2.88,2.88,0,0,0,326.784,7.5h0a2.867,2.867,0,0,0-1.443.39,2.878,2.878,0,0,1,1.433,2.485l.024,17.8a2.839,2.839,0,0,0,2.839,2.835h.059Z" transform="translate(-319.595 -7.502)" fill="#f4c892"/>
      <path id="Path_351" data-name="Path 351" d="M280.681,39.1a2.88,2.88,0,0,0-2.961-2.875,2.8,2.8,0,0,0-1.357.393A2.879,2.879,0,0,1,277.79,39.1l.019,14.435a2.839,2.839,0,0,0,2.839,2.835h.056Z" transform="translate(-276.364 -32.851)" fill="#f4c892"/>
    </g>
    <path id="Path_352" data-name="Path 352" d="M86.815,276.406l11.946,15.633a.778.778,0,0,0,1.091.146l3.434-2.624a.778.778,0,0,0,.146-1.091L91.486,272.837a.778.778,0,0,0-1.091-.146l-3.434,2.624A.778.778,0,0,0,86.815,276.406Z" transform="translate(-60.734 -240.56)" fill="#fff"/>
    <path id="Path_353" data-name="Path 353" d="M147.275,356.768l3.434-2.624a.778.778,0,0,0,.146-1.091l-5.621-7.356-4.854,3.331,5.8,7.595A.779.779,0,0,0,147.275,356.768Z" transform="translate(-108.157 -305.143)" fill="#f7f7f7"/>
    <path id="Path_354" data-name="Path 354" d="M25.521,291.856,39.1,309.63a.838.838,0,0,0,1.21.128l6.446-5.521a.838.838,0,0,0,.121-1.145L33.873,286.069a.838.838,0,0,0-1.136-.184l-7.021,4.77A.838.838,0,0,0,25.521,291.856Z" transform="translate(-6.62 -252.22)" fill="#7ab8dd"/>
    <path id="Path_355" data-name="Path 355" d="M123.853,397.017l-3.721-4.87a.847.847,0,0,1-.175,1.078l-6.518,5.583a.847.847,0,0,1-.888.134l3.525,4.613a.838.838,0,0,0,1.21.128l6.446-5.521A.838.838,0,0,0,123.853,397.017Z" transform="translate(-83.591 -346.144)" fill="#6fa9d4"/>
    <path id="Path_356" data-name="Path 356" d="M252.9,391.775l19.675-.03a.779.779,0,0,0,.777-.78l-.007-4.322a.779.779,0,0,0-.78-.777l-19.675.03a.779.779,0,0,0-.777.78l.007,4.322A.778.778,0,0,0,252.9,391.775Z" transform="translate(-206.781 -340.6)" fill="#fff"/>
    <path id="Path_357" data-name="Path 357" d="M352.582,385.867l-9.818.015v5.879l9.827-.015a.778.778,0,0,0,.777-.78l-.007-4.322A.778.778,0,0,0,352.582,385.867Z" transform="translate(-286.799 -340.601)" fill="#f7f7f7"/>
    <path id="Path_358" data-name="Path 358" d="M241.116,427.878l22.37-.034a.838.838,0,0,0,.835-.886l-.486-8.474a.838.838,0,0,0-.837-.79l-21.424.032a.838.838,0,0,0-.835.792l-.46,8.475A.838.838,0,0,0,241.116,427.878Z" transform="translate(-196.335 -368.695)" fill="#7ab8dd"/>
    <path id="Path_359" data-name="Path 359" d="M269.711,426.959l-.486-8.474a.838.838,0,0,0-.837-.79l-6.5.01a.837.837,0,0,1,.714.78l.486,8.474a.838.838,0,0,1-.835.886l-15.87.024a.847.847,0,0,0,.123.01l22.37-.034A.838.838,0,0,0,269.711,426.959Z" transform="translate(-201.724 -368.695)" fill="#6fa9d4"/>
    <path id="Path_360" data-name="Path 360" d="M272.164,224.841h-7.979a3.212,3.212,0,0,0-3.212,3.216v.373a4.777,4.777,0,0,1-1.4,3.406,4.858,4.858,0,0,1-3.415,1.416h-.028a.378.378,0,0,0-.326.579l3.678,5.8.006.01a2.308,2.308,0,0,0,1.92,1.055h8.229a2.3,2.3,0,0,0,2.2-1.637,25.924,25.924,0,0,1,2.77-6.074,4.2,4.2,0,0,0,.748-2.347l.024-2.559A3.212,3.212,0,0,0,272.164,224.841Z" transform="translate(-209.986 -198.465)" fill="#ffe0bb"/>
    <path id="Path_361" data-name="Path 361" d="M72.953,26.26a3.746,3.746,0,0,0-1.67-1.241l.631-.483a3.761,3.761,0,0,0-.967-6.51l.74-.565a3.76,3.76,0,0,0-1.148-6.572A3.763,3.763,0,0,0,66.9,8.08H66.9a3.741,3.741,0,0,0-2,.58v-.8a3.76,3.76,0,0,0-3.76-3.755h-.006a3.737,3.737,0,0,0-2,.578v-.93A3.76,3.76,0,0,0,55.368,0h-.006a3.76,3.76,0,0,0-3.754,3.766V3.94a3.725,3.725,0,0,0-2.1-.57A3.818,3.818,0,0,0,45.853,7.2l.018,13.272-2.5,1.91.736-5.07a3.764,3.764,0,0,0-3.229-4.225C38,12.7,37.023,15.274,36.7,16.126l-1.523,4.109a.88.88,0,0,0,1.65.612l1.52-4.1c.74-1.95,1.574-2.01,2.3-1.913a2,2,0,0,1,1.719,2.238l-.836,5.764a1.47,1.47,0,0,0,2.347,1.379l2-1.528.009,6.578L42.3,25.6a3.764,3.764,0,0,0-5.318.008q-.067.067-.131.138l0,0a3.76,3.76,0,0,0-.18,4.81l.005.007c.034.043.069.086.1.128l.015.018q.059.069.122.135l0,0L45.22,43.961c.013.02.027.04.041.059l0,.008.008.014.01.022,0,.008.013.031,0,.007.016.04,0,.006c.023.061.05.141.079.242l.009.031.015.056.012.045.007.026a1.662,1.662,0,0,0-.8.736,7.413,7.413,0,0,0-1.539.8L43.1,46.1l-.424.322L33.552,34.491l-1.425-1.865a4.092,4.092,0,0,0,.811-1.282l2.442-6.588a.88.88,0,1,0-1.65-.612l-2.453,6.618c-.008.023-.016.046-.022.069a2.481,2.481,0,0,1-.316.47,1.66,1.66,0,0,0-1.811.132l-1.8,1.376a1.718,1.718,0,0,0-1.7.13L18.6,37.707a1.717,1.717,0,0,0-.4,2.464L31.785,57.945a1.718,1.718,0,0,0,2.482.261l6.446-5.521a1.718,1.718,0,0,0,.573-1.61l1.8-1.376a1.654,1.654,0,0,0,.575-1.813l.5-.377a2.98,2.98,0,0,1,.3-.187l0,1.02a1.718,1.718,0,0,0-.929,1.434l-.46,8.475a1.718,1.718,0,0,0,1.715,1.811h0l22.37-.034a1.718,1.718,0,0,0,1.712-1.816l-.486-8.474a1.718,1.718,0,0,0-.933-1.431l0-2.266a1.654,1.654,0,0,0-1.094-1.556v-.622a10.529,10.529,0,0,1,.766-2.9.88.88,0,0,0-1.647-.621,12.219,12.219,0,0,0-.879,3.5s0,.009,0,.014v.532l-7.42.011-9.949.015a4.048,4.048,0,0,0-.528-1.42v0L38.351,29.836a.887.887,0,0,0-.122-.152,2,2,0,0,1,2.817-2.84L45.125,31a1.47,1.47,0,0,0,2.519-1.032L47.632,20.9h0L47.613,7.2A2.046,2.046,0,0,1,49.557,5.13a2,2,0,0,1,2.056,2h0l.023,17.27a.88.88,0,0,0,.88.879h0a.88.88,0,0,0,.879-.881l-.023-17.27h0l-.005-3.36a2,2,0,0,1,2-2h0a2,2,0,0,1,2,2v0L57.4,24.388a.88.88,0,0,0,.88.879h0a.88.88,0,0,0,.879-.881l-.023-16.5s0-.007,0-.011a2,2,0,0,1,2-2h0a2,2,0,0,1,2,2l.022,16.515a.88.88,0,0,0,.88.879h0a.88.88,0,0,0,.879-.881L64.9,11.856s0-.009,0-.013a2,2,0,0,1,2-2h0a2,2,0,0,1,2,1.981s0,.007,0,.01L68.71,32.207c0,.06,0,.12-.005.18v.006h0a7.533,7.533,0,0,1-1.335,4.031.88.88,0,0,0,1.448,1,9.287,9.287,0,0,0,1.621-4.541l1.81-1.352A3.765,3.765,0,0,0,72.953,26.26Zm-39.8,30.581-13.528-17.7,6.95-4.722,12.96,16.959Zm7.212-7.279L28.545,34.091l1.569-1.2.164.214v0l8.511,11.138,3.146,4.118Zm26.2.318h.056l.481,8.389-22.28.034.456-8.39L55.921,49.9Zm-7-3.725,5.9-.009h.213l0,1.975-9.736.015-9.736.015,0-1.975ZM70.651,12.908a2,2,0,0,1-.03,3.152Zm-.065,6.882a2,2,0,0,1,.26,3.348l-.293.224Zm1.362,9.018a1.982,1.982,0,0,1-.76,1.318l-.7.525.038-4.032a2,2,0,0,1,1.426,2.188Z" transform="translate(0 0)"/>
  </g>
</svg>
