<svg xmlns="http://www.w3.org/2000/svg" width="52.942" height="60.685" viewBox="0 0 52.942 60.685">
  <g id="woman" transform="translate(-32.664)">
    <g id="Group_390" data-name="Group 390" transform="translate(33.849 1.185)">
      <g id="Group_382" data-name="Group 382" transform="translate(0)">
        <g id="Group_381" data-name="Group 381">
          <path id="Path_362" data-name="Path 362" d="M93.236,45.4V28.64A18.64,18.64,0,0,0,74.6,10H61.3a18.64,18.64,0,0,0-18.64,18.64V59.476A8.838,8.838,0,0,0,51.5,68.314H84.4a8.838,8.838,0,0,0,8.838-8.838V56.112" transform="translate(-42.665 -10)" fill="#fff2a0"/>
        </g>
      </g>
      <g id="Group_389" data-name="Group 389" transform="translate(4.417 14.649)">
        <g id="Group_384" data-name="Group 384">
          <g id="Group_383" data-name="Group 383">
            <path id="Path_363" data-name="Path 363" d="M119.678,144.884s-2.821-8.348-2.844-8.359c-7.379-3.909-24.684-3.909-32.063,0-.023.011-2.844,8.359-2.844,8.359a3.312,3.312,0,0,0-1.9,2.712s-.7,6.361,1.808,6.361H82.3c.453,5.105,1.252,6.319,2.143,7.962,1.731,3.2,6.811,7.1,11.523,9.427l-.451,5.913h10.577l-.451-5.913c4.71-2.323,9.789-6.23,11.523-9.427.891-1.643,1.689-2.857,2.143-7.962h.468c2.5,0,1.808-6.361,1.808-6.361A3.312,3.312,0,0,0,119.678,144.884Z" transform="translate(-79.935 -133.593)" fill="#ffd0c7"/>
          </g>
        </g>
        <g id="Group_388" data-name="Group 388" transform="translate(13.524 26.824)">
          <g id="Group_387" data-name="Group 387">
            <g id="Group_386" data-name="Group 386">
              <g id="Group_385" data-name="Group 385">
                <path id="Path_364" data-name="Path 364" d="M208.725,361.639h0l-.108-.018a8.345,8.345,0,0,1-2.741-1.2c-1.09-.7-7.964-.654-8.982,0a8.359,8.359,0,0,1-2.736,1.2l-.094.016-.023,0h0a11,11,0,0,1,2.3,1.614c1.508,1.505,8.579,1.505,10.087,0a11,11,0,0,1,2.3-1.614h0Z" transform="translate(-194.038 -359.911)" fill="#ff7d97"/>
              </g>
            </g>
          </g>
        </g>
      </g>
    </g>
    <g id="Group_411" data-name="Group 411" transform="translate(32.664 0)">
      <g id="Group_397" data-name="Group 397" transform="translate(30.427 28.552)">
        <g id="Group_396" data-name="Group 396">
          <g id="Group_395" data-name="Group 395">
            <g id="Group_394" data-name="Group 394">
              <g id="Group_393" data-name="Group 393">
                <g id="Group_392" data-name="Group 392">
                  <g id="Group_391" data-name="Group 391">
                    <path id="Path_365" data-name="Path 365" d="M294.621,245.739c-2.762,0-4.793-2.653-5.015-2.956a1.185,1.185,0,1,1,1.91-1.4c.41.551,1.773,1.989,3.105,1.989,1.479,0,3.759-1.627,4.441-2.2a1.185,1.185,0,1,1,1.52,1.819c-.336.281-3.363,2.748-5.961,2.748Z" transform="translate(-289.375 -240.896)"/>
                  </g>
                </g>
              </g>
            </g>
          </g>
        </g>
      </g>
      <g id="Group_404" data-name="Group 404" transform="translate(10.883 28.552)">
        <g id="Group_403" data-name="Group 403">
          <g id="Group_402" data-name="Group 402">
            <g id="Group_401" data-name="Group 401">
              <g id="Group_400" data-name="Group 400">
                <g id="Group_399" data-name="Group 399">
                  <g id="Group_398" data-name="Group 398">
                    <path id="Path_366" data-name="Path 366" d="M130.875,245.74c-2.6,0-5.624-2.467-5.961-2.748a1.185,1.185,0,0,1,1.519-1.82c1.02.85,3.129,2.2,4.442,2.2,1.333,0,2.695-1.438,3.107-1.992a1.185,1.185,0,0,1,1.908,1.407C135.667,243.086,133.637,245.74,130.875,245.74Z" transform="translate(-124.488 -240.896)"/>
                  </g>
                </g>
              </g>
            </g>
          </g>
        </g>
      </g>
      <g id="Group_407" data-name="Group 407" transform="translate(17.942 41.473)">
        <g id="Group_406" data-name="Group 406">
          <g id="Group_405" data-name="Group 405">
            <path id="Path_367" data-name="Path 367" d="M192.567,356.751c-1.324,0-4.547-.144-5.881-1.475a9.409,9.409,0,0,0-2-1.4q-.049-.025-.1-.055a1.185,1.185,0,0,1,.437-2.169l.1-.016a7.24,7.24,0,0,0,2.316-1.031c.88-.566,3.26-.691,5.1-.7s4.252.111,5.162.7a7.223,7.223,0,0,0,2.319,1.032l.089.015.021,0a1.186,1.186,0,0,1,.3,2.232,9.372,9.372,0,0,0-1.982,1.387C197.114,356.607,193.891,356.751,192.567,356.751Zm-4.739-3.632c.186.152.366.313.533.479.326.325,1.846.783,4.206.783s3.881-.458,4.206-.783c.167-.167.348-.327.533-.479-.275-.144-.565-.311-.867-.5a14.362,14.362,0,0,0-3.794-.334h-.082a15.356,15.356,0,0,0-3.874.338C188.389,352.81,188.1,352.976,187.828,353.119Zm8.59-.519,0,0Z" transform="translate(-184.038 -349.91)"/>
          </g>
        </g>
      </g>
      <path id="Path_368" data-name="Path 368" d="M84.421,37.766a1.185,1.185,0,0,0,1.185-1.185V19.825A19.848,19.848,0,0,0,65.781,0H52.489A19.848,19.848,0,0,0,32.664,19.825V50.662A10.035,10.035,0,0,0,42.687,60.685h32.9A10.035,10.035,0,0,0,85.606,50.662V47.3a1.185,1.185,0,0,0-2.37,0v3.365a7.661,7.661,0,0,1-7.653,7.653H65.522l-.307-4.029c4.257-2.228,9.4-6.023,11.323-9.56l.143-.262c.808-1.477,1.574-2.878,2.039-7.154a2.491,2.491,0,0,0,1.259-.776c1.545-1.724,1.22-5.816,1.12-6.768a4.669,4.669,0,0,0-2.128-3.5c-.249-.737-.749-2.215-1.251-3.695-.354-1.045-.709-2.09-.977-2.875-.134-.394-.247-.723-.327-.953-.18-.52-.28-.81-.7-1.027-7.752-4.1-25.4-4.1-33.155,0-.423.217-.523.507-.7,1.027-.08.23-.192.559-.327.953-.268.785-.623,1.83-.977,2.875-.5,1.479-1,2.957-1.251,3.695a4.669,4.669,0,0,0-2.128,3.5c-.1.952-.426,5.044,1.12,6.768a2.491,2.491,0,0,0,1.259.776c.465,4.275,1.231,5.677,2.039,7.153l.143.262c1.916,3.538,7.064,7.333,11.323,9.561l-.307,4.029H42.687a7.661,7.661,0,0,1-7.653-7.653V19.825A17.474,17.474,0,0,1,52.489,2.37H65.781A17.474,17.474,0,0,1,83.235,19.825V36.581a1.185,1.185,0,0,0,1.185,1.185Zm-29.6,14.758c-4.877-2.4-9.505-6.16-11-8.929l-.147-.27c-.778-1.423-1.45-2.652-1.857-7.232a1.185,1.185,0,0,0-1.181-1.08h-.468c-.037,0-.052,0-.107-.061-.586-.653-.727-3.1-.523-4.985a1.176,1.176,0,0,0,.007-.129,2.417,2.417,0,0,1,1-1.561,1.185,1.185,0,0,0,.843-.772c.914-2.7,2.24-6.617,2.68-7.9C47.42,17.983,53,17.019,59.135,17.019s11.715.963,15.072,2.589c.441,1.279,1.766,5.192,2.68,7.9a1.185,1.185,0,0,0,.843.772,2.417,2.417,0,0,1,1,1.56,1.174,1.174,0,0,0,.007.129c.18,1.644.1,4.292-.522,4.985-.055.061-.07.061-.107.061h-.468a1.185,1.185,0,0,0-1.181,1.08c-.407,4.58-1.079,5.809-1.857,7.232l-.147.27c-1.5,2.769-6.13,6.524-11.005,8.929a1.185,1.185,0,0,0-.657,1.153l.354,4.637H55.125l.354-4.637a1.185,1.185,0,0,0-.658-1.153Z" transform="translate(-32.664 0)"/>
      <g id="Group_410" data-name="Group 410" transform="translate(50.573 40.778)">
        <g id="Group_409" data-name="Group 409" transform="translate(0)">
          <g id="Group_408" data-name="Group 408">
            <path id="Path_369" data-name="Path 369" d="M460.536,346.417a1.185,1.185,0,1,1,1.169-.993A1.2,1.2,0,0,1,460.536,346.417Z" transform="translate(-459.352 -344.049)"/>
          </g>
        </g>
      </g>
    </g>
  </g>
</svg>
