<svg xmlns="http://www.w3.org/2000/svg" xmlns:xlink="http://www.w3.org/1999/xlink" width="75" height="49.718" viewBox="0 0 75 49.718">
  <defs>
    <linearGradient id="linear-gradient" x1="0.5" x2="0.5" y2="1" gradientUnits="objectBoundingBox">
      <stop offset="0" stop-color="#5558ff"/>
      <stop offset="1" stop-color="#00c0ff"/>
    </linearGradient>
  </defs>
  <g id="noun_Eye_415128" transform="translate(46.779 52.595)">
    <g id="Group_423" data-name="Group 423" transform="translate(-46.779 -52.595)">
      <g id="Group_422" data-name="Group 422" transform="translate(0 0)">
        <g id="Group_421" data-name="Group 421">
          <path id="Path_416" data-name="Path 416" d="M35.374-6.928c-3.758-1.656-8.138-4.264-10.736-7.49,2.732.853,5.4,2.011,8.123,2.944a52.22,52.22,0,0,0,10.772,2.51q.961.118,1.934.184A17.1,17.1,0,0,1,32.659-25.322a17.038,17.038,0,0,1,5.777-12.8,52.6,52.6,0,0,0-8.6,3.3A81.871,81.871,0,0,0,19.614-28.7c-2.125,1.435-4.2,3.035-6.393,4.353a42.4,42.4,0,0,1,9.74-10.583,45.664,45.664,0,0,1,9.366-5.831,40.745,40.745,0,0,1,8.436-2.9c9.522-2.071,18.05-.69,26.894,3.2a43.883,43.883,0,0,1,5.752,3.057A62.6,62.6,0,0,1,82.74-30.4c1.183,1.106,2.346,2.244,3.417,3.46.734.834,1.353,1.733,2.062,2.565a20.15,20.15,0,0,1-2.66-1.466c-1.492-.913-2.984-1.836-4.482-2.737-3.471-2.085-6.9-4.059-10.562-5.8-1.067-.507-2.193-1.024-3.295-1.449-1.975-.761-3.908-1.453-5.872-2.03a17.035,17.035,0,0,1,5.474,12.525A17.1,17.1,0,0,1,55.8-9.347,49.41,49.41,0,0,0,66.808-12.6c2.487-1.064,4.882-2.162,7.27-3.44,3.644-1.949,7.153-4.1,10.7-6.214.782-.465,1.579-.888,2.377-1.324.337-.184.7-.327,1.027-.524a19.988,19.988,0,0,1-3.043,3.892,54.324,54.324,0,0,1-9.426,7.937C63.768-4.29,48.939-.954,35.374-6.928ZM54.323-33.652a7.365,7.365,0,0,0-7.361-7.361A7.365,7.365,0,0,0,39.6-33.652a7.364,7.364,0,0,0,7.361,7.36A7.364,7.364,0,0,0,54.323-33.652Zm30.143.531c-2.2-1.246-4.394-2.513-6.6-3.758-3.293-1.86-6.7-3.716-10.168-5.236-2.028-.89-4.005-1.674-6.086-2.431A49.364,49.364,0,0,0,34.131-46.43a69.5,69.5,0,0,0-8.552,2.459c-.975.357-1.975.684-2.958,1.024-1.154.4-2.337.822-3.525,1.1,3.072-3.931,8.073-6.926,12.645-8.8,14.466-5.942,29.924-2.376,42.6,5.985a56.693,56.693,0,0,1,9.922,8.285,34.09,34.09,0,0,1,2.68,3.174c.451.615.825,1.285,1.273,1.886A20.125,20.125,0,0,1,84.466-33.12Z" transform="translate(-13.221 53.595)" fill-rule="evenodd" fill="url(#linear-gradient)"/>
        </g>
      </g>
    </g>
  </g>
</svg>
