<svg xmlns="http://www.w3.org/2000/svg" width="64.001" height="64.001" viewBox="0 0 64.001 64.001">
  <g id="XMLID_989_" transform="translate(-0.001 -0.001)">
    <path id="XMLID_2912_" d="M363.871,118.773l6.821-6.821-6.821-6.821V109H351.934v14.035H357.9v-8.066h5.969v3.808Z" transform="translate(-307.94 -91.988)" fill="#a0e557"/>
    <path id="XMLID_2911_" d="M16.821,118.773,10,111.951l6.821-6.821V109H28.759v14.035H22.79v-8.066H16.821v3.808Z" transform="translate(-8.749 -91.988)" fill="#72d8ff"/>
    <path id="XMLID_2910_" d="M211.132,31.625V16.836h3.852L208.147,10l-6.836,6.836h3.852V31.625Z" transform="translate(-176.146 -8.749)" fill="#ff5d5d"/>
    <g id="XMLID_1429_" transform="translate(16.626 29.154)">
      <path id="XMLID_2453_" d="M208.645,233.222h0a6.765,6.765,0,0,0-6.765,6.765v4.5a6.765,6.765,0,0,0,6.765,6.765h0a6.765,6.765,0,0,0,6.765-6.765v-4.5A6.765,6.765,0,0,0,208.645,233.222Z" transform="translate(-193.27 -233.222)" fill="#aa89b7"/>
      <path id="XMLID_2452_" d="M153.75,377.477H143a10,10,0,0,0-10,10v5.565h30.751v-5.565A10,10,0,0,0,153.75,377.477Z" transform="translate(-133 -359.445)" fill="#4dbaf6"/>
    </g>
    <g id="XMLID_1276_" transform="translate(0.001 0.001)">
      <path id="XMLID_1277_" d="M247.25,492a1.251,1.251,0,1,0,.884.366A1.259,1.259,0,0,0,247.25,492Z" transform="translate(-215.25 -430.499)"/>
      <path id="XMLID_1351_" d="M145.425,241.263a7.984,7.984,0,0,0,2.216-5.524v-4.5a8.015,8.015,0,1,0-16.03,0v4.5a7.985,7.985,0,0,0,2.216,5.524A11.263,11.263,0,0,0,123,252.5v5.565a1.25,1.25,0,0,0,1.25,1.25h10.375a1.25,1.25,0,1,0,0-2.5H125.5V252.5a8.76,8.76,0,0,1,8.75-8.75H145a8.76,8.76,0,0,1,8.75,8.75v4.315h-9.125a1.25,1.25,0,1,0,0,2.5H155a1.25,1.25,0,0,0,1.25-1.25V252.5A11.263,11.263,0,0,0,145.425,241.263ZM134.11,231.237a5.515,5.515,0,0,1,11.03,0v4.5a5.515,5.515,0,0,1-11.03,0Z" transform="translate(-107.625 -195.319)"/>
      <path id="XMLID_1370_" d="M362.827,102.318,356.006,95.5a1.25,1.25,0,0,0-2.134.884V99H343.185a1.25,1.25,0,0,0-1.25,1.25v14.035a1.25,1.25,0,0,0,1.25,1.25h5.969a1.25,1.25,0,0,0,1.25-1.25v-6.816h3.469v2.558a1.25,1.25,0,0,0,2.134.884l6.821-6.821a1.25,1.25,0,0,0,0-1.768Zm-6.455,4.687v-.79a1.25,1.25,0,0,0-1.25-1.25h-5.969a1.25,1.25,0,0,0-1.25,1.25v6.816h-3.469V101.5h10.687a1.25,1.25,0,0,0,1.25-1.25V99.4l3.8,3.8Z" transform="translate(-299.193 -83.239)"/>
      <path id="XMLID_1390_" d="M21.26,114.281V100.247A1.25,1.25,0,0,0,20.01,99H9.323V96.381A1.25,1.25,0,0,0,7.189,95.5L.367,102.318a1.25,1.25,0,0,0,0,1.768l6.821,6.821a1.25,1.25,0,0,0,2.134-.884v-2.558h3.469v6.816a1.25,1.25,0,0,0,1.25,1.25H20.01A1.25,1.25,0,0,0,21.26,114.281Zm-2.5-1.25H15.291v-6.816a1.25,1.25,0,0,0-1.25-1.25H8.072a1.25,1.25,0,0,0-1.25,1.25v.79l-3.8-3.8,3.8-3.8v.848a1.25,1.25,0,0,0,1.25,1.25H18.76Z" transform="translate(-0.001 -83.239)"/>
      <path id="XMLID_1391_" d="M271.129,118a1.251,1.251,0,1,0,.884.366A1.259,1.259,0,0,0,271.129,118Z" transform="translate(-236.145 -103.25)"/>
      <path id="XMLID_1395_" d="M192.561,9.337h2.6V22.876a1.25,1.25,0,0,0,1.25,1.25h5.969a1.25,1.25,0,0,0,1.25-1.25V21a1.25,1.25,0,0,0-2.5,0v.625h-3.469V8.087a1.25,1.25,0,0,0-1.25-1.25h-.834L199.4,3.019l3.818,3.818h-.834a1.25,1.25,0,0,0-1.25,1.25V11a1.25,1.25,0,0,0,2.5,0V9.337h2.6a1.25,1.25,0,0,0,.884-2.134L200.281.367a1.25,1.25,0,0,0-1.768,0L191.677,7.2a1.25,1.25,0,0,0,.884,2.134Z" transform="translate(-167.397 -0.001)"/>
    </g>
  </g>
</svg>
