<svg xmlns="http://www.w3.org/2000/svg" width="52.759" height="63.311" viewBox="0 0 52.759 63.311">
  <g id="stripes" transform="translate(-2)">
    <g id="color" transform="translate(3.978 2.255)">
      <g id="Group_462" data-name="Group 462">
        <g id="Group_461" data-name="Group 461">
          <path id="Path_610" data-name="Path 610" d="M50.37,8.436,27.8.958a2.09,2.09,0,0,0-1.3,0L3.932,8.436a1.63,1.63,0,0,0-1.182,1.5v8.547A1.559,1.559,0,0,0,3.539,19.8a2.057,2.057,0,0,0,1.688.179l21.924-7.265,21.924,7.265a2.087,2.087,0,0,0,.649.1,2.01,2.01,0,0,0,1.042-.285,1.559,1.559,0,0,0,.789-1.319V9.935a1.635,1.635,0,0,0-1.184-1.5Z" transform="translate(-2.75 -0.855)" fill="#00796b"/>
        </g>
      </g>
      <g id="Group_464" data-name="Group 464" transform="translate(0.003 39.569)">
        <g id="Group_463" data-name="Group 463">
          <path id="Path_611" data-name="Path 611" d="M50.369,23.436,27.8,15.958a2.09,2.09,0,0,0-1.3,0L3.933,23.436a1.627,1.627,0,0,0-1.182,1.5v8.547A1.559,1.559,0,0,0,3.54,34.8a2.057,2.057,0,0,0,1.688.179l21.921-7.262,21.924,7.265a2.087,2.087,0,0,0,.649.1,2.01,2.01,0,0,0,1.042-.285,1.559,1.559,0,0,0,.789-1.319V24.935a1.635,1.635,0,0,0-1.184-1.5Z" transform="translate(-2.751 -15.855)" fill="#4db6ac"/>
        </g>
      </g>
      <g id="Group_466" data-name="Group 466" transform="translate(0.003 19.785)">
        <g id="Group_465" data-name="Group 465">
          <path id="Path_612" data-name="Path 612" d="M50.369,15.936,27.8,8.458a2.09,2.09,0,0,0-1.3,0L3.933,15.936a1.627,1.627,0,0,0-1.182,1.5v8.547A1.559,1.559,0,0,0,3.54,27.3a2.057,2.057,0,0,0,1.688.179l21.921-7.262,21.924,7.265a2.087,2.087,0,0,0,.649.1,2.01,2.01,0,0,0,1.042-.285,1.559,1.559,0,0,0,.789-1.319V17.435a1.635,1.635,0,0,0-1.184-1.5Z" transform="translate(-2.751 -8.355)" fill="#009688"/>
        </g>
      </g>
    </g>
    <g id="_x31_.5" transform="translate(2 0)">
      <g id="Group_468" data-name="Group 468">
        <g id="Group_467" data-name="Group 467">
          <path id="Path_613" data-name="Path 613" d="M52.781,23.742a2.011,2.011,0,0,1-.7-.127l-23.7-8.969L4.68,23.615A1.979,1.979,0,0,1,2,21.763V11.211A1.983,1.983,0,0,1,3.277,9.359L27.678.127a2,2,0,0,1,1.4,0l24.4,9.233a1.981,1.981,0,0,1,1.279,1.852V21.763a1.976,1.976,0,0,1-1.978,1.978Zm-24.4-13.19a2.011,2.011,0,0,1,.7.127L50.8,18.9V12.578L28.38,4.094,5.957,12.578V18.9l21.721-8.22a2.011,2.011,0,0,1,.7-.127Z" transform="translate(-2 0)"/>
        </g>
      </g>
      <g id="Group_470" data-name="Group 470" transform="translate(0 39.569)">
        <g id="Group_469" data-name="Group 469">
          <path id="Path_614" data-name="Path 614" d="M52.781,38.742a2.011,2.011,0,0,1-.7-.127l-23.7-8.969L4.68,38.615A1.979,1.979,0,0,1,2,36.763V26.211a1.983,1.983,0,0,1,1.277-1.852l24.4-9.233a2,2,0,0,1,1.4,0l24.4,9.233a1.981,1.981,0,0,1,1.279,1.852V36.763a1.976,1.976,0,0,1-1.978,1.978Zm-24.4-13.19a2.011,2.011,0,0,1,.7.127L50.8,33.9V27.578L28.38,19.094,5.957,27.578V33.9l21.721-8.22A2.011,2.011,0,0,1,28.38,25.552Z" transform="translate(-2 -15)"/>
        </g>
      </g>
      <g id="Group_472" data-name="Group 472" transform="translate(0 19.785)">
        <g id="Group_471" data-name="Group 471">
          <path id="Path_615" data-name="Path 615" d="M52.781,31.242a2.011,2.011,0,0,1-.7-.127l-23.7-8.969L4.68,31.115A1.979,1.979,0,0,1,2,29.263V18.711a1.983,1.983,0,0,1,1.277-1.852l24.4-9.233a2,2,0,0,1,1.4,0l24.4,9.233a1.981,1.981,0,0,1,1.279,1.852V29.263a1.976,1.976,0,0,1-1.978,1.978Zm-24.4-13.19a2.011,2.011,0,0,1,.7.127L50.8,26.4V20.078L28.38,11.594,5.957,20.078V26.4l21.721-8.22a2.011,2.011,0,0,1,.7-.127Z" transform="translate(-2 -7.5)"/>
        </g>
      </g>
    </g>
  </g>
</svg>
