<svg id="Capa_1" enable-background="new 0 0 510.916 510.916" height="512" viewBox="0 0 510.916 510.916" width="512" xmlns="http://www.w3.org/2000/svg"><g><path d="m399.885 244.511c-19.941 0-36.107 16.166-36.107 36.107v-20.635c0-19.941-16.165-36.106-36.107-36.106-19.407 0-35.232 15.312-36.066 34.513v-157.284c0-19.941-16.166-36.106-36.107-36.106s-36.106 16.165-36.106 36.106v25.793c0-19.941-16.165-36.106-36.107-36.106-19.941 0-36.106 16.165-36.106 36.106l-.081 175.618c-.83-19.205-16.657-34.522-36.066-34.522-11.359 0-21.488 0-28.107 0-4.4 0-8 3.6-8 8v158.217c0 17.022 10.338 40.281 22.975 51.686l21.779 19.657c3.266 2.948 9.539 5.36 13.938 5.36h256.889c4.4 0 10.193-2.855 12.873-6.345 0 0 32.614-42.459 32.614-90.367v-103.673-28.883-1.029c-.001-19.941-16.167-36.107-36.108-36.107z" fill="#f9ded0"/><path d="m399.885 244.511c-19.941 0-36.107 16.166-36.107 36.107v-20.635c0-19.941-16.165-36.106-36.107-36.106-19.407 0-35.232 15.312-36.066 34.513v-157.284c0-19.941-16.166-36.106-36.107-36.106 0 0 0 0-.001 0v445.916h135.008c4.4 0 10.193-2.855 12.873-6.345 0 0 32.614-42.459 32.614-90.367v-103.674-28.883-1.029c0-19.941-16.166-36.107-36.107-36.107z" fill="#f7cdbf"/><path d="m255.497 0c-24.648 0-47.885 8.852-66.179 25.074-1.275-.048-2.549-.072-3.821-.072-55.14 0-100 44.85-100 99.977 0 8.284 6.716 15 15 15s15-6.716 15-15c0-38.585 31.402-69.977 70-69.977 2.575 0 5.167.142 7.704.42 4.577.506 9.126-1.121 12.347-4.406 13.292-13.552 31.032-21.016 49.949-21.016 38.598 0 70 31.402 70 70 0 8.284 6.716 15 15 15s15-6.716 15-15c0-55.141-44.86-100-100-100z" fill="#ff4d4d"/><path d="m255.497 0v30c38.598 0 70 31.402 70 70 0 8.284 6.716 15 15 15s15-6.716 15-15c0-55.141-44.86-100-100-100z" fill="#cc295f"/></g></svg>