<svg xmlns="http://www.w3.org/2000/svg" width="69.296" height="69.296" viewBox="0 0 69.296 69.296">
  <g id="flower" transform="translate(0)">
    <g id="Group_456" data-name="Group 456" transform="translate(2.166 2.166)">
      <path id="Path_563" data-name="Path 563" d="M203.1,313.21q.258.258.531.493a9.745,9.745,0,0,1-19.435,0q.272-.236.531-.493c3.806-3.806,3.828-17.61,3.828-17.61a7.581,7.581,0,0,0,10.719,0S199.3,309.4,203.1,313.21Z" transform="translate(-161.435 -257.758)" fill="#e3889b"/>
      <path id="Path_564" data-name="Path 564" d="M43.123,188.558a7.581,7.581,0,0,0,0,10.719s-13.8.022-17.61,3.828q-.258.258-.493.531a9.745,9.745,0,0,1,0-19.435q.236.272.493.531C29.319,188.536,43.123,188.558,43.123,188.558Z" transform="translate(-16 -161.435)" fill="#e3889b"/>
      <path id="Path_565" data-name="Path 565" d="M203.635,25.021q-.272.236-.531.493c-3.806,3.806-3.828,17.61-3.828,17.61a7.581,7.581,0,0,0-10.719,0s-.022-13.8-3.828-17.61q-.258-.258-.531-.493a9.745,9.745,0,0,1,19.435,0Z" transform="translate(-161.435 -16)" fill="#e3889b"/>
      <path id="Path_566" data-name="Path 566" d="M313.7,184.2a9.745,9.745,0,0,1,0,19.435q-.236-.272-.493-.531c-3.806-3.806-17.61-3.828-17.61-3.828a7.581,7.581,0,0,0,0-10.719s13.8-.022,17.61-3.828Q313.467,184.473,313.7,184.2Z" transform="translate(-257.758 -161.435)" fill="#e3889b"/>
    </g>
    <path id="Path_567" data-name="Path 567" d="M313.7,299.958A9.746,9.746,0,0,1,299.958,313.7q-.272-.236-.531-.493c-3.806-3.806-3.828-17.61-3.828-17.61s13.8.022,17.61,3.828Q313.467,299.685,313.7,299.958Z" transform="translate(-255.592 -255.592)" fill="#f79caf"/>
    <path id="Path_568" data-name="Path 568" d="M85.671,295.6s-.022,13.8-3.828,17.61q-.258.258-.531.493a9.746,9.746,0,0,1-13.744-13.744q.236-.272.493-.531C71.867,295.622,85.671,295.6,85.671,295.6Z" transform="translate(-56.383 -255.592)" fill="#f79caf"/>
    <path id="Path_569" data-name="Path 569" d="M81.844,68.062c3.806,3.806,3.828,17.61,3.828,17.61s-13.8-.022-17.61-3.828q-.258-.258-.493-.531A9.746,9.746,0,0,1,81.313,67.569Q81.585,67.8,81.844,68.062Z" transform="translate(-56.383 -56.383)" fill="#f79caf"/>
    <path id="Path_570" data-name="Path 570" d="M313.21,68.062a9.748,9.748,0,0,1,.493,13.252q-.236.272-.493.531c-3.806,3.806-17.61,3.828-17.61,3.828s.022-13.8,3.828-17.61q.258-.258.531-.493A9.748,9.748,0,0,1,313.21,68.062Z" transform="translate(-255.592 -56.383)" fill="#f79caf"/>
    <path id="Path_571" data-name="Path 571" d="M212.939,202.22a7.581,7.581,0,1,1-5.36-2.22A7.561,7.561,0,0,1,212.939,202.22Z" transform="translate(-172.931 -172.931)" fill="#f8e9d2"/>
    <path id="Path_572" data-name="Path 572" d="M66.095,26.524A11.892,11.892,0,0,0,61.573,23.5,11.914,11.914,0,0,0,45.8,7.724a11.914,11.914,0,0,0-22.3,0A11.915,11.915,0,0,0,7.724,23.5a11.914,11.914,0,0,0,0,22.3A11.911,11.911,0,0,0,18.157,62.629q.209.007.416.007A11.883,11.883,0,0,0,23.5,61.571a11.915,11.915,0,0,0,22.306,0,11.885,11.885,0,0,0,4.922,1.065q.207,0,.416-.007A11.914,11.914,0,0,0,61.572,45.8a11.912,11.912,0,0,0,4.522-19.277ZM50.719,11a7.57,7.57,0,0,1,5.753,12.514c-.128.148-.258.288-.386.416-1.9,1.9-8.615,2.9-13.859,3.139.233-5.242,1.235-11.953,3.139-13.858.129-.129.269-.259.414-.385A7.54,7.54,0,0,1,50.719,11ZM38.477,38.476a5.415,5.415,0,1,1,1.585-3.828A5.383,5.383,0,0,1,38.477,38.476ZM34.648,4.331a7.609,7.609,0,0,1,7.425,6.061c-1.827,2.016-3.048,5.7-3.728,11.255-.169,1.382-.282,2.7-.356,3.842a9.806,9.806,0,0,0-6.681,0c-.074-1.141-.187-2.461-.356-3.842-.68-5.551-1.9-9.238-3.728-11.255a7.609,7.609,0,0,1,7.425-6.061ZM13.21,13.21a7.605,7.605,0,0,1,10.3-.387c.148.128.288.258.417.387,1.9,1.9,2.9,8.614,3.139,13.858-5.244-.235-11.957-1.238-13.859-3.139-.128-.128-.258-.268-.384-.414A7.607,7.607,0,0,1,13.21,13.21ZM4.331,34.648a7.609,7.609,0,0,1,6.061-7.425c2.016,1.827,5.7,3.048,11.255,3.728,1.382.169,2.7.282,3.842.356a9.807,9.807,0,0,0,0,6.681c-1.141.074-2.46.187-3.842.356-5.552.68-9.239,1.9-11.255,3.728a7.609,7.609,0,0,1-6.061-7.425ZM13.21,56.086a7.606,7.606,0,0,1-.386-10.3c.128-.148.258-.288.386-.416,1.9-1.9,8.615-2.9,13.859-3.139-.233,5.242-1.235,11.953-3.139,13.858-.129.129-.269.259-.414.385a7.607,7.607,0,0,1-10.306-.384Zm21.438,8.879A7.609,7.609,0,0,1,27.224,58.9c1.827-2.016,3.048-5.7,3.728-11.255.169-1.382.282-2.7.356-3.842a9.806,9.806,0,0,0,6.681,0c.074,1.141.187,2.461.356,3.842.68,5.551,1.9,9.238,3.728,11.255a7.609,7.609,0,0,1-7.425,6.061Zm21.438-8.879a7.606,7.606,0,0,1-10.3.387c-.148-.128-.288-.258-.417-.387-1.9-1.9-2.9-8.614-3.139-13.858,5.244.235,11.957,1.238,13.859,3.139.128.128.258.268.384.414a7.607,7.607,0,0,1-.384,10.305ZM58.9,42.073c-2.016-1.827-5.7-3.048-11.255-3.728-1.382-.169-2.7-.282-3.842-.356a9.807,9.807,0,0,0,0-6.681c1.141-.074,2.46-.187,3.842-.356,5.552-.68,9.239-1.9,11.255-3.728a7.578,7.578,0,0,1,0,14.849Z"/>
  </g>
</svg>
