<svg xmlns="http://www.w3.org/2000/svg" xmlns:xlink="http://www.w3.org/1999/xlink" width="84.64" height="55.135" viewBox="0 0 84.64 55.135">
  <defs>
    <linearGradient id="linear-gradient" x1="2.14" y1="-0.582" x2="0.127" y2="0.927" gradientUnits="objectBoundingBox">
      <stop offset="0" stop-color="#5558ff"/>
      <stop offset="1" stop-color="#00c0ff"/>
    </linearGradient>
  </defs>
  <path id="blink" d="M84.044,72.628a55.936,55.936,0,0,0-11.08-10.457A52.058,52.058,0,0,0,42.321,51.766,52.061,52.061,0,0,0,11.678,62.171,55.952,55.952,0,0,0,.6,72.628,2.98,2.98,0,0,0,.6,76.2a53.6,53.6,0,0,0,8.624,8.573L5.232,92.753a2.98,2.98,0,1,0,5.331,2.665l3.542-7.083A55.748,55.748,0,0,0,23.513,93.3l-3.528,7.056a2.98,2.98,0,1,0,5.331,2.665L29.2,95.249A49.069,49.069,0,0,0,39.34,96.973v6.948a2.98,2.98,0,1,0,5.961,0V96.973A49.062,49.062,0,0,0,55.44,95.249l3.885,7.769a2.98,2.98,0,0,0,5.331-2.665L61.128,93.3a55.755,55.755,0,0,0,9.407-4.963l3.542,7.084a2.98,2.98,0,0,0,5.331-2.665l-3.988-7.976A53.562,53.562,0,0,0,84.044,76.2,2.981,2.981,0,0,0,84.044,72.628ZM69.3,81.956c-8.411,6.072-17.487,9.15-26.978,9.15s-18.567-3.079-26.979-9.15a55,55,0,0,1-8.459-7.54,54.979,54.979,0,0,1,8.459-7.54c8.412-6.072,17.488-9.15,26.979-9.15s18.567,3.078,26.978,9.15a54.986,54.986,0,0,1,8.459,7.54A55,55,0,0,1,69.3,81.956Z" transform="translate(0 -51.766)" fill="url(#linear-gradient)"/>
</svg>
