<svg xmlns="http://www.w3.org/2000/svg" width="61" height="62" viewBox="0 0 61 62">
  <g id="shooting-target" transform="translate(-1.5 -1)">
    <g id="Group_426" data-name="Group 426">
      <path id="Path_439" data-name="Path 439" d="M61.5,37H58.47c.02.33.03.66.03,1s-.01.67-.03,1H61.5a1,1,0,0,0,0-2Z" fill="#c4a2fc"/>
      <path id="Path_440" data-name="Path 440" d="M16.53,37H13.5a1,1,0,1,0,0,2h3.03c-.02-.33-.03-.66-.03-1S16.51,37.33,16.53,37Z" fill="#c4a2fc"/>
      <path id="Path_441" data-name="Path 441" d="M38.5,17.03V14a1,1,0,1,0-2,0v3.03c.33-.02.66-.03,1-.03S38.17,17.01,38.5,17.03Z" fill="#c4a2fc"/>
      <path id="Path_442" data-name="Path 442" d="M36.5,58.97V62a1,1,0,0,0,2,0V58.97c-.33.02-.66.03-1,.03S36.83,58.99,36.5,58.97Z" fill="#c4a2fc"/>
      <path id="Path_443" data-name="Path 443" d="M52.5,38a1,1,0,0,1,1-1h4.97A21,21,0,0,0,38.5,17.03V22a1,1,0,0,1-2,0V17.03A21,21,0,0,0,16.53,37H21.5a1,1,0,0,1,0,2H16.53A21,21,0,0,0,36.5,58.97V54a1,1,0,0,1,2,0v4.97A21,21,0,0,0,58.47,39H53.5A1,1,0,0,1,52.5,38Zm-11,1h-3v3a1,1,0,0,1-2,0V39h-3a1,1,0,0,1,0-2h3V34a1,1,0,0,1,2,0v3h3a1,1,0,0,1,0,2Z" fill="#c4a2fc"/>
    </g>
    <path id="Path_444" data-name="Path 444" d="M2.5,11a1,1,0,0,0,1-1V4a1,1,0,0,1,1-1h6a1,1,0,0,0,0-2h-6a3,3,0,0,0-3,3v6A1,1,0,0,0,2.5,11Z" fill="#151a6a"/>
    <path id="Path_445" data-name="Path 445" d="M48.5,1h-6a1,1,0,0,0,0,2h6a1,1,0,0,1,1,1v6a1,1,0,0,0,2,0V4a3,3,0,0,0-3-3Z" fill="#151a6a"/>
    <path id="Path_446" data-name="Path 446" d="M10.5,49h-6a1,1,0,0,1-1-1V42a1,1,0,0,0-2,0v6a3,3,0,0,0,3,3h6a1,1,0,0,0,0-2Z" fill="#151a6a"/>
    <path id="Path_447" data-name="Path 447" d="M50.5,41a1,1,0,0,0-1,1v6a1,1,0,0,1-1,1h-6a1,1,0,0,0,0,2h6a3,3,0,0,0,3-3V42A1,1,0,0,0,50.5,41Z" fill="#151a6a"/>
    <path id="Path_448" data-name="Path 448" d="M50.5,25H43.449A16.994,16.994,0,0,0,27.5,9.051V2a1,1,0,0,0-2,0V9.051A16.994,16.994,0,0,0,9.551,25H2.5a1,1,0,0,0,0,2H9.551A16.994,16.994,0,0,0,25.5,42.949V50a1,1,0,0,0,2,0V42.949A16.994,16.994,0,0,0,43.449,27H50.5a1,1,0,0,0,0-2Zm-9.051,0H27.5V11.051A15,15,0,0,1,41.449,25ZM25.5,11.051V25H11.551A15,15,0,0,1,25.5,11.051ZM11.551,27H25.5V40.949A15,15,0,0,1,11.551,27ZM27.5,40.949V27H41.449A15,15,0,0,1,27.5,40.949Z" fill="#151a6a"/>
  </g>
</svg>
