<svg xmlns="http://www.w3.org/2000/svg" xmlns:xlink="http://www.w3.org/1999/xlink" width="89.82" height="43.36" viewBox="0 0 89.82 43.36">
  <defs>
    <linearGradient id="linear-gradient" x1="0.728" y1="-0.552" x2="0.5" y2="1" gradientUnits="objectBoundingBox">
      <stop offset="0" stop-color="#00cb75"/>
      <stop offset="1" stop-color="#ace233"/>
    </linearGradient>
  </defs>
  <path id="Subtraction_10" data-name="Subtraction 10" d="M39.8,43.36a9.385,9.385,0,0,1-3.6-.743c-5.664-2.307-10.639-4.406-14.163-6.728H51.621c-4.121,5.027-7.987,7.47-11.819,7.47h0Zm44.5-.055h0c-3.855,0-7.74-2.427-11.877-7.417h29.591c-3.457,2.266-8.433,4.33-13.7,6.516l-.513.213A9.475,9.475,0,0,1,84.3,43.305ZM56.813,28.889H17.09V11.466a14.228,14.228,0,0,1,2.58-5.733,13.493,13.493,0,0,1,4.676-3.941A17.88,17.88,0,0,1,32.569,0H91.43a17.637,17.637,0,0,1,8.143,1.792,13.723,13.723,0,0,1,4.685,3.941,14.6,14.6,0,0,1,2.652,5.733V28.887H67.186l-.027-.031a6.362,6.362,0,0,0-4.605-2.341,2.751,2.751,0,0,0-.555.047,2.779,2.779,0,0,0-.743-.085,5.942,5.942,0,0,0-4.417,2.379l-.027.031Z" transform="translate(-17.09)" fill="url(#linear-gradient)"/>
</svg>
