<svg xmlns="http://www.w3.org/2000/svg" xmlns:xlink="http://www.w3.org/1999/xlink" width="89" height="42.688" viewBox="0 0 89 42.688">
  <defs>
    <linearGradient id="linear-gradient" x1="0.5" x2="0.5" y2="1" gradientUnits="objectBoundingBox">
      <stop offset="0" stop-color="#00cb75"/>
      <stop offset="1" stop-color="#ace233"/>
    </linearGradient>
  </defs>
  <path id="Subtraction_5" data-name="Subtraction 5" d="M22.506,43.688h0a9.337,9.337,0,0,1-3.568-.73c-2.728-1.1-4.973-2.032-7.06-2.968L33.973,1H73.661c.191,0,.387,0,.58.007L54.468,35.9c-1.216-1.494-2.276-2.982-3.127-4.178-.72-1.011-1.289-1.809-1.728-2.308a6.317,6.317,0,0,0-4.561-2.3,2.723,2.723,0,0,0-.551.046,2.774,2.774,0,0,0-.737-.084,5.9,5.9,0,0,0-4.375,2.341c-.443.5-1.018,1.318-1.746,2.348a50.936,50.936,0,0,1-6.193,7.58C28.419,42.225,25.41,43.688,22.506,43.688ZM66.6,43.636h0a10.841,10.841,0,0,1-5.543-1.667L82.895,3.433A14.4,14.4,0,0,1,89,12.29v17.5c0,5.362-8.536,8.883-18.421,12.958l-.515.213A9.443,9.443,0,0,1,66.6,43.636Zm-62.4-7.784h0C1.371,33.856,0,31.872,0,29.787V12.29A13.973,13.973,0,0,1,2.556,6.645,13.349,13.349,0,0,1,7.19,2.764,17.812,17.812,0,0,1,15.338,1h8.607L4.2,35.85Z" transform="translate(0 -1)" fill="url(#linear-gradient)"/>
</svg>
