<svg id="Capa_1" enable-background="new 0 0 512 512" height="512" viewBox="0 0 512 512" width="512" xmlns="http://www.w3.org/2000/svg"><g><g><circle cx="136" cy="136" fill="#fff" r="48"/></g><g><circle cx="376" cy="136" fill="#fff" r="48"/></g><g><circle cx="136" cy="376" fill="#fff" r="48"/></g><g><circle cx="376" cy="376" fill="#fff" r="48"/></g><g><circle cx="136" cy="136" fill="#d3abef" r="16"/></g><g><circle cx="376" cy="136" fill="#d3abef" r="16"/></g><g><circle cx="376" cy="376.001" fill="#d3abef" r="16"/></g><g><circle cx="136" cy="376.001" fill="#d3abef" r="16"/></g><g><path d="m90.732 160.003c-3.295 0-6.381-2.051-7.542-5.335-2.117-5.985-3.19-12.266-3.19-18.668 0-30.878 25.122-56 56-56 6.4 0 12.681 1.073 18.667 3.189 4.166 1.472 6.349 6.043 4.876 10.208-1.473 4.166-6.041 6.35-10.208 4.876-4.269-1.508-8.756-2.273-13.335-2.273-22.056 0-40 17.944-40 40 0 4.58.765 9.066 2.274 13.334 1.473 4.166-.71 8.736-4.875 10.209-.882.312-1.782.46-2.667.46z" fill="#f5cdfb"/></g><g><path d="m421.268 160.003c-.885 0-1.785-.148-2.667-.459-4.166-1.473-6.348-6.044-4.875-10.209 1.509-4.269 2.274-8.755 2.274-13.335 0-22.056-17.944-40-40-40-4.579 0-9.066.765-13.335 2.274-4.163 1.474-8.736-.71-10.208-4.876-1.473-4.166.711-8.736 4.876-10.208 5.986-2.117 12.267-3.19 18.667-3.19 30.878 0 56 25.122 56 56 0 6.402-1.073 12.683-3.189 18.668-1.162 3.284-4.248 5.335-7.543 5.335z" fill="#f5cdfb"/></g><g><path d="m376 432.001c-6.4 0-12.681-1.073-18.667-3.189-4.166-1.472-6.349-6.043-4.876-10.208 1.473-4.166 6.043-6.351 10.208-4.876 4.269 1.509 8.756 2.274 13.335 2.274 22.056 0 40-17.944 40-40 0-4.58-.765-9.066-2.274-13.334-1.473-4.166.71-8.736 4.876-10.209 4.165-1.472 8.736.71 10.209 4.876 2.116 5.986 3.189 12.267 3.189 18.667 0 30.877-25.122 55.999-56 55.999z" fill="#f5cdfb"/></g><g><path d="m136 432.001c-30.878 0-56-25.122-56-56 0-6.401 1.073-12.682 3.189-18.667 1.473-4.166 6.044-6.35 10.209-4.876 4.166 1.473 6.349 6.043 4.876 10.209-1.509 4.268-2.274 8.754-2.274 13.334 0 22.056 17.944 40 40 40 4.579 0 9.066-.765 13.335-2.274 4.166-1.474 8.736.711 10.208 4.876s-.711 8.736-4.876 10.208c-5.986 2.117-12.267 3.19-18.667 3.19z" fill="#f5cdfb"/></g><g><g><path d="m161.177 26.844s-13.765 92.274 1.529 129.235c5.068 12.248 14.621 21.282 25.968 25.987l66.132-39.336c.813-7.697-.228-15.701-3.395-23.356-15.293-36.962-90.234-92.53-90.234-92.53z" fill="#f5cdfb"/></g><g><path d="m322.617 182.353c11.658-4.619 21.504-13.772 26.677-26.274 15.294-36.96 1.529-129.235 1.529-129.235s-74.941 55.568-90.235 92.529c-3.167 7.655-4.208 15.659-3.395 23.356z" fill="#f5cdfb"/></g><g><path d="m323.326 329.935-66.132 39.336c-.813 7.697.228 15.702 3.395 23.356 15.294 36.96 90.235 92.529 90.235 92.529s13.765-92.274-1.529-129.235c-5.069-12.248-14.622-21.281-25.969-25.986z" fill="#f5cdfb"/></g><g><path d="m189.383 329.647c-11.658 4.619-21.504 13.772-26.677 26.274-15.294 36.96-1.529 129.235-1.529 129.235s74.941-55.569 90.235-92.529c3.167-7.655 4.208-15.659 3.395-23.356z" fill="#f5cdfb"/></g><g><path d="m329.935 188.674 39.336 66.132c7.697.813 15.701-.228 23.356-3.395 36.961-15.294 92.529-90.235 92.529-90.235s-92.274-13.765-129.235 1.529c-12.248 5.069-21.281 14.622-25.986 25.969z" fill="#f5cdfb"/></g><g><path d="m392.627 260.588c-7.655-3.167-15.659-4.208-23.356-3.395l-39.624 65.423c4.619 11.658 13.772 21.504 26.274 26.677 36.96 15.294 129.235 1.529 129.235 1.529s-55.568-74.94-92.529-90.234z" fill="#f5cdfb"/></g><g><path d="m182.065 323.326-39.336-66.132c-7.697-.813-15.701.227-23.356 3.395-36.961 15.294-92.529 90.235-92.529 90.235s92.274 13.765 129.235-1.529c12.248-5.069 21.281-14.622 25.986-25.969z" fill="#f5cdfb"/></g><g><path d="m119.373 251.412c7.655 3.167 15.659 4.208 23.356 3.395l39.624-65.423c-4.619-11.658-13.772-21.504-26.274-26.677-36.96-15.294-129.235-1.529-129.235-1.529s55.568 74.94 92.529 90.234z" fill="#f5cdfb"/></g></g><g><g><path d="m208 128c0 13.14 5.291 25.037 13.844 33.704h68.312c8.553-8.667 13.844-20.564 13.844-33.704 0-40-48-120-48-120s-48 80-48 120z" fill="#d3abef"/></g><g><path d="m384 208c-13.14 0-25.037 5.291-33.704 13.844v68.312c8.667 8.553 20.564 13.844 33.704 13.844 40 0 120-48 120-48s-80-48-120-48z" fill="#d3abef"/></g></g><g><g><path d="m290.156 350.296h-68.312c-8.553 8.667-13.844 20.564-13.844 33.704 0 40 48 120 48 120s48-80 48-120c0-13.14-5.291-25.037-13.844-33.704z" fill="#d3abef"/></g><g><path d="m8 256s80 48 120 48c13.14 0 25.037-5.291 33.704-13.844v-68.312c-8.667-8.553-20.564-13.844-33.704-13.844-40 0-120 48-120 48z" fill="#d3abef"/></g></g><g><path d="m368 256c0 9.36-15.91 16.504-18.218 25.137-2.387 8.931 7.748 23.059 3.224 30.879-4.589 7.932-21.934 6.185-28.371 12.622s-4.691 23.781-12.622 28.37c-7.819 4.524-21.946-5.612-30.876-3.225-8.633 2.307-15.777 18.217-25.137 18.217s-16.504-15.91-25.137-18.218c-8.931-2.387-23.059 7.748-30.879 3.224-7.932-4.589-6.185-21.934-12.622-28.371s-23.781-4.691-28.37-12.622c-4.524-7.819 5.612-21.946 3.225-30.876-2.307-8.633-18.217-15.777-18.217-25.137s15.91-16.504 18.218-25.137c2.387-8.931-7.748-23.059-3.224-30.879 4.589-7.932 21.934-6.185 28.371-12.622s4.691-23.781 12.622-28.37c7.819-4.524 21.946 5.612 30.876 3.225 8.633-2.307 15.777-18.217 25.137-18.217s16.504 15.91 25.137 18.218c8.931 2.387 23.059-7.748 30.879-3.224 7.932 4.589 6.185 21.934 12.622 28.371s23.781 4.691 28.37 12.622c4.524 7.819-5.612 21.946-3.225 30.876 2.307 8.633 18.217 15.777 18.217 25.137z" fill="#f5cdfb"/></g><g><path d="m349.782 230.864c-2.387-8.931 7.749-23.058 3.225-30.876-4.589-7.932-21.933-6.186-28.369-12.623-6.437-6.437-4.691-23.781-12.623-28.371-7.82-4.525-21.947 5.611-30.879 3.224-8.632-2.308-15.776-18.218-25.136-18.218v15.343c0 11.777 7.331 22.856 18.683 25.992.087.024.175.048.262.071 8.203 2.191 15.875.977 22.234-.68 1.727 6.336 4.484 13.605 10.492 19.605 6 6.004 13.273 8.762 19.602 10.488-1.648 6.359-2.867 14.031-.68 22.234.022.083.044.165.067.247 3.124 11.363 14.213 18.7 25.996 18.7h15.344c0-9.36-15.91-16.504-18.218-25.136z" fill="#fff"/></g><g><circle cx="256" cy="256" fill="#fff" r="24"/></g><g><path d="m256 288c-17.645 0-32-14.355-32-32s14.355-32 32-32 32 14.355 32 32-14.355 32-32 32zm0-48c-8.822 0-16 7.178-16 16s7.178 16 16 16 16-7.178 16-16-7.178-16-16-16z" fill="#1e2e45"/></g><g><path d="m256 320c-35.29 0-64-28.71-64-64s28.71-64 64-64 64 28.71 64 64-28.71 64-64 64zm0-112c-26.467 0-48 21.533-48 48s21.533 48 48 48 48-21.533 48-48-21.533-48-48-48z" fill="#a389c4"/></g><path d="m508.116 249.14c-1.948-1.169-29.581-17.649-60.562-31.207 23.444-24.374 42.676-50.167 44.029-51.992 1.674-2.257 2.041-5.228.966-7.824-1.074-2.597-3.433-4.439-6.212-4.854-3.284-.489-69.804-10.23-113.293-3.255-6.504 1.043-12.096-4.549-11.053-11.053 6.976-43.488-2.765-110.009-3.255-113.293-.415-2.779-2.257-5.138-4.854-6.212s-5.566-.708-7.824.966c-1.825 1.353-27.618 20.585-51.992 44.029-13.557-30.98-30.037-58.613-31.206-60.561-1.446-2.409-4.05-3.884-6.86-3.884s-5.414 1.475-6.86 3.884c-1.169 1.948-17.649 29.581-31.207 60.562-24.374-23.444-50.167-42.676-51.992-44.029-2.257-1.674-5.228-2.041-7.824-.966-2.597 1.074-4.439 3.433-4.854 6.212-.49 3.285-10.231 69.805-3.255 113.293 1.043 6.504-4.549 12.096-11.053 11.053-43.487-6.975-110.008 2.766-113.293 3.255-2.779.415-5.138 2.257-6.212 4.854-1.075 2.596-.708 5.566.966 7.824 2.207 2.976 51.982 69.727 90.021 90.058-38.038 20.331-87.813 87.082-90.021 90.058-1.674 2.257-2.041 5.228-.966 7.824 1.074 2.597 3.433 4.439 6.212 4.854 2.424.361 39.298 5.764 75.936 5.764 13.031 0 26.031-.685 37.441-2.523 6.467-1.042 12.007 4.599 10.969 11.067-6.976 43.488 2.765 110.009 3.255 113.293.415 2.779 2.257 5.138 4.854 6.212.985.408 2.024.608 3.058.608 1.69 0 3.365-.535 4.766-1.574 2.976-2.207 69.727-51.982 90.058-90.021 20.331 38.038 87.082 87.813 90.058 90.021 1.401 1.039 3.076 1.574 4.766 1.574 1.033 0 2.073-.2 3.058-.608 2.597-1.074 4.439-3.433 4.854-6.212.49-3.285 10.23-69.805 3.255-113.293-1.037-6.468 4.502-12.109 10.969-11.067 11.408 1.838 24.407 2.523 37.44 2.523 36.634 0 73.512-5.402 75.936-5.764 2.779-.415 5.138-2.257 6.212-4.854 1.075-2.596.708-5.566-.966-7.824-1.353-1.825-20.585-27.618-44.029-51.992 30.982-13.558 58.615-30.038 60.562-31.207 2.41-1.446 3.884-4.05 3.884-6.86s-1.473-5.413-3.882-6.859zm-74.288-84.953c14.176.779 27.218 2.081 36.447 3.147-5.777 7.275-14.086 17.413-23.566 27.98-5.223 5.822-10.263 11.181-15.101 16.062-17.219-6.586-34.308-11.376-47.608-11.376-7.61 0-14.994 1.526-21.811 4.414-.062-2.881-.691-5.727-2.257-8.433-4.055-7.009-11.97-9.094-19.155-10.787 4.365-6.718 10.64-11.966 18.203-15.096 13.994-5.79 39.876-7.834 74.848-5.911zm-97.556 147.245c-5.967 1.398-12.729 2.984-17.294 7.549s-6.15 11.328-7.549 17.294c-.683 2.913-2.104 8.974-3.408 9.8-1.435.647-7.017-1.026-10.015-1.926-5.915-1.773-12.618-3.785-18.936-2.096-6.125 1.637-10.611 6.42-14.951 11.046-2.101 2.24-6.473 6.9-8.12 6.9s-6.019-4.661-8.12-6.9c-4.339-4.625-8.826-9.409-14.951-11.046-1.679-.449-3.386-.637-5.098-.637-4.728 0-9.495 1.43-13.837 2.732-2.999.899-8.583 2.573-10.001 1.933-1.32-.835-2.741-6.896-3.424-9.81-1.398-5.967-2.984-12.729-7.549-17.294s-11.328-6.15-17.294-7.549c-2.913-.683-8.974-2.104-9.8-3.408-.647-1.436 1.026-7.017 1.926-10.015 1.774-5.915 3.785-12.618 2.096-18.936-1.637-6.125-6.42-10.611-11.046-14.951-2.24-2.101-6.9-6.473-6.9-8.12s4.661-6.019 6.9-8.12c4.625-4.339 9.409-8.826 11.046-14.951 1.688-6.317-.321-13.021-2.095-18.935-.899-2.999-2.573-8.582-1.933-10.001.835-1.32 6.896-2.741 9.81-3.424 5.967-1.398 12.729-2.984 17.294-7.549s6.15-11.328 7.549-17.294c.683-2.913 2.104-8.974 3.408-9.8 1.435-.646 7.017 1.027 10.015 1.926 5.915 1.774 12.619 3.786 18.936 2.096 6.125-1.637 10.611-6.42 14.951-11.046 2.101-2.24 6.473-6.9 8.12-6.9s6.019 4.661 8.12 6.9c4.339 4.625 8.826 9.409 14.951 11.046 6.317 1.689 13.021-.321 18.935-2.095 2.999-.899 8.581-2.574 10.001-1.933 1.32.835 2.741 6.896 3.424 9.81 1.398 5.967 2.984 12.729 7.549 17.294s11.328 6.15 17.294 7.549c2.913.683 8.974 2.104 9.8 3.408.647 1.436-1.026 7.017-1.926 10.015-1.774 5.915-3.785 12.618-2.096 18.936 1.637 6.125 6.42 10.611 11.046 14.951 2.24 2.101 6.9 6.473 6.9 8.12s-4.661 6.019-6.9 8.12c-4.625 4.339-9.409 8.826-11.046 14.951-1.688 6.317.321 13.021 2.095 18.935.899 2.999 2.573 8.582 1.933 10.001-.835 1.32-6.896 2.741-9.81 3.424zm-68.292-189c3.302-7.981 10.205-17.839 20.359-29.175 5.048 14.354 7.661 26.106 7.661 34.743 0 9.816-3.538 19.115-10 26.43-1.151.183-2.14.235-2.797.059-1.712-.458-5.007-3.971-7.414-6.535-3.063-3.266-6.589-7.014-10.832-9.431-.106-5.481.91-10.983 3.023-16.091zm-20.937 16.091c-4.243 2.417-7.769 6.165-10.832 9.431-2.406 2.565-5.701 6.077-7.413 6.535-.657.175-1.647.122-2.799-.062-6.461-7.315-9.999-16.612-9.999-26.427 0-8.636 2.614-20.389 7.661-34.743 10.154 11.335 17.056 21.194 20.359 29.174 2.113 5.109 3.129 10.611 3.023 16.092zm110.528 147.477c-.183-1.151-.235-2.14-.06-2.797.458-1.712 3.971-5.007 6.535-7.414 3.266-3.063 7.014-6.589 9.431-10.832 5.481-.107 10.983.91 16.092 3.023 7.981 3.302 17.839 10.205 29.175 20.359-14.355 5.048-26.107 7.661-34.744 7.661-9.816 0-19.114-3.538-26.429-10zm31.997-41.98c-5.109 2.114-10.61 3.13-16.092 3.023-2.417-4.243-6.165-7.769-9.431-10.832-2.565-2.406-6.077-5.701-6.535-7.413-.176-.657-.123-1.646.06-2.798 7.316-6.462 16.614-10 26.429-10 8.636 0 20.389 2.614 34.743 7.661-11.335 10.153-21.193 17.056-29.174 20.359zm-72.883-178.729c10.568-9.48 20.705-17.79 27.98-23.566 1.066 9.229 2.368 22.271 3.147 36.447 1.923 34.973-.121 60.854-5.911 74.848-3.138 7.582-8.374 13.856-15.09 18.215-1.694-7.188-3.778-15.108-10.79-19.165-2.707-1.566-5.553-2.196-8.436-2.258 2.889-6.817 4.415-14.201 4.415-21.812 0-13.3-4.79-30.389-11.377-47.608 4.881-4.838 10.24-9.878 16.062-15.101zm-60.685-41.187c4.497 8.089 10.659 19.591 16.787 32.358 3.41 7.105 6.439 13.84 9.117 20.219-10.687 11.297-20.152 22.996-25.904 33.757-5.752-10.761-15.217-22.459-25.905-33.757 2.664-6.344 5.673-13.04 9.061-20.102 6.14-12.801 12.331-24.355 16.844-32.475zm-91.813 54.068c.779-14.176 2.081-27.218 3.147-36.447 7.275 5.777 17.413 14.086 27.98 23.566 5.822 5.223 11.181 10.263 16.062 15.101-6.586 17.219-11.376 34.308-11.376 47.608 0 7.61 1.526 14.994 4.414 21.811-2.881.062-5.727.691-8.433 2.257-7.009 4.055-9.094 11.97-10.787 19.155-6.718-4.365-11.966-10.64-15.096-18.203-5.79-13.994-7.834-39.875-5.911-74.848zm-98.896 117.143c-9.48-10.568-17.79-20.705-23.566-27.98 9.229-1.066 22.271-2.368 36.447-3.147 34.974-1.924 60.854.121 74.848 5.911 7.582 3.138 13.856 8.374 18.215 15.09-7.188 1.694-15.108 3.778-19.165 10.79-4.166 7.2-1.71 15.387.456 22.611 1.047 3.491 2.481 8.273 1.964 10.208-.458 1.712-3.971 5.007-6.535 7.414-3.265 3.063-7.014 6.588-9.431 10.832-5.482.106-10.984-.91-16.092-3.023-13.994-5.792-33.753-22.634-57.141-48.706zm12.881 152.498c-14.176-.779-27.218-2.081-36.447-3.147 5.777-7.275 14.086-17.413 23.566-27.98 23.388-26.072 43.147-42.914 57.141-48.705 5.108-2.114 10.61-3.13 16.092-3.023 2.417 4.243 6.165 7.769 9.431 10.832 2.565 2.406 6.077 5.701 6.535 7.413.517 1.935-.917 6.716-1.964 10.207-2.167 7.223-4.622 15.411-.457 22.61 4.055 7.009 11.97 9.094 19.155 10.787-4.365 6.718-10.64 11.966-18.203 15.096-13.995 5.789-39.877 7.833-74.849 5.91zm165.848 41.755c-5.791 13.993-22.632 33.752-48.705 57.141-10.568 9.48-20.705 17.79-27.98 23.566-1.066-9.229-2.368-22.271-3.147-36.447-1.923-34.973.121-60.854 5.911-74.848 3.138-7.582 8.374-13.856 15.09-18.215 1.694 7.188 3.778 15.108 10.79 19.165 7.2 4.167 15.387 1.71 22.611-.456 3.491-1.047 8.274-2.482 10.208-1.964 1.712.458 5.007 3.971 7.414 6.535 3.063 3.266 6.589 7.014 10.832 9.431.105 5.482-.911 10.984-3.024 16.092zm103.793 44.26c-.779 14.176-2.081 27.218-3.147 36.447-7.275-5.777-17.413-14.086-27.98-23.566-26.072-23.388-42.914-43.147-48.705-57.141-2.114-5.109-3.13-10.611-3.023-16.092 4.243-2.417 7.769-6.165 10.832-9.431 2.406-2.565 5.701-6.077 7.413-6.535 1.933-.516 6.716.917 10.207 1.964 7.224 2.167 15.41 4.622 22.61.457 7.009-4.055 9.094-11.97 10.787-19.155 6.718 4.365 11.966 10.64 15.096 18.203 5.789 13.995 7.833 39.876 5.91 74.849zm98.896-117.143c9.48 10.568 17.79 20.705 23.566 27.98-9.229 1.066-22.271 2.368-36.447 3.147-34.974 1.925-60.855-.121-74.848-5.911-7.582-3.138-13.856-8.374-18.215-15.09 7.188-1.694 15.108-3.778 19.165-10.79 1.566-2.707 2.196-5.553 2.258-8.436 6.817 2.889 14.201 4.415 21.812 4.415 13.3 0 30.389-4.79 47.608-11.377 4.838 4.881 9.878 10.24 15.101 16.062zm8.829-43.897c-7.105 3.41-13.84 6.439-20.219 9.117-11.297-10.688-22.996-20.153-33.757-25.905 10.761-5.752 22.46-15.217 33.757-25.905 6.344 2.664 13.04 5.673 20.102 9.061 12.8 6.14 24.355 12.331 32.475 16.844-8.088 4.498-19.59 10.66-32.358 16.788z" fill="#a389c4"/><g><path d="m136 160c-13.234 0-24-10.766-24-24s10.766-24 24-24 24 10.766 24 24-10.766 24-24 24zm0-32c-4.411 0-8 3.589-8 8s3.589 8 8 8 8-3.589 8-8-3.589-8-8-8z" fill="#1e2e45"/></g><g><path d="m376 160c-13.234 0-24-10.766-24-24s10.766-24 24-24 24 10.766 24 24-10.766 24-24 24zm0-32c-4.411 0-8 3.589-8 8s3.589 8 8 8 8-3.589 8-8-3.589-8-8-8z" fill="#1e2e45"/></g><g><path d="m376 400.001c-13.234 0-24-10.766-24-24s10.766-24 24-24 24 10.766 24 24-10.766 24-24 24zm0-32c-4.411 0-8 3.589-8 8s3.589 8 8 8 8-3.589 8-8-3.589-8-8-8z" fill="#1e2e45"/></g><g><path d="m136 400.001c-13.234 0-24-10.766-24-24s10.766-24 24-24 24 10.766 24 24-10.766 24-24 24zm0-32c-4.411 0-8 3.589-8 8s3.589 8 8 8 8-3.589 8-8-3.589-8-8-8z" fill="#1e2e45"/></g><path d="m329.859 318.578c-3.345-2.897-8.433-2.302-11.418.965-4.155 4.546-5.669 11.006-7.012 16.732-.683 2.913-2.104 8.974-3.408 9.8-1.435.647-7.017-1.026-10.015-1.926-5.915-1.773-12.618-3.785-18.936-2.096-6.125 1.637-10.611 6.42-14.951 11.046-2.101 2.24-6.473 6.9-8.12 6.9s-6.019-4.661-8.12-6.9c-4.339-4.626-8.826-9.409-14.951-11.046-6.319-1.69-13.021.321-18.936 2.095-2.999.899-8.583 2.573-10.001 1.933-1.32-.834-2.741-6.896-3.424-9.81-1.398-5.966-2.984-12.729-7.549-17.294s-11.328-6.15-17.294-7.549c-2.913-.683-8.974-2.104-9.8-3.408-.647-1.436 1.026-7.017 1.926-10.015 1.774-5.915 3.785-12.618 2.096-18.936-1.637-6.125-6.42-10.612-11.046-14.951-2.24-2.101-6.9-6.473-6.9-8.12s4.661-6.019 6.9-8.12c4.625-4.339 9.409-8.826 11.046-14.951 1.688-6.318-.321-13.021-2.095-18.936-.899-2.999-2.573-8.582-1.933-10.001.835-1.32 6.896-2.741 9.81-3.424 5.966-1.398 12.729-2.984 17.294-7.549s6.15-11.328 7.549-17.294c.412-1.757 1.092-4.66 1.857-6.87.769-2.221.568-4.662-.609-6.696-3.381-5.844-12.12-5.162-14.416 1.188-1.033 2.858-1.739 5.866-2.409 8.726-.82 3.499-1.943 8.29-3.285 9.631-1.342 1.342-6.134 2.465-9.633 3.286-7.401 1.735-15.791 3.702-20.006 10.988-1.566 2.707-2.196 5.553-2.258 8.436-6.817-2.886-14.201-4.412-21.812-4.412-41.736 0-120.772 47.134-124.116 49.14-2.409 1.446-3.884 4.05-3.884 6.86s1.475 5.414 3.884 6.86c3.344 2.006 82.38 49.14 124.116 49.14 7.61 0 14.994-1.526 21.811-4.414.062 2.881.691 5.727 2.257 8.433 4.215 7.286 12.604 9.252 20.005 10.987 3.499.82 8.29 1.943 9.631 3.285 1.342 1.342 2.465 6.134 3.286 9.633 1.735 7.401 3.702 15.791 10.988 20.006 2.707 1.566 5.553 2.196 8.436 2.258-2.888 6.817-4.414 14.201-4.414 21.812 0 41.736 47.134 120.772 49.14 124.116 1.446 2.41 4.05 3.884 6.86 3.884s5.414-1.475 6.86-3.884c2.006-3.344 49.14-82.38 49.14-124.116 0-7.61-1.526-14.994-4.414-21.811 2.881-.062 5.727-.691 8.433-2.257 7.286-4.215 9.252-12.604 10.987-20.005.82-3.499 1.943-8.29 3.285-9.631 3.263-3.263 3.119-8.642-.432-11.718zm-273.28-45.734c-12.8-6.14-24.355-12.331-32.475-16.844 8.089-4.497 19.591-10.659 32.358-16.787 31.636-15.186 56.374-23.213 71.538-23.213 9.816 0 19.114 3.538 26.429 10 .183 1.151.235 2.14.06 2.797-.458 1.712-3.971 5.007-6.535 7.414-5.326 4.996-11.954 11.213-11.954 19.789s6.628 14.793 11.954 19.789c2.564 2.406 6.077 5.701 6.535 7.413.176.657.123 1.646-.06 2.798-7.316 6.462-16.614 10-26.429 10-15.144 0-39.841-8.007-71.421-23.156zm216.265 182.577c-6.14 12.8-12.331 24.355-16.844 32.475-4.497-8.089-10.659-19.591-16.787-32.358-15.186-31.636-23.213-56.374-23.213-71.538 0-9.816 3.538-19.115 10.001-26.43 1.151-.182 2.139-.235 2.797-.059 1.712.458 5.007 3.971 7.414 6.535 4.995 5.326 11.212 11.954 19.788 11.954s14.793-6.628 19.789-11.954c2.406-2.565 5.701-6.077 7.413-6.535.658-.175 1.647-.122 2.799.061 6.461 7.315 9.999 16.613 9.999 26.428 0 15.144-8.007 39.841-23.156 71.421z" fill="#1e2e45"/></g></svg>