<svg id="Capa_1" enable-background="new 0 0 510 510" height="512" viewBox="0 0 510 510" width="512" xmlns="http://www.w3.org/2000/svg"><g><path d="m278.482 420-30.982-8.5-30.982 8.5v30l27.5 9.5 34.464-9.5 12.536-15z" fill="#4d5e80"/><path d="m278.482 450 72.536 12.5 90.782-12.5c-1.927-9.752-3.566-19.779-4.917-30l-88.365-8.5-70.036 8.5z" fill="#3d4566"/><path d="m278.482.004c-.109 0-.218-.004-.328-.004-99.261.178-179.671 80.699-179.671 180l-44.559 77.976c-6.881 12.042 1.814 27.024 15.683 27.024h41.911v37.5l15 15-15 15v67.5h166.964l20.036-210z" fill="#f4dbcb"/><path d="m436.883 420c-8.75-66.244-5.403-140.374 10.169-196.939 30.541-110.937-51.116-223.057-168.57-223.057v419.996z" fill="#edbba8"/><path d="m111.518 322.5h30v30h-30z" fill="#edbba8"/><path d="m270.891 158.516c-20.486-20.486-50.739-1.665-50.739 21.666 0 7.44 2.838 14.881 8.515 20.558l49.815 49.815 10.37-47.555-10.37-36.894z" fill="#f2734c"/><path d="m286.074 158.516-7.592 7.591-.001-.001v84.448l49.263-49.261c5.83-5.829 8.744-13.471 8.744-21.112 0-25.943-31.753-40.326-50.414-21.665z" fill="#ff4a4a"/><path d="m216.518 450v60h61.964l12.536-30-12.536-30z" fill="#3d4566"/><path d="m441.8 450h-163.318v60h180.001c-3.077-10.02-10.187-27.117-16.683-60z" fill="#2e2e4d"/></g></svg>