<svg xmlns="http://www.w3.org/2000/svg" width="93.076" height="47.265" viewBox="0 0 93.076 47.265">
  <g id="infinite" transform="translate(0 -126)">
    <g id="Group_459" data-name="Group 459" transform="translate(1.818 127.818)">
      <path id="Path_596" data-name="Path 596" d="M47.256,157.944c-4.87-6.066-9.431-11.036-14.9-11.036-6.015,0-11.453,4.892-11.453,10.907s5.437,10.907,11.453,10.907C37.748,168.722,42.644,163.894,47.256,157.944Zm7.815-9C59.849,142.9,67.876,136,77.08,136c12.047,0,22.36,9.768,22.36,21.815S89.128,179.63,77.08,179.63c-9.717,0-16.75-6.037-22.726-12.925-4.777,6.035-12.8,12.925-21.995,12.925-12.047,0-22.36-9.768-22.36-21.815S20.313,136,32.36,136C42.057,136,49.088,142.048,55.071,148.945Zm7.1,8.755c4.876,6.059,9.446,11.022,14.907,11.022,6.015,0,11.453-4.892,11.453-10.907S83.1,146.907,77.08,146.907C71.689,146.907,66.789,151.745,62.174,157.7Z" transform="translate(-10 -136)" fill="#fff2a0"/>
    </g>
    <g id="Group_460" data-name="Group 460" transform="translate(0 126)">
      <ellipse id="Ellipse_67" data-name="Ellipse 67" cx="2" cy="1.5" rx="2" ry="1.5" transform="translate(82.538 37.633)"/>
      <path id="Path_597" data-name="Path 597" d="M68.9,126c-10.067,0-18.078,7.411-22.055,11.975C41.475,132.093,34.18,126,24.178,126,11.218,126,0,136.476,0,149.633s11.228,23.633,24.178,23.633c10.06,0,18.065-7.4,22.04-11.956,5.362,5.873,12.654,11.956,22.68,11.956a24.074,24.074,0,0,0,9.7-2.036,1.818,1.818,0,0,0-1.457-3.331A20.46,20.46,0,0,1,68.9,169.63c-8.97,0-15.5-5.563-21.352-12.3-3.273-3.776-7.1-8.875-7.333-9.053-4.865-6.034-9.775-11.371-16.035-11.371-7.193,0-13.271,5.827-13.271,12.725s6.077,12.725,13.271,12.725c5.855,0,10.929-4.847,14.9-9.679,1.57,1.982,3.087,3.908,4.731,5.863C40.354,162.6,33.084,169.63,24.178,169.63c-11.135,0-20.542-9.157-20.542-20s9.407-20,20.542-20c8.986,0,15.525,5.629,21.338,12.319,2.479,2.858,4.8,5.892,7.059,8.7,4.961,6.166,9.943,11.7,16.323,11.7,7.193,0,13.271-5.827,13.271-12.725S76.092,136.907,68.9,136.907c-5.857,0-10.937,4.856-14.907,9.694-1.571-1.981-3.088-3.905-4.734-5.859,3.452-4.061,10.728-11.107,19.641-11.107,11.135,0,20.542,9.157,20.542,20A19.049,19.049,0,0,1,87.7,157.6a1.818,1.818,0,1,0,3.307,1.51,22.659,22.659,0,0,0,2.067-9.475C93.076,136.467,81.849,126,68.9,126Zm-44.72,32.722c-5.133,0-9.635-4.247-9.635-9.089s4.5-9.089,9.635-9.089c4.439,0,8.5,4.245,12.57,9.234C33.234,154.161,28.788,158.722,24.178,158.722ZM68.9,140.543c5.132,0,9.635,4.247,9.635,9.089s-4.5,9.089-9.635,9.089c-4.441,0-8.5-4.239-12.58-9.221C59.837,145.111,64.288,140.543,68.9,140.543Z" transform="translate(0 -126)"/>
    </g>
  </g>
</svg>
