<svg id="trampoline" xmlns="http://www.w3.org/2000/svg" width="58.016" height="58.016" viewBox="0 0 58.016 58.016">
  <path id="Path_529" data-name="Path 529" d="M235.743,360v11.229H232V360" transform="translate(-204.864 -317.892)" fill="#a4a5a6"/>
  <path id="Path_530" data-name="Path 530" d="M228.679,372.165h-3.743a.884.884,0,0,1-.936-.936V360h1.871v10.293h1.871V360h1.871v11.229A.884.884,0,0,1,228.679,372.165Z" transform="translate(-197.799 -317.892)"/>
  <path id="Path_531" data-name="Path 531" d="M8,288v19.65h3.743V292.679" transform="translate(-7.064 -254.314)" fill="#a4a5a6"/>
  <path id="Path_532" data-name="Path 532" d="M4.679,308.586H.936A.884.884,0,0,1,0,307.65V288H1.871v18.715H3.743V292.679H5.614V307.65A.884.884,0,0,1,4.679,308.586Z" transform="translate(0 -254.314)"/>
  <path id="Path_533" data-name="Path 533" d="M459.743,288v19.65H456V292.679" transform="translate(-402.663 -254.314)" fill="#a4a5a6"/>
  <path id="Path_534" data-name="Path 534" d="M452.679,308.586h-3.743a.884.884,0,0,1-.936-.936V292.679h1.871v14.036h1.871V288h1.871v19.65A.884.884,0,0,1,452.679,308.586Z" transform="translate(-395.599 -254.314)"/>
  <path id="Path_535" data-name="Path 535" d="M8,256v3.743c0,4.679,12.539,8.422,28.072,8.422s28.072-3.743,28.072-8.422V256" transform="translate(-7.064 -226.056)" fill="#5c6373"/>
  <path id="Path_536" data-name="Path 536" d="M29.008,269.1C14.972,269.1,0,265.825,0,259.743V256H1.871v3.743c0,3.556,11.135,7.486,27.136,7.486s27.136-3.93,27.136-7.486V256h1.871v3.743C58.016,265.825,43.044,269.1,29.008,269.1Z" transform="translate(0 -226.056)"/>
  <ellipse id="Ellipse_63" data-name="Ellipse 63" cx="28" cy="8" rx="28" ry="8" transform="translate(1.008 22.008)" fill="#7d828c"/>
  <path id="Path_537" data-name="Path 537" d="M29.008,194.715C14.972,194.715,0,191.44,0,185.357S14.972,176,29.008,176s29.008,3.275,29.008,9.357S43.044,194.715,29.008,194.715Zm0-16.843c-16,0-27.136,3.93-27.136,7.486s11.135,7.486,27.136,7.486,27.136-3.93,27.136-7.486S45.009,177.871,29.008,177.871Z" transform="translate(0 -155.414)"/>
  <ellipse id="Ellipse_64" data-name="Ellipse 64" cx="18" cy="5" rx="18" ry="5" transform="translate(11.008 25.008)" fill="#a4a5a6"/>
  <path id="Path_538" data-name="Path 538" d="M106.715,219.229c-9.264,0-18.715-1.965-18.715-5.614S97.451,208,106.715,208s18.715,1.965,18.715,5.614S115.979,219.229,106.715,219.229Zm0-9.357c-10.855,0-16.843,2.433-16.843,3.743s5.989,3.743,16.843,3.743,16.843-2.433,16.843-3.743S117.569,209.871,106.715,209.871Z" transform="translate(-77.707 -183.671)"/>
  <rect id="Rectangle_96" data-name="Rectangle 96" width="6" height="4" transform="translate(1.008 53.008)" fill="#5c6373"/>
  <path id="Path_539" data-name="Path 539" d="M6.55,453.614H.936A.884.884,0,0,1,0,452.679v-3.743A.884.884,0,0,1,.936,448H6.55a.884.884,0,0,1,.936.936v3.743A.884.884,0,0,1,6.55,453.614Zm-4.679-1.871H5.614v-1.871H1.871Z" transform="translate(0 -395.599)"/>
  <rect id="Rectangle_97" data-name="Rectangle 97" width="6" height="4" transform="translate(51.008 53.008)" fill="#5c6373"/>
  <path id="Path_540" data-name="Path 540" d="M438.55,453.614h-5.614a.884.884,0,0,1-.936-.936v-3.743a.884.884,0,0,1,.936-.936h5.614a.884.884,0,0,1,.936.936v3.743A.884.884,0,0,1,438.55,453.614Zm-4.679-1.871h3.743v-1.871h-3.743Z" transform="translate(-381.47 -395.599)"/>
  <rect id="Rectangle_98" data-name="Rectangle 98" width="8" height="4" transform="translate(25.008 53.008)" fill="#5c6373"/>
  <path id="Path_541" data-name="Path 541" d="M216.422,453.614h-7.486a.884.884,0,0,1-.936-.936v-3.743a.884.884,0,0,1,.936-.936h7.486a.884.884,0,0,1,.936.936v3.743A.884.884,0,0,1,216.422,453.614Zm-6.55-1.871h5.614v-1.871h-5.614Z" transform="translate(-183.671 -395.599)"/>
  <path id="Path_542" data-name="Path 542" d="M57.357,8,48,17.357h4.679v7.486h9.357V17.357h4.679Z" transform="translate(-42.386 -7.064)" fill="#9f3a37"/>
  <path id="Path_543" data-name="Path 543" d="M54.972,18.715H45.614a.884.884,0,0,1-.936-.936v-6.55H40.936A.884.884,0,0,1,40,10.293a.849.849,0,0,1,.281-.655L49.638.281a.9.9,0,0,1,1.31,0l9.357,9.357a.9.9,0,0,1,0,1.31.85.85,0,0,1-.655.281H55.908v6.55A.884.884,0,0,1,54.972,18.715ZM46.55,16.843h7.486v-6.55a.884.884,0,0,1,.936-.936H57.4L50.293,2.246,43.181,9.357h2.433a.884.884,0,0,1,.936.936Z" transform="translate(-35.321 0)"/>
  <path id="Path_544" data-name="Path 544" d="M297.357,24.843,288,15.486h4.679V8h9.357v7.486h4.679Z" transform="translate(-254.314 -7.064)" fill="#9f3a37"/>
  <path id="Path_545" data-name="Path 545" d="M290.293,18.715a.85.85,0,0,1-.655-.281l-9.357-9.357a.9.9,0,0,1,0-1.31.85.85,0,0,1,.655-.281h3.743V.936A.884.884,0,0,1,285.614,0h9.357a.884.884,0,0,1,.936.936v6.55h3.743a.884.884,0,0,1,.936.936.849.849,0,0,1-.281.655l-9.357,9.357A.85.85,0,0,1,290.293,18.715Zm-7.112-9.357,7.112,7.112L297.4,9.357h-2.433a.884.884,0,0,1-.936-.936V1.871H286.55v6.55a.884.884,0,0,1-.936.936Z" transform="translate(-247.249)"/>
  <rect id="Rectangle_99" data-name="Rectangle 99" width="4" height="2" transform="translate(1.008 49.008)"/>
  <rect id="Rectangle_100" data-name="Rectangle 100" width="4" height="2" transform="translate(27.008 49.008)"/>
  <rect id="Rectangle_101" data-name="Rectangle 101" width="4" height="2" transform="translate(53.008 49.008)"/>
</svg>
