<svg id="noun_Zoom_2583447" xmlns="http://www.w3.org/2000/svg" xmlns:xlink="http://www.w3.org/1999/xlink" width="85.61" height="85.61" viewBox="0 0 85.61 85.61">
  <defs>
    <linearGradient id="linear-gradient" x1="0.5" x2="0.5" y2="1" gradientUnits="objectBoundingBox">
      <stop offset="0" stop-color="#00cb75"/>
      <stop offset="1" stop-color="#ace233"/>
    </linearGradient>
  </defs>
  <path id="Path_559" data-name="Path 559" d="M0,0V85.61H85.61V0Z" fill="none" fill-rule="evenodd"/>
  <path id="Path_560" data-name="Path 560" d="M29.607,10.557a3.472,3.472,0,0,1-.634,1.009L9.456,31.082,28.973,50.6l.375.468a5.012,5.012,0,0,1,.26.54,2.676,2.676,0,0,1-3.949,3.149,5.219,5.219,0,0,1-.468-.375L3.779,32.977a2.673,2.673,0,0,1-.372-3.317,5.594,5.594,0,0,1,.372-.468L25.19,7.783A2.657,2.657,0,0,1,26.2,7.149a2.755,2.755,0,0,1,3.408,1.643,2.653,2.653,0,0,1,.134,1.182c-.045.2-.088.391-.134.583ZM45.814,31.136A8.028,8.028,0,0,1,34.3,38.319,8.029,8.029,0,1,1,43.564,25.51a8.1,8.1,0,0,1,2.25,5.522v.1Zm-5.351-.07a2.753,2.753,0,1,0,0,.07A.6.6,0,0,0,40.463,31.066Zm32.1.316a5.464,5.464,0,0,1-.134.586,2.678,2.678,0,0,1-.634,1.009L50.383,54.385a5.625,5.625,0,0,1-.468.375,2.764,2.764,0,0,1-3.951-1.383,2.706,2.706,0,0,1,.262-2.306A5.189,5.189,0,0,1,46.6,50.6L66.114,31.082,46.6,11.566l-.372-.468a5.03,5.03,0,0,1-.262-.54,2.752,2.752,0,0,1,2.828-3.542,2.693,2.693,0,0,1,1.124.393,5.627,5.627,0,0,1,.468.375L71.791,29.191a2.678,2.678,0,0,1,.634,1.009A3.583,3.583,0,0,1,72.559,31.382Z" transform="translate(5.026 11.725)" fill="url(#linear-gradient)"/>
</svg>
