<svg xmlns="http://www.w3.org/2000/svg" xmlns:xlink="http://www.w3.org/1999/xlink" width="62.224" height="62.092" viewBox="0 0 62.224 62.092">
  <defs>
    <linearGradient id="linear-gradient" x1="0.5" y1="1" x2="0.5" gradientUnits="objectBoundingBox">
      <stop offset="0" stop-color="#fd3a84"/>
      <stop offset="1" stop-color="#ffa68d"/>
    </linearGradient>
  </defs>
  <g id="geometrical-shapes" transform="translate(0 -0.542)">
    <g id="Group_427" data-name="Group 427" transform="translate(0 0.542)">
      <path id="Path_482" data-name="Path 482" d="M45.817,33.467A14.584,14.584,0,1,0,60.4,48.05,14.6,14.6,0,0,0,45.817,33.467Zm0,25.521A10.938,10.938,0,1,1,56.755,48.05,10.95,10.95,0,0,1,45.817,58.988ZM16.157,34.249a1.893,1.893,0,0,0-3.147,0L.249,56.125a1.822,1.822,0,0,0,1.574,2.741H27.344a1.822,1.822,0,0,0,1.574-2.741ZM5,55.221l9.588-16.435,9.588,16.435ZM7.537,28.534a1.818,1.818,0,0,0,1.577.911H23.7a1.818,1.818,0,0,0,1.577-.911l7.292-12.629a1.814,1.814,0,0,0,0-1.823L25.276,1.453A1.818,1.818,0,0,0,23.7.542H9.115a1.818,1.818,0,0,0-1.577.911L.245,14.082a1.814,1.814,0,0,0,0,1.823ZM60.4,4.178H38.525A1.822,1.822,0,0,0,36.7,6V27.876A1.822,1.822,0,0,0,38.525,29.7H60.4a1.822,1.822,0,0,0,1.823-1.823V6A1.822,1.822,0,0,0,60.4,4.178ZM58.578,26.053H40.348V7.824h18.23Z" transform="translate(0 -0.542)" fill="url(#linear-gradient)"/>
    </g>
  </g>
</svg>
