<svg id="Layer_1" enable-background="new 0 0 512 512" height="512" viewBox="0 0 512 512" width="512" xmlns="http://www.w3.org/2000/svg"><g><g><path d="m485.657 138.343-8-8c-1.5-1.5-3.535-2.343-5.657-2.343h-200v-16c13.255 0 24-10.745 24-24v-8c4.418 0 8-3.582 8-8v-8c0-4.418-3.582-8-8-8v-16c0-13.255-10.745-24-24-24h-32c-13.255 0-24 10.745-24 24v16c-4.418 0-8 3.582-8 8v8c0 4.418 3.582 8 8 8v8c0 13.255 10.745 24 24 24v16h-200c-2.122 0-4.157.843-5.657 2.343l-8 8c-3.125 3.124-3.125 8.189 0 11.313 1.562 1.563 3.61 2.344 5.657 2.344s4.095-.781 5.657-2.343l5.656-5.657h12.687c-4.418 0-8 3.582-8 8s3.582 8 8 8h8.697c1.649 4.658 6.08 8 11.303 8h116v304h-4c-6.627 0-12 5.373-12 12s5.373 12 12 12h40c6.627 0 12-5.373 12-12v-164h32v164c0 6.627 5.373 12 12 12h40c6.627 0 12-5.373 12-12s-5.373-12-12-12h-4v-304h116c5.223 0 9.654-3.342 11.302-8h8.698c4.418 0 8-3.582 8-8s-3.582-8-8-8h12.687l5.657 5.657c1.562 1.562 3.609 2.343 5.657 2.343s4.095-.781 5.657-2.343c3.123-3.124 3.123-8.19-.001-11.314z" fill="#fab991"/></g><path d="m432 140h-164v-43.069c9.118-1.858 16-9.94 16-19.598v-37.333c0-2.209-1.791-4-4-4s-4 1.791-4 4v28h-1.333c-2.206 0-4-1.794-4-4v-8c0-2.209-1.791-4-4-4s-4 1.791-4 4v8c0 6.617 5.383 12 12 12h1.333v1.333c0 6.617-5.383 12-12 12-2.209 0-4 1.791-4 4v74.667c0 6.617 5.383 12 12 12 2.206 0 4 1.794 4 4v44c0 4.411-3.589 8-8 8-4.78 0-9.066 2.118-12 5.452-2.934-3.334-7.22-5.452-12-5.452-4.411 0-8-3.589-8-8v-44c0-2.206 1.794-4 4-4 6.617 0 12-5.383 12-12v-74.667c0-2.209-1.791-4-4-4-6.617 0-12-5.383-12-12v-1.333h1.333c6.617 0 12-5.383 12-12v-8c0-2.209-1.791-4-4-4s-4 1.791-4 4v8c0 2.206-1.794 4-4 4h-1.333v-28c0-2.209-1.791-4-4-4s-4 1.791-4 4v37.333c0 9.658 6.882 17.74 16 19.598v43.069h-164c-2.209 0-4 1.791-4 4s1.791 4 4 4h108v1.333c0 2.206-1.794 4-4 4h-16c-2.209 0-4 1.791-4 4s1.791 4 4 4h16c6.617 0 12-5.383 12-12v-1.333h48v20c0 2.206-1.794 4-4 4-6.617 0-12 5.383-12 12v4h-12c-2.209 0-4 1.791-4 4s1.791 4 4 4h12v8h-12c-2.209 0-4 1.791-4 4s1.791 4 4 4h12v8h-12c-2.209 0-4 1.791-4 4s1.791 4 4 4h12c0 8.823 7.178 16 16 16 4.411 0 8 3.589 8 8v16c0 8.823-7.178 16-16 16-13.234 0-24 10.766-24 24v8h-1.333c-6.617 0-12 5.383-12 12v8c0 2.209 1.791 4 4 4s4-1.791 4-4v-8c0-2.206 1.794-4 4-4h1.333v88h-1.333c-6.617 0-12 5.383-12 12v8c0 2.209 1.791 4 4 4s4-1.791 4-4v-8c0-2.206 1.794-4 4-4h1.333v60c0 2.209 1.791 4 4 4s4-1.791 4-4v-12h1.333c2.206 0 4 1.794 4 4v8c0 2.209 1.791 4 4 4s4-1.791 4-4v-8c0-6.617-5.383-12-12-12h-1.333v-88h1.333c2.206 0 4 1.794 4 4v8c0 2.209 1.791 4 4 4s4-1.791 4-4v-8c0-6.617-5.383-12-12-12h-1.333v-56c0-8.823 7.178-16 16-16 8.34 0 15.697-4.278 20-10.753 4.303 6.475 11.66 10.753 20 10.753 8.822 0 16 7.177 16 16v56h-1.333c-6.617 0-12 5.383-12 12v8c0 2.209 1.791 4 4 4s4-1.791 4-4v-8c0-2.206 1.794-4 4-4h1.333v88h-1.333c-6.617 0-12 5.383-12 12v8c0 2.209 1.791 4 4 4s4-1.791 4-4v-8c0-2.206 1.794-4 4-4h1.333v12c0 2.209 1.791 4 4 4s4-1.791 4-4v-60h1.333c2.206 0 4 1.794 4 4v8c0 2.209 1.791 4 4 4s4-1.791 4-4v-8c0-6.617-5.383-12-12-12h-1.333v-88h1.333c2.206 0 4 1.794 4 4v8c0 2.209 1.791 4 4 4s4-1.791 4-4v-8c0-6.617-5.383-12-12-12h-1.333v-8c0-13.234-10.766-24-24-24-8.822 0-16-7.177-16-16v-16c0-4.411 3.589-8 8-8 8.822 0 16-7.177 16-16h12c2.209 0 4-1.791 4-4s-1.791-4-4-4h-12v-8h12c2.209 0 4-1.791 4-4s-1.791-4-4-4h-12v-8h12c2.209 0 4-1.791 4-4s-1.791-4-4-4h-12v-4c0-6.617-5.383-12-12-12-2.206 0-4-1.794-4-4v-20h48v1.333c0 6.617 5.383 12 12 12h16c2.209 0 4-1.791 4-4s-1.791-4-4-4h-16c-2.206 0-4-1.794-4-4v-1.333h108c2.209 0 4-1.791 4-4s-1.791-4-4-4z" fill="#3cb44b"/></g></svg>