<svg id="pattern" xmlns="http://www.w3.org/2000/svg" width="61.008" height="61.008" viewBox="0 0 61.008 61.008">
  <path id="Path_486" data-name="Path 486" d="M37.569,8H37.52a29.52,29.52,0,0,0-.049,59.04h.049A29.52,29.52,0,0,0,37.569,8Zm0,0" transform="translate(-7.016 -7.016)" fill="#e6e9ed"/>
  <path id="Path_487" data-name="Path 487" d="M133.392,114.7A18.7,18.7,0,1,1,114.7,96,18.7,18.7,0,0,1,133.392,114.7Zm0,0" transform="translate(-84.192 -84.192)" fill="#fcd770"/>
  <g id="Group_429" data-name="Group 429" transform="translate(2.952 2.952)">
    <path id="Path_488" data-name="Path 488" d="M211.656,24l5.1,8.541-.276.945a18.768,18.768,0,0,0-9.643,0l-.276-.945Zm0,0" transform="translate(-184.104 -24)" fill="#ff826e"/>
    <path id="Path_489" data-name="Path 489" d="M301.389,72.765l-.945.276a18.106,18.106,0,0,0-1.83-4.438c-.02-.029-.029-.059-.049-.088s-.02-.029-.03-.049A18.676,18.676,0,0,0,287.2,59.8l.276-.945L296.164,54l.128,9.948,9.948.138Zm0,0" transform="translate(-254.826 -50.31)" fill="#ff826e"/>
    <path id="Path_490" data-name="Path 490" d="M404.365,211.656l-8.541,5.1-.945-.276a18.767,18.767,0,0,0,0-9.643l.945-.276Zm0,0" transform="translate(-349.261 -184.104)" fill="#ff826e"/>
    <path id="Path_491" data-name="Path 491" d="M298.614,291.637a18.106,18.106,0,0,0,1.83-4.438l.945.276,4.851,8.688-9.948.128-.138,9.948-8.679-4.851-.276-.945a18.676,18.676,0,0,0,11.336-8.669c.01-.02.02-.029.03-.049S298.594,291.666,298.614,291.637Zm0,0" transform="translate(-254.826 -254.825)" fill="#ff826e"/>
    <path id="Path_492" data-name="Path 492" d="M216.477,394.879l.276.945-5.1,8.541-5.1-8.541.276-.945a18.767,18.767,0,0,0,9.643,0Zm0,0" transform="translate(-184.104 -349.261)" fill="#ff826e"/>
    <path id="Path_493" data-name="Path 493" d="M135.578,355.441a18.573,18.573,0,0,0,8.394,4.851l-.276.945-8.688,4.851-.128-9.948Zm0,0" transform="translate(-121.241 -314.674)" fill="#ff826e"/>
    <path id="Path_494" data-name="Path 494" d="M61.705,291.774a18.216,18.216,0,0,0,2.942,3.818l-.7.7L54,296.153l4.851-8.679.945-.276a18.106,18.106,0,0,0,1.83,4.438c.02.029.029.059.049.088S61.7,291.755,61.705,291.774Zm0,0" transform="translate(-50.31 -254.825)" fill="#ff826e"/>
    <path id="Path_495" data-name="Path 495" d="M32.541,206.559l.945.276a18.768,18.768,0,0,0,0,9.643l-.945.276L24,211.656Zm0,0" transform="translate(-24 -184.104)" fill="#ff826e"/>
    <path id="Path_496" data-name="Path 496" d="M61.626,139.533a18.106,18.106,0,0,0-1.83,4.438l-.945-.276L54,135.007l9.948-.128.7.7A18.215,18.215,0,0,0,61.7,139.4c-.01.02-.02.029-.03.049s-.029.059-.049.088Zm0,0" transform="translate(-50.31 -121.241)" fill="#ff826e"/>
    <path id="Path_497" data-name="Path 497" d="M143.971,59.8a18.573,18.573,0,0,0-8.394,4.851l-.7-.7L135.017,54l8.679,4.851Zm0,0" transform="translate(-121.241 -50.31)" fill="#ff826e"/>
  </g>
  <path id="Path_498" data-name="Path 498" d="M298.983,154.885a10.69,10.69,0,0,1,1.437,4.91,5.89,5.89,0,0,0,5.422-8.758c-.02-.029-.029-.059-.049-.088s-.02-.029-.03-.049a5.9,5.9,0,0,0-10.322.285A10.8,10.8,0,0,1,298.983,154.885Zm0,0" transform="translate(-259.102 -129.793)" fill="#b4dd7f"/>
  <path id="Path_499" data-name="Path 499" d="M303.638,252.8a5.848,5.848,0,0,0-3.217-.777,10.69,10.69,0,0,1-1.437,4.91,10.8,10.8,0,0,1-3.542,3.7,5.9,5.9,0,0,0,10.322.285c.01-.02.02-.029.03-.049s.029-.059.049-.088A5.9,5.9,0,0,0,303.638,252.8Zm0,0" transform="translate(-259.102 -221.014)" fill="#b4dd7f"/>
  <path id="Path_500" data-name="Path 500" d="M205.9,327.37a10.731,10.731,0,0,1-4.979-1.21,5.9,5.9,0,1,0,9.958,0A10.731,10.731,0,0,1,205.9,327.37Zm0,0" transform="translate(-175.4 -286.042)" fill="#b4dd7f"/>
  <path id="Path_501" data-name="Path 501" d="M117.543,256.93a10.69,10.69,0,0,1-1.437-4.91,5.89,5.89,0,0,0-5.422,8.758c.02.029.029.059.049.088s.02.029.03.049a5.9,5.9,0,0,0,10.322-.285,10.8,10.8,0,0,1-3.542-3.7Zm0,0" transform="translate(-96.416 -221.014)" fill="#b4dd7f"/>
  <path id="Path_502" data-name="Path 502" d="M112.888,159.019a5.848,5.848,0,0,0,3.217.777,10.69,10.69,0,0,1,1.437-4.91,10.8,10.8,0,0,1,3.542-3.7,5.9,5.9,0,0,0-10.322-.285c-.01.02-.02.029-.03.049s-.029.059-.049.088a5.9,5.9,0,0,0,2.2,7.981Zm0,0" transform="translate(-96.416 -129.794)" fill="#b4dd7f"/>
  <path id="Path_503" data-name="Path 503" d="M205.9,103.872a10.731,10.731,0,0,1,4.979,1.21,5.9,5.9,0,1,0-9.958,0A10.731,10.731,0,0,1,205.9,103.872Zm0,0" transform="translate(-175.4 -84.192)" fill="#b4dd7f"/>
  <path id="Path_504" data-name="Path 504" d="M325.011,183.682a1.966,1.966,0,1,1,.719-2.686A1.963,1.963,0,0,1,325.011,183.682Zm0,0" transform="translate(-282.443 -157.871)" fill="#ff826e"/>
  <path id="Path_505" data-name="Path 505" d="M325.011,284.277a1.966,1.966,0,1,1-2.686.718,1.972,1.972,0,0,1,2.686-.718Zm0,0" transform="translate(-282.443 -249.079)" fill="#ff826e"/>
  <path id="Path_506" data-name="Path 506" d="M235.936,337.968A1.968,1.968,0,1,1,233.968,336,1.968,1.968,0,0,1,235.936,337.968Zm0,0" transform="translate(-203.464 -294.672)" fill="#ff826e"/>
  <path id="Path_507" data-name="Path 507" d="M142.929,284.277a1.966,1.966,0,1,1-.719,2.686,1.963,1.963,0,0,1,.719-2.686Zm0,0" transform="translate(-124.489 -249.079)" fill="#ff826e"/>
  <path id="Path_508" data-name="Path 508" d="M145.616,182.963a1.966,1.966,0,1,1-.718-2.686A1.963,1.963,0,0,1,145.616,182.963Zm0,0" transform="translate(-124.489 -157.871)" fill="#ff826e"/>
  <path id="Path_509" data-name="Path 509" d="M235.936,129.968A1.968,1.968,0,1,1,233.968,128,1.968,1.968,0,0,1,235.936,129.968Zm0,0" transform="translate(-203.464 -112.256)" fill="#ff826e"/>
  <path id="Path_510" data-name="Path 510" d="M181.638,170.322a10.69,10.69,0,0,0-1.437-4.91,10.8,10.8,0,0,0-3.542-3.7,7.456,7.456,0,0,0-.856-.5,10.847,10.847,0,0,0-9.958,0,7.459,7.459,0,0,0-.856.5,10.8,10.8,0,0,0-3.542,3.7,10.69,10.69,0,0,0-1.437,4.91c-.01.167-.01.334-.01.5s0,.334.01.5a10.69,10.69,0,0,0,1.437,4.91,10.8,10.8,0,0,0,3.542,3.7,7.457,7.457,0,0,0,.856.5,10.847,10.847,0,0,0,9.958,0,7.454,7.454,0,0,0,.856-.5,10.8,10.8,0,0,0,3.542-3.7,10.69,10.69,0,0,0,1.437-4.91c.01-.167.01-.334.01-.5S181.648,170.49,181.638,170.322Zm0,0" transform="translate(-140.32 -140.32)" fill="#ffeaa7"/>
  <path id="Path_511" data-name="Path 511" d="M235.936,233.968A1.968,1.968,0,1,1,233.968,232,1.968,1.968,0,0,1,235.936,233.968Zm0,0" transform="translate(-203.464 -203.464)" fill="#ffc729"/>
  <path id="Path_512" data-name="Path 512" d="M30.5,0a30.5,30.5,0,1,0,30.5,30.5A30.539,30.539,0,0,0,30.5,0ZM12.792,30.5a17.716,17.716,0,0,1,.362-3.572A6.768,6.768,0,0,0,16.876,30.5a6.845,6.845,0,0,0-3.721,3.574,17.7,17.7,0,0,1-.362-3.571Zm-1.6,3.776L4.872,30.5,11.2,26.728a19.337,19.337,0,0,0,0,7.553Zm32.846-5.912a4.9,4.9,0,0,1-1.839.616,11.774,11.774,0,0,0-.413-1.951,2.911,2.911,0,0,0,1.268-.368h0a2.953,2.953,0,1,0-3.921-4.191,11.859,11.859,0,0,0-1.47-1.336,4.888,4.888,0,0,1,8.024.3c.072.12.149.237.218.36a4.918,4.918,0,0,1-1.868,6.572Zm-1.968,7.679a.984.984,0,1,1-1.343.36A.985.985,0,0,1,42.074,36.048Zm-22.155,1.7a.984.984,0,1,1,.359-1.344.985.985,0,0,1-.359,1.344ZM18.934,24.96a.984.984,0,1,1,1.344-.36.985.985,0,0,1-1.344.36Zm22.155-1.7a.984.984,0,1,1-.358,1.344.978.978,0,0,1,.358-1.344Zm-.8,6.264h-7.02a2.947,2.947,0,0,0-1.787-1.787v-7.02a9.858,9.858,0,0,1,8.807,8.807ZM31.488,43.3a.984.984,0,1,1-.984-.984A.985.985,0,0,1,31.488,43.3ZM30.5,31.488a.984.984,0,1,1,.984-.984A.985.985,0,0,1,30.5,31.488ZM29.52,17.712a.984.984,0,1,1,.984.984A.985.985,0,0,1,29.52,17.712Zm6.581-4a17.712,17.712,0,0,1,6.121,3.544,6.847,6.847,0,0,0-4.9,1.438,6.846,6.846,0,0,0-1.22-4.982Zm-.677,4a4.906,4.906,0,0,1-.386,1.892,11.7,11.7,0,0,0-1.893-.6,2.921,2.921,0,0,0,.311-1.293,2.952,2.952,0,1,0-5.9,0A2.914,2.914,0,0,0,27.863,19a11.728,11.728,0,0,0-1.893.6,4.917,4.917,0,1,1,9.454-1.891Zm-11.808,0a6.973,6.973,0,0,0,.07.983,6.78,6.78,0,0,0-.815-.552,6.853,6.853,0,0,0-4.084-.885,17.7,17.7,0,0,1,6.121-3.545,6.844,6.844,0,0,0-1.291,4Zm5.9,3v7.02a2.947,2.947,0,0,0-1.787,1.787h-7.02a9.858,9.858,0,0,1,8.807-8.807ZM20.714,31.488h7.02a2.947,2.947,0,0,0,1.787,1.787V40.3a9.858,9.858,0,0,1-8.807-8.807ZM24.907,47.3a17.7,17.7,0,0,1-6.127-3.551c.22.021.438.042.659.042a6.877,6.877,0,0,0,4.248-1.473,6.846,6.846,0,0,0,1.22,4.982Zm.677-4A4.906,4.906,0,0,1,25.97,41.4a11.7,11.7,0,0,0,1.893.6,2.921,2.921,0,0,0-.311,1.293,2.952,2.952,0,0,0,5.9,0A2.914,2.914,0,0,0,33.145,42a11.728,11.728,0,0,0,1.893-.6A4.917,4.917,0,1,1,25.584,43.3Zm11.808,0a6.973,6.973,0,0,0-.07-.983,6.874,6.874,0,0,0,4.249,1.474c.221,0,.44-.022.659-.042A17.686,17.686,0,0,1,36.1,47.3a6.861,6.861,0,0,0,1.289-4Zm-5.9-3v-7.02a2.947,2.947,0,0,0,1.787-1.787h7.02a9.858,9.858,0,0,1-8.807,8.807Zm5.39-28.39,6.445-3.6.1,7.39A19.649,19.649,0,0,0,36.878,11.9ZM31.207,10.86a6.976,6.976,0,0,0-1.407,0,19.772,19.772,0,0,0-3.073.336L30.5,4.871,34.28,11.2a19.772,19.772,0,0,0-3.073-.336ZM17.585,15.695l.1-7.389,6.445,3.6a19.658,19.658,0,0,0-6.544,3.79Zm-2.268,5.743a4.888,4.888,0,0,1,8.024-.3,11.858,11.858,0,0,0-1.47,1.336,2.936,2.936,0,0,0-.968-.924h0a2.953,2.953,0,0,0-2.951,5.115,2.908,2.908,0,0,0,1.268.368,11.8,11.8,0,0,0-.413,1.951A4.9,4.9,0,0,1,15.1,21.8c.069-.124.146-.241.218-.361Zm1.649,11.2a4.9,4.9,0,0,1,1.839-.615,11.8,11.8,0,0,0,.411,1.943,2.9,2.9,0,0,0-1.265.377h0a2.953,2.953,0,1,0,3.921,4.191,11.858,11.858,0,0,0,1.47,1.336,4.888,4.888,0,0,1-8.024-.3c-.072-.12-.149-.237-.218-.36a4.917,4.917,0,0,1,1.867-6.573ZM24.13,49.1l-6.445,3.6-.1-7.39A19.649,19.649,0,0,0,24.13,49.1ZM29.8,50.148a6.975,6.975,0,0,0,1.407,0,19.772,19.772,0,0,0,3.073-.336L30.5,56.137l-3.776-6.325a19.772,19.772,0,0,0,3.073.336Zm13.622-4.835-.1,7.389-6.445-3.6a19.658,19.658,0,0,0,6.544-3.79Zm2.268-5.743a4.888,4.888,0,0,1-8.024.3,11.858,11.858,0,0,0,1.47-1.336,2.936,2.936,0,0,0,.968.924h0a2.953,2.953,0,1,0,1.685-5.491,11.832,11.832,0,0,0,.411-1.944,4.9,4.9,0,0,1,3.706,7.187c-.069.124-.146.241-.218.361Zm-.665-8.635a6.906,6.906,0,0,0-.892-.433,6.774,6.774,0,0,0,3.72-3.569,17.785,17.785,0,0,1,0,7.143,6.835,6.835,0,0,0-2.828-3.141Zm4.786-4.207L56.136,30.5,49.811,34.28a19.336,19.336,0,0,0,0-7.553Zm1.031-1.676,4.644-8.318a28.35,28.35,0,0,1,3.538,13.2ZM49.1,24.13a19.514,19.514,0,0,0-1.417-3.192c-.047-.09-.088-.184-.14-.273a7.09,7.09,0,0,0-.4-.609,19.725,19.725,0,0,0-1.837-2.47l7.39.1ZM35.957,10.165,31.072,1.983a28.33,28.33,0,0,1,13.2,3.538Zm-10.906,0L16.735,5.52a28.337,28.337,0,0,1,13.2-3.537ZM13.857,20.056a7.224,7.224,0,0,0-.4.608c-.052.089-.093.182-.14.273A19.509,19.509,0,0,0,11.9,24.13l-3.6-6.445,7.39-.1a19.758,19.758,0,0,0-1.839,2.472Zm-3.692,5L1.983,29.937a28.331,28.331,0,0,1,3.538-13.2Zm0,10.9L5.52,44.274a28.337,28.337,0,0,1-3.537-13.2Zm1.74.922a19.514,19.514,0,0,0,1.417,3.192c.047.09.088.184.14.273.085.147.185.278.279.415A19.79,19.79,0,0,0,15.7,43.423l-7.39-.1ZM25.051,50.843l4.885,8.182a28.342,28.342,0,0,1-13.2-3.538Zm10.906,0,8.317,4.645a28.337,28.337,0,0,1-13.2,3.537ZM47.269,40.759c.093-.137.195-.269.279-.415.052-.089.093-.182.14-.273A19.509,19.509,0,0,0,49.1,36.878l3.6,6.445-7.39.1a19.682,19.682,0,0,0,1.956-2.665Zm3.575-4.8,8.182-4.885a28.357,28.357,0,0,1-3.538,13.2Zm4.076-20.211-9.528-.128-.13-9.529a28.767,28.767,0,0,1,9.658,9.657ZM15.747,6.089l-.129,9.528-9.528.128a28.753,28.753,0,0,1,9.657-9.656ZM6.089,45.262l9.528.128.13,9.529a28.768,28.768,0,0,1-9.658-9.657Zm39.172,9.657.129-9.528,9.528-.128a28.753,28.753,0,0,1-9.657,9.656Zm0,0"/>
  <path id="Path_513" data-name="Path 513" d="M288,40h1.968v1.968H288Zm0,0" transform="translate(-252.576 -35.08)"/>
  <path id="Path_514" data-name="Path 514" d="M178.641,40.855l1.7-.984.984,1.7-1.7.984Zm0,0" transform="translate(-156.668 -34.967)"/>
  <path id="Path_515" data-name="Path 515" d="M87.863,97.208l.984-1.7,1.7.984-.984,1.7Zm0,0" transform="translate(-77.056 -83.757)"/>
  <path id="Path_516" data-name="Path 516" d="M40,192h1.968v1.968H40Zm0,0" transform="translate(-35.08 -168.384)"/>
  <path id="Path_517" data-name="Path 517" d="M39.859,296.5l1.7-.984.984,1.7-1.7.984Zm0,0" transform="translate(-34.957 -259.168)"/>
  <path id="Path_518" data-name="Path 518" d="M95.508,387.966l.984-1.7,1.7.984-.984,1.7Zm0,0" transform="translate(-83.76 -338.751)"/>
  <path id="Path_519" data-name="Path 519" d="M192,440h1.968v1.968H192Zm0,0" transform="translate(-168.384 -385.88)"/>
  <path id="Path_520" data-name="Path 520" d="M295.5,435.273l1.7-.984.984,1.7-1.7.983Zm0,0" transform="translate(-259.153 -380.871)"/>
  <path id="Path_521" data-name="Path 521" d="M386.258,380.345l.984-1.7,1.7.984-.984,1.7Zm0,0" transform="translate(-338.748 -332.068)"/>
  <path id="Path_522" data-name="Path 522" d="M440,288h1.968v1.968H440Zm0,0" transform="translate(-385.88 -252.576)"/>
  <path id="Path_523" data-name="Path 523" d="M434.27,179.632l1.7-.984.984,1.7-1.7.984Zm0,0" transform="translate(-380.855 -156.674)"/>
  <path id="Path_524" data-name="Path 524" d="M378.633,89.56l.984-1.7,1.7.984-.984,1.7Zm0,0" transform="translate(-332.061 -77.049)"/>
  <path id="Path_525" data-name="Path 525" d="M280,208h1.968v1.968H280Zm0,0" transform="translate(-245.56 -182.416)"/>
  <path id="Path_526" data-name="Path 526" d="M200,208h1.968v1.968H200Zm0,0" transform="translate(-175.4 -182.416)"/>
  <path id="Path_527" data-name="Path 527" d="M200,272h1.968v1.968H200Zm0,0" transform="translate(-175.4 -238.544)"/>
  <path id="Path_528" data-name="Path 528" d="M280,272h1.968v1.968H280Zm0,0" transform="translate(-245.56 -238.544)"/>
</svg>
