<svg xmlns="http://www.w3.org/2000/svg" width="56.093" height="59.329" viewBox="0 0 56.093 59.329">
  <g id="noun_Shuffle_230485" transform="translate(-11 -8.8)">
    <path id="Path_638" data-name="Path 638" d="M31.28,51.085a2.259,2.259,0,0,1,.072,3.164A18.535,18.535,0,0,1,17.9,59.931H13.229a2.229,2.229,0,1,1,0-4.459H17.9a13.964,13.964,0,0,0,10.212-4.315A2.195,2.195,0,0,1,31.28,51.085ZM58.247,9.447a2.237,2.237,0,1,0-3.164,3.164L59.47,17H50.912a18.655,18.655,0,0,0-13.448,5.681,2.195,2.195,0,0,0,.072,3.164,2.257,2.257,0,0,0,3.164,0,14.083,14.083,0,0,1,10.212-4.315H59.47l-4.387,4.387a2.257,2.257,0,0,0,0,3.164,2.257,2.257,0,0,0,3.164,0l8.2-8.2a2.257,2.257,0,0,0,0-3.164Zm0,38.474a2.237,2.237,0,1,0-3.164,3.164l4.387,4.387H50.912A14.272,14.272,0,0,1,36.673,41.233V34.9a.912.912,0,0,0-.072-.431A18.724,18.724,0,0,0,17.9,17H13.229a2.229,2.229,0,1,0,0,4.459H17.9A14.272,14.272,0,0,1,32.143,35.7v6.328a.912.912,0,0,0,.072.431,18.724,18.724,0,0,0,18.7,17.475H59.47l-4.387,4.387a2.257,2.257,0,0,0,0,3.164,2.257,2.257,0,0,0,3.164,0l8.2-8.2a2.257,2.257,0,0,0,0-3.164Z"/>
  </g>
</svg>
