<svg xmlns="http://www.w3.org/2000/svg" xmlns:xlink="http://www.w3.org/1999/xlink" width="85.731" height="48.151" viewBox="0 0 85.731 48.151">
  <defs>
    <linearGradient id="linear-gradient" x1="0.5" x2="0.5" y2="1" gradientUnits="objectBoundingBox">
      <stop offset="0" stop-color="#00cb75"/>
      <stop offset="1" stop-color="#ace233"/>
    </linearGradient>
  </defs>
  <g id="roller-coster" transform="translate(0 -112)">
    <path id="Path_479" data-name="Path 479" d="M84.473,184.265H83.047v-22.9A17.384,17.384,0,0,0,65.683,144a17.014,17.014,0,0,0-12.993,5.812l-5.183,5.158a1.263,1.263,0,0,0-.293.292l-4.348,4.327-4.347-4.327a1.264,1.264,0,0,0-.294-.292l-5.025-5a1.262,1.262,0,0,0-.419-.417l-.911-.906-.014-.013-.016-.016A17.364,17.364,0,0,0,2.684,161.364v22.9H1.258a1.258,1.258,0,1,0,0,2.517H84.473a1.258,1.258,0,1,0,0-2.517Zm-3.943-22.9v22.9H76.336V151.034A14.8,14.8,0,0,1,80.531,161.364Zm-6.711,22.9H70.968V147.489a14.816,14.816,0,0,1,2.892,1.488,1.257,1.257,0,0,0-.039.308Zm-5.369-37.489v37.489H65.6V146.6c0-.028,0-.055,0-.083h.088A14.862,14.862,0,0,1,68.451,146.776Zm-5.369,37.489H60.23V147.943a1.252,1.252,0,0,0-.067-.4,14.442,14.442,0,0,1,2.919-.809ZM57.714,148.8v35.47H54.861v-33.1A15.234,15.234,0,0,1,57.714,148.8Zm-42.95,29.11v6.36H11.912V176.7A17.249,17.249,0,0,0,14.764,177.906Zm2.517.6a17.413,17.413,0,0,0,2.768.222h.084v5.537H17.281Zm5.369.026a17.3,17.3,0,0,0,2.852-.68v6.412H22.649Zm5.369-1.739a17.346,17.346,0,0,0,2.852-1.85v9.32H28.018Zm5.369-4.221,2.852-2.839v14.53H33.387Zm5.369-5.343,2.852-2.839v19.873H38.755Zm5.369-5.343,2.852-2.839v25.216H44.124Zm5.369-5.343,2.852-2.839v30.559H49.493ZM9.4,151.034v15.7a1.258,1.258,0,0,0,2.517,0V149.285a1.257,1.257,0,0,0-.039-.308,14.821,14.821,0,0,1,2.892-1.488v23.27a1.258,1.258,0,1,0,2.517,0V146.776a14.862,14.862,0,0,1,2.768-.26l.088,0c0,.027,0,.054,0,.082v25.5a1.258,1.258,0,0,0,2.517,0V146.747a14.779,14.779,0,0,1,2.907.827,1.261,1.261,0,0,0-.055.368v21.475a1.258,1.258,0,0,0,2.517,0V148.837a14.9,14.9,0,0,1,2.1,1.617l.751.748v14.189a1.258,1.258,0,1,0,2.517,0V153.706l2.852,2.839v3.478a1.258,1.258,0,1,0,2.517,0v-.973l2.327,2.315L30.111,172.282A14.844,14.844,0,0,1,9.4,151.034ZM5.2,170.36A17.5,17.5,0,0,0,9.4,175.067v9.2H5.2Z" transform="translate(0 -26.631)" fill="url(#linear-gradient)"/>
    <path id="Path_480" data-name="Path 480" d="M330.94,116.514a1.255,1.255,0,0,0,.532-.119,20.408,20.408,0,0,1,15.145-.786,1.258,1.258,0,0,0,.819-2.38,22.927,22.927,0,0,0-17.029.885,1.258,1.258,0,0,0,.533,2.4Z" transform="translate(-274.369 0)" fill="url(#linear-gradient)"/>
    <path id="Path_481" data-name="Path 481" d="M290.059,145.308a1.255,1.255,0,0,0,.933-.414,21.011,21.011,0,0,1,2.294-2.179,1.258,1.258,0,1,0-1.589-1.951,23.511,23.511,0,0,0-2.569,2.441,1.258,1.258,0,0,0,.932,2.1Z" transform="translate(-240.349 -23.703)" fill="url(#linear-gradient)"/>
  </g>
</svg>
