<svg id="Capa_1" enable-background="new 0 0 510 510" height="512" viewBox="0 0 510 510" width="512" xmlns="http://www.w3.org/2000/svg"><g><path d="m99.201 9.097c-16.337-16.337-42.35-9.229-51.311 10.042-5.344 11.492-3.275 25.58 6.207 35.062l53.214 53.213h.001l7.188-47.664-7.189-42.544z" fill="#f2734c"/><path d="m310.212 401.396c-4.099 5.854-9.712 13.873-9.712 28.601 0 14.729 5.613 22.747 9.711 28.603 5.893 8.418 5.897 14.374 0 22.799-4.098 5.855-9.711 13.874-9.711 28.603h22l7.833-52.333-7.833-67.669h-8c0 5.271-1.255 7.064-4.288 11.396z" fill="#dfedf7"/><path d="m322.5 330 11-167.5-11-162.5h-45c-2.178 9.232-37.083 157.231-39.267 166.49-3.88 16.453-14.003 29.984-27.371 38.1-19.243 11.684-30.862 36.471-30.862 59.955 0 36.074 26.793 65.455 60 65.455z" fill="#f4dbcb"/><path d="m412.5 390h-30c0 5.271-1.255 7.064-4.288 11.396-4.099 5.854-9.712 13.873-9.712 28.601 0 14.729 5.613 22.747 9.711 28.603 5.893 8.418 5.897 14.374 0 22.799-4.098 5.855-9.711 13.874-9.711 28.603h30c0-5.272 1.256-7.066 4.289-11.399 4.098-5.855 9.711-13.874 9.711-28.603 0-14.728-5.613-22.747-9.711-28.602-5.892-8.417-5.898-14.372-.001-22.795 4.099-5.857 9.712-13.875 9.712-28.603z" fill="#cae0ec"/><path d="m330.5 510c0-5.272 1.256-7.066 4.289-11.399 4.098-5.855 9.711-13.874 9.711-28.603 0-14.728-5.613-22.747-9.711-28.602-5.892-8.417-5.898-14.372-.001-22.795 4.099-5.854 9.712-13.873 9.712-28.601h-22v120z" fill="#cae0ec"/><path d="m276.5 390h-30c0 5.271-1.255 7.064-4.288 11.396-4.099 5.854-9.712 13.873-9.712 28.601 0 14.729 5.613 22.747 9.711 28.603 5.892 8.416 5.898 14.374 0 22.799-4.099 5.855-9.711 13.874-9.711 28.603h30c0-5.272 1.256-7.066 4.289-11.399 4.098-5.855 9.711-13.874 9.711-28.603 0-14.728-5.613-22.747-9.711-28.602-5.892-8.417-5.898-14.372-.001-22.795 4.099-5.857 9.712-13.875 9.712-28.603z" fill="#dfedf7"/><path d="m115.42 9.098-8.109 8.108v90.208l52.622-52.621c10.778-10.778 12.23-27.352 4.353-39.691-11.416-17.884-34.999-19.871-48.866-6.004z" fill="#ff4a4a"/><path d="m434.138 204.59c-13.37-8.117-23.49-21.649-27.37-38.1-2.178-9.232-37.084-157.231-39.268-166.49h-45v330h82.5c33.242 0 60-29.418 60-65.455 0-23.558-11.676-48.306-30.862-59.955z" fill="#edbba8"/><path d="m292.5 300c0-24.223-13.458-46-35.125-56.833-.604-.302-3.301-1.65-3.167-1.583-4.692 9.384-8.724 17.447-13.416 26.832 1.51.977 10.508 3.871 16.727 13.934 3.205 5.186 4.981 11.257 4.981 17.65 0 32.907 26.837 60 60 60l11-14.333-11-15.667c-16.542 0-30-13.457-30-30z" fill="#edbba8"/><path d="m382.5 300c0-6.394 1.776-12.464 4.981-17.65 6.215-10.056 15.218-12.958 16.727-13.934-4.692-9.385-8.724-17.448-13.416-26.832-1.495.994-17.659 6.863-28.854 24.977-6.073 9.827-9.438 21.327-9.438 33.439 0 16.541-13.457 30-30 30v30c32.992 0 60-26.918 60-60z" fill="#e8a38c"/></g></svg>