<svg xmlns="http://www.w3.org/2000/svg" width="68.701" height="69.296" viewBox="0 0 68.701 69.296">
  <path id="spiral" d="M36.814,69.3A36.855,36.855,0,0,1,0,32.483a32.483,32.483,0,0,1,64.965,0,28.152,28.152,0,0,1-56.3,0,23.821,23.821,0,0,1,47.641,0,19.49,19.49,0,0,1-38.979,0,15.159,15.159,0,0,1,30.317,0,10.828,10.828,0,0,1-21.655,0,6.5,6.5,0,1,1,12.993,0v2.166H34.648V32.483a2.166,2.166,0,0,0-4.331,0,6.5,6.5,0,0,0,12.993,0,10.828,10.828,0,0,0-21.655,0,15.159,15.159,0,1,0,30.317,0,19.49,19.49,0,0,0-38.979,0,23.821,23.821,0,1,0,47.641,0,28.152,28.152,0,1,0-56.3,0A32.487,32.487,0,0,0,64.952,48.722l3.749,2.17A36.955,36.955,0,0,1,36.814,69.3Zm0,0" fill="#40a2e7"/>
</svg>
