<svg xmlns="http://www.w3.org/2000/svg" width="59.995" height="60.002" viewBox="0 0 59.995 60.002">
  <g id="Page-1" transform="translate(-0.003 0.002)">
    <g id="_029---Lane-Split" data-name="029---Lane-Split" transform="translate(0 -1)">
      <path id="Shape" d="M36,56v3a1,1,0,0,1-1,1H25a1,1,0,0,1-1-1V56a13.839,13.839,0,0,0-4.72-10.41l-2.46-2.15A25.821,25.821,0,0,1,8,24V21H2a.987.987,0,0,1-.81-1.56L12.47,3.39l.69-.98a1,1,0,0,1,1.62,0L26.81,19.44A.987.987,0,0,1,26,21H20v3a13.839,13.839,0,0,0,4.72,10.41l2.46,2.15A25.976,25.976,0,0,1,36,56Z" fill="#0377bc"/>
      <path id="Shape-2" data-name="Shape" d="M33,56v3a1,1,0,0,1-1,1H25a1,1,0,0,1-1-1V56a13.839,13.839,0,0,0-4.72-10.41l-2.46-2.15A25.821,25.821,0,0,1,8,24V21H2a.987.987,0,0,1-.81-1.56L12.47,3.39,23.81,19.44A.987.987,0,0,1,23,21H17v3a13.839,13.839,0,0,0,4.72,10.41l2.46,2.15A25.976,25.976,0,0,1,33,56Z" fill="#02a9f4"/>
      <path id="Shape-3" data-name="Shape" d="M58,21H52v3a25.821,25.821,0,0,1-8.82,19.44l-2.46,2.15A13.839,13.839,0,0,0,36,56a25.877,25.877,0,0,0-1.01-7.14A25.556,25.556,0,0,0,30,39.46a25.7,25.7,0,0,1,2.82-2.9l2.46-2.15A13.839,13.839,0,0,0,40,24V21H34a.987.987,0,0,1-.81-1.56L44.47,3.39l.69-.98a1,1,0,0,1,1.62,0L58.81,19.44A.987.987,0,0,1,58,21Z" fill="#283593"/>
      <path id="Shape-4" data-name="Shape" d="M55,21H49v3a25.821,25.821,0,0,1-8.82,19.44l-2.46,2.15a13.506,13.506,0,0,0-2.73,3.27A25.556,25.556,0,0,0,30,39.46a25.7,25.7,0,0,1,2.82-2.9l2.46-2.15A13.839,13.839,0,0,0,40,24V21H34a.987.987,0,0,1-.81-1.56L44.47,3.39,55.81,19.44A.987.987,0,0,1,55,21Z" fill="#3f51b5"/>
      <g id="Group_425" data-name="Group 425">
        <path id="Shape-5" data-name="Shape" d="M8,26a1,1,0,0,1-1-1V24a1,1,0,0,1,2,0v1A1,1,0,0,1,8,26Z"/>
        <path id="Shape-6" data-name="Shape" d="M20,26.01a1,1,0,0,1-1-1V24a1,1,0,0,1,2,0v1.01A1,1,0,0,1,20,26.01Z"/>
        <path id="Shape-7" data-name="Shape" d="M40,26a1,1,0,0,1-1-1V24a1,1,0,0,1,2,0v1A1,1,0,0,1,40,26Z"/>
        <path id="Shape-8" data-name="Shape" d="M52,26.01a1,1,0,0,1-1-1V24a1,1,0,0,1,2,0v1.01A1,1,0,0,1,52,26.01Z"/>
        <path id="Shape-9" data-name="Shape" d="M35,61H25a2,2,0,0,1-2-2V56a12.844,12.844,0,0,0-4.379-9.658l-2.459-2.149A26.832,26.832,0,0,1,7,24V22H2A1.988,1.988,0,0,1,.222,20.914a1.97,1.97,0,0,1,.157-2.06L12.342,1.835a2,2,0,0,1,3.247-.013L27.627,18.863a1.965,1.965,0,0,1,.151,2.051A1.988,1.988,0,0,1,26,22H21v2a12.846,12.846,0,0,0,4.379,9.658l2.459,2.149A26.975,26.975,0,0,1,37,56v3A2,2,0,0,1,35,61ZM8,20a1,1,0,0,1,1,1v3a24.835,24.835,0,0,0,8.479,18.688l2.46,2.149A14.847,14.847,0,0,1,25,56v3H35V56a24.976,24.976,0,0,0-8.481-18.69l-2.457-2.147A14.849,14.849,0,0,1,19,24V21a1,1,0,0,1,1-1h6L13.964,2.987,2.008,20.015Z"/>
        <path id="Shape-10" data-name="Shape" d="M36,57a1,1,0,0,1-1-1,24.8,24.8,0,0,0-5.767-15.9,1,1,0,0,1,0-1.278,26.621,26.621,0,0,1,2.931-3.014l2.463-2.153A12.845,12.845,0,0,0,39,24V22H34a1.987,1.987,0,0,1-1.621-3.146L44.342,1.835a2,2,0,0,1,3.247-.013L59.627,18.863a1.965,1.965,0,0,1,.151,2.051A1.988,1.988,0,0,1,58,22H53v2a26.831,26.831,0,0,1-9.162,20.192l-2.46,2.15A12.843,12.843,0,0,0,37,56a1,1,0,0,1-1,1ZM31.3,39.478a26.776,26.776,0,0,1,5,10.446,14.848,14.848,0,0,1,3.759-5.086l2.461-2.151A24.833,24.833,0,0,0,51,24V21a1,1,0,0,1,1-1h6.007L45.964,2.987,34.008,20.015,40,20a1,1,0,0,1,1,1v3a14.848,14.848,0,0,1-5.06,11.162l-2.461,2.151A25.2,25.2,0,0,0,31.3,39.478Z"/>
      </g>
    </g>
  </g>
</svg>
