<svg xmlns="http://www.w3.org/2000/svg" xmlns:xlink="http://www.w3.org/1999/xlink" width="89.82" height="43.36" viewBox="0 0 89.82 43.36">
  <defs>
    <linearGradient id="linear-gradient" x1="0.241" y1="-0.28" x2="0.5" y2="1" gradientUnits="objectBoundingBox">
      <stop offset="0" stop-color="#00cb75"/>
      <stop offset="1" stop-color="#ace233"/>
    </linearGradient>
  </defs>
  <path id="Subtraction_11" data-name="Subtraction 11" d="M22.711,43.36a9.385,9.385,0,0,1-3.6-.743A97.684,97.684,0,0,1,5.686,36.358,16.952,16.952,0,0,1,1.535,33,5.769,5.769,0,0,1,0,29.239V11.466A14.227,14.227,0,0,1,2.58,5.733,13.493,13.493,0,0,1,7.256,1.792,17.882,17.882,0,0,1,15.48,0H74.341a17.635,17.635,0,0,1,8.143,1.792,13.723,13.723,0,0,1,4.685,3.941,14.609,14.609,0,0,1,2.651,5.733V29.239c0,5.449-8.619,9.025-18.6,13.165l-.511.212a9.48,9.48,0,0,1-3.5.688,10.477,10.477,0,0,1-4.854-1.278,19.153,19.153,0,0,1-4.25-3.14A51.583,51.583,0,0,1,51.813,31.2c-.726-1.026-1.3-1.837-1.743-2.344a6.361,6.361,0,0,0-4.6-2.341,2.752,2.752,0,0,0-.555.047,2.778,2.778,0,0,0-.743-.085,5.944,5.944,0,0,0-4.417,2.379c-.448.512-1.029,1.339-1.764,2.387a51.689,51.689,0,0,1-6.251,7.7,19,19,0,0,1-4.213,3.139,10.314,10.314,0,0,1-4.81,1.278h0Zm42.2-27.971a5,5,0,0,0,0,10h9a5,5,0,1,0,0-10Z" transform="translate(0)" fill="url(#linear-gradient)"/>
</svg>
