<svg xmlns="http://www.w3.org/2000/svg" width="36.216" height="67.427" viewBox="0 0 36.216 67.427">
  <g id="spring" transform="translate(-118.5)">
    <g id="Group_458" data-name="Group 458" transform="translate(123.277 5.588)">
      <g id="Group_457" data-name="Group 457" transform="translate(0.237 3.134)">
        <path id="Path_573" data-name="Path 573" d="M179.951,76.627,157.986,70.1a1.975,1.975,0,1,1,1.125-3.787l21.965,6.527a1.975,1.975,0,0,1-1.125,3.787Z" transform="translate(-156.573 -66.231)" fill="#6eabc9"/>
        <path id="Path_574" data-name="Path 574" d="M179.952,151.418l-21.965-6.527a1.975,1.975,0,0,1,1.125-3.787l21.965,6.527a1.975,1.975,0,1,1-1.125,3.787Z" transform="translate(-156.573 -131.172)" fill="#6eabc9"/>
        <path id="Path_575" data-name="Path 575" d="M179.952,226.209l-21.965-6.527a1.975,1.975,0,0,1,1.125-3.787l21.965,6.527a1.975,1.975,0,1,1-1.125,3.787Z" transform="translate(-156.573 -196.114)" fill="#6eabc9"/>
        <path id="Path_576" data-name="Path 576" d="M179.952,301l-21.965-6.527a1.975,1.975,0,1,1,1.125-3.787l21.965,6.527A1.975,1.975,0,0,1,179.952,301Z" transform="translate(-156.573 -261.054)" fill="#6eabc9"/>
        <path id="Path_577" data-name="Path 577" d="M179.952,375.79l-21.965-6.527a1.975,1.975,0,0,1,1.125-3.787L181.078,372a1.975,1.975,0,1,1-1.125,3.787Z" transform="translate(-156.573 -325.996)" fill="#6eabc9"/>
      </g>
      <path id="Path_578" data-name="Path 578" d="M157.012,49.419l22.711-3.052a1.975,1.975,0,0,0-.526-3.916L156.486,45.5a1.975,1.975,0,0,0,.526,3.916Z" transform="translate(-154.773 -42.433)" fill="#a9dbf5"/>
      <path id="Path_579" data-name="Path 579" d="M323.677,44.146a1.975,1.975,0,0,0-2.221-1.695l-2.847.383a2.442,2.442,0,0,1,.373,3.936l3-.4A1.975,1.975,0,0,0,323.677,44.146Z" transform="translate(-297.033 -42.433)" fill="#88c3e0"/>
      <path id="Path_580" data-name="Path 580" d="M157.012,124.21l22.711-3.052a1.975,1.975,0,0,0-.526-3.916l-22.711,3.052a1.975,1.975,0,0,0,.526,3.916Z" transform="translate(-154.773 -107.375)" fill="#a9dbf5"/>
      <path id="Path_581" data-name="Path 581" d="M323.934,118.937a1.975,1.975,0,0,0-2.221-1.695l-2.808.377a2.384,2.384,0,0,1,.185,3.961l3.15-.423A1.976,1.976,0,0,0,323.934,118.937Z" transform="translate(-297.29 -107.375)" fill="#88c3e0"/>
      <path id="Path_582" data-name="Path 582" d="M157.012,199l22.711-3.052a1.975,1.975,0,1,0-.526-3.915l-22.711,3.052a1.975,1.975,0,0,0,.526,3.915Z" transform="translate(-154.773 -172.317)" fill="#a9dbf5"/>
      <path id="Path_583" data-name="Path 583" d="M323.941,193.727a1.975,1.975,0,0,0-2.221-1.695l-2.807.377a2.383,2.383,0,0,1,.18,3.962l3.154-.424A1.976,1.976,0,0,0,323.941,193.727Z" transform="translate(-297.297 -172.316)" fill="#88c3e0"/>
      <path id="Path_584" data-name="Path 584" d="M157.012,273.791l22.711-3.052a1.975,1.975,0,0,0-.526-3.916l-22.711,3.052a1.975,1.975,0,0,0,.526,3.916Z" transform="translate(-154.773 -237.257)" fill="#a9dbf5"/>
      <path id="Path_585" data-name="Path 585" d="M323.969,268.518a1.975,1.975,0,0,0-2.221-1.695l-2.8.377a2.376,2.376,0,0,1,.156,3.965l3.173-.426A1.976,1.976,0,0,0,323.969,268.518Z" transform="translate(-297.325 -237.257)" fill="#88c3e0"/>
      <path id="Path_586" data-name="Path 586" d="M157.012,348.582l22.711-3.052a1.975,1.975,0,0,0-.526-3.915l-22.711,3.052a1.975,1.975,0,0,0,.526,3.916Z" transform="translate(-154.773 -302.199)" fill="#a9dbf5"/>
      <path id="Path_587" data-name="Path 587" d="M323.754,343.308a1.975,1.975,0,0,0-2.221-1.695l-2.835.381a2.422,2.422,0,0,1,.316,3.944l3.045-.409A1.975,1.975,0,0,0,323.754,343.308Z" transform="translate(-297.11 -302.198)" fill="#88c3e0"/>
      <path id="Path_588" data-name="Path 588" d="M157.012,423.372l22.711-3.052a1.975,1.975,0,0,0-.526-3.916l-22.711,3.052a1.975,1.975,0,1,0,.526,3.915Z" transform="translate(-154.773 -367.139)" fill="#a9dbf5"/>
      <path id="Path_589" data-name="Path 589" d="M323.731,418.1a1.975,1.975,0,0,0-2.221-1.695l-2.766.372a2.322,2.322,0,0,1-.072,4l3.365-.452A1.976,1.976,0,0,0,323.731,418.1Z" transform="translate(-297.087 -367.139)" fill="#88c3e0"/>
    </g>
    <path id="Path_590" data-name="Path 590" d="M158.66,14.085H127.58A1.58,1.58,0,0,1,126,12.5V9.08a1.58,1.58,0,0,1,1.58-1.58h31.08a1.58,1.58,0,0,1,1.58,1.58V12.5A1.58,1.58,0,0,1,158.66,14.085Z" transform="translate(-6.512 -6.512)" fill="#d67b42"/>
    <path id="Path_591" data-name="Path 591" d="M347.951,7.5H344a1.58,1.58,0,0,1,1.58,1.58V12.5a1.58,1.58,0,0,1-1.58,1.58h3.951a1.58,1.58,0,0,0,1.58-1.58V9.08A1.58,1.58,0,0,0,347.951,7.5Z" transform="translate(-195.803 -6.512)" fill="#be652b"/>
    <path id="Path_592" data-name="Path 592" d="M158.66,461.085H127.58A1.58,1.58,0,0,1,126,459.5V456.08a1.58,1.58,0,0,1,1.58-1.58h31.08a1.58,1.58,0,0,1,1.58,1.58V459.5A1.58,1.58,0,0,1,158.66,461.085Z" transform="translate(-6.512 -394.645)" fill="#d67b42"/>
    <path id="Path_593" data-name="Path 593" d="M347.951,454.5H344a1.58,1.58,0,0,1,1.58,1.58V459.5a1.58,1.58,0,0,1-1.58,1.58h3.951a1.58,1.58,0,0,0,1.58-1.58V456.08A1.58,1.58,0,0,0,347.951,454.5Z" transform="translate(-195.803 -394.645)" fill="#be652b"/>
    <path id="Path_594" data-name="Path 594" d="M150.75,8.56h1.4a2.571,2.571,0,0,0,2.568-2.568V2.568A2.571,2.571,0,0,0,152.148,0H132.3a.988.988,0,0,0,0,1.975h19.845a.593.593,0,0,1,.593.593V5.992a.593.593,0,0,1-.593.593h-31.08a.593.593,0,0,1-.593-.593V2.568a.593.593,0,0,1,.593-.593h7.063a.988.988,0,1,0,0-1.975h-7.063A2.571,2.571,0,0,0,118.5,2.568V5.992a2.571,2.571,0,0,0,2.568,2.568h2.054a2.993,2.993,0,0,0-.224.259,2.96,2.96,0,0,0,1.5,4.632c.076.03.155.059.247.087l9.315,2.768-9.1,1.223a2.962,2.962,0,0,0-.451,5.776c.084.033.163.061.238.083l9.315,2.768-9.1,1.223a2.961,2.961,0,0,0-.471,5.768c.092.036.178.067.259.091L133.959,36l-9.1,1.223a2.962,2.962,0,0,0-.44,5.779c.079.031.156.059.227.079l9.314,2.768-9.1,1.223a2.961,2.961,0,0,0-.476,5.766c.082.033.168.064.263.093l9.313,2.767-9.1,1.223a2.974,2.974,0,0,0-2.392,1.94h-1.4a2.571,2.571,0,0,0-2.568,2.568v3.424a2.571,2.571,0,0,0,2.568,2.568h23.975a.988.988,0,0,0,0-1.975H121.068a.593.593,0,0,1-.593-.593V61.435a.593.593,0,0,1,.593-.593h31.08a.593.593,0,0,1,.593.593v3.424a.593.593,0,0,1-.593.593h-2.817a.988.988,0,1,0,0,1.975h2.817a2.571,2.571,0,0,0,2.568-2.568V61.435a2.571,2.571,0,0,0-2.568-2.568h-2.054a2.993,2.993,0,0,0,.224-.259,2.961,2.961,0,0,0-1.593-4.659,3.009,3.009,0,0,0-.426-.167l-8.983-2.669,9.041-1.215a2.963,2.963,0,0,0,.358-5.8,3.015,3.015,0,0,0-.417-.163l-8.983-2.669,9.041-1.215a2.963,2.963,0,0,0,.358-5.8,3.025,3.025,0,0,0-.417-.163l-8.983-2.669,3.46-.465a.988.988,0,1,0-.263-1.958l-17.129,2.3a.988.988,0,1,1-.263-1.958l13.691-1.84h.006l9.013-1.211a.988.988,0,1,1,.263,1.958l-1.4.189a.988.988,0,1,0,.263,1.958l1.4-.189a2.963,2.963,0,0,0,.357-5.8,3.006,3.006,0,0,0-.416-.163l-8.983-2.669,9.042-1.215a2.963,2.963,0,0,0,.357-5.8,3.025,3.025,0,0,0-.416-.163l-8.983-2.669,9.042-1.215A2.976,2.976,0,0,0,150.75,8.56Zm-25.5,50.307,22.578-3.035a1.02,1.02,0,0,1,.135-.009.987.987,0,0,1,.129,1.966l-8.018,1.078Zm18.257-4.447-4.775.642L129.765,52.4l4.776-.642Zm5.24-6.859a.982.982,0,0,1-.654.38l-13.582,1.825H134.5l-9.119,1.226a.988.988,0,1,1-.263-1.958l22.71-3.052a1,1,0,0,1,.132-.009.988.988,0,0,1,.785,1.587Zm-5.24-2.99-4.774.642-8.967-2.665,4.774-.642Zm5.24-6.859a.982.982,0,0,1-.654.38l-13.583,1.826H134.5l-9.12,1.226a.994.994,0,0,1-.363-.019l-.039-.01a.987.987,0,0,1,.14-1.928l22.71-3.052a1,1,0,0,1,.132-.009.988.988,0,0,1,.785,1.587Zm-5.24-2.99-4.774.642L129.767,32.7l4.773-.642ZM147.964,8.56l-22.578,3.035a1.023,1.023,0,0,1-.135.009.972.972,0,0,1-.263-.036h-.005a.987.987,0,0,1-.515-1.549.98.98,0,0,1,.654-.379l8.018-1.078Zm-4.455,16.312-4.773.641-8.968-2.665,4.773-.641Zm5.24-6.859a.982.982,0,0,1-.654.38l-22.71,3.052a.988.988,0,1,1-.263-1.958l13.69-1.84h.008l9.012-1.211a1,1,0,0,1,.132-.009.983.983,0,0,1,.189.019h0a.987.987,0,0,1,.592,1.567Zm-5.24-2.99-4.773.641L129.767,13l4.773-.642Z" transform="translate(0)"/>
  </g>
</svg>
