<svg xmlns="http://www.w3.org/2000/svg" width="53.3" height="69.152" viewBox="0 0 53.3 69.152">
  <g id="buddha" transform="translate(-58.55)">
    <g id="Group_450" data-name="Group 450" transform="translate(58.55 0)">
      <path id="Path_556" data-name="Path 556" d="M80.146,58.354,85.2,53.3l1.17-2.958L85.2,47.557,80.146,42.5,85.2,37.448l1.17-2.872L85.2,31.7,80.146,26.65,85.2,21.6l1.17-2.7L85.2,15.852,80.146,10.8,85.2,5.744,86.37,3.1,85.2,0,74.4,10.8l7.926,7.926-5.054,5.054-7.926-7.926-10.8,10.8,7.926,7.926L58.55,42.5l10.8,10.8,7.926-7.926,5.054,5.054L74.4,58.354l10.8,10.8,1.17-2.873-1.17-2.87ZM64.293,26.65,69.348,21.6,74.4,26.65,69.348,31.7Zm5.054,20.906L64.293,42.5l5.054-5.054L74.4,42.5Zm7.926-7.926L72.22,34.576l5.054-5.054,5.054,5.054Z" transform="translate(-58.55 0)" fill="#ffdd46"/>
    </g>
    <path id="Path_557" data-name="Path 557" d="M282.062,26.65l-10.8-10.8-7.926,7.926-5.054-5.054L266.21,10.8,255.412,0V5.744l5.054,5.054-5.054,5.054V21.6l5.054,5.054L255.412,31.7v5.744l5.054,5.054-5.054,5.054V53.3l5.054,5.054-5.054,5.054v5.744l10.8-10.8-7.926-7.926,5.054-5.054,7.926,7.926,10.8-10.8-7.926-7.926Zm-10.8-5.054,5.054,5.054L271.264,31.7,266.21,26.65Zm-12.98,12.98,5.054-5.054,5.054,5.054-5.054,5.054ZM276.319,42.5l-5.054,5.054L266.21,42.5l5.054-5.054Z" transform="translate(-170.212)" fill="#ffb54c"/>
  </g>
</svg>
