<svg xmlns="http://www.w3.org/2000/svg" width="30.999" height="64.065" viewBox="0 0 30.999 64.065">
  <g id="traffic-light" transform="translate(-136 -8)">
    <g id="Group_474" data-name="Group 474" transform="translate(137.034 9.033)">
      <path id="Path_616" data-name="Path 616" d="M176,16h20.666V71.8H176Z" transform="translate(-171.867 -16)" fill="#57565c"/>
      <circle id="Ellipse_68" data-name="Ellipse 68" cx="7" cy="7" r="7" transform="translate(7.467 20.999)" fill="#ffda44"/>
      <circle id="Ellipse_69" data-name="Ellipse 69" cx="7" cy="7" r="7" transform="translate(7.467 2.999)" fill="#d80027"/>
      <ellipse id="Ellipse_70" data-name="Ellipse 70" cx="7" cy="7.5" rx="7" ry="7.5" transform="translate(7.467 37.999)" fill="#91cc04"/>
      <g id="Group_473" data-name="Group 473" transform="translate(0 3.1)">
        <path id="Path_617" data-name="Path 617" d="M339.1,54.466H336V40h4.133Z" transform="translate(-311.201 -40)" fill="#2d2d30"/>
        <path id="Path_618" data-name="Path 618" d="M339.1,190.466H336V176h4.133Z" transform="translate(-311.201 -158.434)" fill="#2d2d30"/>
        <path id="Path_619" data-name="Path 619" d="M339.1,326.466H336V312h4.133Z" transform="translate(-311.201 -276.868)" fill="#2d2d30"/>
        <path id="Path_620" data-name="Path 620" d="M145.033,54.466h3.1V40H144Z" transform="translate(-144 -40)" fill="#2d2d30"/>
        <path id="Path_621" data-name="Path 621" d="M145.033,190.466h3.1V176H144Z" transform="translate(-144 -158.434)" fill="#2d2d30"/>
        <path id="Path_622" data-name="Path 622" d="M145.033,326.466h3.1V312H144Z" transform="translate(-144 -276.868)" fill="#2d2d30"/>
        <path id="Path_623" data-name="Path 623" d="M240,448h4.133v6.2H240Z" transform="translate(-227.6 -395.302)" fill="#2d2d30"/>
      </g>
    </g>
    <g id="Group_475" data-name="Group 475" transform="translate(136 8)">
      <path id="Path_624" data-name="Path 624" d="M200.266,168a8.266,8.266,0,1,0,8.266,8.266A8.266,8.266,0,0,0,200.266,168Zm0,14.466a6.2,6.2,0,1,1,6.2-6.2A6.2,6.2,0,0,1,200.266,182.466Z" transform="translate(-184.767 -147.334)"/>
      <path id="Path_625" data-name="Path 625" d="M200.266,32a8.266,8.266,0,1,0,8.266,8.266A8.266,8.266,0,0,0,200.266,32Zm0,14.466a6.2,6.2,0,1,1,6.2-6.2A6.2,6.2,0,0,1,200.266,46.466Z" transform="translate(-184.767 -28.9)"/>
      <path id="Path_626" data-name="Path 626" d="M221.167,56A5.172,5.172,0,0,0,216,61.167a1.033,1.033,0,1,0,2.067,0,3.1,3.1,0,0,1,3.1-3.1,1.033,1.033,0,0,0,0-2.067Z" transform="translate(-205.667 -49.8)"/>
      <path id="Path_627" data-name="Path 627" d="M221.167,192A5.172,5.172,0,0,0,216,197.167a1.033,1.033,0,1,0,2.067,0,3.1,3.1,0,0,1,3.1-3.1,1.033,1.033,0,0,0,0-2.067Z" transform="translate(-205.667 -168.234)"/>
      <path id="Path_628" data-name="Path 628" d="M221.167,328A5.172,5.172,0,0,0,216,333.167a1.033,1.033,0,1,0,2.067,0,3.1,3.1,0,0,1,3.1-3.1,1.033,1.033,0,0,0,0-2.067Z" transform="translate(-205.667 -286.668)"/>
      <path id="Path_629" data-name="Path 629" d="M200.266,304a8.266,8.266,0,1,0,8.266,8.266A8.266,8.266,0,0,0,200.266,304Zm0,14.466a6.2,6.2,0,1,1,6.2-6.2A6.2,6.2,0,0,1,200.266,318.466Z" transform="translate(-184.767 -265.768)"/>
      <path id="Path_630" data-name="Path 630" d="M164.933,45.2a1.033,1.033,0,0,0,1.031-.96L167,29.773a1.035,1.035,0,0,0-1.031-1.107h-3.1V27.633h2.067a1.033,1.033,0,0,0,1.031-.96L167,12.207a1.035,1.035,0,0,0-1.031-1.107h-3.1V9.033A1.033,1.033,0,0,0,161.833,8H141.167a1.033,1.033,0,0,0-1.033,1.033V11.1h-3.1A1.035,1.035,0,0,0,136,12.207l1.033,14.466a1.033,1.033,0,0,0,1.031.96h2.067v1.033h-3.1A1.035,1.035,0,0,0,136,29.773l1.033,14.466a1.033,1.033,0,0,0,1.031.96h2.067v1.033h-3.1A1.035,1.035,0,0,0,136,47.339l1.033,14.466a1.033,1.033,0,0,0,1.031.96h2.067v2.067a1.033,1.033,0,0,0,1.033,1.033H148.4v5.167a1.033,1.033,0,0,0,1.033,1.033h4.133a1.033,1.033,0,0,0,1.033-1.033V65.865h7.233a1.033,1.033,0,0,0,1.033-1.033V62.765h2.067a1.033,1.033,0,0,0,1.031-.96L167,47.339a1.035,1.035,0,0,0-1.031-1.107h-3.1V45.2Zm-2.067-32.032h1.99l-.886,12.4h-1.1Zm0,17.566h1.99l-.886,12.4h-1.1ZM140.134,60.7h-1.1l-.886-12.4h1.99Zm0-17.566h-1.1l-.886-12.4h1.99Zm0-17.566h-1.1l-.886-12.4h1.99ZM152.533,70h-2.067V65.865h2.067Zm8.266-6.2H142.2V10.067h18.6Zm4.057-15.5-.886,12.4h-1.1V48.3Z" transform="translate(-136 -8)"/>
    </g>
  </g>
</svg>
