<svg xmlns="http://www.w3.org/2000/svg" xmlns:xlink="http://www.w3.org/1999/xlink" width="64.112" height="64.118" viewBox="0 0 64.112 64.118">
  <defs>
    <linearGradient id="linear-gradient" x1="0.853" y1="0.853" x2="0.147" y2="0.147" gradientUnits="objectBoundingBox">
      <stop offset="0" stop-color="#c7e554"/>
      <stop offset="1" stop-color="#f3d232"/>
    </linearGradient>
  </defs>
  <path id="yin-yang_1_" data-name="yin-yang (1)" d="M37.658,68.841q-.421.022-.848.022A32.057,32.057,0,1,1,63.264,18.691.947.947,0,0,1,61.7,19.762,30.178,30.178,0,0,0,36.809,6.641a14.617,14.617,0,0,0-13.383,8.742.947.947,0,0,1-1.735-.761,16.486,16.486,0,0,1,4.6-6.09A30.165,30.165,0,0,0,36.809,66.968a14.608,14.608,0,1,0,0-29.217,16.522,16.522,0,0,1-16.5-16.5,16.721,16.721,0,0,1,.139-2.149.947.947,0,0,1,1.878.245,14.78,14.78,0,0,0-.123,1.9A14.625,14.625,0,0,0,36.81,35.858a16.5,16.5,0,0,1,10.5,29.221A30.191,30.191,0,0,0,65.366,27.066a.947.947,0,0,1,1.793-.611,32.072,32.072,0,0,1-29.5,42.386ZM63.391,22.534c.242.45.473.906.686,1.353a.947.947,0,1,0,1.711-.812c-.227-.478-.472-.962-.728-1.44a.947.947,0,1,0-1.669.9ZM63.727,36.8a27.073,27.073,0,0,1-.306,4.064.947.947,0,0,0,.795,1.072.924.924,0,0,0,.143.011.947.947,0,0,0,.935-.805,28.969,28.969,0,0,0,.325-4.342.947.947,0,0,0-1.894,0ZM38.3,15.49a5.735,5.735,0,1,1-5.735,5.735A5.735,5.735,0,0,1,38.3,15.49Zm0,1.894a3.841,3.841,0,1,0,3.841,3.841A3.841,3.841,0,0,0,38.3,17.384Zm-7.18,32.524a.944.944,0,0,0-1.207.58,5.726,5.726,0,1,0,3.62-3.55.947.947,0,0,0,.59,1.8A3.835,3.835,0,1,1,31.7,51.115a.946.946,0,0,0-.581-1.207Z" transform="translate(-4.755 -4.744)" fill="url(#linear-gradient)"/>
</svg>
