<svg id="yin-yang" xmlns="http://www.w3.org/2000/svg" width="64.624" height="64.624" viewBox="0 0 64.624 64.624">
  <path id="Path_469" data-name="Path 469" d="M32.312,0A32.312,32.312,0,1,0,64.624,32.312,32.423,32.423,0,0,0,32.312,0Zm0,0" fill="#ff5b5b"/>
  <path id="Path_470" data-name="Path 470" d="M288.312,32.312A32.423,32.423,0,0,1,256,64.624V0A32.423,32.423,0,0,1,288.312,32.312Zm0,0" transform="translate(-223.688)" fill="#ff3939"/>
  <path id="Path_471" data-name="Path 471" d="M98.719,77.886,97.546,76.6a22.7,22.7,0,0,0,1.174,45.363c.379,0,.8-.038,1.174-.076l1.246-.132,2.5-.511,6.626-3.673,5.491-20.788Zm0,0" transform="translate(-66.408 -66.93)" fill="#68544f"/>
  <path id="Path_472" data-name="Path 472" d="M256,86.8v44.075c.379,0,.8-.038,1.174-.076l1.246-.132,2.5-.511,6.626-3.673,5.491-20.788Zm0,0" transform="translate(-223.688 -75.845)" fill="#53433f"/>
  <path id="Path_473" data-name="Path 473" d="M200.079,98.719a22.619,22.619,0,0,1-21.545,22.643,11.352,11.352,0,0,0-1.174-22.643,11.352,11.352,0,0,1-1.174-22.644c.379-.037.8-.075,1.174-.075a22.737,22.737,0,0,1,22.719,22.719Zm0,0" transform="translate(-145.048 -66.407)" fill="#e2e2e7"/>
  <path id="Path_474" data-name="Path 474" d="M278.719,98.719a22.619,22.619,0,0,1-21.545,22.643A11.352,11.352,0,0,0,256,98.719V76a22.737,22.737,0,0,1,22.719,22.719Zm0,0" transform="translate(-223.688 -66.407)" fill="#d3d3d8"/>
  <path id="Path_475" data-name="Path 475" d="M216.68,121a5.68,5.68,0,1,0,5.68,5.68A5.672,5.672,0,0,0,216.68,121Zm0,0" transform="translate(-184.368 -105.728)" fill="#68544f"/>
  <path id="Path_476" data-name="Path 476" d="M216.68,301a5.68,5.68,0,1,0,5.68,5.68A5.672,5.672,0,0,0,216.68,301Zm0,0" transform="translate(-184.368 -263.008)" fill="#e2e2e7"/>
  <path id="Path_477" data-name="Path 477" d="M261.68,306.68a5.672,5.672,0,0,1-5.68,5.68V301A5.672,5.672,0,0,1,261.68,306.68Zm0,0" transform="translate(-223.688 -263.008)" fill="#d3d3d8"/>
  <path id="Path_478" data-name="Path 478" d="M256,132.36V121a5.68,5.68,0,1,1,0,11.36Zm0,0" transform="translate(-223.688 -105.728)" fill="#53433f"/>
</svg>
