<svg xmlns="http://www.w3.org/2000/svg" width="191.865" height="272.191" viewBox="0 0 191.865 272.191">
  <g id="Group_1020" data-name="Group 1020" transform="translate(-99.307 -109.809)">
    <ellipse id="Ellipse_1070" data-name="Ellipse 1070" cx="86.182" cy="4.331" rx="86.182" ry="4.331" transform="translate(118.809 373.339)" fill="#e6e6e6"/>
    <ellipse id="Ellipse_1067" data-name="Ellipse 1067" cx="42.768" cy="42.768" rx="42.768" ry="42.768" transform="translate(177.814 109.809)" fill="#e6e6e6"/>
    <ellipse id="Ellipse_1068" data-name="Ellipse 1068" cx="21.2" cy="21.2" rx="21.2" ry="21.2" transform="translate(171.104 139.036)" fill="#fff"/>
    <g id="Group_1009" data-name="Group 1009" transform="translate(99.307 134.796)">
      <ellipse id="Ellipse_1065" data-name="Ellipse 1065" cx="25.44" cy="25.44" rx="25.44" ry="25.44" fill="#e6e6e6"/>
      <ellipse id="Ellipse_1066" data-name="Ellipse 1066" cx="21.2" cy="21.2" rx="21.2" ry="21.2" transform="translate(4.24 4.24)" fill="#0ba74e"/>
      <path id="Path_2666" data-name="Path 2666" d="M73.322,82.414l-6.176-7.941,3.592-2.794,2.924,3.76,9.879-10.428,3.3,3.13Z" transform="translate(-49.849 -48.264)" fill="#fff"/>
    </g>
    <path id="Path_2668" data-name="Path 2668" d="M509.875,211.924c-2.809-6.784-3.265-13.186.695-18.873h0A14.281,14.281,0,0,1,525.8,179.329l2.582.174a14.225,14.225,0,0,1,12.252,8.829c4.814,11.939,4.965,27.806,3.764,44.814H509.094C511.191,225.192,512.268,217.727,509.875,211.924Z" transform="translate(-327.083 -50.626)" fill="#2f2e41"/>
    <path id="Path_2667" data-name="Path 2667" d="M389.754,279.411l-9.33-4.191a7.11,7.11,0,0,1-3.092-10.292h0a7.11,7.11,0,0,1,11.519-.684l4.31,5.293,20.1,17.823,13.358-8.914,6.054,10.264L411,301.8Z" transform="translate(-252.556 -97.3)" fill="#9f616a"/>
    <path id="Path_2669" data-name="Path 2669" d="M494.666,295.962l-7.366-14.1,28.683-12.776.248,2.7a14.3,14.3,0,0,1-5.9,12.922Z" transform="translate(-315.527 -101.532)" fill="#fec62d"/>
    <path id="Path_2670" data-name="Path 2670" d="M549.64,253.5l-29.254,24.21-1.681-2.354,8.07-14.459,3.7-1.681c.886-3.755-1.376-8.79-4.371-14.123l14.123-2.018C540.907,247.657,544.011,251.147,549.64,253.5Z" transform="translate(-333.33 -86.785)" fill="#9f616a"/>
    <path id="Path_2671" data-name="Path 2671" d="M375.439,463.148l-4.875,7.229-38.838-22.025,5.38-26.564Z" transform="translate(-123.823 -129.314)" fill="#181d3d"/>
    <path id="Path_2672" data-name="Path 2672" d="M530.366,533.879l-7.9-3.531-2.017-92.47-7.566-50.27L542.3,382.06l6.053,13.114C563.23,415.574,541.547,478.081,530.366,533.879Z" transform="translate(-330.029 -165.578)" fill="#181d3d"/>
    <path id="Path_2677" data-name="Path 2677" d="M517.5,724.492l1.621,3.529a4.688,4.688,0,0,1-3.6,6.6l-21.436,3.062a4.405,4.405,0,0,1-4.859-3.151h0a4.406,4.406,0,0,1,2.023-5.019l18.009-9.014Z" transform="translate(-316.521 -357.446)" fill="#2f2e41"/>
    <path id="Path_2678" data-name="Path 2678" d="M660.674,649.494l3.873-.284a4.688,4.688,0,0,1,4.922,5.678l-4.631,21.153a4.406,4.406,0,0,1-4.652,3.45h0a4.406,4.406,0,0,1-3.995-3.651l-2.144-20.024Z" transform="translate(-410.061 -317.025)" fill="#2f2e41"/>
    <ellipse id="Ellipse_1069" data-name="Ellipse 1069" cx="13.45" cy="13.45" rx="13.45" ry="13.45" transform="translate(184.365 136.117)" fill="#9f616a"/>
    <path id="Path_2673" data-name="Path 2673" d="M538.732,316.729l-29.254,6.053-.672-19.5c-4.236-4.485,5.644-22.446,9.079-30.936L522.256,271l-7.4,13.45,25.892-21.184,5.044,1.345,1.345,24.547Z" transform="translate(-327.13 -98.229)" fill="#fec62d"/>
    <path id="Path_2674" data-name="Path 2674" d="M559.011,362.392l-6.344,8.023a7.11,7.11,0,0,1-10.736.484h0a7.11,7.11,0,0,1,2.151-11.337l6.186-2.887,22.193-15.131-5.38-15.132,11.433-3.363,7.4,24.21Z" transform="translate(-345.392 -132.125)" fill="#9f616a"/>
    <path id="Path_2675" data-name="Path 2675" d="M554.509,235.362H530.141c.916-4.606,3.37-8.785,10.083-11.781,4.9-9.356,6.986-17.841,0-23.511-7.98-1.838-11.071-5.177-10.083-9.766l14.285-2.354C556.173,198.412,556.308,216.272,554.509,235.362Z" transform="translate(-339.713 -55.533)" fill="#2f2e41"/>
    <path id="Path_2676" data-name="Path 2676" d="M607.879,291.277l-15.468,3.7-5.38-30.936,2.675.418a14.3,14.3,0,0,1,11.09,8.875Z" transform="translate(-372.066 -98.67)" fill="#fec62d"/>
  </g>
</svg>
