<svg id="_001---Eye-Drops" data-name="001---Eye-Drops" xmlns="http://www.w3.org/2000/svg" width="43.837" height="43.822" viewBox="0 0 43.837 43.822">
  <path id="Shape" d="M21.857,23.013c10.889-.02,19.953,5.746,21.834,13.34a1.01,1.01,0,0,1,0,.425c-1.877,7.6-10.936,13.354-21.834,13.354S1.9,44.376.023,36.779a1.01,1.01,0,0,1,0-.425C1.9,28.757,10.958,23,21.857,23" transform="translate(0 -6.311)" fill="#fdd7ad"/>
  <path id="Shape-2" data-name="Shape" d="M21.857,28.009c10.889-.014,19.953,4.15,21.834,9.635a.534.534,0,0,1,0,.307C41.814,43.438,32.755,47.6,21.857,47.6S1.9,43.438.023,37.949a.534.534,0,0,1,0-.307C1.9,32.157,10.958,28,21.857,28" transform="translate(0 -7.542)" fill="#f9c795"/>
  <path id="Shape-3" data-name="Shape" d="M43.181,38.417a.3.3,0,0,1,0,.24c-1.809,4.217-10.558,7.417-21.078,7.417s-19.269-3.2-21.078-7.417a.3.3,0,0,1,0-.24C2.834,34.2,11.583,31,22.1,31S41.372,34.2,43.181,38.417Z" transform="translate(-0.246 -8.281)" fill="#ecf0f1"/>
  <path id="Shape-4" data-name="Shape" d="M36.1,38.537a10.45,10.45,0,0,1-2.57,6.889,48.416,48.416,0,0,1-7.981.648,48.416,48.416,0,0,1-7.981-.648,10.517,10.517,0,0,1,0-13.777,49.465,49.465,0,0,1,15.963,0A10.45,10.45,0,0,1,36.1,38.537Z" transform="translate(-3.695 -8.281)" fill="#3b97d3"/>
  <path id="Shape-5" data-name="Shape" d="M32.892,37.163a2.451,2.451,0,0,0,.746.113A2.638,2.638,0,1,0,31,34.638a2.611,2.611,0,0,0,.106.739v.008Z" transform="translate(-7.636 -8.527)" fill="#ecf0f1"/>
  <circle id="Oval" cx="3.768" cy="3.768" r="3.768" transform="translate(18.088 26.487)" fill="#2c3e50"/>
  <path id="Shape-6" data-name="Shape" d="M55.5,39.845a8.7,8.7,0,0,1-3.9,3.783,13.1,13.1,0,0,1,0-7.808A8.7,8.7,0,0,1,55.5,39.6.333.333,0,0,1,55.5,39.845Z" transform="translate(-12.563 -9.468)" fill="#f09372"/>
  <path id="Shape-7" data-name="Shape" d="M4.768,39.85a12.822,12.822,0,0,1-.475,3.52,8.019,8.019,0,0,1-3.271-3.4.333.333,0,0,1,0-.241,8.019,8.019,0,0,1,3.271-3.4A12.822,12.822,0,0,1,4.768,39.85Z" transform="translate(-0.246 -9.594)" fill="#f09372"/>
  <path id="Shape-8" data-name="Shape" d="M42.732,14.793l-9.049,7.97a1.507,1.507,0,0,1-2.128-.136l-.565.5A1.507,1.507,0,1,1,29,20.864l.566-.5a1.507,1.507,0,0,1,.135-2.128l9.049-7.97Z" transform="translate(-7.017 -3.174)" fill="#67b9cc"/>
  <path id="Shape-9" data-name="Shape" d="M52.517,7.559l-3.392,2.992a1.507,1.507,0,0,1-.136,2.125l-.565.5a1.507,1.507,0,0,1-2.125-.136L41.317,7.386a1.507,1.507,0,0,1,.136-2.125l.565-.5a1.507,1.507,0,0,1,2.11.121l.015.015L45.274,3.9l2.269-1.99a3.768,3.768,0,1,1,4.974,5.653Z" transform="translate(-10.085 -0.856)" fill="#955ba5"/>
  <path id="Shape-10" data-name="Shape" d="M48.235,8.206a.747.747,0,0,1-.5.188.736.736,0,0,1-.565-.256L45.19,5.885l1.131-.995L48.3,7.143A.758.758,0,0,1,48.235,8.206Z" transform="translate(-11.131 -1.85)" fill="#894b9d"/>
</svg>
