<svg id="eye_1_" data-name="eye (1)" xmlns="http://www.w3.org/2000/svg" width="50.442" height="42.364" viewBox="0 0 50.442 42.364">
  <g id="Group_413" data-name="Group 413" transform="translate(3.219 0)">
    <path id="Path_377" data-name="Path 377" d="M187.464,53.247a16.249,16.249,0,0,0-24.388,12.16l8.8,16.345a16.235,16.235,0,0,0,21.245-6.079V58.839A16.375,16.375,0,0,0,187.464,53.247Z" transform="translate(-150.229 -50.015)" fill="#f7f5f3"/>
    <path id="Path_378" data-name="Path 378" d="M112.193,377.9h-4.865a12.24,12.24,0,0,1-8.98-3.941h2.022a1.478,1.478,0,1,0,0-2.956H95.445a1.478,1.478,0,0,0-1.322.817l-1.97,3.941a1.478,1.478,0,1,0,2.643,1.322l.858-1.717a15.2,15.2,0,0,0,11.674,5.489h4.865a1.478,1.478,0,1,0,0-2.956Z" transform="translate(-86.151 -338.488)" fill="#524798"/>
    <path id="Path_379" data-name="Path 379" d="M47.722,41.528a1.478,1.478,0,0,0-2.082-.182l-3.727,3.127A15.2,15.2,0,0,0,36.5,56.181l-1.761-.763a1.478,1.478,0,1,0-1.176,2.712L37.6,59.882a1.478,1.478,0,0,0,1.538-.224l3.774-3.166a1.478,1.478,0,1,0-1.9-2.264l-1.549,1.3a12.24,12.24,0,0,1,4.346-8.791l3.727-3.127a1.478,1.478,0,0,0,.182-2.082Z" transform="translate(-32.672 -41)" fill="#5e59ce"/>
    <path id="Path_380" data-name="Path 380" d="M418.292,130.566v0a9.236,9.236,0,0,0,0,16.834v0a10.34,10.34,0,0,0,0-16.831Z" transform="translate(-375.4 -121.74)" fill="#bceaf9"/>
  </g>
  <g id="Group_414" data-name="Group 414" transform="translate(17.061 17.241)">
    <path id="Path_381" data-name="Path 381" d="M173.176,216l7.8,14.5a16.235,16.235,0,0,0,21.245-6.079V216Z" transform="translate(-173.176 -216)" fill="#ebe6e1"/>
  </g>
  <g id="Group_415" data-name="Group 415" transform="translate(40.675 17.241)">
    <path id="Path_382" data-name="Path 382" d="M418.291,224.417v0A10.328,10.328,0,0,0,422.624,216h-9.768A9.249,9.249,0,0,0,418.291,224.417Z" transform="translate(-412.856 -216)" fill="#7dd5f4"/>
  </g>
  <path id="Path_383" data-name="Path 383" d="M19.408,191a9.378,9.378,0,0,0-3.342.614,16.359,16.359,0,0,0-.106,1.851,4.8,4.8,0,0,1-2.971,4.452l-.28.116a13.36,13.36,0,0,1-8.645.525l-2.19-.608A1.478,1.478,0,0,0,0,199.374v9.852a1.478,1.478,0,0,0,2.247,1.262l1.259-.768a32.172,32.172,0,0,1,14.13-4.58l1-.08a4.762,4.762,0,0,1,3.1.828,16.213,16.213,0,0,0,3.128,2.071A9.356,9.356,0,0,0,19.408,191Z" transform="translate(0 -176.222)" fill="#f17ab4"/>
  <g id="Group_416" data-name="Group 416" transform="translate(0 17.241)">
    <path id="Path_384" data-name="Path 384" d="M25.729,216H15.96v0a4.8,4.8,0,0,1-2.971,4.452l-.28.116a13.36,13.36,0,0,1-8.645.525l-2.19-.608A1.478,1.478,0,0,0,0,221.911v9.852a1.478,1.478,0,0,0,2.247,1.262l1.259-.768a32.172,32.172,0,0,1,14.13-4.58l1-.08a4.762,4.762,0,0,1,3.1.828,16.214,16.214,0,0,0,3.128,2.071,9.347,9.347,0,0,0,.865-14.5Z" transform="translate(0 -216)" fill="#ff3d7d"/>
  </g>
</svg>
