<svg xmlns="http://www.w3.org/2000/svg" width="259.108" height="185.925" viewBox="0 0 259.108 185.925">
  <g id="Group_909" data-name="Group 909" transform="translate(-64 -243.844)">
    <g id="Group_908" data-name="Group 908">
      <g id="Group_907" data-name="Group 907">
        <g id="Group_906" data-name="Group 906">
          <g id="Group_905" data-name="Group 905">
            <g id="Group_904" data-name="Group 904">
              <g id="Group_903" data-name="Group 903">
                <g id="Group_902" data-name="Group 902">
                  <g id="Group_901" data-name="Group 901">
                    <g id="Group_900" data-name="Group 900">
                      <g id="Group_899" data-name="Group 899">
                        <g id="Group_898" data-name="Group 898">
                          <g id="Group_897" data-name="Group 897">
                            <g id="Group_896" data-name="Group 896">
                              <g id="Group_895" data-name="Group 895">
                                <g id="Group_894" data-name="Group 894">
                                  <g id="Group_893" data-name="Group 893">
                                    <g id="Group_892" data-name="Group 892">
                                      <g id="Group_891" data-name="Group 891">
                                        <g id="Group_890" data-name="Group 890">
                                          <g id="Group_889" data-name="Group 889">
                                            <g id="Group_888" data-name="Group 888">
                                              <g id="Group_887" data-name="Group 887">
                                                <g id="Group_886" data-name="Group 886">
                                                  <g id="Group_885" data-name="Group 885">
                                                    <g id="Group_884" data-name="Group 884">
                                                      <g id="Group_883" data-name="Group 883">
                                                        <g id="Group_882" data-name="Group 882">
                                                          <g id="Group_881" data-name="Group 881">
                                                            <g id="Group_880" data-name="Group 880">
                                                              <g id="Group_879" data-name="Group 879">
                                                                <g id="Group_878" data-name="Group 878">
                                                                  <g id="Group_877" data-name="Group 877">
                                                                    <g id="Group_876" data-name="Group 876">
                                                                      <g id="Group_875" data-name="Group 875">
                                                                        <g id="Group_874" data-name="Group 874">
                                                                          <g id="Group_873" data-name="Group 873">
                                                                            <g id="Group_872" data-name="Group 872">
                                                                              <g id="Group_871" data-name="Group 871">
                                                                                <g id="Group_870" data-name="Group 870">
                                                                                  <g id="Group_869" data-name="Group 869">
                                                                                    <g id="Group_868" data-name="Group 868">
                                                                                      <g id="Group_867" data-name="Group 867">
                                                                                        <g id="Group_866" data-name="Group 866">
                                                                                          <g id="Group_865" data-name="Group 865">
                                                                                            <g id="Group_864" data-name="Group 864">
                                                                                              <g id="Group_863" data-name="Group 863">
                                                                                                <g id="Group_862" data-name="Group 862">
                                                                                                  <g id="Group_861" data-name="Group 861">
                                                                                                    <g id="Group_860" data-name="Group 860">
                                                                                                      <g id="Group_859" data-name="Group 859">
                                                                                                        <g id="Group_858" data-name="Group 858">
                                                                                                          <g id="Group_857" data-name="Group 857">
                                                                                                            <g id="Group_856" data-name="Group 856">
                                                                                                              <g id="Group_855" data-name="Group 855">
                                                                                                                <g id="Group_854" data-name="Group 854">
                                                                                                                  <g id="Group_853" data-name="Group 853">
                                                                                                                    <g id="Group_852" data-name="Group 852">
                                                                                                                      <g id="Group_851" data-name="Group 851" transform="translate(6.055 -12)">
                                                                                                                        <rect id="Rectangle_353" data-name="Rectangle 353" width="122.652" height="0.533" transform="translate(57.945 439.739)" fill="#3f3d56"/>
                                                                                                                        <path id="Path_1094" data-name="Path 1094" d="M109.606,606.105h3.487l1.659-13.451h-5.147Z" transform="translate(-20.481 -168.225)" fill="#ffb8b8"/>
                                                                                                                        <path id="Path_1095" data-name="Path 1095" d="M0,0H10.96V4.235H4.235A4.235,4.235,0,0,1,0,0H0Z" transform="translate(99.336 441.118) rotate(179.997)" fill="#2f2e41"/>
                                                                                                                        <path id="Path_1096" data-name="Path 1096" d="M44.379,604.045l3.457.461,3.423-13.114-5.1-.68Z" transform="translate(26.19 -166.836)" fill="#ffb8b8"/>
                                                                                                                        <path id="Path_1097" data-name="Path 1097" d="M0,0H10.96V4.235H4.235A4.235,4.235,0,0,1,0,0H0Z" transform="translate(80.265 441.769) rotate(-172.406)" fill="#2f2e41"/>
                                                                                                                        <path id="Path_1098" data-name="Path 1098" d="M49.632,444.64l19.627.853-.853,49.78-5.12-.569L59.3,460.854,49.916,496.98l-5.12-.853Z" transform="translate(25.892 -62.315)" fill="#2f2e41"/>
                                                                                                                        <path id="Path_1099" data-name="Path 1099" d="M224.446,460.324l-6.827-1.395-4.267,31.263s12.516,8.249,16.5-.284Z" transform="translate(-135.837 -107.582)" fill="#fec62d"/>
                                                                                                                        <circle id="Ellipse_188" data-name="Ellipse 188" cx="6.987" cy="6.987" r="6.987" transform="translate(78.645 335.097)" fill="#ffb8b8"/>
                                                                                                                        <path id="Path_1100" data-name="Path 1100" d="M195.437,457.832l-9.956,3.129s4.836,24.179-3.129,36.695c0,0,9.956,10.525,14.223-13.085C196.575,484.571,199.988,465.512,195.437,457.832Z" transform="translate(-113.655 -106.797)" fill="#2f2e41"/>
                                                                                                                        <path id="Path_1101" data-name="Path 1101" d="M252.352,463.832l7.4,4.551s3.982,33.281,0,36.41S252.352,463.832,252.352,463.832Z" transform="translate(-163.743 -111.091)" fill="#2f2e41"/>
                                                                                                                        <path id="Path_1102" data-name="Path 1102" d="M282.291,589.363a2.86,2.86,0,0,1,.275-4.378l-3.007-9.71,5.073,1.473,2.078,8.995a2.876,2.876,0,0,1-4.419,3.619Z" transform="translate(-183.212 -190.833)" fill="#ffb8b8"/>
                                                                                                                        <path id="Path_1103" data-name="Path 1103" d="M187.987,580.661a2.86,2.86,0,0,1-.287-4.377l-4.225-9.245,5.219.812,3.212,8.655a2.876,2.876,0,0,1-3.919,4.155Z" transform="translate(-114.459 -184.94)" fill="#ffb8b8"/>
                                                                                                                        <path id="Path_1104" data-name="Path 1104" d="M34.9,345.924l-2.56-.284L25.8,366.974l6.542,14.792,5.12-3.129L31.77,366.405l4.551-13.085Z" transform="translate(39.487 8.524)" fill="#2f2e41"/>
                                                                                                                        <path id="Path_1105" data-name="Path 1105" d="M124.5,355.64l1.422.284,6.827,33.281-4.551,1.422L122.8,371Z" transform="translate(-29.921 1.369)" fill="#2f2e41"/>
                                                                                                                        <path id="Path_1106" data-name="Path 1106" d="M213.975,406.2a4,4,0,0,1,2.4-3.139,9.517,9.517,0,0,1,4.311-.213c1.45.105,3.064.014,4.11-1a3.523,3.523,0,0,0,.709-3.7,5.362,5.362,0,0,0-2.694-2.806,11.6,11.6,0,0,0-3.832-1.013,15.643,15.643,0,0,0-5.815.229c-1.888.493-1.4,1.549-2.508,3.156a5.691,5.691,0,0,0-.594,5.557,9.654,9.654,0,0,0,2.561,2.926" transform="translate(-133.146 -61.244)" fill="#2f2e41"/>
                                                                                                                        <path id="Path_1107" data-name="Path 1107" d="M573.067,305.069v-.533c1.06,0,2.137-.022,3.2-.065l.021.533C575.218,305.047,574.135,305.069,573.067,305.069Zm-3.22-.062c-1.066-.042-2.148-.105-3.215-.19l.042-.532c1.06.084,2.135.147,3.194.189Zm9.655-.2-.042-.532c1.058-.085,2.129-.192,3.183-.319l.064.53c-1.061.128-2.139.236-3.2.322Zm-16.075-.311c-1.063-.127-2.136-.278-3.19-.447l.085-.526c1.046.168,2.112.317,3.168.443Zm22.468-.461-.085-.527c1.046-.169,2.1-.362,3.147-.574l.106.522C588.015,303.674,586.949,303.868,585.9,304.039Zm-28.827-.561c-1.049-.212-2.107-.449-3.143-.7l.127-.518c1.029.252,2.08.487,3.122.7Zm35.138-.724-.128-.518c1.033-.254,2.072-.533,3.09-.828l.148.512c-1.025.3-2.072.577-3.111.833Zm-41.393-.808c-1.028-.3-2.063-.618-3.076-.955l.169-.506c1.006.335,2.034.654,3.055.949Zm47.579-.984-.169-.506c1.007-.336,2.02-.7,3.013-1.075l.19.5C600.427,300.259,599.406,300.624,598.393,300.962Zm-53.7-1.054c-1-.379-2.008-.784-3-1.2l.209-.491c.981.418,1.982.82,2.975,1.2Zm59.711-1.23-.209-.491c.975-.416,1.954-.858,2.909-1.312l.229.482c-.962.457-1.948.9-2.929,1.321Zm-65.649-1.3c-.969-.46-1.94-.945-2.886-1.443l.248-.472c.94.494,1.9.976,2.867,1.433Zm71.452-1.46-.248-.472c.939-.494,1.88-1.014,2.8-1.544l.267.461C612.1,294.9,611.154,295.421,610.209,295.919Zm-77.163-1.541c-.929-.537-1.857-1.1-2.759-1.67l.285-.45c.9.567,1.817,1.125,2.74,1.659Zm82.729-1.68-.285-.45c.894-.566,1.79-1.16,2.665-1.764l.3.438C617.577,291.531,616.674,292.129,615.774,292.7Zm-88.176-1.77c-.882-.609-1.761-1.244-2.614-1.885l.321-.426c.847.637,1.721,1.268,2.6,1.873Zm93.468-1.889-.321-.426c.845-.636,1.692-1.3,2.516-1.973l.337.413c-.83.678-1.682,1.346-2.533,1.986Zm-98.619-1.985c-.828-.676-1.654-1.379-2.454-2.088l.354-.4c.8.7,1.615,1.4,2.438,2.074Zm103.6-2.087-.354-.4c.794-.7,1.585-1.434,2.351-2.169l.369.385C627.647,283.524,626.851,284.259,626.051,284.967Zm-108.425-2.186c-.769-.739-1.536-1.505-2.278-2.277l.384-.37c.737.767,1.5,1.528,2.263,2.262Zm113.07-2.275-.384-.37c.735-.764,1.465-1.555,2.171-2.351l.4.354c-.71.8-1.445,1.6-2.185,2.366ZM513.163,278.14c-.711-.8-1.413-1.626-2.088-2.451l.413-.337c.67.819,1.368,1.639,2.074,2.434Zm121.808-2.452-.413-.337c.674-.824,1.339-1.671,1.977-2.518l.426.321c-.642.853-1.312,1.706-1.99,2.535Zm-125.883-2.531c-.643-.853-1.277-1.731-1.884-2.609l.439-.3c.6.872,1.233,1.744,1.871,2.591Zm129.76-2.617-.439-.3c.606-.876,1.2-1.774,1.769-2.67l.451.285c-.573.9-1.17,1.806-1.782,2.688Zm-133.421-2.673c-.571-.9-1.133-1.826-1.668-2.75l.461-.267c.532.918,1.089,1.837,1.657,2.731ZM642.3,265.094l-.461-.267c.534-.923,1.055-1.866,1.549-2.805l.472.248C643.363,263.215,642.838,264.166,642.3,265.094ZM502.2,262.3c-.5-.943-.981-1.91-1.44-2.874l.481-.229c.456.957.937,1.917,1.431,2.854Zm143.1-2.918-.482-.229c.456-.96.9-1.944,1.318-2.923l.491.209c-.419.986-.866,1.975-1.327,2.942ZM499.44,256.5c-.42-.982-.825-1.984-1.2-2.978l.5-.19c.376.987.778,1.983,1.195,2.958Zm148.4-3.054-.5-.189c.378-1,.741-2.014,1.077-3.022l.506.169c-.337,1.014-.7,2.038-1.083,3.042ZM497.153,250.49c-.34-1.014-.663-2.048-.96-3.074l.512-.148c.3,1.019.617,2.047.954,3.054Zm152.725-3.16-.512-.148c.294-1.018.572-2.057.826-3.091l.518.127c-.257,1.04-.536,2.088-.831,3.112ZM495.358,244.3c-.256-1.038-.494-2.1-.708-3.142l.523-.107c.212,1.039.449,2.09.7,3.121Zm156.056-3.229-.523-.106c.211-1.039.4-2.1.573-3.147l.526.085c-.17,1.056-.363,2.123-.577,3.169ZM494.07,237.995c-.171-1.053-.323-2.126-.452-3.189l.529-.064c.128,1.056.279,2.122.449,3.167Zm158.369-3.278-.53-.064c.127-1.056.234-2.127.318-3.183l.532.042c-.085,1.064-.192,2.142-.32,3.2ZM493.295,231.6c-.086-1.065-.152-2.147-.2-3.215l.533-.022c.043,1.061.108,2.136.194,3.194Zm159.656-3.3-.533-.021c.042-1.063.063-2.139.063-3.2V224.9h.533v.176C653.014,226.145,652.993,227.229,652.95,228.3Zm-159.385-3.132h-.533v-.09c0-1.04.02-2.094.06-3.13l.533.021c-.04,1.029-.06,2.076-.06,3.111ZM652.41,221.7c-.044-1.059-.11-2.133-.2-3.193l.532-.043c.087,1.067.154,2.149.2,3.215Zm-158.6-2.93-.532-.042c.084-1.068.19-2.146.316-3.205l.53.063C494,216.642,493.9,217.714,493.812,218.774Zm158.076-3.446c-.129-1.052-.281-2.117-.453-3.167l.526-.086c.173,1.057.326,2.129.455,3.188Zm-157.321-2.906-.526-.084c.169-1.056.362-2.122.573-3.169l.523.105C494.928,210.314,494.736,211.373,494.568,212.422Zm156.288-3.407c-.214-1.042-.452-2.092-.707-3.12l.518-.128c.257,1.035.5,2.092.711,3.141Zm-155.022-2.863-.518-.127c.254-1.038.532-2.085.828-3.113l.512.148c-.294,1.021-.571,2.061-.822,3.092Zm153.483-3.346c-.3-1.018-.619-2.046-.957-3.053l.506-.17c.341,1.014.665,2.048.963,3.073ZM497.6,200l-.506-.168c.337-1.015.7-2.039,1.08-3.043l.5.189C498.3,197.978,497.938,199,497.6,200Zm149.676-3.262c-.379-.992-.782-1.987-1.2-2.957l.49-.21c.419.977.825,1.978,1.206,2.977ZM499.872,194l-.491-.209c.419-.985.864-1.976,1.323-2.944l.482.228c-.456.962-.9,1.945-1.315,2.924Zm144.892-3.127c-.456-.956-.939-1.916-1.433-2.853l.471-.249c.5.943.984,1.91,1.443,2.872Zm-142.146-2.665-.472-.248c.5-.947,1.021-1.9,1.556-2.826l.462.267C503.631,186.327,503.111,187.272,502.618,188.213Zm139.165-2.981c-.533-.918-1.092-1.836-1.66-2.73l.45-.286c.572.9,1.134,1.824,1.671,2.748Zm-135.961-2.567-.451-.285c.572-.9,1.17-1.809,1.778-2.69l.439.3C506.983,180.867,506.389,181.766,505.821,182.665Zm132.533-2.825c-.6-.872-1.236-1.743-1.874-2.589l.425-.321c.643.852,1.278,1.729,1.887,2.607Zm-128.9-2.445-.426-.32c.643-.855,1.311-1.709,1.987-2.537l.413.337C510.761,175.7,510.1,176.545,509.459,177.395ZM634.5,174.738c-.673-.821-1.371-1.639-2.077-2.432l.4-.354c.71.8,1.413,1.622,2.091,2.448Zm-121-2.3-.4-.353c.708-.8,1.442-1.6,2.183-2.369l.385.369C514.938,170.849,514.209,171.641,513.505,172.436Zm116.748-2.478c-.738-.766-1.5-1.526-2.266-2.259l.369-.385c.771.738,1.538,1.5,2.281,2.274Zm-112.319-2.14-.37-.384c.769-.74,1.565-1.476,2.364-2.186l.354.4c-.794.705-1.584,1.436-2.349,2.171Zm107.7-2.287c-.8-.7-1.618-1.4-2.44-2.072l.337-.413c.827.675,1.654,1.376,2.456,2.086Zm-102.917-1.96-.338-.412c.827-.678,1.679-1.347,2.531-1.989l.321.426c-.846.638-1.692,1.3-2.514,1.976Zm97.955-2.084c-.851-.638-1.725-1.268-2.6-1.87l.3-.439c.88.607,1.76,1.24,2.617,1.883Zm-92.851-1.765-.3-.438c.879-.609,1.781-1.208,2.681-1.779l.286.45c-.894.567-1.79,1.162-2.663,1.767Zm87.579-1.87c-.9-.568-1.822-1.125-2.742-1.656l.267-.462c.926.534,1.855,1.1,2.761,1.667ZM533.214,156.3l-.268-.461c.922-.535,1.869-1.059,2.813-1.557l.249.472c-.938.495-1.878,1.015-2.794,1.547Zm76.636-1.646c-.942-.493-1.907-.974-2.868-1.43l.228-.482c.968.458,1.94.943,2.888,1.439Zm-70.989-1.333-.23-.481c.962-.458,1.947-.9,2.927-1.324l.21.49c-.974.417-1.953.86-2.908,1.315Zm65.2-1.409c-.98-.416-1.982-.818-2.977-1.193l.189-.5c1,.378,2.01.782,3,1.2Zm-59.329-1.1-.19-.5c1-.38,2.018-.746,3.032-1.086l.169.506c-1.007.338-2.021.7-3.012,1.079Zm53.329-1.163c-1.008-.334-2.036-.652-3.056-.945l.147-.512c1.027.3,2.062.615,3.077.952Zm-47.264-.872-.149-.512c1.026-.3,2.072-.58,3.11-.837l.128.518c-1.031.255-2.071.535-3.089.831Zm41.115-.894c-1.03-.251-2.08-.485-3.123-.695l.105-.523c1.05.211,2.107.447,3.144.7ZM557,147.237l-.107-.522c1.045-.214,2.111-.41,3.168-.582l.086.526c-1.05.171-2.108.366-3.147.578Zm28.634-.62c-1.049-.167-2.115-.315-3.169-.44l.063-.53c1.061.126,2.134.275,3.19.443Zm-22.32-.409-.065-.529c1.061-.129,2.139-.239,3.2-.325l.043.531C565.44,145.971,564.37,146.079,563.316,146.208Zm15.968-.344c-1.057-.082-2.132-.145-3.194-.185l.02-.533c1.069.041,2.151.1,3.215.186Zm-9.591-.175-.022-.533c1.066-.044,2.15-.067,3.22-.069v.533C571.828,145.623,570.751,145.646,569.692,145.689Z" transform="translate(-335.961 116.985)" fill="#848484"/>
                                                                                                                        <circle id="Ellipse_189" data-name="Ellipse 189" cx="51.461" cy="51.461" r="51.461" transform="translate(157.355 289.062)" fill="#181d3d"/>
                                                                                                                        <ellipse id="Ellipse_190" data-name="Ellipse 190" cx="27.33" cy="37.596" rx="27.33" ry="37.596" transform="translate(163.222 302.927)" fill="#fff"/>
                                                                                                                        <ellipse id="Ellipse_191" data-name="Ellipse 191" cx="7.627" cy="11.999" rx="7.627" ry="11.999" transform="translate(173.864 336.489)" fill="#181d3d"/>
                                                                                                                        <circle id="Ellipse_192" data-name="Ellipse 192" cx="5.066" cy="5.066" r="5.066" transform="translate(304.855 306.718)" fill="#fec62d"/>
                                                                                                                        <circle id="Ellipse_193" data-name="Ellipse 193" cx="7.466" cy="7.466" r="7.466" transform="translate(243.936 255.844)" fill="#fec62d"/>
                                                                                                                        <circle id="Ellipse_194" data-name="Ellipse 194" cx="5.066" cy="5.066" r="5.066" transform="translate(241.39 416.147)" fill="#fec62d"/>
                                                                                                                      </g>
                                                                                                                    </g>
                                                                                                                  </g>
                                                                                                                </g>
                                                                                                              </g>
                                                                                                            </g>
                                                                                                          </g>
                                                                                                        </g>
                                                                                                      </g>
                                                                                                    </g>
                                                                                                  </g>
                                                                                                </g>
                                                                                              </g>
                                                                                            </g>
                                                                                          </g>
                                                                                        </g>
                                                                                      </g>
                                                                                    </g>
                                                                                  </g>
                                                                                </g>
                                                                              </g>
                                                                            </g>
                                                                          </g>
                                                                        </g>
                                                                      </g>
                                                                    </g>
                                                                  </g>
                                                                </g>
                                                              </g>
                                                            </g>
                                                          </g>
                                                        </g>
                                                      </g>
                                                    </g>
                                                  </g>
                                                </g>
                                              </g>
                                            </g>
                                          </g>
                                        </g>
                                      </g>
                                    </g>
                                  </g>
                                </g>
                              </g>
                            </g>
                          </g>
                        </g>
                      </g>
                    </g>
                  </g>
                </g>
              </g>
            </g>
          </g>
        </g>
      </g>
    </g>
  </g>
</svg>
