<svg xmlns="http://www.w3.org/2000/svg" width="36.702" height="60.617" viewBox="0 0 36.702 60.617">
  <g id="female" transform="translate(-101)">
    <path id="Path_342" data-name="Path 342" d="M137.7,18.351a18.351,18.351,0,1,0-20.127,18.265V48.778h-6.512a1.776,1.776,0,1,0,0,3.552h6.512v6.512a1.776,1.776,0,0,0,3.552,0V52.33h6.512a1.776,1.776,0,1,0,0-3.552h-6.512V36.616A18.376,18.376,0,0,0,137.7,18.351Zm-33.15,0a14.8,14.8,0,1,1,14.8,14.8A14.816,14.816,0,0,1,104.552,18.351Z" fill="#181d3d"/>
  </g>
</svg>
