<svg xmlns="http://www.w3.org/2000/svg" width="37.308" height="37.308" viewBox="0 0 37.308 37.308">
  <g id="focus" transform="translate(0.001)">
    <path id="Path_224" data-name="Path 224" d="M1.093,6.631A1.093,1.093,0,0,0,2.186,5.538V2.186H5.538A1.093,1.093,0,0,0,5.538,0H1.093A1.093,1.093,0,0,0,0,1.093V5.538A1.093,1.093,0,0,0,1.093,6.631Z" transform="translate(-0.001)" fill="#fdc52c"/>
    <path id="Path_225" data-name="Path 225" d="M1.093,427.631H5.538a1.093,1.093,0,0,0,0-2.186H2.186v-3.352a1.093,1.093,0,0,0-2.186,0v4.445A1.093,1.093,0,0,0,1.093,427.631Z" transform="translate(-0.001 -390.323)" fill="#fdc52c"/>
    <path id="Path_226" data-name="Path 226" d="M426.538,6.631a1.093,1.093,0,0,0,1.093-1.093V1.093A1.093,1.093,0,0,0,426.538,0h-4.445a1.093,1.093,0,0,0,0,2.186h3.352V5.538A1.093,1.093,0,0,0,426.538,6.631Z" transform="translate(-390.324)" fill="#fdc52c"/>
    <path id="Path_227" data-name="Path 227" d="M426.538,421a1.093,1.093,0,0,0-1.093,1.093v3.352h-3.352a1.093,1.093,0,0,0,0,2.186h4.445a1.093,1.093,0,0,0,1.093-1.093v-4.445A1.093,1.093,0,0,0,426.538,421Z" transform="translate(-390.324 -390.323)" fill="#fdc52c"/>
    <path id="Path_228" data-name="Path 228" d="M158.651,166.3A7.651,7.651,0,1,0,151,158.651,7.66,7.66,0,0,0,158.651,166.3Zm0-13.116a5.465,5.465,0,1,1-5.465,5.465A5.471,5.471,0,0,1,158.651,153.186Z" transform="translate(-139.998 -139.997)" fill="#fdc52c"/>
    <path id="Path_229" data-name="Path 229" d="M214.279,217.558A3.279,3.279,0,1,0,211,214.279,3.283,3.283,0,0,0,214.279,217.558Zm0-4.372a1.093,1.093,0,1,1-1.093,1.093A1.094,1.094,0,0,1,214.279,213.186Z" transform="translate(-195.626 -195.625)" fill="#fdc52c"/>
    <path id="Path_230" data-name="Path 230" d="M5.539,109.317c3.686,3.165,8.24,5.729,13.114,5.729s9.428-2.564,13.114-5.729a36.4,36.4,0,0,0,5.332-5.654,1.093,1.093,0,0,0,0-1.281,36.39,36.39,0,0,0-5.332-5.654C28.081,93.564,23.528,91,18.653,91S9.225,93.564,5.539,96.729a36.394,36.394,0,0,0-5.332,5.654,1.093,1.093,0,0,0,0,1.281,36.4,36.4,0,0,0,5.332,5.654ZM18.653,93.186c4.64,0,8.9,2.811,11.654,5.17a36.164,36.164,0,0,1,4.524,4.667,36.384,36.384,0,0,1-4.447,4.6c-3.039,2.62-7.209,5.242-11.732,5.242-4.64,0-8.9-2.811-11.654-5.17a36.162,36.162,0,0,1-4.524-4.667,36.392,36.392,0,0,1,4.447-4.6c3.039-2.62,7.209-5.242,11.731-5.242Z" transform="translate(0 -84.369)" fill="#fdc52c"/>
  </g>
</svg>
