<svg xmlns="http://www.w3.org/2000/svg" width="52" height="52" viewBox="0 0 52 52">
  <g id="Group_30" data-name="Group 30" transform="translate(-162 -638)">
    <g id="Ellipse_1" data-name="Ellipse 1" transform="translate(162 638)" fill="#fff" stroke="#e0e0e0" stroke-width="1">
      <circle cx="26" cy="26" r="26" stroke="none"/>
      <circle cx="26" cy="26" r="25.5" fill="none"/>
    </g>
    <g id="Group_27" data-name="Group 27">
      <path id="Vector" d="M4.432,6.685l-.7,2.6-2.544.054A10.017,10.017,0,0,1,1.118,0h0L3.384.415l.992,2.252a5.968,5.968,0,0,0,.056,4.018Z" transform="translate(178 659.401)" fill="#fbbb00"/>
      <path id="Vector-2" data-name="Vector" d="M9.605,0A10.011,10.011,0,0,1,9.78,1.868a10.019,10.019,0,0,1-.219,2.088,10,10,0,0,1-3.521,5.71h0L3.187,9.52,2.783,7A5.96,5.96,0,0,0,5.347,3.956H0V0H9.605Z" transform="translate(188.22 662.132)" fill="#518ef8"/>
      <path id="Vector-3" data-name="Vector" d="M15.068,5.712h0a9.958,9.958,0,0,1-6.26,2.2A10,10,0,0,1,0,2.653L3.241,0A5.946,5.946,0,0,0,8.808,3.858a5.913,5.913,0,0,0,3-.813Z" transform="translate(179.192 666.086)" fill="#28b446"/>
      <path id="Vector-4" data-name="Vector" d="M15.265,2.3l-3.24,2.652A5.947,5.947,0,0,0,3.258,8.068L0,5.4H0A10,10,0,0,1,15.265,2.3Z" transform="translate(179.118 654)" fill="#f14336"/>
    </g>
  </g>
</svg>
