<svg xmlns="http://www.w3.org/2000/svg" xmlns:xlink="http://www.w3.org/1999/xlink" width="219.66" height="219.66" viewBox="0 0 219.66 219.66">
  <defs>
    <filter id="Rectangle_53" x="0" y="0" width="219.66" height="219.66" filterUnits="userSpaceOnUse">
      <feOffset dy="3" input="SourceAlpha"/>
      <feGaussianBlur stdDeviation="20" result="blur"/>
      <feFlood flood-opacity="0.161"/>
      <feComposite operator="in" in2="blur"/>
      <feComposite in="SourceGraphic"/>
    </filter>
  </defs>
  <g id="Group_668" data-name="Group 668" transform="translate(-78 -390)">
    <g transform="matrix(1, 0, 0, 1, 78, 390)" filter="url(#Rectangle_53)">
      <rect id="Rectangle_53-2" data-name="Rectangle 53" width="99.66" height="99.66" rx="10" transform="translate(60 57)" fill="#fff"/>
    </g>
    <text id="All_Day" data-name="All Day" transform="translate(168 526)" fill="#181d3d" font-size="14" font-family="TTCommons-DemiBold, TT Commons" font-weight="300"><tspan x="0" y="0">All Day</tspan></text>
    <g id="_24-hours" data-name="24-hours" transform="translate(166 461.395)">
      <path id="Path_370" data-name="Path 370" d="M68.4,63.069a19.2,19.2,0,1,1-19.2-19.2,19.2,19.2,0,0,1,19.2,19.2" transform="translate(-27.473 -40.997)" fill="#f2f2f2"/>
      <g id="Group_412" data-name="Group 412" transform="translate(12.524 15.149)">
        <path id="Path_371" data-name="Path 371" d="M153.5,194.151a2.107,2.107,0,0,0,.442-1.21,1.337,1.337,0,0,0-.384-.974,1.315,1.315,0,0,0-.983-.391q-1.1,0-2.083,1.566l-2.083-1.234a6.461,6.461,0,0,1,1.791-1.916,4.391,4.391,0,0,1,2.484-.651,3.994,3.994,0,0,1,2.649.96,3.222,3.222,0,0,1,1.143,2.607,3.5,3.5,0,0,1-.459,1.725,11.3,11.3,0,0,1-1.693,2.11l-2.1,2.184h4.6v2.331H148.6v-1.932l3.417-3.5a14.841,14.841,0,0,0,1.475-1.674" transform="translate(-148.404 -189.342)" fill="#40596b"/>
        <path id="Path_372" data-name="Path 372" d="M270.592,199.134V197.1h2.5v2.032h1.317v2.25h-1.317v2.783h-2.5v-2.783h-4.684V199.4l4.151-6.883h2.834l-3.95,6.615Z" transform="translate(-255.993 -192.251)" fill="#40596b"/>
      </g>
      <path id="Path_373" data-name="Path 373" d="M90.355,20.554l1.438-2.542a13.1,13.1,0,0,0-15.942,2.35A13.5,13.5,0,0,1,77.1,17.345a13.107,13.107,0,0,1,17.881-4.972l1.438-2.542,2.53,8.515Z" transform="translate(-69.45 -9.831)" fill="#ff7058"/>
      <path id="Path_374" data-name="Path 374" d="M12.317,278.375,9.4,278.4a13.1,13.1,0,0,0,10,12.63,13.622,13.622,0,0,1-3.235.428,13.108,13.108,0,0,1-13.247-13L0,278.486l6.108-6.447Z" transform="translate(0 -249.912)" fill="#ffd15c"/>
      <path id="Path_375" data-name="Path 375" d="M353.03,194.913l1.483,2.516a13.1,13.1,0,0,0,5.936-14.979,13.55,13.55,0,0,1,1.988,2.586,13.11,13.11,0,0,1-4.634,17.973l1.482,2.514-8.638-2.066Z" transform="translate(-321.055 -167.883)" fill="#84dbff"/>
      <path id="Path_376" data-name="Path 376" d="M376.145,180v2.28h-1.179v-5.832h1.179v2.075a1.646,1.646,0,0,1,1.2-.544,1.5,1.5,0,0,1,1.12.473,1.727,1.727,0,0,1,.455,1.257v2.57H377.74v-2.312q0-.974-.716-.974a.859.859,0,0,0-.617.257,1,1,0,0,0-.263.751" transform="translate(-343.323 -162.385)" fill="#40596b"/>
    </g>
  </g>
</svg>
