<svg xmlns="http://www.w3.org/2000/svg" width="20" height="24.562" viewBox="0 0 20 24.562">
  <path id="Icon_metro-apple" data-name="Icon metro-apple" d="M22.14,14.979A5.557,5.557,0,0,1,24.791,10.3,5.736,5.736,0,0,0,20.3,7.868c-1.913-.194-3.732,1.126-4.7,1.126s-2.466-1.1-4.053-1.069a6.009,6.009,0,0,0-5.081,3.079C4.3,14.764,5.909,20.332,8.02,23.381c1.032,1.492,2.262,3.168,3.877,3.108,1.555-.062,2.143-1.006,4.024-1.006s2.409,1.006,4.055.976c1.674-.031,2.734-1.521,3.759-3.017a13.539,13.539,0,0,0,1.7-3.493,5.425,5.425,0,0,1-3.3-4.968ZM19.047,5.85a5.413,5.413,0,0,0,1.278-3.922,5.506,5.506,0,0,0-3.617,1.86,5.149,5.149,0,0,0-1.3,3.8A4.555,4.555,0,0,0,19.047,5.85Z" transform="translate(-5.436 -1.928)" fill="#181d3d"/>
</svg>
