<svg xmlns="http://www.w3.org/2000/svg" width="72.669" height="99.316" viewBox="0 0 72.669 99.316">
  <g id="noun_hold_smartphone_1315749" data-name="noun_hold smartphone_1315749" transform="translate(-24.226 -37.431) scale(0.883 1)">
    <g id="Layer_2" data-name="Layer 2" transform="translate(28.37 39.63)">
      <path id="Path_1152" data-name="Path 1152" d="M23.37,92.668c2.951-4.426,6.078-8.852,9.058-13.278a68.914,68.914,0,0,1,5.149-6.123,27.352,27.352,0,0,0,3.541-6.241c1.829-3.851,2.065-8.483,2.951-12.629a49.218,49.218,0,0,1,1.638-6.609c.723-2.11,2.464-4.028,3.482-6.108s1.564-4.16,2.626-6.064c.62-1.121.767-1.726,1.874-2.42s2.006-1.166,2.951-1.829a13.013,13.013,0,0,0,3.231-3.364,8.6,8.6,0,0,1,1.313-1.711,1.579,1.579,0,0,1,1.165-.413c.413,0,.575.369.782.708a6.447,6.447,0,0,1,.693,3.334,28.855,28.855,0,0,1-.251,3.054,8.424,8.424,0,0,1-.915,3.408,32.738,32.738,0,0,1-2.951,5.473c-.325,2.11-.826,3.88.457,5.813a25.919,25.919,0,0,0,1.829,2.287" transform="translate(-23.37 -13.71)" fill="none" stroke="#fec62d" stroke-linecap="round" stroke-linejoin="round" stroke-width="2"/>
      <path id="Path_1153" data-name="Path 1153" d="M71.83,31.421c1.977-.929,5.208,1.239,5.1,3.319a5.075,5.075,0,0,1-2.124,3.172,5.9,5.9,0,0,1-1.667,1c-.4.162-1.077.236-1.313.561" transform="translate(-0.336 -11.18)" fill="none" stroke="#fec62d" stroke-linecap="round" stroke-linejoin="round" stroke-width="2"/>
      <path id="Path_1154" data-name="Path 1154" d="M71.849,45.05a17.349,17.349,0,0,1,3.2-.133,3.467,3.467,0,0,1,2.685,2.242,4.942,4.942,0,0,1-2.39,6.344,6.639,6.639,0,0,1-3.556.428" transform="translate(-0.355 -4.671)" fill="none" stroke="#fec62d" stroke-linecap="round" stroke-linejoin="round" stroke-width="2"/>
      <path id="Path_1155" data-name="Path 1155" d="M73.213,51.232c-1.608.266-4.81,4.426-4.337,6.7a3.88,3.88,0,0,0,2.051,2.051,7.613,7.613,0,0,0,2.257.354,6.152,6.152,0,0,0,2.021-.443,5.9,5.9,0,0,0,2.951-2.6,3.378,3.378,0,0,0,.325-3.334c-.5-1.343-1.579-1.475-2.788-1.9-.767-.3-1.711-1.106-2.493-.841" transform="translate(-1.763 -1.691)" fill="none" stroke="#fec62d" stroke-linecap="round" stroke-linejoin="round" stroke-width="2"/>
      <path id="Path_1156" data-name="Path 1156" d="M72.963,55.82c-.782,0-9.811,8.173-12.643,8.852" transform="translate(-5.807 0.522)" fill="none" stroke="#fec62d" stroke-linecap="round" stroke-linejoin="round" stroke-width="2"/>
      <path id="Path_1157" data-name="Path 1157" d="M61.036,55.82c.487.339,2.11.664,2.449,1.106s.87,1.077,1.3,1.608a10.032,10.032,0,0,1,1.475,3.629,5.473,5.473,0,0,1,.5,3.378,7.377,7.377,0,0,1-2.611,3.349,32.944,32.944,0,0,0-3.615,2.3c-1,1.033-2.213,1.741-3.26,2.744s-2.42,1.475-3.541,2.346a17.568,17.568,0,0,0-1.475,1.638c-.487.516-1.077,1-1.623,1.475a9.4,9.4,0,0,1-2.183,1.638,7.377,7.377,0,0,0-1.992.841" transform="translate(-12.395 0.522)" fill="none" stroke="#fec62d" stroke-linecap="round" stroke-linejoin="round" stroke-width="2"/>
      <path id="Path_1158" data-name="Path 1158" d="M47.334,70.55a10.814,10.814,0,0,1,1.077,3.615,4.972,4.972,0,0,1-1.475,3.216,10.829,10.829,0,0,0-1.785,3.482A21.3,21.3,0,0,1,43.675,84.7,14.487,14.487,0,0,0,42.2,88.032" transform="translate(-14.42 7.524)" fill="none" stroke="#fec62d" stroke-linecap="round" stroke-linejoin="round" stroke-width="2"/>
      <path id="Path_1159" data-name="Path 1159" d="M50.179,42.16c1.844,1.844,1.947,5.562,2.11,6.7a31.631,31.631,0,0,1,0,10.091c-.472,2.7-1.166,5.9-3.969,7.023" transform="translate(-11.511 -5.97)" fill="none" stroke="#fec62d" stroke-linecap="round" stroke-linejoin="round" stroke-width="2"/>
      <path id="Path_1160" data-name="Path 1160" d="M72.452,39.394a4.337,4.337,0,0,0,1.225,6.329c1.859.8,2.095.929,3.2.782a2.626,2.626,0,0,0,2.036-1.7,3.836,3.836,0,0,0-.221-2.951,10.43,10.43,0,0,0-3.541-3.792c-.782-.5-2.3-1.166-3.2-.546" transform="translate(-0.457 -8.295)" fill="none" stroke="#fec62d" stroke-linecap="round" stroke-linejoin="round" stroke-width="2"/>
      <path id="Path_1161" data-name="Path 1161" d="M50.83,58.3V20.212a2.6,2.6,0,0,1,2.611-2.582H79.186A2.6,2.6,0,0,1,81.8,20.212V49.453" transform="translate(-10.318 -17.63)" fill="none" stroke="#fec62d" stroke-linecap="round" stroke-linejoin="round" stroke-width="2"/>
      <path id="Path_1162" data-name="Path 1162" d="M77.362,56.452H53.418A2.611,2.611,0,0,1,50.88,54.49" transform="translate(-10.294 -0.11)" fill="none" stroke="#fec62d" stroke-linecap="round" stroke-linejoin="round" stroke-width="2"/>
      <path id="Path_1163" data-name="Path 1163" d="M72.765,17.64l-1.992,2.006a2.818,2.818,0,0,1-1.992.826H59.443a2.818,2.818,0,0,1-1.992-.826L55.46,17.655" transform="translate(-8.117 -17.625)" fill="none" stroke="#fec62d" stroke-linecap="round" stroke-linejoin="round" stroke-width="2"/>
      <path id="Path_1164" data-name="Path 1164" d="M72.551,42.16v4.632a4.618,4.618,0,0,0-.856.443,2.951,2.951,0,0,0-.959,1.313,4.323,4.323,0,0,0,0,3.733,3.88,3.88,0,0,0,1.328,1.475,9.34,9.34,0,0,0,1.062.634l.561.28a2.789,2.789,0,0,1,.487.221" transform="translate(-1.057 -5.97)" fill="none" stroke="#fec62d" stroke-linecap="round" stroke-linejoin="round" stroke-width="2"/>
    </g>
  </g>
</svg>
