<svg xmlns="http://www.w3.org/2000/svg" width="98.721" height="59.384" viewBox="0 0 98.721 59.384">
  <g id="noun_eye_closed_2616526" data-name="noun_eye closed_2616526" transform="translate(0)">
    <path id="Path_1146" data-name="Path 1146" d="M100.487,55.887a5.877,5.877,0,0,0,0-8.58c-7.956-7.475-26.242-22.1-47.529-22.1-21.2,0-39.419,14.5-47.428,22.006a6,6,0,0,0,0,8.768c.589.552,1.24,1.145,1.937,1.764l-3.836,3.1,2.006,2.484,4.29-3.463c2.264,1.886,4.918,3.928,7.893,5.94l-3.883,4.438,2.4,2.1,4.183-4.781a81.806,81.806,0,0,0,7.314,4.084l-3.1,6.268L27.6,79.329l3.132-6.334A63.879,63.879,0,0,0,39.3,76.058L37.988,82.77l3.134.615,1.287-6.566a50.43,50.43,0,0,0,8.952,1.133v6.639h3.193V77.952a50.423,50.423,0,0,0,8.953-1.133l1.287,6.565,3.133-.613-1.316-6.712a63.873,63.873,0,0,0,8.572-3.065l3.133,6.335,2.863-1.416-3.1-6.268a81.806,81.806,0,0,0,7.314-4.083l4.182,4.781,2.4-2.1L88.1,65.8c2.974-2.011,5.629-4.053,7.893-5.939l4.29,3.463,2.006-2.484-3.836-3.1C99.186,57.091,99.871,56.465,100.487,55.887Z" transform="translate(-3.626 -25.207)" fill="#fec62d"/>
  </g>
</svg>
