<svg xmlns="http://www.w3.org/2000/svg" width="107.688" height="100.513" viewBox="0 0 107.688 100.513">
  <g id="volume" transform="translate(0 -15.99)">
    <path id="Path_220" data-name="Path 220" d="M62.581,16.346a3.579,3.579,0,0,0-3.8.431L23.864,44.711H7.179A7.191,7.191,0,0,0,0,51.891V80.607a7.186,7.186,0,0,0,7.179,7.179H23.864l34.913,27.934a3.595,3.595,0,0,0,3.8.424,3.583,3.583,0,0,0,2.032-3.231V19.584A3.6,3.6,0,0,0,62.581,16.346Z" transform="translate(0 0)" fill="#fec62d"/>
    <path id="Path_221" data-name="Path 221" d="M347.863,123.286a3.592,3.592,0,0,0-5.047,5.112,28.631,28.631,0,0,1,0,40.548,3.587,3.587,0,1,0,5.047,5.1,35.808,35.808,0,0,0,0-50.757Z" transform="translate(-265.08 -82.422)" fill="#fec62d"/>
    <path id="Path_222" data-name="Path 222" d="M392.987,78.167a3.592,3.592,0,1,0-5.061,5.1,42.837,42.837,0,0,1,0,60.8,3.592,3.592,0,0,0,5.061,5.1,50.031,50.031,0,0,0,0-71Z" transform="translate(-300.074 -47.419)" fill="#fec62d"/>
  </g>
</svg>
