<svg xmlns="http://www.w3.org/2000/svg" width="149.429" height="145.351" viewBox="0 0 149.429 145.351">
  <g id="noun_washing_hands_3472075" data-name="noun_washing hands_3472075" transform="translate(-3.113 -2)">
    <g id="Washing_Hands-Hygiene-Hand_Sanitizer-Finger-Cleaning" data-name="Washing Hands-Hygiene-Hand Sanitizer-Finger-Cleaning" transform="translate(3.113 2)">
      <path id="Path_1140" data-name="Path 1140" d="M150.719,87.733l-3.4-3.4L145.6,86.044l-4.706-4.73-3.234-9.7a2.553,2.553,0,0,0-.579-.941l-32.6-32.579a8.42,8.42,0,0,0-.048-11.849,7.768,7.768,0,0,0-3.186-1.931l1.5-1.52a8.521,8.521,0,0,0,0-11.946,8.644,8.644,0,0,0-11.97,0l-1.448,1.448a8.668,8.668,0,0,0-1.955-3.161,8.688,8.688,0,0,0-11.946,0l-3.161,3.161a8.089,8.089,0,0,0-1.955-3.137,8.661,8.661,0,0,0-11.946-.024L23.371,44.125a2.553,2.553,0,0,0-.579.941l-3.21,9.7-4.73,4.73-1.713-1.713a2.447,2.447,0,0,0-3.4,0L1.29,66.207l3.427,3.427L11.426,62.9,42.147,93.621,25.085,110.683l3.4,3.4L47.263,95.335a2.433,2.433,0,0,0,0-3.427l-1.713-1.713,3.885-3.861,22.25-5.961,6.13,6.13-4.127-1.11a8.446,8.446,0,0,0-9.508,12.38,8.362,8.362,0,0,0,5.14,3.934l41.7,11.173,3.861,3.861-1.689,1.713a2.433,2.433,0,0,0,0,3.427l18.775,18.751,3.4-3.4-17.062-17.062ZM102.068,32.18a3.427,3.427,0,0,1-1.062,2.558l-.048.048a8.673,8.673,0,0,0-10.811.917,8.256,8.256,0,0,0-1.979,3.137l-.748-.748,8.495-8.446a3.687,3.687,0,0,1,5.116,0,3.538,3.538,0,0,1,1.038,2.534ZM94.2,14.273a3.62,3.62,0,1,1,5.116,5.116L84.258,34.448a12.185,12.185,0,0,0-4.537-5.719l7.65-7.626ZM78.852,12.536a3.7,3.7,0,0,1,5.092.024,3.555,3.555,0,0,1,0,5.116L74.822,26.8a11.516,11.516,0,0,0-1.834-.145A12.066,12.066,0,0,0,63.359,31.5a10.464,10.464,0,0,0-2.172-1.279ZM77.839,33.411A8.251,8.251,0,0,0,73.085,35.7a8.355,8.355,0,0,0-1.979,3.113l-1.424-1.424a8.622,8.622,0,0,0-3.113-1.931,7.24,7.24,0,0,1,6.419-3.982,7.676,7.676,0,0,1,1.979.265,7.148,7.148,0,0,1,2.872,1.665ZM47.552,81.821a2.732,2.732,0,0,0-1.086.627l-4.32,4.344L18.255,62.9l5.14-5.116a2.553,2.553,0,0,0,.579-.941l3.21-9.7L61.79,12.56a3.659,3.659,0,0,1,5.092,0,3.555,3.555,0,0,1,0,5.116L55.444,29.139A12.045,12.045,0,0,0,44.029,41.133v.241a12.066,12.066,0,0,0,2.727,23.891,9.653,9.653,0,0,0,9.339,7.24,9.554,9.554,0,0,0,5.768-1.955l5.864,5.864ZM57.736,49.338l1.424,1.424a8.314,8.314,0,0,0-3.137,2,8.42,8.42,0,0,0,0,11.946l2.365,2.365a4.643,4.643,0,0,1-2.293.6A4.827,4.827,0,0,1,51.269,62.9c0-.072.024-.338.024-.41a2.447,2.447,0,0,0-.965-1.931,2.341,2.341,0,0,0-2.1-.386,7.22,7.22,0,1,1-1.834-14.214c.072,0,.338.024.41.024a2.447,2.447,0,0,0,1.931-.965,2.341,2.341,0,0,0,.386-2.1,7.117,7.117,0,0,1-.265-1.786,7.283,7.283,0,0,1,7.167-7.264,2.112,2.112,0,0,0,.386.048,7.073,7.073,0,0,1,4.223,1.593,8.688,8.688,0,0,0-2.9,1.882,8.446,8.446,0,0,0,0,11.946Zm56.253,59.68a2.261,2.261,0,0,0-1.086-.627L70.575,97.048a3.62,3.62,0,1,1,1.858-7l12.814,3.427a2.413,2.413,0,0,0,2.341-4.03L59.425,61.284a3.62,3.62,0,0,1-1.062-2.558,3.659,3.659,0,0,1,1.062-2.558,3.712,3.712,0,0,1,5.116,0L85.875,77.5A2.415,2.415,0,0,0,89.3,74.1L61.139,45.935a3.62,3.62,0,1,1,5.116-5.116l6.757,6.757.072.072L94.418,68.982a2.415,2.415,0,0,0,3.4-3.427L76.439,44.174a3.62,3.62,0,0,1,.048-5.068,3.716,3.716,0,0,1,5.14,0l21.309,21.333a2.415,2.415,0,0,0,3.427-3.4L93.573,44.222a3.62,3.62,0,0,1,0-5.116,3.687,3.687,0,0,1,5.116,0l34.582,34.582,3.234,9.7a2.131,2.131,0,0,0,.579.941l5.116,5.116-23.891,23.891Z" transform="translate(-1.29 4.719)" fill="#fec62d"/>
      <path id="Path_1141" data-name="Path 1141" d="M58.24,26.48A7.24,7.24,0,1,0,51,19.24,7.24,7.24,0,0,0,58.24,26.48Zm0-9.653a2.413,2.413,0,1,1-2.413,2.413A2.413,2.413,0,0,1,58.24,16.827Z" transform="translate(68.963 12.133)" fill="#181d3d"/>
      <path id="Path_1142" data-name="Path 1142" d="M14.24,16.48A7.24,7.24,0,1,0,7,9.24,7.24,7.24,0,0,0,14.24,16.48Zm0-9.653A2.413,2.413,0,1,1,11.827,9.24,2.413,2.413,0,0,1,14.24,6.827Z" transform="translate(6.78 -2)" fill="#181d3d"/>
      <path id="Path_1143" data-name="Path 1143" d="M9.24,29.48A7.24,7.24,0,1,0,2,22.24,7.24,7.24,0,0,0,9.24,29.48Zm0-9.653A2.413,2.413,0,1,1,6.827,22.24,2.413,2.413,0,0,1,9.24,19.827Z" transform="translate(-0.287 16.372)" fill="#181d3d"/>
      <path id="Path_1144" data-name="Path 1144" d="M32.24,49a7.24,7.24,0,1,0,7.24,7.24A7.24,7.24,0,0,0,32.24,49Zm0,9.653a2.413,2.413,0,1,1,2.413-2.413A2.413,2.413,0,0,1,32.24,58.653Z" transform="translate(32.218 64.423)" fill="#181d3d"/>
    </g>
  </g>
</svg>
