<svg xmlns="http://www.w3.org/2000/svg" width="135.209" height="118.821" viewBox="0 0 135.209 118.821">
  <g id="Group_593" data-name="Group 593" transform="translate(-8.894 -35.604)">
    <path id="Path_1145" data-name="Path 1145" d="M173.809,205.764l.037-.148a9.39,9.39,0,0,0-7.37-11.508,8.23,8.23,0,0,0-.21-4.682,8.362,8.362,0,0,0-.8-1.692l10.937-2.912a9.237,9.237,0,0,0,6.539-11.132l-.037-.148a9.039,9.039,0,0,0-10.8-6.581l-12.442,2.931a9.268,9.268,0,0,0-4.874-2.65L153,166.88c6.571-4.514,13.2-9.065,17.873-12.269a10.459,10.459,0,0,0,2.429-14.92l-.114-.151a10.239,10.239,0,0,0-13.87-2.37l-13.173,8.8-5.079.726,15.407-19.26A9.5,9.5,0,0,0,142.125,115l-16.068,17.139a7.841,7.841,0,0,0-1.872-1.291,7.738,7.738,0,0,0-5.987-.379l-13.226,4.56.1-.473a11.129,11.129,0,0,0-10.863-13.542h-.249a8.849,8.849,0,0,0-8.528,6.344L82.2,139.081l-1.155.3a21.416,21.416,0,0,0-15.194,14.07l-2.171,6.513-13.15,2.63a2.968,2.968,0,0,0-2.386,2.91v25.84a2.957,2.957,0,0,0,.263,2.39L69.18,229.349a2.968,2.968,0,0,0,4.21.974l16.727-11.151a34.893,34.893,0,0,0,23.187-2.845l6.624-3.312c4.8,0,32.942,0,44.595.016h.013A9.556,9.556,0,0,0,173.809,205.764Zm-14.635-15.875a2.341,2.341,0,0,1,1.373,3.233l-9.441-1.562,7.265-1.936Zm14.289-17.151a3.082,3.082,0,0,1,3.681,2.243l.037.148a3.238,3.238,0,0,1-2.309,3.957c-4.067,1.082-9.756,2.6-15.516,4.133a9.332,9.332,0,0,0,2.9-7.84Zm-17.621,1.852a3.4,3.4,0,0,1,.429,2.665,3.45,3.45,0,0,1-3.667,2.58l-16.113-1.611,9.688-6.662,7.437,1.5a3.4,3.4,0,0,1,2.226,1.528Zm6.773-32.482a4.3,4.3,0,0,1,5.824,1l.113.151a4.529,4.529,0,0,1,.86,3.482,4.461,4.461,0,0,1-1.9,2.981c-2.711,1.859-6.084,4.172-9.716,6.667,0-.126.009-.252.009-.379a10.143,10.143,0,0,0-3.5-7.667c-.148-.13-.3-.255-.461-.375Zm-15.551,9.726a4.214,4.214,0,1,1,.977,8.368l-19.175,1.744,6.785-8.481Zm-26.929-15.751a1.855,1.855,0,0,1,2.361,1.156l.013.041a6.717,6.717,0,0,1-3.7,8.249l-15.729,6.752L101.63,150.1l1.855-8.279Zm-53.6,29.366a2.968,2.968,0,0,0,2.234-1.972l2.715-8.147a15.491,15.491,0,0,1,8.66-9.4l-8.017,29.591L54.078,186.8V167.939Zm101.557,38.727-.037.148a3.631,3.631,0,0,1-3.516,2.772h0c-12.7-.017-44.978-.017-45.3-.017a2.966,2.966,0,0,0-1.328.314l-7.25,3.625a28.959,28.959,0,0,1-19.961,2.189l-.421-.1a2.968,2.968,0,0,0-2.364.411L72.719,223.637l-17.736-30.4,21.3-13.313a2.968,2.968,0,0,0,1.306-1.8l13.533-49.057a2.949,2.949,0,0,1,2.842-2.115h.249a5.194,5.194,0,0,1,5.07,6.32l-3.729,16.778a2.97,2.97,0,0,0,.36,2.183l4.047,6.672a2.968,2.968,0,0,0,4.547.644l2.748-2.53c.045-.041.084-.085.125-.128l13.763-5.907A12.706,12.706,0,0,0,128.7,138l17.755-18.937a3.564,3.564,0,0,1,5.383,4.663l-31.961,39.951a2.968,2.968,0,0,0,2.316,4.823c.09,0,.18-.007.269-.015v0l20.407-1.855-16.422,11.293a2.968,2.968,0,0,0,1.386,5.4l22.638,2.263-14.2,3.787a2.968,2.968,0,0,0,.28,5.8L162,199.377l3.3.545a3.461,3.461,0,0,1,2.793,4.252Z" transform="translate(-39.109 -76.397)" fill="#fec62d"/>
  </g>
</svg>
