<svg xmlns="http://www.w3.org/2000/svg" width="69.314" height="84.646" viewBox="0 0 69.314 84.646">
  <g id="noun_Head_1704647" transform="translate(-14.981 -3.247)">
    <path id="Path_1165" data-name="Path 1165" d="M61.11,79.462c-2.661-.007.515,8.284-4.62,8.431H30.374c-6.5,0-5.9-4.291-4.186-6.883q3.676-5.547,2.525-14.319c-.371-2.8-2.446-5.622-3.978-7.955-4.782-7.293-9.988-14.81-9.746-26.453.192-9.212,3.987-17.366,9.319-21.991,10.855-9.42,37.316-10,47.186,1.97a29.118,29.118,0,0,1,7.254,17.7c-.216,4.75-.217,5.6-1.5,8.546-1.5,3.842,9.732,12.364,6.441,16.22C81.861,56.559,80.47,55.8,78.555,57c-1.862,1.633.593,4.463-.953,7.376-.274,3.968-1.468,2.718-1.876,4.89-.3,1.573,1.193,2.6.525,5.778-.57,2.71-2.4,3.527-5.37,3.978A45.211,45.211,0,0,1,61.11,79.462Z" transform="translate(0 0)" fill="#fec62d"/>
  </g>
</svg>
