<svg xmlns="http://www.w3.org/2000/svg" width="246.5" height="117.201" viewBox="0 0 246.5 117.201">
  <g id="Group_599" data-name="Group 599" transform="translate(-50 -173.935)">
    <g id="noun_Eye_1010905_1_" data-name="noun_Eye_1010905 (1)" transform="translate(50.129 223.138)">
      <g id="Group_598" data-name="Group 598" transform="translate(-0.13 14.519)">
        <path id="Path_1150" data-name="Path 1150" d="M84,36.246S66.914,16,43.659,16,3.322,36.246,3.322,36.246a3.38,3.38,0,0,0,0,4.2S20.405,60.686,43.659,60.686,83.994,40.441,83.994,40.441A3.376,3.376,0,0,0,84,36.246Zm-40.336,19.3a17.2,17.2,0,1,1,17.2-17.2A17.2,17.2,0,0,1,43.659,55.543Z" transform="translate(-2.592 -16)" fill="#181d3d"/>
        <path id="Path_1151" data-name="Path 1151" d="M41.668,30.781A3.4,3.4,0,0,1,38.558,26a9.257,9.257,0,1,0,4.136,4.625A3.43,3.43,0,0,1,41.668,30.781Z" transform="translate(6.94 -11.783)" fill="#181d3d"/>
      </g>
    </g>
    <path id="Icon_ionic-ios-star" data-name="Icon ionic-ios-star" d="M32.555,13.5H22.212L19.069,4.12a1.139,1.139,0,0,0-2.138,0L13.788,13.5H3.375A1.128,1.128,0,0,0,2.25,14.625a.827.827,0,0,0,.021.19,1.081,1.081,0,0,0,.471.795l8.5,5.991L7.98,31.085a1.128,1.128,0,0,0,.387,1.266A1.088,1.088,0,0,0,9,32.625a1.378,1.378,0,0,0,.7-.253L18,26.459l8.3,5.913a1.318,1.318,0,0,0,.7.253,1.01,1.01,0,0,0,.626-.274,1.114,1.114,0,0,0,.387-1.266L24.75,21.6l8.43-6.047.2-.176a1.18,1.18,0,0,0,.366-.752A1.191,1.191,0,0,0,32.555,13.5Z" transform="translate(262.75 190.625)" fill="#fec62d"/>
    <path id="Path_1166" data-name="Path 1166" d="M3354.535,71.317l14.527-67.355,33.017,67.355,47.545-67.355-34.338,113.579,56.79-76.6h31.7" transform="translate(-3238 173)" fill="none" stroke="#fec62d" stroke-width="2" stroke-dasharray="7 3"/>
  </g>
</svg>
