<svg xmlns="http://www.w3.org/2000/svg" width="142.642" height="85.804" viewBox="0 0 142.642 85.804">
  <g id="noun_eye_closed_2616526" data-name="noun_eye closed_2616526" transform="translate(0)">
    <path id="Path_1146" data-name="Path 1146" d="M143.58,69.536a8.491,8.491,0,0,0,0-12.4c-11.5-10.8-37.917-31.932-68.674-31.932-30.628,0-56.957,20.955-68.529,31.8a8.668,8.668,0,0,0,0,12.669c.851.8,1.792,1.655,2.8,2.549L3.633,76.7l2.9,3.59,6.2-5c3.271,2.725,7.107,5.676,11.4,8.582l-5.61,6.413L22,93.313,28.04,86.4a118.2,118.2,0,0,0,10.567,5.9l-4.478,9.056,4.136,2.046,4.526-9.152a92.3,92.3,0,0,0,12.386,4.427l-1.9,9.7,4.528.889,1.86-9.488A72.865,72.865,0,0,0,72.6,101.419v9.592h4.614v-9.593a72.855,72.855,0,0,0,12.936-1.638l1.859,9.486,4.527-.886-1.9-9.7a92.29,92.29,0,0,0,12.386-4.429l4.526,9.153,4.136-2.046L111.2,92.3a118.2,118.2,0,0,0,10.568-5.9l6.043,6.908,3.472-3.037-5.61-6.413c4.3-2.906,8.133-5.857,11.4-8.582l6.2,5,2.9-3.59-5.543-4.475C141.7,71.276,142.69,70.372,143.58,69.536Z" transform="translate(-3.626 -25.207)" fill="#fec62d"/>
  </g>
</svg>
