<svg xmlns="http://www.w3.org/2000/svg" width="265.857" height="131.439" viewBox="0 0 265.857 131.439">
  <g id="Group_595" data-name="Group 595" transform="translate(-57.248 -207.751)">
    <g id="noun_eye_closed_2616526" data-name="noun_eye closed_2616526" transform="translate(231 233.629)">
      <path id="Path_1146" data-name="Path 1146" d="M75.251,47.893a4.346,4.346,0,0,0,0-6.344c-5.883-5.528-19.405-16.342-35.145-16.342-15.674,0-29.149,10.724-35.071,16.272a4.436,4.436,0,0,0,0,6.484c.436.408.917.847,1.432,1.3l-2.837,2.29,1.483,1.837,3.172-2.561c1.674,1.395,3.637,2.9,5.836,4.392L11.25,58.507l1.777,1.554,3.093-3.535a60.491,60.491,0,0,0,5.408,3.02l-2.292,4.635,2.117,1.047,2.316-4.684a47.236,47.236,0,0,0,6.339,2.265l-.973,4.963,2.317.455.952-4.856a37.291,37.291,0,0,0,6.62.838v4.909h2.361V64.21a37.286,37.286,0,0,0,6.62-.838l.952,4.855,2.317-.453L50.2,62.81a47.231,47.231,0,0,0,6.339-2.266l2.317,4.684,2.117-1.047-2.292-4.635a60.492,60.492,0,0,0,5.408-3.02l3.093,3.535,1.777-1.554-2.871-3.282c2.2-1.487,4.162-3,5.836-4.392L75.1,53.395l1.483-1.837-2.837-2.29C74.288,48.784,74.8,48.321,75.251,47.893Z" transform="translate(-3.626 -25.207)" fill="#181d3d"/>
    </g>
    <g id="noun_eye_closed_2616526-2" data-name="noun_eye closed_2616526" transform="translate(84 233.629)">
      <path id="Path_1146-2" data-name="Path 1146" d="M75.251,47.893a4.346,4.346,0,0,0,0-6.344c-5.883-5.528-19.405-16.342-35.145-16.342-15.674,0-29.149,10.724-35.071,16.272a4.436,4.436,0,0,0,0,6.484c.436.408.917.847,1.432,1.3l-2.837,2.29,1.483,1.837,3.172-2.561c1.674,1.395,3.637,2.9,5.836,4.392L11.25,58.507l1.777,1.554,3.093-3.535a60.491,60.491,0,0,0,5.408,3.02l-2.292,4.635,2.117,1.047,2.316-4.684a47.236,47.236,0,0,0,6.339,2.265l-.973,4.963,2.317.455.952-4.856a37.291,37.291,0,0,0,6.62.838v4.909h2.361V64.21a37.286,37.286,0,0,0,6.62-.838l.952,4.855,2.317-.453L50.2,62.81a47.231,47.231,0,0,0,6.339-2.266l2.317,4.684,2.117-1.047-2.292-4.635a60.492,60.492,0,0,0,5.408-3.02l3.093,3.535,1.777-1.554-2.871-3.282c2.2-1.487,4.162-3,5.836-4.392L75.1,53.395l1.483-1.837-2.837-2.29C74.288,48.784,74.8,48.321,75.251,47.893Z" transform="translate(-3.626 -25.207)" fill="#181d3d"/>
    </g>
    <g id="noun_Hand_478823" transform="translate(182.317 229.892) rotate(-21)">
      <g id="Group_575" data-name="Group 575" transform="translate(17.403 16)">
        <path id="Path_768" data-name="Path 768" d="M41.074,87.33,29.314,75.57a6.978,6.978,0,0,0-9.867,0h0a6.977,6.977,0,0,0-.751,8.979l17.7,24.873a36.424,36.424,0,0,0,28.959,14.332h7.587A30.353,30.353,0,0,0,103.3,93.4V38.765a6.071,6.071,0,0,0-6.071-6.071h0a6.071,6.071,0,0,0-6.071,6.071v25.8H86.6V28.141a6.071,6.071,0,0,0-6.071-6.071h0a6.071,6.071,0,0,0-6.071,6.071V64.565H69.91V22.071A6.071,6.071,0,0,0,63.839,16h0a6.071,6.071,0,0,0-6.071,6.071V64.565H53.216V29.659a6.071,6.071,0,0,0-6.071-6.071h0a6.071,6.071,0,0,0-6.071,6.071Z" transform="translate(-17.403 -16)" fill="#fec62d"/>
      </g>
    </g>
    <g id="noun_Hand_478823-2" data-name="noun_Hand_478823" transform="matrix(-0.933, -0.358, -0.358, 0.934, 198.076, 229.888)">
      <g id="Group_575-2" data-name="Group 575" transform="translate(17.403 16)">
        <path id="Path_768-2" data-name="Path 768" d="M41.074,87.33,29.314,75.57a6.978,6.978,0,0,0-9.867,0h0a6.977,6.977,0,0,0-.751,8.979l17.7,24.873a36.424,36.424,0,0,0,28.959,14.332h7.587A30.353,30.353,0,0,0,103.3,93.4V38.765a6.071,6.071,0,0,0-6.071-6.071h0a6.071,6.071,0,0,0-6.071,6.071v25.8H86.6V28.141a6.071,6.071,0,0,0-6.071-6.071h0a6.071,6.071,0,0,0-6.071,6.071V64.565H69.91V22.071A6.071,6.071,0,0,0,63.839,16h0a6.071,6.071,0,0,0-6.071,6.071V64.565H53.216V29.659a6.071,6.071,0,0,0-6.071-6.071h0a6.071,6.071,0,0,0-6.071,6.071Z" transform="translate(-17.403 -16)" fill="#fec62d"/>
      </g>
    </g>
  </g>
</svg>
