<svg xmlns="http://www.w3.org/2000/svg" width="142.766" height="74.409" viewBox="0 0 142.766 74.409">
  <g id="noun_Eye_3084423" transform="translate(0)">
    <path id="Path_1147" data-name="Path 1147" d="M52.976,38.6a18.014,18.014,0,0,0-8.392,2.051A7.1,7.1,0,0,1,48.5,46.806a6.884,6.884,0,0,1-6.9,6.9,7.075,7.075,0,0,1-5.781-3.17A18.159,18.159,0,0,0,34.7,56.876,18.463,18.463,0,1,0,52.976,38.6Z" transform="translate(17.433 -13.424)" fill="#fec62d"/>
    <path id="Path_1148" data-name="Path 1148" d="M148.952,52.7h0a1.813,1.813,0,0,0-2.611.186l-7.087,7.833a81.2,81.2,0,0,0-8.019-5.968L137.2,45.8a1.658,1.658,0,0,0-.559-2.424h0a1.658,1.658,0,0,0-2.424.559l-5.968,8.952c-2.8-1.678-5.781-3.357-8.765-4.849l4.849-9.884a1.85,1.85,0,0,0-.932-2.424h0a1.85,1.85,0,0,0-2.424.932l-4.849,9.884-2.8-1.119c-2.238-.932-4.289-1.678-6.527-2.424l3.357-10.63a1.671,1.671,0,0,0-1.119-2.238h0a1.671,1.671,0,0,0-2.238,1.119l-3.357,10.63a81.519,81.519,0,0,0-9.7-2.238l1.865-11.189a1.848,1.848,0,0,0-1.492-2.051h0A1.848,1.848,0,0,0,92.073,27.9L90.208,39.087a84.914,84.914,0,0,0-9.884-.746l.186-11.376A1.869,1.869,0,0,0,78.646,25.1h0a1.869,1.869,0,0,0-1.865,1.865l-.373,11a87.8,87.8,0,0,0-9.884.559L65.032,27.338a1.848,1.848,0,0,0-2.051-1.492h0A1.848,1.848,0,0,0,61.489,27.9l1.492,11.189c-3.357.559-6.527,1.119-9.7,1.865l-2.984-11a1.918,1.918,0,0,0-2.238-1.305h0a1.918,1.918,0,0,0-1.305,2.238L49.74,41.7a70,70,0,0,0-8.765,3.17c-.186,0-.373.186-.559.186L35.753,34.8a1.85,1.85,0,0,0-2.424-.932h0a1.85,1.85,0,0,0-.932,2.424l4.476,10.257a78.889,78.889,0,0,0-8.765,4.662L22.139,41.7a1.658,1.658,0,0,0-2.424-.559h0a1.658,1.658,0,0,0-.559,2.424l5.968,9.324c-2.8,1.865-5.408,3.73-8.019,5.781l-7.087-8.392a1.8,1.8,0,0,0-2.611-.186h0A1.8,1.8,0,0,0,7.22,52.7l7.087,8.392c-1.678,1.492-3.543,3.17-5.222,4.849l-.746.746a2.7,2.7,0,0,0,0,3.916l.746.746a96.756,96.756,0,0,0,68.069,28.16h0a96.179,96.179,0,0,0,36.179-7.087,97.994,97.994,0,0,0,31.89-21.073l.746-.746a2.672,2.672,0,0,0,.746-1.865,2.849,2.849,0,0,0-.746-1.865l-.746-.746c-1.119-1.119-2.238-2.051-3.357-3.17l7.087-7.833A1.59,1.59,0,0,0,148.952,52.7ZM46.57,87.388A81.22,81.22,0,0,1,20.647,68.739,79.226,79.226,0,0,1,46.57,50.09a77.792,77.792,0,0,1,16.6-5.222,27.9,27.9,0,0,0-13.8,23.871,27.436,27.436,0,0,0,13.8,23.871A68.5,68.5,0,0,1,46.57,87.388Zm30.584,3.543A22.192,22.192,0,1,1,99.346,68.739,22.126,22.126,0,0,1,77.154,90.931Zm30.584-3.543a78.433,78.433,0,0,1-16.6,5.408,27.9,27.9,0,0,0,13.8-23.871,27.436,27.436,0,0,0-13.8-23.871,77.791,77.791,0,0,1,16.6,5.222A81.221,81.221,0,0,1,133.66,68.925,83.582,83.582,0,0,1,107.738,87.388Z" transform="translate(-6.745 -25.1)" fill="#fec62d"/>
  </g>
</svg>
