<svg xmlns="http://www.w3.org/2000/svg" width="82.133" height="44.686" viewBox="0 0 82.133 44.686">
  <g id="noun_Eye_1010905_1_" data-name="noun_Eye_1010905 (1)" transform="translate(0.13 -14.519)">
    <g id="Group_598" data-name="Group 598" transform="translate(-0.13 14.519)">
      <path id="Path_1150" data-name="Path 1150" d="M84,36.246S66.914,16,43.659,16,3.322,36.246,3.322,36.246a3.38,3.38,0,0,0,0,4.2S20.405,60.686,43.659,60.686,83.994,40.441,83.994,40.441A3.376,3.376,0,0,0,84,36.246Zm-40.336,19.3a17.2,17.2,0,1,1,17.2-17.2A17.2,17.2,0,0,1,43.659,55.543Z" transform="translate(-2.592 -16)" fill="#fec62d"/>
      <path id="Path_1151" data-name="Path 1151" d="M41.668,30.781A3.4,3.4,0,0,1,38.558,26a9.257,9.257,0,1,0,4.136,4.625A3.43,3.43,0,0,1,41.668,30.781Z" transform="translate(6.94 -11.783)" fill="#fec62d"/>
    </g>
  </g>
</svg>
