<svg id="science" xmlns="http://www.w3.org/2000/svg" width="24.321" height="24.299" viewBox="0 0 24.321 24.299">
  <ellipse id="Ellipse_1026" data-name="Ellipse 1026" cx="12.149" cy="12.149" rx="12.149" ry="12.149" transform="translate(0.022 0)" fill="#fcbd5e"/>
  <g id="Group_868" data-name="Group 868" transform="translate(5.505 2.105)">
    <rect id="Rectangle_441" data-name="Rectangle 441" width="0.759" height="0.759" transform="translate(4.084 18.7)" fill="#183651"/>
    <rect id="Rectangle_442" data-name="Rectangle 442" width="0.759" height="0.759" transform="translate(6.362 18.7)" fill="#183651"/>
    <rect id="Rectangle_443" data-name="Rectangle 443" width="0.759" height="0.759" transform="translate(8.64 18.7)" fill="#183651"/>
    <rect id="Rectangle_444" data-name="Rectangle 444" width="0.759" height="0.759" transform="translate(1.04 2.965) rotate(149.358)" fill="#183651"/>
    <rect id="Rectangle_445" data-name="Rectangle 445" width="0.759" height="0.759" transform="matrix(-0.86, 0.51, -0.51, -0.86, 3.004, 1.783)" fill="#183651"/>
    <rect id="Rectangle_446" data-name="Rectangle 446" width="0.759" height="0.759" transform="matrix(-0.86, 0.51, -0.51, -0.86, 4.956, 0.653)" fill="#183651"/>
  </g>
  <path id="Path_2407" data-name="Path 2407" d="M198,24.2l-5.391-7.669V9.851h.076a.873.873,0,0,0,0-1.746h-4.138a.873.873,0,0,0,0,1.746h.076v6.682L183.272,24.2a1.062,1.062,0,0,0,.873,1.671h13.023A1.053,1.053,0,0,0,198,24.2Z" transform="translate(-174.252 -7.725)" fill="#fff"/>
  <path id="Path_2408" data-name="Path 2408" d="M189.306,18.756H176.284A1.41,1.41,0,0,1,175.031,18a1.322,1.322,0,0,1,.114-1.481l5.315-7.593V2.7a1.3,1.3,0,0,1-.949-1.215A1.264,1.264,0,0,1,180.764.228h4.1a1.264,1.264,0,0,1,1.253,1.253,1.3,1.3,0,0,1-.949,1.215V8.922l5.315,7.593A1.486,1.486,0,0,1,190.6,18,1.516,1.516,0,0,1,189.306,18.756ZM180.726.987a.5.5,0,0,0-.494.494.5.5,0,0,0,.494.494h.076a.359.359,0,0,1,.38.38V9.036a.54.54,0,0,1-.076.228l-5.353,7.669a.638.638,0,0,0-.038.683.676.676,0,0,0,.607.38h13.023a.676.676,0,0,0,.607-.38.634.634,0,0,0-.038-.683l-5.429-7.669a.539.539,0,0,1-.076-.228V2.354a.359.359,0,0,1,.38-.38h.076a.5.5,0,0,0,.494-.494.5.5,0,0,0-.494-.494h-4.138Z" transform="translate(-166.428 -0.228)" fill="#183651"/>
  <g id="Group_869" data-name="Group 869" transform="translate(10.653 3.227)">
    <path id="Path_2409" data-name="Path 2409" d="M224.656,238.111l-3.645,5.2h11.428l-3.645-5.2Z" transform="translate(-221.011 -229.872)" fill="#f05f50"/>
    <ellipse id="Ellipse_1027" data-name="Ellipse 1027" cx="0.532" cy="0.532" rx="0.532" ry="0.532" transform="translate(5.619 3.075)" fill="#f05f50"/>
    <circle id="Ellipse_1028" data-name="Ellipse 1028" cx="0.683" cy="0.683" r="0.683" transform="translate(4.594 6.151)" fill="#f05f50"/>
    <ellipse id="Ellipse_1029" data-name="Ellipse 1029" cx="0.532" cy="0.532" rx="0.532" ry="0.532" transform="translate(4.746)" fill="#f05f50"/>
  </g>
  <path id="Path_2410" data-name="Path 2410" d="M12.889,315.3l-4.442,6.606a1.369,1.369,0,0,0,2.278,1.519l4.442-6.568Z" transform="translate(-7.818 -300.118)" fill="#e1e6e8"/>
  <path id="Path_2411" data-name="Path 2411" d="M1.769,317.154h0a1.882,1.882,0,0,1-.987-.3,1.766,1.766,0,0,1-.494-2.43l4.48-6.568a.373.373,0,0,1,.532-.114l2.278,1.519a.363.363,0,0,1,.076.532l-4.442,6.606A1.728,1.728,0,0,1,1.769,317.154Zm3.417-8.58L.933,314.838a.985.985,0,0,0,1.633,1.1l4.214-6.265Z" transform="translate(0 -292.855)" fill="#183651"/>
  <ellipse id="Ellipse_1030" data-name="Ellipse 1030" cx="5.695" cy="5.695" rx="5.695" ry="5.695" transform="translate(1.913 8.215)" fill="#fff"/>
  <path id="Path_2412" data-name="Path 2412" d="M34.948,173.758a6.113,6.113,0,1,1,8.467-1.671A6.094,6.094,0,0,1,34.948,173.758Zm-1.025-8.049a5.334,5.334,0,1,0,7.4-1.443A5.357,5.357,0,0,0,33.923,165.71Z" transform="translate(-30.712 -154.775)" fill="#183651"/>
  <path id="Path_2413" data-name="Path 2413" d="M66.215,202.861a4.554,4.554,0,1,0-1.215-6.3,4.534,4.534,0,0,0,1.215,6.3Z" transform="translate(-61.105 -185.169)" fill="#2aa0da"/>
  <path id="Path_2414" data-name="Path 2414" d="M108.464,215.408a.435.435,0,0,0,.607-.114,1.834,1.834,0,0,1,2.544-.494.437.437,0,0,0,.494-.721,2.726,2.726,0,0,0-3.759.721.435.435,0,0,0,.114.607Z" transform="translate(-103.051 -203.334)" fill="#fff"/>
</svg>
