<svg xmlns="http://www.w3.org/2000/svg" width="22" height="22" viewBox="0 0 22 22">
  <g id="Group_1051" data-name="Group 1051" transform="translate(-320 -491)">
    <path id="Polygon_18" data-name="Polygon 18" d="M11,0a11,11,0,0,1,7.778,3.222h0A11,11,0,0,1,22,11h0a11,11,0,0,1-3.222,7.778h0A11,11,0,0,1,11,22h0a11,11,0,0,1-7.778-3.222h0A11,11,0,0,1,0,11H0A11,11,0,0,1,3.222,3.222h0A11,11,0,0,1,11,0Z" transform="translate(320 491)" fill="#707070" opacity="0.62"/>
    <g id="Group_1049" data-name="Group 1049" transform="translate(325.812 496.05)">
      <path id="Icon_awesome-lock" data-name="Icon awesome-lock" d="M8.912,4.991H8.378v-1.6a3.387,3.387,0,0,0-6.773,0v1.6H1.069A1.07,1.07,0,0,0,0,6.06v4.278a1.07,1.07,0,0,0,1.069,1.069H8.912a1.07,1.07,0,0,0,1.069-1.069V6.06A1.07,1.07,0,0,0,8.912,4.991Zm-2.317,0H3.387v-1.6a1.6,1.6,0,0,1,3.208,0Z" transform="translate(0 0)" fill="#fff"/>
    </g>
  </g>
</svg>
