<svg xmlns="http://www.w3.org/2000/svg" width="14.733" height="13.052" viewBox="0 0 14.733 13.052">
  <g id="noun_Morning_2508996" transform="translate(-5.904 -10.957)">
    <g id="Group_1030" data-name="Group 1030" transform="translate(5.904 10.957)">
      <path id="Path_3125" data-name="Path 3125" d="M13.242,10.959a.335.335,0,0,0-.3.34V13.76a.334.334,0,1,0,.669,0V11.3a.335.335,0,0,0-.371-.34Zm-2.028,1.228a.335.335,0,0,0-.324.434l.413,1.437a.335.335,0,1,0,.643-.183l-.413-1.437A.335.335,0,0,0,11.214,12.187Zm4.118,0a.335.335,0,0,0-.308.251l-.413,1.437a.335.335,0,1,0,.643.183l.413-1.437a.335.335,0,0,0-.334-.434Zm-6.653.005a.335.335,0,0,0-.23.507l1.239,2.054a.335.335,0,1,0,.57-.345L9.019,12.354A.335.335,0,0,0,8.68,12.192Zm9.088,0a.335.335,0,0,0-.23.162L16.3,14.408a.335.335,0,1,0,.57.345L18.108,12.7a.335.335,0,0,0-.34-.507ZM7.488,14.241a.335.335,0,0,0-.23.575l1.035,1.03a.334.334,0,1,0,.47-.476L7.728,14.345a.335.335,0,0,0-.24-.1Zm11.571,0a.335.335,0,0,0-.23.1L17.794,15.37a.334.334,0,1,0,.47.476l1.035-1.03a.335.335,0,0,0-.24-.575Zm-5.78.418a5.7,5.7,0,0,0-5.561,4.4.335.335,0,1,0,.653.152,5.043,5.043,0,0,1,9.935.789H6.223a.335.335,0,1,0,.031.669H20.3a.334.334,0,1,0,0-.669H18.975A5.694,5.694,0,0,0,13.279,14.659ZM8.794,21.667a.335.335,0,1,0,.031.669h8.905a.334.334,0,1,0,0-.669H8.794Zm2.221,1.672a.335.335,0,1,0,.037.669H15.5a.334.334,0,1,0,0-.669H11.016Z" transform="translate(-5.904 -10.957)" fill="#181d3d"/>
    </g>
  </g>
</svg>
