<svg xmlns="http://www.w3.org/2000/svg" width="221" height="65" viewBox="0 0 221 65">
  <g id="Group_859" data-name="Group 859" transform="translate(-77 -673)">
    <path id="Rectangle_438" data-name="Rectangle 438" d="M5,0H187a0,0,0,0,1,0,0V40a0,0,0,0,1,0,0H5a5,5,0,0,1-5-5V5A5,5,0,0,1,5,0Z" transform="translate(77 686)" fill="#fec62d"/>
    <path id="Polygon_11" data-name="Polygon 11" d="M31.767.789a1,1,0,0,1,1.466,0L63.44,33.32A1,1,0,0,1,62.707,35H2.293a1,1,0,0,1-.733-1.68Z" transform="translate(298 673) rotate(90)" fill="#fec62d"/>
  </g>
</svg>
