<svg xmlns="http://www.w3.org/2000/svg" width="83.355" height="96.907" viewBox="0 0 83.355 96.907">
  <g id="survey" transform="translate(0 0)">
    <path id="Path_2437" data-name="Path 2437" d="M182.043,92.711h-42.9a7.8,7.8,0,0,0-7.8,7.8v63.761a7.8,7.8,0,0,0,7.8,7.8h42.9a7.8,7.8,0,0,0,7.8-7.8V100.51A7.8,7.8,0,0,0,182.043,92.711Zm0,0" transform="translate(-106.487 -75.163)" fill="#ce795f"/>
    <path id="Path_2438" data-name="Path 2438" d="M185.045,94.012v7.553L140.2,167.275h-7.554a7.8,7.8,0,0,0,7.554,5.85h42.9a7.8,7.8,0,0,0,7.8-7.8v-63.76a7.8,7.8,0,0,0-5.85-7.553Zm0,0" transform="translate(-107.539 -76.218)" fill="#a05a4b"/>
    <path id="Path_2439" data-name="Path 2439" d="M204.662,191.277H166.641a4.387,4.387,0,0,1-4.387-4.387V128a4.387,4.387,0,0,1,4.387-4.387h38.021A4.387,4.387,0,0,1,209.049,128V186.89A4.387,4.387,0,0,1,204.662,191.277Zm0,0" transform="translate(-131.544 -100.22)" fill="#fff9eb"/>
    <path id="Path_2440" data-name="Path 2440" d="M204.662,123.617H203.2v57.424a4.386,4.386,0,0,1-4.387,4.387H162.254v1.462a4.387,4.387,0,0,0,4.387,4.387h38.021a4.387,4.387,0,0,0,4.387-4.387V128a4.387,4.387,0,0,0-4.387-4.387Zm0,0" transform="translate(-131.544 -100.22)" fill="#e9e3d5"/>
    <path id="Path_2441" data-name="Path 2441" d="M227.381,13.667c-1.1-.073-3.7.075-4.249-.111a1.692,1.692,0,0,1-1.147-1.6,2,2,0,0,1,.75-1.557A5.857,5.857,0,0,0,224.9,6.206a.088.088,0,0,1,0-.014,5.85,5.85,0,1,0-9.515,4.206,2,2,0,0,1,.75,1.557c0,.053-.007.128-.007.128a1.691,1.691,0,0,1-1.686,1.564H211.26a7.8,7.8,0,0,0-7.8,7.8,4.937,4.937,0,0,0,4.938,4.874h21.385a4.874,4.874,0,0,0,4.874-4.874,7.8,7.8,0,0,0-7.277-7.779ZM219.06,4.387a1.472,1.472,0,0,1,1.461,1.5l0,.04A1.484,1.484,0,0,1,218.89,7.3a1.462,1.462,0,0,1,.17-2.914Zm0,0" transform="translate(-164.952)" fill="#8b9ba9"/>
    <path id="Path_2442" data-name="Path 2442" d="M228.809,73.422V75.61A4.387,4.387,0,0,1,224.422,80h-20.9a7.867,7.867,0,0,0-.063.975,4.938,4.938,0,0,0,4.938,4.874h21.354a4.914,4.914,0,0,0,4.9-4.893,7.805,7.805,0,0,0-5.85-7.532Zm0,0" transform="translate(-164.952 -59.525)" fill="#6c7a88"/>
    <path id="Path_2443" data-name="Path 2443" d="M15.355,130.059H13.893a12.444,12.444,0,0,0-12.43,12.43V155.26a1.462,1.462,0,1,0,0,2.925H2.925a1.462,1.462,0,0,0,1.462-1.462V142.489A9.52,9.52,0,0,1,12.43,133.1v60.819a1.462,1.462,0,1,0,2.924,0V132.984a1.462,1.462,0,1,0,0-2.925Zm0,0" transform="translate(0 -105.443)" fill="#8b9ba9"/>
    <path id="Path_2444" data-name="Path 2444" d="M51.478,222.408c-2.921,0-5.118-4.288-5.118-7.068V173.809a5.118,5.118,0,0,1,10.236,0V215.34C56.6,218.12,54.4,222.408,51.478,222.408Zm0,0" transform="translate(-37.585 -136.763)" fill="#6697cc"/>
    <path id="Path_2445" data-name="Path 2445" d="M52,168.69a5.184,5.184,0,0,0-.731.052v43.916a3.9,3.9,0,0,1-3.9,3.9H47c.5,2.661,2.478,5.85,5,5.85,2.92,0,5.118-4.288,5.118-7.068V173.808A5.123,5.123,0,0,0,52,168.69Zm0,0" transform="translate(-38.107 -136.762)" fill="#4b7cb1"/>
    <path id="Path_2446" data-name="Path 2446" d="M247.718,338.266a11.7,11.7,0,1,1-11.7-11.7A11.7,11.7,0,0,1,247.718,338.266Zm0,0" transform="translate(-181.863 -264.757)" fill="#ff7c8c"/>
    <path id="Path_2447" data-name="Path 2447" d="M248.906,335.137a11.7,11.7,0,0,1-16.018,16.018,11.7,11.7,0,1,0,16.018-16.018Zm0,0" transform="translate(-188.809 -271.705)" fill="#ff5368"/>
    <g id="Group_876" data-name="Group 876" transform="translate(47.918 69.782)">
      <path id="Path_2448" data-name="Path 2448" d="M256.447,370.914v-.585a1.637,1.637,0,1,0-3.275,0v.585a1.637,1.637,0,1,0,3.275,0Zm0,0" transform="translate(-253.172 -368.692)" fill="#c91d32"/>
      <path id="Path_2449" data-name="Path 2449" d="M303.423,368.691a1.638,1.638,0,0,0-1.638,1.638v.585a1.638,1.638,0,1,0,3.275,0v-.585A1.638,1.638,0,0,0,303.423,368.691Zm0,0" transform="translate(-292.585 -368.691)" fill="#c91d32"/>
      <path id="Path_2450" data-name="Path 2450" d="M264.512,410.207a2.925,2.925,0,0,1,4.137,0,1.462,1.462,0,0,0,2.068-2.068,5.848,5.848,0,0,0-8.272,0,1.462,1.462,0,1,0,2.068,2.068Zm0,0" transform="translate(-260.342 -399.284)" fill="#c91d32"/>
    </g>
    <path id="Path_2451" data-name="Path 2451" d="M236.019,193.375a11.7,11.7,0,1,1,11.7-11.7A11.712,11.712,0,0,1,236.019,193.375Zm0,0" transform="translate(-181.863 -137.805)" fill="#c4ea73"/>
    <path id="Path_2452" data-name="Path 2452" d="M248.914,178.559A11.691,11.691,0,0,1,232.9,194.572a11.7,11.7,0,1,0,16.012-16.013Zm0,0" transform="translate(-188.821 -144.763)" fill="#a4d541"/>
    <path id="Path_2453" data-name="Path 2453" d="M256.447,214.32v-.585a1.637,1.637,0,1,0-3.275,0v.585a1.637,1.637,0,1,0,3.275,0Zm0,0" transform="translate(-205.254 -171.954)" fill="#4c7e08"/>
    <path id="Path_2454" data-name="Path 2454" d="M303.423,212.1a1.638,1.638,0,0,0-1.638,1.638v.585a1.638,1.638,0,1,0,3.275,0v-.585A1.638,1.638,0,0,0,303.423,212.1Zm0,0" transform="translate(-244.667 -171.954)" fill="#4c7e08"/>
    <path id="Path_2455" data-name="Path 2455" d="M268.645,250.263a2.924,2.924,0,0,1-4.136,0,1.463,1.463,0,0,0-2.069,2.068,5.85,5.85,0,0,0,8.272,0,1.462,1.462,0,1,0-2.068-2.068Zm0,0" transform="translate(-212.421 -202.548)" fill="#4c7e08"/>
  </g>
</svg>
