<svg xmlns="http://www.w3.org/2000/svg" width="56.667" height="59.935" viewBox="0 0 56.667 59.935">
  <g id="transgender" transform="translate(-13.957)">
    <path id="Path_764" data-name="Path 764" d="M69.65.974,57.883,0l-.29,3.5,6.508.539L53.156,14.984a17.241,17.241,0,0,0-21.731,0L28.131,11.69l3.1-3.1L28.747,6.107l-3.1,3.1L20.43,3.989,26.342,3.5,26.052,0,14.881.924,13.957,12.1l3.5.29.489-5.912,5.218,5.218-3.1,3.1,2.483,2.483,3.1-3.1,3.291,3.291a17.238,17.238,0,0,0,11.6,28.047v6.172H35.713V55.2h4.821v4.739h3.512V55.2h4.821V51.684H44.046V45.511a17.237,17.237,0,0,0,11.6-28.046L66.585,6.522l.539,6.508,3.5-.29ZM51.994,38.068a13.723,13.723,0,1,1,0-19.407A13.633,13.633,0,0,1,51.994,38.068Z" fill="#181d3d"/>
  </g>
</svg>
