<svg id="Out_line" data-name="Out line" xmlns="http://www.w3.org/2000/svg" width="14.493" height="14.476" viewBox="0 0 14.493 14.476">
  <path id="Path_324" data-name="Path 324" d="M217.449,305.265V304.3h.483v.966h.483v-1.932a.242.242,0,0,0-.041-.134l-.429-.643.158-.868-.475-.086-.175.964a.242.242,0,0,0,.037.177l.442.664v.41h-1.449v-.41l.443-.664a.241.241,0,0,0,.037-.177l-.181-1-.475.086.164.9-.429.643a.242.242,0,0,0-.041.134v1.932h.483V304.3h.483v.966Z" transform="translate(-209.961 -292.947)"/>
  <path id="Path_325" data-name="Path 325" d="M97.586,143.336l-.25-.144a1.429,1.429,0,0,0-1.394-.024l-.025.013a1.437,1.437,0,0,0-.043,2.513l.267.154a1.429,1.429,0,0,0,1.086.145l.39-.1,1.608,1.359a1.138,1.138,0,0,0,1.833-1.166h0a1.138,1.138,0,0,0-.717-.776l-1.982-.705-.1-.389A1.446,1.446,0,0,0,97.586,143.336Zm2.593,2.427a.655.655,0,0,1,.413.446h0a.655.655,0,0,1-1.055.671l-1.7-1.44a.242.242,0,0,0-.218-.049l-.512.135a.948.948,0,0,1-.721-.1l-.267-.154a.954.954,0,0,1,.029-1.668l.025-.014a.948.948,0,0,1,.925.016l.25.144a.96.96,0,0,1,.445.583l.135.512a.242.242,0,0,0,.153.166Z" transform="translate(-92.765 -139.163)"/>
  <path id="Path_326" data-name="Path 326" d="M119.762,170.681l-.227-.426a.715.715,0,0,0-.376.667l.482-.026A.23.23,0,0,1,119.762,170.681Z" transform="translate(-116.042 -165.598)"/>
  <path id="Path_327" data-name="Path 327" d="M131.634,197.838a.231.231,0,0,1-.173-.023l-.267-.154-.242.418.267.154a.713.713,0,0,0,.538.072l.468-.124-.123-.467Z" transform="translate(-127.481 -192.176)"/>
  <path id="Path_328" data-name="Path 328" d="M22.757,155.206a5.8,5.8,0,0,1-4.773-8.267.242.242,0,0,0-.1-.313l-.839-.484a.242.242,0,0,0-.338.1,7.247,7.247,0,0,0,6.012,10.411h.016a.242.242,0,0,0,.242-.242v-.969a.242.242,0,0,0-.222-.241Zm-.261.946a6.767,6.767,0,0,1-5.462-9.46l.421.243a6.282,6.282,0,0,0,5.041,8.731Z" transform="translate(-15.975 -142.182)"/>
  <path id="Path_329" data-name="Path 329" d="M66.716,18.121A7.247,7.247,0,0,0,55.581,19.2a.242.242,0,0,0,.079.344l.839.484a.241.241,0,0,0,.319-.072,5.8,5.8,0,1,1,5.237,9.07.242.242,0,0,0-.223.241v.969a.242.242,0,0,0,.242.242h.016a7.246,7.246,0,0,0,4.624-12.353Zm-.19,9.749a6.735,6.735,0,0,1-4.209,2.1v-.486A6.28,6.28,0,1,0,56.552,19.5l-.421-.243a6.763,6.763,0,1,1,10.4,8.615Z" transform="translate(-54.345 -15.998)"/>
  <path id="Path_330" data-name="Path 330" d="M199.953,104a4.565,4.565,0,0,0-1.587.282.242.242,0,0,0-.143.31l.334.907a.242.242,0,0,0,.31.143,3.14,3.14,0,0,1,3.578,4.857l-.389-.389a.242.242,0,0,0-.412.171v1.932a.242.242,0,0,0,.242.242h1.932a.242.242,0,0,0,.171-.412l-.512-.512A4.589,4.589,0,0,0,199.953,104Zm3.022,7.711.26.26h-1.108v-1.108l.164.164a.242.242,0,0,0,.35-.009,3.624,3.624,0,0,0-3.711-5.905l-.167-.454a4.107,4.107,0,0,1,4.206,6.718A.242.242,0,0,0,202.975,111.711Z" transform="translate(-192.706 -101.343)"/>
  <ellipse id="Ellipse_74" data-name="Ellipse 74" cx="0.242" cy="0.242" rx="0.242" ry="0.242" transform="translate(7.005 7.005)"/>
</svg>
