<svg xmlns="http://www.w3.org/2000/svg" xmlns:xlink="http://www.w3.org/1999/xlink" width="154.19" height="105.449" viewBox="0 0 154.19 105.449">
  <defs>
    <clipPath id="clip-path">
      <path id="path58" d="M345.556-70.836h18.062v4.862H345.556Z" transform="translate(-345.556 70.836)"/>
    </clipPath>
    <filter id="path96" x="48.227" y="0" width="105.963" height="105.449" filterUnits="userSpaceOnUse">
      <feOffset dy="3" input="SourceAlpha"/>
      <feGaussianBlur stdDeviation="10" result="blur"/>
      <feFlood flood-opacity="0.161"/>
      <feComposite operator="in" in2="blur"/>
      <feComposite in="SourceGraphic"/>
    </filter>
    <clipPath id="clip-path-2">
      <path id="path110" d="M358.05-216.791h21.268v20.743H358.05Z" transform="translate(-358.05 216.791)"/>
    </clipPath>
  </defs>
  <g id="Group_857" data-name="Group 857" transform="translate(6514.037 -436.615)">
    <path id="Path_761" data-name="Path 761" d="M-1706,670.368s54.938,38.708,130.095,26.621c-.155.155,0,13.022,0,13.022h-130.133Z" transform="translate(-4808 -190.346)" fill="#ffc72e"/>
    <g id="g18" transform="translate(-6608.067 816.261) rotate(-22)">
      <g id="Group_552" data-name="Group 552" transform="translate(277.049 -250.083)">
        <g id="g26" transform="translate(40.009 24.933)">
          <path id="path28" d="M-.986-15.1a10.542,10.542,0,0,0,1.443-.149H.437a7.014,7.014,0,0,0,1.89-.619l-.019.021a6.225,6.225,0,0,0,2.477-2.27q.118-.183.227-.372c.039-.067.076-.134.113-.2l.051-.1c.018-.032,0,.01-.007.014l.037-.073a.33.33,0,0,1,.411-.194.325.325,0,0,1,.195.411,9.127,9.127,0,0,1-.888,1.43,7.163,7.163,0,0,1-5.79,2.66c-.181-.011-.386-.1-.377-.321a.255.255,0,0,1,.259-.24" transform="translate(1.245 19.06)" fill="#2e100f"/>
        </g>
        <g id="g30" transform="translate(46.614 22.919)">
          <path id="path32" d="M-.524-7.587a1.019,1.019,0,0,0,.239.073A1.087,1.087,0,0,0-.044-7.5a1.313,1.313,0,0,0,1.108-.72,1.324,1.324,0,0,0,.073-.214A.891.891,0,0,0,.6-9.54c-.68-.216-1.223.5-1.255,1.167a1.474,1.474,0,0,0,0,.326,1.35,1.35,0,0,0,.072.3c.016.048.035.1.054.163" transform="translate(0.662 9.579)" fill="#2e100f"/>
        </g>
        <g id="g34" transform="translate(46.327 22.634)">
          <path id="path36" d="M-1.988-7.641a1.009,1.009,0,0,0,.179.06c-.052-.011.045.005.045.005.03,0,.06.006.091.007.008,0,.1-.007.036,0l.068-.01c.046-.007.091-.016.136-.027l.068-.018c.011,0,.085-.028.018,0,.044-.016.087-.033.129-.052s.07-.034.1-.052l.06-.036c-.06.037.023-.018.033-.026a1.1,1.1,0,0,0,.105-.092l.032-.034c-.046.05.006-.009.012-.017a1.091,1.091,0,0,0,.081-.119c0-.008.039-.08.012-.021.015-.034.03-.068.042-.1s.028-.089.041-.135c.006-.023.013-.045.019-.069-.017.072,0,0,0-.017a1,1,0,0,0,.006-.138c0,.075,0,0,0-.014S-.681-8.6-.686-8.618-.7-8.663-.7-8.684c-.018-.072.026.052-.006-.014C-.727-8.74-.747-8.78-.767-8.82c-.033-.065.037.044-.008-.013l-.034-.044c-.012-.014-.024-.028-.037-.042l-.031-.032c.028.024.029.026,0,.006S-.944-9-.981-9.021c-.061-.038.055.018-.013-.006-.018-.006-.035-.014-.053-.02L-1.1-9.063c-.07-.022.061.005-.009,0-.032,0-.117-.026-.145-.008l.037,0-.04,0-.059.011-.038.01c-.065.015.057-.026,0,0-.036.016-.073.031-.107.051-.017.01-.073.029-.006,0a.321.321,0,0,0-.065.048c-.027.021-.052.044-.077.068l-.043.045c.052-.055,0,0-.006.009a1.543,1.543,0,0,0-.141.214c.036-.065,0,0,0,.011s-.024.053-.034.08c-.019.047-.035.1-.049.145,0,.014-.008.028-.011.042s-.007.028-.01.042c.009-.04.01-.044,0-.012-.007.05-.014.1-.018.149-.005.067-.008.134-.008.2,0,.007,0,.057,0,.011,0,.04.008.079.015.118a2.471,2.471,0,0,0,.117.4.289.289,0,0,1-.227.339.3.3,0,0,1-.339-.227l-.014-.044c-.016-.048.012.033,0-.011l-.035-.1a1.6,1.6,0,0,1-.065-.243A1.924,1.924,0,0,1-2.5-8.177a1.774,1.774,0,0,1,.156-.628,1.36,1.36,0,0,1,1-.834,1.114,1.114,0,0,1,1.168.709,1.416,1.416,0,0,1-.35,1.474,1.577,1.577,0,0,1-1.65.359.294.294,0,0,1-.174-.369.292.292,0,0,1,.369-.174" transform="translate(2.509 9.647)" fill="#2e100f"/>
        </g>
        <g id="g38" transform="translate(45.845 23.338)">
          <path id="path40" d="M-1.867-2.578c0-.047-.006-.094-.013-.14a.278.278,0,0,0-.008-.04l.007.024c.013.009.074.073.086.064l-.026-.01c-.015,0-.012,0,.011,0s.026,0,.01,0l-.029,0c-.048-.007.02,0,.019,0l-.019,0q-.037.009,0,0c.02-.008.024-.009.009,0l-.024.012c.011.008.054-.045.059-.051-.03.04.029-.042.009-.014s0-.032,0,0,0,.045-.006.066,0,.032,0,0a.849.849,0,0,0,.022.129c0,.022.008.034,0,0,.007.021.016.042.024.062a1.056,1.056,0,0,0,.054.108c.009.016.018.031.027.046-.025-.042.006.008.012.016.024.032.049.063.074.094a3.454,3.454,0,0,0,.369.4l-.437.376a.934.934,0,0,1-.284-.655c0-.111-.006-.223,0-.333,0-.045.005-.091.011-.137a.624.624,0,0,1,.09-.239.29.29,0,0,1,.4-.074.3.3,0,0,1,.074.4c-.035.062.013-.045.011-.045a.526.526,0,0,0-.006.053c0,.042-.006.084-.008.125,0,.086,0,.174,0,.26,0-.03,0-.007,0,.01l.011.055c0,.021.009.037,0,.007a.47.47,0,0,0,.019.047c.007.016.015.031.022.046.032.063-.018-.014.009.014s.052.061.082.088a.289.289,0,0,1-.03.407.3.3,0,0,1-.407-.03,3.1,3.1,0,0,1-.473-.538,1.217,1.217,0,0,1-.241-.77.549.549,0,0,1,.161-.383.563.563,0,0,1,.369-.129.508.508,0,0,1,.377.142.666.666,0,0,1,.146.424.3.3,0,0,1-.227.338.292.292,0,0,1-.339-.227" transform="translate(2.357 3.255)" fill="#2e100f"/>
        </g>
        <g id="g42" transform="translate(8.593 21.548)">
          <path id="path44" d="M-10.234-5.59a10.541,10.541,0,0,1-1.271-.7l.018.009a9.054,9.054,0,0,1-1-.777l-.436.418A8.771,8.771,0,0,0-10.562-5.12c.171.061.394.058.472-.149a.255.255,0,0,0-.145-.322" transform="translate(12.92 7.057)" fill="#2e100f"/>
        </g>
        <g id="g46" transform="translate(7.04 17.206)">
          <path id="path48" d="M-.009-.108c0-.006,0-.012,0-.017,0-.031,0,.013,0,.017" transform="translate(0.011 0.137)" fill="#2e100f"/>
        </g>
        <g id="g50" transform="translate(6.395 16.813)">
          <path id="path52" d="M-8.125-16.022l.009.027a6.226,6.226,0,0,1-1.4-3.056q-.037-.215-.064-.431c-.009-.077-.017-.154-.025-.23,0-.036-.006-.073-.009-.109a.006.006,0,0,1,0,0c0,.006,0,.012,0,.017s0-.049,0-.017c0-.021,0-.043,0-.064a.33.33,0,0,0-.3-.339c-.157,0-.351.123-.339.3A9.079,9.079,0,0,0-10-18.261a6.173,6.173,0,0,0,1.937,3.187l.436-.418a5.034,5.034,0,0,1-.5-.529" transform="translate(10.257 20.227)" fill="#2e100f"/>
        </g>
        <g id="g54" transform="translate(14.243 37.266)">
          <g id="g68">
            <g id="g66" opacity="0.05" clip-path="url(#clip-path)">
              <g id="g64" transform="translate(0 0)">
                <path id="path62" d="M-.143-1.8C-.411-.985.822-.6,1.286-.4A15.189,15.189,0,0,0,6.5.484c.2,0,.406,0,.607,0,1.856.048,3.5.96,5.273,1.385a24.926,24.926,0,0,0,4.5.71c.243.013.659.059.875-.244a.522.522,0,0,0-.081-.751A7.921,7.921,0,0,0,14.493.307C12.27-.267,9.895.061,7.7-.587a11.647,11.647,0,0,1-1.43-.571c-.157-.07-.314-.139-.472-.2a11.319,11.319,0,0,0-2.823-.73c-.492-.066-.987-.116-1.484-.139a2.744,2.744,0,0,0-1.339.084A.591.591,0,0,0-.143-1.8" transform="translate(0.181 2.272)" fill="#121313"/>
              </g>
            </g>
          </g>
        </g>
        <g id="g70" transform="translate(25.962 29.853)">
          <path id="path72" d="M-13.547-1.566c-.074.269-.147.539-.237.807l0-.017a.821.821,0,0,1-.033.125q-.146.473-.3.941c-.209.633-.43,1.26-.66,1.883-.457,1.238-.946,2.458-1.441,3.673-.28.689-.562,1.376-.84,2.066a.532.532,0,0,0,.111.62c.159.09.368,0,.466-.245,1-2.462,2.033-4.9,2.884-7.448q.187-.559.361-1.124t.335-1.141c.068-.243-.063-.521-.228-.546-.193-.03-.348.144-.421.408" transform="translate(17.102 1.977)" fill="#2e100f"/>
        </g>
        <g id="g74" transform="translate(26.239 39.49)">
          <path id="path76" d="M0-2.434a2.447,2.447,0,0,0,.206.164q.108.077.226.144a4.587,4.587,0,0,0,1.036.359,1.489,1.489,0,0,0,.271.022,1.567,1.567,0,0,0,.208-.013.983.983,0,0,0,.21-.049.368.368,0,0,0,.213-.474,1.057,1.057,0,0,0-.339-.53,1.132,1.132,0,0,0-.142-.1,1.4,1.4,0,0,0-1.478.1q-.058.038-.114.08c-.055.082-.16.111-.216.193a1.236,1.236,0,0,0-.08.1" transform="translate(0 3.073)" fill="#2e100f"/>
        </g>
        <g id="g78" transform="translate(25.957 39.206)">
          <path id="path80" d="M-.353-4.325a2.365,2.365,0,0,0,.608.4,6.324,6.324,0,0,0,.682.259,2.182,2.182,0,0,0,.744.1.929.929,0,0,0,.679-.256.978.978,0,0,0-.248-1.255A1.544,1.544,0,0,0,.87-5.445a1.815,1.815,0,0,0-.717.258C.108-5.158.064-5.128.02-5.1a.707.707,0,0,0-.1.081.213.213,0,0,1-.029.035c.028-.023.029-.024,0-.005a1.051,1.051,0,0,0-.271.261.29.29,0,0,0,.023.4.288.288,0,0,0,.4-.022c.026-.034.052-.066.08-.1.01-.012.059-.056.008-.016l.036-.026a1.076,1.076,0,0,0,.127-.1l.022-.025Q.3-4.6.334-4.624L.38-4.655C.415-4.68.451-4.7.488-4.726l.044-.026S.6-4.788.566-4.77.6-4.787.6-4.786L.66-4.809c.042-.016.085-.03.129-.043L.86-4.871c-.011,0-.053.009,0,0s.08-.012.121-.016.081-.006.121-.006H1.15c.034,0,.032,0,0,0l.048.005a1.27,1.27,0,0,1,.21.043c.012,0,.083.033.019.006l.044.018a1.18,1.18,0,0,1,.129.064c-.007,0,.072.045.042.025s.045.035.039.03a.969.969,0,0,1,.091.081c.038.037.007.008,0,0,.015.019.029.038.042.058l.026.04c0,.007.045.081.03.053s.016.036.015.035l.019.047c.009.024.017.048.027.072.022.052,0,.008,0-.006,0,.019.019.086.007.1,0-.011,0-.023,0-.035a.4.4,0,0,1-.006.04l0,.02c-.009.031-.007.026.006-.016,0,0-.013.035-.018.035L1.936-4.2a.293.293,0,0,1-.026.029c.034-.043.02-.024.007-.01l.027-.012a.4.4,0,0,1-.043.015l-.05.017s-.089.02-.033.01a1.291,1.291,0,0,1-.146.017c-.048,0-.1,0-.146,0,0,0-.1-.006-.044,0l-.061-.007a2.2,2.2,0,0,1-.316-.067C1.054-4.22,1-4.236.951-4.253s.063.024-.025-.009L.845-4.293c-.1-.04-.207-.083-.309-.128a1.928,1.928,0,0,1-.268-.139c-.08-.05.02.015-.025-.017L.16-4.637C.114-4.673.069-4.71.025-4.748a.288.288,0,0,0-.4.022.289.289,0,0,0,.023.4" transform="translate(0.446 5.46)" fill="#2e100f"/>
        </g>
        <g id="g82" transform="translate(20.109 28.059)">
          <path id="path84" d="M-4.335-2.057q-.032.246-.06.492c-.009.078-.018.155-.027.233l-.011.1c.007-.064-.009.089-.011.106q-.05.492-.09.983c-.054.664-.095,1.328-.126,1.991-.062,1.318-.086,2.632-.1,3.944-.01.743-.019,1.486-.03,2.23,0,.245-.16.507-.344.528s-.338-.145-.334-.407c.043-2.655.038-5.308.246-7.984q.046-.588.106-1.176t.135-1.176c.032-.247.258-.445.419-.4.189.051.265.269.232.534" transform="translate(5.472 2.597)" fill="#2e100f"/>
        </g>
        <g id="g86" transform="translate(18.081 37.769)">
          <path id="path88" d="M-8.929-4.5a2.371,2.371,0,0,1-.253.071q-.13.029-.264.045a4.582,4.582,0,0,1-1.094-.073,1.531,1.531,0,0,1-.258-.085,1.643,1.643,0,0,1-.186-.093.993.993,0,0,1-.174-.127.368.368,0,0,1-.011-.52,1.055,1.055,0,0,1,.519-.355,1.1,1.1,0,0,1,.168-.034A1.4,1.4,0,0,1-9.162-5q.039.058.074.119c.019.1.1.164.124.261a1.241,1.241,0,0,1,.035.121" transform="translate(11.273 5.681)" fill="#2e100f"/>
        </g>
        <g id="g90" transform="translate(17.796 37.484)">
          <path id="path92" d="M-10.363-6.608a2.385,2.385,0,0,1-.716.132,6.334,6.334,0,0,1-.729-.027,2.18,2.18,0,0,1-.724-.2.928.928,0,0,1-.525-.5c-.14-.472.31-.912.717-1.059a1.544,1.544,0,0,1,1.287.147,1.818,1.818,0,0,1,.559.517c.03.044.059.089.087.134a.687.687,0,0,1,.061.113.233.233,0,0,0,.013.043c-.017-.032-.017-.034,0-.006a1.053,1.053,0,0,1,.148.346.29.29,0,0,1-.177.36.287.287,0,0,1-.361-.177c-.01-.041-.022-.081-.035-.122,0-.014-.033-.075,0-.018l-.023-.038A1.034,1.034,0,0,1-10.86-7.1l-.011-.032c.011.017.009.013-.008-.014l-.03-.047c-.023-.036-.047-.073-.072-.108l-.03-.04s-.051-.062-.024-.03-.028-.03-.027-.029l-.044-.044c-.033-.032-.067-.062-.1-.09l-.059-.045c.009.007.046.029,0,0s-.069-.043-.105-.062-.072-.037-.109-.052l-.045-.018c-.031-.012-.03-.011,0,0l-.046-.014a1.3,1.3,0,0,0-.211-.042c-.012,0-.089,0-.019,0h-.048a1.234,1.234,0,0,0-.143.009c.007,0-.084.014-.048.007s-.055.014-.048.012a1.052,1.052,0,0,0-.116.04c-.05.02-.009,0,0,0-.021.012-.042.024-.062.037l-.04.027c-.007,0-.073.057-.049.037s-.029.027-.027.026l-.036.035c-.018.018-.035.038-.053.056-.04.04-.007.006,0-.006-.01.016-.051.072-.047.094l.011-.032a.371.371,0,0,0-.01.039l0,.02c0,.032,0,.027,0-.016,0,0,0,.037,0,.039l-.007-.034a.3.3,0,0,0,.013.037c-.015-.053-.009-.029,0-.012l-.02-.022a.353.353,0,0,0,.034.031l.04.035s.074.054.027.022a1.312,1.312,0,0,0,.127.073c.043.022.088.042.133.06,0,0,.091.032.041.016l.058.017a2.161,2.161,0,0,0,.317.062c.053.007.107.012.161.016s-.067,0,.027,0l.087,0c.111,0,.223,0,.334,0a1.949,1.949,0,0,0,.3-.024c.094-.015-.024.006.03-.006.034-.007.067-.015.1-.024.057-.014.112-.031.167-.049a.288.288,0,0,1,.361.177.289.289,0,0,1-.177.36" transform="translate(13.082 8.342)" fill="#2e100f"/>
        </g>
        <g id="g94" transform="translate(9.776)">
          <g transform="matrix(0.93, 0.37, -0.37, 0.93, -57.42, -66.7)" filter="url(#path96)">
            <path id="path96-2" data-name="path96" d="M-1.053-52.389A16.532,16.532,0,0,1,3.12-60.726,17.194,17.194,0,0,1,13.7-65.994a19.378,19.378,0,0,1,3.985-.079A18.6,18.6,0,0,1,31-59.11c4.709,6.087,4.029,14.716-.31,20.647a16.941,16.941,0,0,1-1.832,2.14,16.643,16.643,0,0,1-2.2,1.83C15.371-26.659-.863-35.151-1.319-48.707a17.366,17.366,0,0,1,.266-3.682" transform="translate(104.24 101.15) rotate(-22)" fill="#fff"/>
          </g>
        </g>
        <g id="g98" transform="translate(11.593 2.611)">
          <path id="path100" d="M-128.522-54.822a16.106,16.106,0,0,0-4.454-11.338,15.871,15.871,0,0,0-2.229-2,9.965,9.965,0,0,0-1.272-.784c-.143-.074-.826-.524-.752-.054.049.31.529.565.744.749q.551.471,1.067.982a18.868,18.868,0,0,1,3.928,5.649c2.655,5.884.854,12.446-3.179,17A15.434,15.434,0,0,1-136.96-42.5a14.683,14.683,0,0,1-2.7,1.617,13.531,13.531,0,0,1-2.743.923,13.407,13.407,0,0,1-2.97.313,16.887,16.887,0,0,1-2.287-.1,21.884,21.884,0,0,1-8.652-3.008,18.809,18.809,0,0,1-4.525-3.7c-.076-.086-.152-.173-.225-.259-.3-.4-.631-1.095-1.091-.876-.29.149.128.649.307.952a1.865,1.865,0,0,1,.121.275q.1.17.2.336c5.08,8.22,16.732,11.893,25.436,5.849a16.623,16.623,0,0,0,2.2-1.83,16.918,16.918,0,0,0,1.832-2.14,19.3,19.3,0,0,0,3.262-7.8,18.589,18.589,0,0,0,.27-2.875" transform="translate(162.256 69.211)" fill="#ebf7f8"/>
        </g>
        <g id="g102" transform="translate(14.341 4.47)">
          <path id="path104" d="M-.78-38.812a12.245,12.245,0,0,1,3.091-6.176,12.6,12.6,0,0,1,6.862-3.747,14.267,14.267,0,0,1,3.925-.214c5.636.36,11.056,4.452,12.039,10.241a13.667,13.667,0,0,1-3.045,11.031,12.393,12.393,0,0,1-2.347,2.122C11.388-19.75-.64-26.041-.978-36.084a12.853,12.853,0,0,1,.2-2.728" transform="translate(0.985 48.999)" fill="#ffc72e"/>
        </g>
        <g id="g106" transform="translate(16.84 6.921)">
          <g id="g120">
            <g id="g118" opacity="0.42" clip-path="url(#clip-path-2)">
              <g id="g116" transform="translate(0 0)">
                <path id="path114" d="M-.631-31.368a9.9,9.9,0,0,1,2.5-4.992,10.178,10.178,0,0,1,5.546-3.028,11.536,11.536,0,0,1,3.172-.173A10.381,10.381,0,0,1,19.7-33.27a10.361,10.361,0,0,1-.441,8.8,10.246,10.246,0,0,1-3.3,3.819C9.2-15.962-.517-21.046-.791-29.163a10.4,10.4,0,0,1,.16-2.2" transform="translate(0.796 39.601)" fill="#fff"/>
              </g>
            </g>
          </g>
        </g>
        <g id="g122" transform="translate(20.24 10.245)">
          <path id="path124" d="M-.427-21.274a6.713,6.713,0,0,1,1.695-3.385,6.752,6.752,0,0,1,2.721-1.77,7.7,7.7,0,0,1,3.191-.4A7.144,7.144,0,0,1,12.5-24.018a7.165,7.165,0,0,1,.556,7.423,6.884,6.884,0,0,1-2.23,2.588C6.242-10.825-.351-14.274-.536-19.778a7.039,7.039,0,0,1,.108-1.5" transform="translate(0.54 26.857)" fill="#2e100f"/>
        </g>
        <g id="g126" transform="translate(19.746 6.701)">
          <path id="path128" d="M-.137-11.591A3.62,3.62,0,0,1,3.051-14.6a3.483,3.483,0,0,1,3.636,1.933,3.505,3.505,0,0,1-.433,3.688A3.805,3.805,0,0,1,2.247-7.841,4.163,4.163,0,0,1,1.3-8.3a3.541,3.541,0,0,1-.76-.673,3.03,3.03,0,0,1-.51-.862,3,3,0,0,1-.2-1.029,3.412,3.412,0,0,1,.028-.725" transform="translate(0.173 14.633)" fill="#fff"/>
        </g>
        <g id="g130" transform="translate(24.187 15.082)">
          <path id="path132" d="M-.072-6.11A1.908,1.908,0,0,1,1.608-7.7,1.837,1.837,0,0,1,3.525-6.677,1.848,1.848,0,0,1,3.3-4.733a2.005,2.005,0,0,1-2.112.6,2.191,2.191,0,0,1-.5-.243,1.858,1.858,0,0,1-.4-.355,1.589,1.589,0,0,1-.269-.454,1.578,1.578,0,0,1-.1-.542A1.8,1.8,0,0,1-.072-6.11" transform="translate(0.091 7.713)" fill="#fff"/>
        </g>
        <g id="g134" transform="translate(18.002 22.187)">
          <path id="path136" d="M-.422-3.684c-.394.847.335,1.574,1.063,1.89.931.4,2.506.283,2.858-.864a1.434,1.434,0,0,0-.847-1.608,2.258,2.258,0,0,0-2.891.284,1.637,1.637,0,0,0-.183.3" transform="translate(0.533 4.65)" fill="#ed2024"/>
        </g>
        <g id="g138" transform="translate(30.187 24.664)">
          <path id="path140" d="M-15.308-6.681c.033.933-.921,1.319-1.715,1.326-1.016.01-2.418-.715-2.295-1.91a1.434,1.434,0,0,1,1.407-1.151A2.259,2.259,0,0,1-15.36-7.027a1.653,1.653,0,0,1,.052.347" transform="translate(19.326 8.434)" fill="#ed2024"/>
        </g>
        <g id="g142" transform="translate(29.245 6.658)">
          <path id="path144" d="M-3.167-.916a.346.346,0,0,0-.18-.213.169.169,0,0,0-.242.058,2,2,0,0,0-.212.4,2.578,2.578,0,0,0-.125.438,6.172,6.172,0,0,0-.03,1.678A.076.076,0,0,0-3.82,1.5v0l.006-.009a3.734,3.734,0,0,0,.646-2.4" transform="translate(3.999 1.156)" fill="#fff"/>
        </g>
        <g id="g146" transform="translate(28.745 6.783)">
          <path id="path148" d="M-2.874-4.583a1.714,1.714,0,0,0-.043-.84.706.706,0,0,0-.575-.362c-.147-.019-.194.208-.046.227a.467.467,0,0,1,.459.389,3.046,3.046,0,0,1-.026.6c-.01.148.221.131.231-.016" transform="translate(3.629 5.785)" fill="#fff"/>
        </g>
        <g id="g150" transform="translate(29.598 7.11)">
          <path id="path152" d="M-.817-5.076c.087-.24.164-.488.267-.722A.931.931,0,0,1-.39-6.079a.312.312,0,0,1,.376-.075c.144.04.189-.187.046-.227-.708-.2-.876.706-1.054,1.2-.05.138.156.244.207.1" transform="translate(1.031 6.408)" fill="#fff"/>
        </g>
        <g id="g154" transform="translate(16.958 13.109)">
          <path id="path156" d="M-1.1,0A.346.346,0,0,0-1.34.14a.169.169,0,0,0,.015.248,1.982,1.982,0,0,0,.36.279,2.561,2.561,0,0,0,.409.2,6.171,6.171,0,0,0,1.648.321.076.076,0,0,0,.071-.126l0,0-.007-.007A3.738,3.738,0,0,0-1.1,0" transform="translate(1.387)" fill="#fff"/>
        </g>
        <g id="g158" transform="translate(16.915 13.739)">
          <path id="path160" d="M-5-.491a1.67,1.67,0,0,0-.865-.1.727.727,0,0,0-.443.516c-.045.142.182.187.227.046.166-.521.64-.333,1.034-.237.145.035.191-.192.046-.227" transform="translate(6.316 0.62)" fill="#fff"/>
        </g>
        <g id="g162" transform="translate(17.518 12.503)">
          <path id="path164" d="M-4.518-4.282c-.2-.114-.4-.223-.594-.344a1.572,1.572,0,0,1-.245-.168.343.343,0,0,1-.07-.444c.064-.135-.143-.24-.207-.1-.322.678.544,1,1.012,1.268.129.075.233-.133.1-.207" transform="translate(5.704 5.405)" fill="#fff"/>
        </g>
        <g id="g166" transform="translate(16.286 16.806)">
          <path id="path168" d="M-.725-.5A.346.346,0,0,0-.9-.286a.169.169,0,0,0,.1.228A1.992,1.992,0,0,0-.37.081,2.566,2.566,0,0,0,.082.128,6.169,6.169,0,0,0,1.74-.133a.076.076,0,0,0,.023-.143h0l-.01,0A3.736,3.736,0,0,0-.725-.5" transform="translate(0.915 0.632)" fill="#fff"/>
        </g>
        <g id="g170" transform="translate(16.655 17.312)">
          <path id="path172" d="M-3.856,0a1.776,1.776,0,0,0-.79.161.713.713,0,0,0-.219.681A.116.116,0,0,0-4.633.822C-4.644.6-4.648.368-4.39.3A3.57,3.57,0,0,1-3.84.228C-3.692.211-3.707-.02-3.856,0" transform="translate(4.868 0.004)" fill="#fff"/>
        </g>
        <g id="g174" transform="translate(16.608 16.21)">
          <path id="path176" d="M-5.427-2.729c-.238-.042-.48-.075-.717-.129-.263-.06-.506-.139-.476-.451.014-.147-.213-.194-.227-.046a.558.558,0,0,0,.318.624A3.815,3.815,0,0,0-5.473-2.5c.147.026.193-.2.046-.227" transform="translate(6.851 3.446)" fill="#fff"/>
        </g>
        <g id="g178" transform="translate(17.097 20.062)">
          <path id="path180" d="M-.363-2.444a.346.346,0,0,0-.095.263A.169.169,0,0,0-.287-2a1.994,1.994,0,0,0,.455-.018,2.56,2.56,0,0,0,.442-.11,6.174,6.174,0,0,0,1.469-.813.076.076,0,0,0-.027-.142H2.038a3.734,3.734,0,0,0-2.4.641" transform="translate(0.459 3.086)" fill="#fff"/>
        </g>
        <g id="g182" transform="translate(17.629 20.646)">
          <path id="path184" d="M-3.023-.051a1.689,1.689,0,0,0-.7.458.671.671,0,0,0,0,.66A.116.116,0,0,0-3.509.992C-3.591.764-3.622.563-3.4.4A3.5,3.5,0,0,1-2.895.142c.134-.066,0-.258-.128-.193" transform="translate(3.816 0.064)" fill="#fff"/>
        </g>
        <g id="g186" transform="translate(17.077 19.924)">
          <path id="path188" d="M-6.029-.9c-.251.045-.5.1-.759.129a1.08,1.08,0,0,1-.322,0c-.182-.033-.231-.124-.278-.291-.04-.144-.259-.068-.219.075a.564.564,0,0,0,.561.463A4.1,4.1,0,0,0-6.014-.669c.145-.026.131-.257-.016-.231" transform="translate(7.612 1.137)" fill="#fff"/>
        </g>
        <g id="g190" transform="translate(33.698 22.784)">
          <path id="path192" d="M-6.737-7.142a.344.344,0,0,0,.275-.049.169.169,0,0,0,.071-.238,2.015,2.015,0,0,0-.243-.385,2.555,2.555,0,0,0-.317-.327A6.156,6.156,0,0,0-8.39-9.007a.076.076,0,0,0-.109.094v0l0,.01A3.736,3.736,0,0,0-6.737-7.142" transform="translate(8.506 9.016)" fill="#fff"/>
        </g>
        <g id="g194" transform="translate(34.757 23.389)">
          <path id="path196" d="M-.209-.859a1.688,1.688,0,0,0,.75.382.707.707,0,0,0,.6-.315C1.232-.91,1.06-1.065.969-.947.624-.5.244-.833-.1-1.066c-.124-.083-.227.125-.1.207" transform="translate(0.264 1.085)" fill="#fff"/>
        </g>
        <g id="g198" transform="translate(34.235 23.487)">
          <path id="path200" d="M-.1-.654c.156.185.32.367.466.559A1.018,1.018,0,0,1,.547.18a.352.352,0,0,1-.114.4C.327.683.5.836.606.732,1.13.215.433-.379.094-.782,0-.9-.2-.768-.1-.654" transform="translate(0.125 0.826)" fill="#fff"/>
        </g>
        <g id="g202" transform="translate(35.218 20.401)">
          <path id="path204" d="M-8.56-4.786a.346.346,0,0,0,.246-.133.169.169,0,0,0-.007-.249,1.985,1.985,0,0,0-.351-.29,2.567,2.567,0,0,0-.4-.212,6.17,6.17,0,0,0-1.637-.372.076.076,0,0,0-.075.124l0,0,.008.008A3.736,3.736,0,0,0-8.56-4.786" transform="translate(10.807 6.042)" fill="#fff"/>
        </g>
        <g id="g206" transform="translate(36.424 20.346)">
          <path id="path208" d="M-.332-1.99a1.832,1.832,0,0,0,.808.135.688.688,0,0,0,.5-.487c.049-.139-.157-.245-.207-.1a.473.473,0,0,1-.434.376,2.357,2.357,0,0,1-.62-.147c-.144-.04-.189.187-.046.227" transform="translate(0.419 2.513)" fill="#fff"/>
        </g>
        <g id="g210" transform="translate(35.97 20.872)">
          <path id="path212" d="M-.218-.853c.194.12.394.235.583.362a1.286,1.286,0,0,1,.268.21A.328.328,0,0,1,.657.133a.116.116,0,0,0,.207.1C1.2-.429.343-.779-.113-1.06c-.127-.078-.231.129-.1.207" transform="translate(0.275 1.077)" fill="#fff"/>
        </g>
        <g id="g214" transform="translate(35.888 17.375)">
          <path id="path216" d="M-9.6-2.51a.346.346,0,0,0,.186-.208A.169.169,0,0,0-9.5-2.95,1.991,1.991,0,0,0-9.932-3.1a2.553,2.553,0,0,0-.451-.062,6.179,6.179,0,0,0-1.666.209.076.076,0,0,0-.028.142h0l.01,0a3.737,3.737,0,0,0,2.468.3" transform="translate(12.115 3.169)" fill="#fff"/>
        </g>
        <g id="g218" transform="translate(37.112 16.717)">
          <path id="path220" d="M-.456-3.442a1.862,1.862,0,0,0,.819-.151.706.706,0,0,0,.3-.648c0-.149-.233-.133-.231.016a.461.461,0,0,1-.323.5,2.769,2.769,0,0,1-.58.058.116.116,0,0,0,.016.231" transform="translate(0.576 4.346)" fill="#fff"/>
        </g>
        <g id="g222" transform="translate(36.766 17.767)">
          <path id="path224" d="M-.34-.875c.237.049.478.091.712.152.263.068.5.157.457.469-.019.147.208.194.227.046a.559.559,0,0,0-.3-.632A3.86,3.86,0,0,0-.293-1.1.116.116,0,0,0-.34-.875" transform="translate(0.429 1.104)" fill="#fff"/>
        </g>
        <g id="g226" transform="translate(35.581 13.836)">
          <path id="path228" d="M-9.449-1.71a.346.346,0,0,0,.095-.263.169.169,0,0,0-.171-.181,2,2,0,0,0-.455.018,2.56,2.56,0,0,0-.442.11,6.176,6.176,0,0,0-1.469.813.076.076,0,0,0,.027.142h.013a3.734,3.734,0,0,0,2.4-.641" transform="translate(11.929 2.159)" fill="#fff"/>
        </g>
        <g id="g230" transform="translate(36.647 13.119)">
          <path id="path232" d="M-.7-4.611A1.689,1.689,0,0,0,0-5.069a.709.709,0,0,0,.028-.68c-.056-.137-.276-.063-.219.075.213.52-.266.684-.641.87-.133.066,0,.258.128.193" transform="translate(0.885 5.822)" fill="#fff"/>
        </g>
        <g id="g234" transform="translate(36.477 14.453)">
          <path id="path236" d="M-.449-1.432c.251-.045.5-.1.758-.129a.932.932,0,0,1,.322,0c.173.041.212.134.253.289s.256.069.219-.075c-.184-.711-1.051-.4-1.568-.312-.145.026-.131.257.016.231" transform="translate(0.567 1.808)" fill="#fff"/>
        </g>
        <g id="g238" transform="translate(34.241 10.449)">
          <path id="path240" d="M-8.158-1.532a.345.345,0,0,0,0-.279.169.169,0,0,0-.223-.111A1.991,1.991,0,0,0-8.8-1.75,2.551,2.551,0,0,0-9.18-1.5a6.168,6.168,0,0,0-1.1,1.267.076.076,0,0,0,.074.124h0l.01,0A3.736,3.736,0,0,0-8.158-1.532" transform="translate(10.299 1.935)" fill="#fff"/>
        </g>
        <g id="g242" transform="translate(35.03 9.946)">
          <path id="path244" d="M-.779-5.244a1.773,1.773,0,0,0,.507-.661.715.715,0,0,0-.215-.68c-.1-.11-.253.063-.154.173.368.4-.03.72-.311,1.014-.1.108.07.262.173.154" transform="translate(0.984 6.62)" fill="#fff"/>
        </g>
        <g id="g246" transform="translate(35.025 11.147)">
          <path id="path248" d="M-.691-2.7c.2-.114.393-.235.595-.343a1.561,1.561,0,0,1,.269-.128A.343.343,0,0,1,.591-3c.085.123.278,0,.193-.128-.426-.616-1.138-.027-1.6.243-.129.075,0,.267.128.193" transform="translate(0.873 3.404)" fill="#fff"/>
        </g>
        <g id="g250" transform="translate(31.999 7.997)">
          <path id="path252" d="M-5.92-1.267a.346.346,0,0,0-.1-.262.169.169,0,0,0-.247-.028,1.972,1.972,0,0,0-.337.306,2.554,2.554,0,0,0-.267.368A6.173,6.173,0,0,0-7.47.685a.076.076,0,0,0,.112.091h0l.009-.007A3.735,3.735,0,0,0-5.92-1.267" transform="translate(7.474 1.599)" fill="#fff"/>
        </g>
        <g id="g254" transform="translate(32.296 7.794)">
          <path id="path256" d="M-1.278-5.256a1.729,1.729,0,0,0,.253-.835.719.719,0,0,0-.423-.531.116.116,0,0,0-.1.207c.479.252.233.678.068,1.054-.06.136.147.241.207.1" transform="translate(1.613 6.636)" fill="#fff"/>
        </g>
        <g id="g258" transform="translate(32.584 8.625)">
          <path id="path260" d="M-.764-4.031c.142-.169.281-.342.427-.508.182-.207.394-.433.672-.236.12.086.276-.086.154-.173a.569.569,0,0,0-.76.007,5.554,5.554,0,0,0-.666.755c-.1.114.077.269.173.154" transform="translate(0.965 5.089)" fill="#fff"/>
        </g>
        <g id="g262" transform="translate(36.786 29.687)">
          <path id="path264" d="M-4.923-3.015c-.085.482-.731.871-1.111.416a.723.723,0,0,1,.175-1.1A.608.608,0,0,1-5-3.536a.732.732,0,0,1,.075.521" transform="translate(6.215 3.806)" fill="#fff"/>
        </g>
        <g id="g266" transform="translate(23.724 25.654)">
          <path id="path268" d="M-.052-2.033A2.465,2.465,0,0,0,1.8-.1,2.231,2.231,0,0,0,4.14-1.433c.262-.452-.462-.816-.723-.366-.331.57-.807,1.05-1.516.889A1.711,1.711,0,0,1,.715-2.295.407.407,0,0,0,.2-2.547a.415.415,0,0,0-.253.514" transform="translate(0.066 2.567)" fill="#2e100f"/>
        </g>
        <g id="g282" transform="translate(5.643 14.581)">
          <path id="path284" d="M-4.635-8.53a1.029,1.029,0,0,1-.248-.026,1.073,1.073,0,0,1-.228-.081,1.314,1.314,0,0,1-.74-1.095,1.318,1.318,0,0,1,.017-.225.891.891,0,0,1,.925-.809c.71.066.931.938.7,1.563a1.443,1.443,0,0,1-.131.3,1.343,1.343,0,0,1-.182.245c-.034.037-.072.08-.114.129" transform="translate(5.851 10.768)" fill="#2e100f"/>
        </g>
        <g id="g286" transform="translate(5.356 14.298)">
          <path id="path288" d="M-5.792-8.509a1.015,1.015,0,0,1-.188-.014c.053.01-.044-.013-.043-.012-.029-.009-.058-.018-.086-.029-.007,0-.092-.047-.034-.013l-.06-.035q-.059-.037-.115-.078l-.055-.043c-.009-.007-.067-.059-.015-.011-.034-.031-.068-.064-.1-.1s-.051-.058-.075-.089-.028-.037-.041-.056c.04.058-.014-.026-.021-.037a1.165,1.165,0,0,1-.061-.126L-6.7-9.195c.024.064,0-.01,0-.02a1.077,1.077,0,0,1-.029-.142c0-.01,0-.089,0-.024,0-.037,0-.074,0-.111s.009-.093.015-.14c0-.024.006-.047.009-.071-.012.073,0,0,.006-.016a.987.987,0,0,1,.049-.13c-.03.069,0,0,.009-.011s.024-.039.037-.057.027-.036.041-.054c.044-.058-.044.038.011-.011.034-.03.067-.059.1-.088.055-.047-.051.026.012-.009l.049-.027.05-.024.041-.017c-.035.011-.037.012-.007,0s.086-.02.13-.027c.071-.012-.057,0,.014,0l.056,0,.056.006c.072.007-.059-.019.009,0,.03.01.118.021.137.049l-.033-.016.035.02c.017.01.034.021.05.033l.031.024c.055.039-.043-.046,0,0,.027.029.055.057.079.089.012.015.056.055.005,0a.312.312,0,0,1,.041.07c.016.03.031.061.044.093s.015.039.023.058c-.026-.07,0,0,0,.01a1.527,1.527,0,0,1,.046.252c-.008-.074,0,0,0,.012,0,.029,0,.058,0,.087a1.467,1.467,0,0,1-.011.152c0,.014,0,.029-.006.043s0,.029-.007.043c.008-.04.008-.045,0-.012-.013.049-.026.1-.042.144-.021.064-.045.126-.071.188,0,.007-.026.05,0,.01-.019.035-.039.07-.06.1a2.492,2.492,0,0,1-.264.322.289.289,0,0,0,.077.4.3.3,0,0,0,.4-.077l.031-.035c.033-.038-.024.026.007-.008l.072-.08a1.6,1.6,0,0,0,.154-.2,1.924,1.924,0,0,0,.2-.42,1.781,1.781,0,0,0,.1-.64A1.359,1.359,0,0,0-5.6-10.6a1.113,1.113,0,0,0-1.352.2A1.416,1.416,0,0,0-7.2-8.906a1.577,1.577,0,0,0,1.38.974.294.294,0,0,0,.3-.272.292.292,0,0,0-.272-.3" transform="translate(7.313 10.742)" fill="#2e100f"/>
        </g>
        <g id="g290" transform="translate(6.521 15.466)">
          <path id="path292" d="M-4.082-2.631c.022-.041.042-.084.067-.124a.339.339,0,0,1,.023-.034l-.016.019c-.016,0-.1.039-.1.026h.028q.023,0-.01,0c-.022,0-.026-.006-.01,0l.027.008c.047.012-.02,0-.017-.01l.016.01c.02.015.021.014,0,0s-.018-.017-.008-.006l.018.02c-.013,0-.033-.062-.035-.07.012.049-.01-.05,0-.016,0,.019.011-.03,0,0s-.014.042-.021.063-.011.029,0,0a.86.86,0,0,1-.07.111c-.013.018-.021.027,0,0-.014.017-.031.032-.047.048a1.115,1.115,0,0,1-.091.078l-.043.032c.04-.029-.009.005-.017.01-.034.021-.07.039-.1.058a3.483,3.483,0,0,1-.5.225l.256.517a.936.936,0,0,0,.517-.492c.045-.1.092-.2.128-.307.016-.043.031-.086.043-.131a.627.627,0,0,0,.011-.255.29.29,0,0,0-.341-.224.3.3,0,0,0-.224.341c.008.071.006-.047.008-.046s-.015.047-.016.051c-.013.04-.027.08-.041.119-.03.08-.065.161-.1.239.013-.027,0-.006-.006.008l-.032.046c-.012.018-.023.03,0,.007a.487.487,0,0,1-.036.036l-.039.034c-.054.045.022-.006-.014.01s-.071.036-.11.05a.289.289,0,0,0-.13.386.3.3,0,0,0,.386.131,3.1,3.1,0,0,0,.646-.311,1.217,1.217,0,0,0,.523-.615.549.549,0,0,0,0-.416.564.564,0,0,0-.289-.263.508.508,0,0,0-.4-.016.668.668,0,0,0-.3.333.3.3,0,0,0,.078.4.291.291,0,0,0,.4-.077" transform="translate(5.153 3.321)" fill="#2e100f"/>
        </g>
        <g id="g294" transform="translate(2.256 14.663)">
          <path id="path296" d="M-30.064-1.994l-7.619-.523a.209.209,0,0,0-.222.193l-.049.715a.209.209,0,0,0,.193.222l7.619.523a.209.209,0,0,0,.222-.194l.049-.715a.209.209,0,0,0-.193-.222" transform="translate(37.954 2.517)" fill="#68bd45"/>
        </g>
        <g id="g298" transform="translate(8.904 12.591)">
          <path id="path300" d="M-10-.092A2.211,2.211,0,0,0-11.65.29a2.478,2.478,0,0,0-.8,1.517A4.359,4.359,0,0,0-12.155,5.1a2.081,2.081,0,0,0,1.332.787A2.2,2.2,0,0,0-8.175,4a4.878,4.878,0,0,0-.3-3.194A2.1,2.1,0,0,0-10-.092" transform="translate(12.626 0.117)" fill="#171c3c"/>
        </g>
        <g id="g302" transform="translate(0 11.98)">
          <path id="path304" d="M-10-.092A2.211,2.211,0,0,0-11.649.29a2.479,2.479,0,0,0-.8,1.517A4.359,4.359,0,0,0-12.155,5.1a2.081,2.081,0,0,0,1.332.788A2.2,2.2,0,0,0-8.174,4a4.88,4.88,0,0,0-.3-3.193A2.1,2.1,0,0,0-10-.092" transform="translate(12.625 0.117)" fill="#171c3c"/>
        </g>
      </g>
    </g>
    <text id="EYE_BUDDY" data-name="EYE BUDDY" transform="translate(-6510 514.654)" fill="#181d3d" font-size="10" font-family="TTCommons-Bold, TT Commons" font-weight="700" letter-spacing="0.03em"><tspan x="0" y="0">EYE BUDDY</tspan></text>
  </g>
</svg>
