<svg xmlns="http://www.w3.org/2000/svg" width="10.572" height="10.572" viewBox="0 0 10.572 10.572">
  <g id="user" transform="translate(0)">
    <g id="Group_336" data-name="Group 336" transform="translate(0)">
      <path id="Path_216" data-name="Path 216" d="M9.024,6.834a5.266,5.266,0,0,0-2.009-1.26,3.056,3.056,0,1,0-3.458,0,5.294,5.294,0,0,0-3.557,5H.826a4.46,4.46,0,0,1,8.92,0h.826A5.252,5.252,0,0,0,9.024,6.834ZM5.286,5.286a2.23,2.23,0,1,1,2.23-2.23A2.233,2.233,0,0,1,5.286,5.286Z" transform="translate(0)" fill="#181d3d"/>
    </g>
  </g>
</svg>
