<svg xmlns="http://www.w3.org/2000/svg" width="227.019" height="223.371" viewBox="0 0 227.019 223.371">
  <path id="Path_2382" data-name="Path 2382" d="M228.32,96.2a8.08,8.08,0,0,0-4.83-1.61,7.75,7.75,0,0,0-6.25,3.08l-20.45,27a7.92,7.92,0,0,1-5.3,2.14,6.21,6.21,0,0,1-6.23-5.45,8.07,8.07,0,0,1,1-5.13h-.05l.13-.17a8,8,0,0,1,.57-.86l10.2-13.47a7.1,7.1,0,0,0-1.95-9.18,7.22,7.22,0,0,0-9.7,1l-4.33,5.71a7.37,7.37,0,0,1-5.84,3,6.12,6.12,0,0,1-6.13-5.36,7.47,7.47,0,0,1,1.49-5.49l10.62-14A7.18,7.18,0,0,0,170.65,68L153.87,90.16a6.34,6.34,0,0,1-5,2.54,5.7,5.7,0,0,1-5.67-4.94,6.2,6.2,0,0,1,1.25-4.66l1-1.37h0l25.11-33.12a7.12,7.12,0,0,0-1.37-10h-.05A7.22,7.22,0,0,0,159,40.07L142.2,62.24a1.557,1.557,0,0,1,.13-.38,5.51,5.51,0,0,1-3.71,1.4A6.25,6.25,0,0,1,135,62a6.1,6.1,0,0,1-2.39-4,5.19,5.19,0,0,1,1-3.92L164.73,13a7.14,7.14,0,0,0-2-9.09,7.23,7.23,0,0,0-9.6.85l-35.63,47a6.17,6.17,0,0,1-5,2.44,6.71,6.71,0,0,1-4-1.35,6.59,6.59,0,0,1-2.6-4.36,6.12,6.12,0,0,1,1.1-4.56l.91-1.2-.18.15,4.87-6.42a7.12,7.12,0,0,0-1.37-10h0a7.23,7.23,0,0,0-10.07,1.41L96.49,34h0l-6.12,8a5.43,5.43,0,0,1-4.22,1.65,7.28,7.28,0,0,1-4.33-1.41,7.67,7.67,0,0,1-2.89-5,4.59,4.59,0,0,1,.61-3.35l9.95-13.08,1.34-1.76a7.11,7.11,0,0,0-1.38-10h0a7.23,7.23,0,0,0-10.07,1.41L15.62,94.51a7.12,7.12,0,0,0,1.37,10h0a7.24,7.24,0,0,0,8.86-.15l6.87-8.7a5.14,5.14,0,0,1,4-1.55,7.89,7.89,0,0,1,4.8,1.64,8.19,8.19,0,0,1,3,5.33,4.53,4.53,0,0,1-.67,3.27L24.73,128.68,6,153.42a7.12,7.12,0,0,0,1.37,10h0a7.23,7.23,0,0,0,9.31-.55l22.39-29.5a5.24,5.24,0,0,1,4.27-2,7.31,7.31,0,0,1,4.33,1.49,7,7,0,0,1,2.81,4.56,5,5,0,0,1-.93,3.79l-.64.85h0l-15.94,21a7.12,7.12,0,0,0,1.37,10h0a7.21,7.21,0,0,0,10.06-1.41l12.34-16.27,12.5-16.49a6.36,6.36,0,0,1,5-2.54A5.62,5.62,0,0,1,80,141.24a6.34,6.34,0,0,1-1.25,4.68l-12.28,16.2h0L26.86,214.41a7.12,7.12,0,0,0,1.37,10h.05A7.23,7.23,0,0,0,38.35,223l14-18.52a6.23,6.23,0,0,1,.56-.88l28.32-37.36a6.33,6.33,0,0,1,5-2.53,5.67,5.67,0,0,1,5.65,4.91,6.27,6.27,0,0,1-1.25,4.67L78.4,189.5a7.12,7.12,0,0,0,2,9.12,7.23,7.23,0,0,0,9.43-.67l19-25.1a7.37,7.37,0,0,1,5.84-3,6.15,6.15,0,0,1,6.16,5.38,7.51,7.51,0,0,1-1.49,5.49l-2.2,2.9a7.12,7.12,0,0,0,1.71,9.59,7.23,7.23,0,0,0,9.48-.72l11.38-15a8.22,8.22,0,0,1,6.42-3.38,6.19,6.19,0,0,1,3.73,1.22,6.26,6.26,0,0,1,2.43,4.37A8.25,8.25,0,0,1,151,185l-12.87,17a7.65,7.65,0,0,0-1.49,5.73,7.89,7.89,0,0,0,3.13,5.26,8,8,0,0,0,4.83,1.62,7.75,7.75,0,0,0,6.25-3.08L230,107.19a7.64,7.64,0,0,0,1.48-5.73,7.93,7.93,0,0,0-3.16-5.26Z" transform="translate(-4.541 -2.474)" fill="#fec733"/>
</svg>