<svg xmlns="http://www.w3.org/2000/svg" width="375" height="290.814" viewBox="0 0 375 290.814">
  <g id="Group_1077" data-name="Group 1077" transform="translate(0 -521.185)">
    <g id="Group_1027" data-name="Group 1027" transform="translate(2.314 582.862)">
      <path id="Path_3088" data-name="Path 3088" d="M10.634,4.52A4.741,4.741,0,0,0,9.275,3.051a4,4,0,0,0-3.524-.526A4.781,4.781,0,0,0,4.01,3.538,5.932,5.932,0,0,0,2.695,5.261a6.852,6.852,0,0,0-.639,4.271,5.874,5.874,0,0,0,.755,2.025,5.941,5.941,0,0,0,2.017,1.751,21.891,21.891,0,0,0,2.956,1.433c1,.408,1.959.738,2.663.966s1.156.354,1.156.354.033-.567.058-1.456.044-2.1.016-3.387a35.9,35.9,0,0,0-.263-3.851A8.054,8.054,0,0,0,10.634,4.52Z" transform="translate(127.538 179.311)" fill="#fec62d"/>
      <path id="Path_3103" data-name="Path 3103" d="M11.81,147.033a51.356,51.356,0,0,0,9.85.94,41.153,41.153,0,0,0,9.058-1.031,37.448,37.448,0,0,0,8.267-2.96,39.628,39.628,0,0,0,7.473-4.856,46.626,46.626,0,0,0,5.014-4.789A55.473,55.473,0,0,0,56,128.593a67.887,67.887,0,0,0,4.042-6.678q1.9-3.566,3.547-7.59,1.212-2.966,2.215-6.011t1.794-6.148q.791-3.1,1.369-6.261t.938-6.351a228.927,228.927,0,0,1,5.154-29.38,132.687,132.687,0,0,1,6.983-21.007,76.624,76.624,0,0,1,7.781-13.983A46.1,46.1,0,0,1,97.409,16.8a32.061,32.061,0,0,1,7.487-4.811,25.5,25.5,0,0,1,6.263-1.943,20.5,20.5,0,0,1,4.313-.29,11,11,0,0,1,1.645.174l.1-.713a11.318,11.318,0,0,0-1.685-.183,21.016,21.016,0,0,0-4.417.284,26.015,26.015,0,0,0-6.409,1.968,32.57,32.57,0,0,0-7.654,4.9,43.175,43.175,0,0,0-4.477,4.409,54.863,54.863,0,0,0-4.171,5.394,70.512,70.512,0,0,0-3.844,6.361q-1.838,3.422-3.5,7.309Q79,44.5,77.225,50.055t-3.26,11.808q-1.482,6.25-2.659,13.162T69.264,89.481q-.357,3.167-.93,6.3t-1.357,6.207q-.785,3.078-1.779,6.094T63,114.036a76.8,76.8,0,0,1-6.886,13.2,50.387,50.387,0,0,1-10.282,11.528,37.409,37.409,0,0,1-14.422,7.259,44.677,44.677,0,0,1-19.439.248Z" transform="translate(0 63.224)" fill="#2f2e41"/>
      <path id="Path_3104" data-name="Path 3104" d="M4.042,51.542a14.548,14.548,0,0,0,6.566.094,12.333,12.333,0,0,0,4.95-2.436,17.23,17.23,0,0,0,3.57-4.015,27.037,27.037,0,0,0,2.409-4.661q.418-1.032.764-2.094t.621-2.146q.274-1.084.475-2.189t.326-2.222a80.522,80.522,0,0,1,1.767-10.156,46.949,46.949,0,0,1,2.393-7.3,27.407,27.407,0,0,1,2.677-4.9A16.664,16.664,0,0,1,33.183,6.53,11.66,11.66,0,0,1,35.76,4.788a9.14,9.14,0,0,1,2.162-.748,7.191,7.191,0,0,1,1.493-.156,3.785,3.785,0,0,1,.57.039l.106-.718a4.179,4.179,0,0,0-.66-.052,7.557,7.557,0,0,0-1.6.161,9.585,9.585,0,0,0-2.29.791,12.379,12.379,0,0,0-2.727,1.844,18.634,18.634,0,0,0-3.409,4.08,31.18,31.18,0,0,0-2.767,5.686,53.15,53.15,0,0,0-2.108,7.267A86.955,86.955,0,0,0,23.095,31.8q-.122,1.09-.318,2.166T22.314,36.1q-.267,1.057-.6,2.092t-.745,2.041a26.021,26.021,0,0,1-2.313,4.477,16.561,16.561,0,0,1-3.424,3.856A11.82,11.82,0,0,1,10.482,50.9a13.9,13.9,0,0,1-6.288-.089Z" transform="translate(65.986 120.041)" fill="#2f2e41"/>
      <path id="Path_3105" data-name="Path 3105" d="M5.691,51.194l.6-.221a21.118,21.118,0,0,1-.826-7.156,15.367,15.367,0,0,1,1.445-5.591,15.9,15.9,0,0,1,2.912-4.172A19.992,19.992,0,0,1,13.4,31.134q.815-.525,1.661-.97t1.717-.809q.871-.364,1.765-.645t1.8-.478a54.346,54.346,0,0,0,7.287-2.1A34.736,34.736,0,0,0,33.5,23.358a23.1,23.1,0,0,0,4.464-3.449,17.523,17.523,0,0,0,3.071-4.114,15.265,15.265,0,0,0,1.285-3.236,14.259,14.259,0,0,0,.456-2.7,12.322,12.322,0,0,0-.006-1.874,6.927,6.927,0,0,0-.1-.77l-.586.149a6.378,6.378,0,0,1,.081.67,11.851,11.851,0,0,1,0,1.759,13.665,13.665,0,0,1-.435,2.555,14.342,14.342,0,0,1-1.219,3.062,16.122,16.122,0,0,1-2.239,3.155,21.239,21.239,0,0,1-3.824,3.3,31.378,31.378,0,0,1-5.858,3.1,50.484,50.484,0,0,1-8.37,2.538q-.935.2-1.852.49t-1.812.661q-.895.373-1.763.83t-1.705,1a20.775,20.775,0,0,0-3.723,3.042,16.554,16.554,0,0,0-3.034,4.353,16.042,16.042,0,0,0-1.5,5.838A22.1,22.1,0,0,0,5.691,51.194Z" transform="translate(83.593 28.56)" fill="#2f2e41"/>
      <path id="Path_3106" data-name="Path 3106" d="M4.22,17.466a12.971,12.971,0,0,0,.111,4.407A12.576,12.576,0,0,0,5.818,25.8a10.862,10.862,0,0,0,2.607,3.024,8.9,8.9,0,0,0,3.469,1.7,7.887,7.887,0,0,0,3.7,0,8.327,8.327,0,0,0,3.241-1.616,9.883,9.883,0,0,0,2.449-2.946,11.8,11.8,0,0,0,1.323-4,17.126,17.126,0,0,0-.612-5.864,69.1,69.1,0,0,0-2.2-7.15c-.84-2.337-1.709-4.493-2.369-6.065S16.319.317,16.319.317s-.7.692-1.755,1.824-2.486,2.711-3.942,4.477a54.521,54.521,0,0,0-4.127,5.623A14.953,14.953,0,0,0,4.22,17.466Z" transform="translate(92.842 20.754)" fill="#fec62d"/>
      <path id="Path_3107" data-name="Path 3107" d="M4.094,17.057a13.034,13.034,0,0,0,.1,4.35,12.718,12.718,0,0,0,1.437,3.9,10.892,10.892,0,0,0,2.524,3.023,8.716,8.716,0,0,0,3.361,1.729,7.522,7.522,0,0,0,3.586.053,7.888,7.888,0,0,0,3.146-1.546,9.516,9.516,0,0,0,2.379-2.87,11.637,11.637,0,0,0,1.289-3.929,17.251,17.251,0,0,0-.586-5.8,69.878,69.878,0,0,0-2.12-7.089c-.812-2.319-1.652-4.459-2.289-6.02S15.849.317,15.849.317s-.676.672-1.7,1.774S11.73,4.728,10.316,6.449a52.693,52.693,0,0,0-4.01,5.487A14.669,14.669,0,0,0,4.094,17.057Z" transform="translate(115.109)" fill="#fec62d"/>
      <path id="Path_3108" data-name="Path 3108" d="M12.362,29.878A10.029,10.029,0,0,0,15.294,32a9.134,9.134,0,0,0,3.293.861,9.035,9.035,0,0,0,3.358-.412,9.759,9.759,0,0,0,3.132-1.695,11.1,11.1,0,0,0,2.459-2.779,12.473,12.473,0,0,0,1.482-3.445,13.214,13.214,0,0,0,.426-3.8,12.978,12.978,0,0,0-.712-3.841A14.588,14.588,0,0,0,25.5,12.2,52.822,52.822,0,0,0,20.28,7.464c-1.828-1.473-3.614-2.778-4.981-3.74s-2.316-1.58-2.459-1.673l-.361-.234-.12.45C12.311,2.446,12,3.63,11.586,5.4s-.921,4.123-1.36,6.639a66.287,66.287,0,0,0-.936,7.611,16.749,16.749,0,0,0,.5,6.027h0a12.273,12.273,0,0,0,.484,1.171,11.845,11.845,0,0,0,.594,1.1,11.378,11.378,0,0,0,.7,1.014,10.9,10.9,0,0,0,.8.92ZM25.039,12.731c.368.389.716.777,1.038,1.161s.618.763.883,1.137a11.424,11.424,0,0,1,.695,1.1,6.907,6.907,0,0,1,.474,1.043,12.266,12.266,0,0,1-.089,8.278A11.2,11.2,0,0,1,26.005,28.9a9.625,9.625,0,0,1-3.146,2.4,8.438,8.438,0,0,1-7.3.007A9.489,9.489,0,0,1,12.511,29a10.97,10.97,0,0,1-2.1-3.608,14.994,14.994,0,0,1-.476-5.264,59.89,59.89,0,0,1,.768-6.831c.377-2.315.833-4.556,1.238-6.391s.76-3.263.937-3.955c.4.268,1.113.748,2.016,1.384s2,1.427,3.165,2.317,2.409,1.878,3.612,2.911a45.582,45.582,0,0,1,3.37,3.171Z" transform="translate(44.39 90.661)" fill="#2f2e41"/>
      <path id="Path_3109" data-name="Path 3109" d="M12.926,6.126a7.594,7.594,0,0,0-3.518.721,8.833,8.833,0,0,0-2.9,2.22,10.833,10.833,0,0,0-1.978,3.384,12.494,12.494,0,0,0-.752,4.2A12.737,12.737,0,0,0,4.456,20.9a11.388,11.388,0,0,0,1.917,3.491,9.348,9.348,0,0,0,2.857,2.381,7.792,7.792,0,0,0,3.5.921,10.232,10.232,0,0,0,4.62-1.581,45.764,45.764,0,0,0,5.306-3.56c1.7-1.294,3.24-2.588,4.356-3.558s1.806-1.615,1.806-1.615-.678-.686-1.773-1.719-2.613-2.418-4.285-3.81a48.369,48.369,0,0,0-5.24-3.87A10.621,10.621,0,0,0,12.926,6.126Z" transform="translate(117.026 55.777)" fill="#fec62d"/>
      <path id="Path_3110" data-name="Path 3110" d="M13.077,6.162a7.937,7.937,0,0,0-3.561.854A9.41,9.41,0,0,0,6.582,9.347a11.342,11.342,0,0,0-2,3.462,12.625,12.625,0,0,0-.758,4.237,12.41,12.41,0,0,0,.691,4.222,10.852,10.852,0,0,0,1.944,3.423,8.956,8.956,0,0,0,2.894,2.277,7.763,7.763,0,0,0,3.543.791A10.787,10.787,0,0,0,17.57,26a48.777,48.777,0,0,0,5.368-3.763c1.718-1.359,3.277-2.713,4.406-3.726s1.827-1.685,1.827-1.685-.687-.661-1.8-1.654-2.646-2.323-4.34-3.654a46.479,46.479,0,0,0-5.306-3.678A10.451,10.451,0,0,0,13.077,6.162Z" transform="translate(106.424 106.076)" fill="#fec62d"/>
      <path id="Path_3111" data-name="Path 3111" d="M3.66,13.1a10.867,10.867,0,0,0,2.335,1.79A29.106,29.106,0,0,0,8.9,16.4c.957.436,1.85.8,2.522,1.056s1.122.414,1.2.439l.37.127.026-.453c.005-.1.041-.74.065-1.694s.038-2.217,0-3.554a35.848,35.848,0,0,0-.308-4A8.846,8.846,0,0,0,11.913,5.3h0a5.838,5.838,0,0,0-1.525-1.723,4.925,4.925,0,0,0-1.9-.877,4.571,4.571,0,0,0-2.047.024,4.933,4.933,0,0,0-1.95.981A5.908,5.908,0,0,0,3.016,5.5a6.939,6.939,0,0,0-.741,2.246,7.343,7.343,0,0,0,.034,2.41,6.855,6.855,0,0,0,.852,2.289q.055.089.114.175t.121.168q.062.082.129.16t.136.152Zm8.759,3.959c-.386-.141-1.041-.387-1.828-.711s-1.707-.729-2.621-1.184a20.944,20.944,0,0,1-2.585-1.5,5.958,5.958,0,0,1-1.71-1.642A6.054,6.054,0,0,1,2.924,10a6.484,6.484,0,0,1-.03-2.127,6.128,6.128,0,0,1,.654-1.982,5.218,5.218,0,0,1,1.3-1.586,4.357,4.357,0,0,1,1.721-.867,4.037,4.037,0,0,1,1.807-.022,4.349,4.349,0,0,1,1.682.773A5.154,5.154,0,0,1,11.4,5.713a7.391,7.391,0,0,1,.72,2.437,30.263,30.263,0,0,1,.306,3.35c.05,1.161.057,2.312.047,3.292s-.039,1.789-.059,2.264Z" transform="translate(94.397 84.564)" fill="#2f2e41"/>
      <path id="Path_3112" data-name="Path 3112" d="M15.434,9.857A6.814,6.814,0,0,0,15.5,7.419a6.342,6.342,0,0,0-.755-2.168A5.62,5.62,0,0,0,13.3,3.583a5.053,5.053,0,0,0-2-.936,5,5,0,0,0-2.205.013A5.487,5.487,0,0,0,7.1,3.58,6.206,6.206,0,0,0,5.532,5.255a6.758,6.758,0,0,0-.919,2.271,8.869,8.869,0,0,0,.2,3.306,34.649,34.649,0,0,0,1.124,4c.44,1.3.9,2.492,1.252,3.36s.592,1.411.592,1.411.437-.4,1.1-1.058,1.559-1.562,2.472-2.572a34.174,34.174,0,0,0,2.594-3.189A8.771,8.771,0,0,0,15.434,9.857Z" transform="translate(18.249 157.376)" fill="#fec62d"/>
      <path id="Path_3113" data-name="Path 3113" d="M5.13,14.762q.612.587,1.242,1.146T7.648,17q.646.531,1.308,1.033t1.34.975l.328.226.141-.435c.03-.093.229-.71.5-1.632s.6-2.148.908-3.459a36.024,36.024,0,0,0,.721-3.969,8.987,8.987,0,0,0-.064-3.169h0a6.042,6.042,0,0,0-1.04-2.092A5.092,5.092,0,0,0,10.163,3.1a4.633,4.633,0,0,0-1.99-.542,4.872,4.872,0,0,0-2.141.412A5.767,5.767,0,0,0,4.145,4.306,6.821,6.821,0,0,0,2.85,6.279a7.344,7.344,0,0,0-.585,2.349A7,7,0,0,0,2.5,11.087a4.311,4.311,0,0,0,.37.875,8.065,8.065,0,0,0,.6.922c.231.312.49.627.77.942S4.819,14.454,5.13,14.762Zm5.185,3.377c-.339-.244-.913-.665-1.594-1.2s-1.472-1.182-2.243-1.878A21.739,21.739,0,0,1,4.35,12.891a6.182,6.182,0,0,1-1.239-2.07A6.18,6.18,0,0,1,2.9,8.65a6.486,6.486,0,0,1,.517-2.073A6.024,6.024,0,0,1,4.559,4.835,5.094,5.094,0,0,1,6.225,3.656a4.3,4.3,0,0,1,1.891-.365,4.091,4.091,0,0,1,1.758.477,4.5,4.5,0,0,1,1.434,1.214,5.335,5.335,0,0,1,.919,1.848h0A7.513,7.513,0,0,1,12.3,9.394a30.441,30.441,0,0,1-.558,3.34c-.248,1.143-.535,2.265-.8,3.216s-.495,1.731-.636,2.189Z" transform="translate(79.443 186.343)" fill="#2f2e41"/>
    </g>
    <path id="Path_3114" data-name="Path 3114" d="M-2252,4193.186s47.565,126.9,164.6,122.936,210.4,75.348,210.4,75.348V4484h-375Z" transform="translate(2252 -3672)" fill="#fec62d" opacity="0.1"/>
    <ellipse id="Ellipse_1138" data-name="Ellipse 1138" cx="21.191" cy="4.073" rx="21.191" ry="4.073" transform="translate(241.372 743.808)" fill="#181d3d"/>
    <ellipse id="Ellipse_1146" data-name="Ellipse 1146" cx="29.24" cy="5.62" rx="29.24" ry="5.62" transform="translate(286.52 781.321)" fill="#181d3d"/>
    <ellipse id="Ellipse_1139" data-name="Ellipse 1139" cx="2.464" cy="3.232" rx="2.464" ry="3.232" transform="translate(260.165 743.008)" fill="#3f3d56"/>
    <ellipse id="Ellipse_1147" data-name="Ellipse 1147" cx="3.4" cy="4.46" rx="3.4" ry="4.46" transform="translate(311.87 780.09)" fill="#3f3d56"/>
    <ellipse id="Ellipse_1140" data-name="Ellipse 1140" cx="2.464" cy="3.232" rx="2.464" ry="3.232" transform="translate(260.165 739.221)" fill="#3f3d56"/>
    <ellipse id="Ellipse_1148" data-name="Ellipse 1148" cx="3.4" cy="4.46" rx="3.4" ry="4.46" transform="translate(311.87 774.64)" fill="#3f3d56"/>
    <ellipse id="Ellipse_1141" data-name="Ellipse 1141" cx="2.464" cy="3.232" rx="2.464" ry="3.232" transform="translate(260.165 735.434)" fill="#3f3d56"/>
    <ellipse id="Ellipse_1149" data-name="Ellipse 1149" cx="3.4" cy="4.46" rx="3.4" ry="4.46" transform="translate(311.87 769.191)" fill="#3f3d56"/>
    <ellipse id="Ellipse_1142" data-name="Ellipse 1142" cx="2.464" cy="3.232" rx="2.464" ry="3.232" transform="translate(260.165 731.654)" fill="#3f3d56"/>
    <ellipse id="Ellipse_1150" data-name="Ellipse 1150" cx="3.4" cy="4.46" rx="3.4" ry="4.46" transform="translate(311.87 763.75)" fill="#3f3d56"/>
    <ellipse id="Ellipse_1143" data-name="Ellipse 1143" cx="2.464" cy="3.232" rx="2.464" ry="3.232" transform="translate(260.165 727.866)" fill="#3f3d56"/>
    <ellipse id="Ellipse_1151" data-name="Ellipse 1151" cx="3.4" cy="4.46" rx="3.4" ry="4.46" transform="translate(311.87 758.3)" fill="#3f3d56"/>
    <ellipse id="Ellipse_1144" data-name="Ellipse 1144" cx="2.464" cy="3.232" rx="2.464" ry="3.232" transform="translate(260.165 724.079)" fill="#3f3d56"/>
    <ellipse id="Ellipse_1152" data-name="Ellipse 1152" cx="3.4" cy="4.46" rx="3.4" ry="4.46" transform="translate(311.87 752.85)" fill="#3f3d56"/>
    <ellipse id="Ellipse_1145" data-name="Ellipse 1145" cx="2.464" cy="3.232" rx="2.464" ry="3.232" transform="translate(260.165 720.299)" fill="#3f3d56"/>
    <ellipse id="Ellipse_1153" data-name="Ellipse 1153" cx="3.4" cy="4.46" rx="3.4" ry="4.46" transform="translate(311.87 749.721)" fill="#3f3d56"/>
    <path id="Path_3083" data-name="Path 3083" d="M393.978,716.614a11.345,11.345,0,0,0,.92-1.348L388.42,714.2l7.008.051a11.849,11.849,0,0,0,.225-9.363l-9.421,4.877,8.7-6.377a11.82,11.82,0,1,0-19.516,13.226,11.851,11.851,0,0,0-1.348,2.174l8.414,4.348-8.972-3.015a11.835,11.835,0,0,0,1.906,11.1,11.82,11.82,0,1,0,18.574,0,11.827,11.827,0,0,0,0-14.617Z" transform="translate(-122.312 -19.591)" fill="#fec62d"/>
    <path id="Path_3085" data-name="Path 3085" d="M402,723.89a15.649,15.649,0,0,0,1.27-1.86l-8.94-1.47,9.67.07a16.35,16.35,0,0,0,.31-12.92l-13,6.73,12-8.8a16.31,16.31,0,1,0-26.93,18.25,16.351,16.351,0,0,0-1.86,3l11.61,6-12.38-4.16a16.33,16.33,0,0,0,2.63,15.32,16.31,16.31,0,1,0,25.63,0,16.32,16.32,0,0,0,0-20.17Z" transform="translate(-74 -6.601)" fill="#fec62d"/>
    <path id="Path_3084" data-name="Path 3084" d="M372.889,733.932a11.769,11.769,0,0,0,2.529,7.312,11.82,11.82,0,1,0,18.574,0C395.579,739.208,372.889,732.584,372.889,733.932Z" transform="translate(-122.319 -29.979)" opacity="0.1"/>
    <path id="Path_3086" data-name="Path 3086" d="M372.89,734a16.24,16.24,0,0,0,3.49,10.09,16.31,16.31,0,1,0,25.63,0C404.2,741.28,372.89,732.14,372.89,734Z" transform="translate(-74 -6.97)" opacity="0.1"/>
  </g>
</svg>
