<svg id="_005-eye-4" data-name="005-eye-4" xmlns="http://www.w3.org/2000/svg" width="45.153" height="45.153" viewBox="0 0 45.153 45.153">
  <path id="Path_270" data-name="Path 270" d="M44.991,111.944a43.647,43.647,0,0,1-6.522,6.769,33.726,33.726,0,0,1-7.1,4.665,21.393,21.393,0,0,1-7.125,2.062q-.848.082-1.683.082a20.492,20.492,0,0,1-8.808-2.144,33.708,33.708,0,0,1-7.1-4.665,43.636,43.636,0,0,1-6.522-6.769.665.665,0,0,1,0-.785,43.646,43.646,0,0,1,6.522-6.769,33.708,33.708,0,0,1,7.1-4.665,20.491,20.491,0,0,1,8.808-2.144q.836,0,1.683.082a21.392,21.392,0,0,1,7.125,2.062,33.726,33.726,0,0,1,7.1,4.665,43.651,43.651,0,0,1,6.522,6.769A.662.662,0,0,1,44.991,111.944Z" transform="translate(-0.001 -88.975)" fill="#d9f0f4"/>
  <path id="Path_271" data-name="Path 271" d="M295.636,112.792a43.645,43.645,0,0,1-6.522,6.769,33.724,33.724,0,0,1-7.1,4.665,21.393,21.393,0,0,1-7.125,2.062,19.669,19.669,0,0,0,5.965-2.062,30.836,30.836,0,0,0,6.522-4.665,42.413,42.413,0,0,0,5.989-6.769.71.71,0,0,0,0-.785,42.405,42.405,0,0,0-5.989-6.769,30.837,30.837,0,0,0-6.522-4.665,19.668,19.668,0,0,0-5.965-2.062,21.392,21.392,0,0,1,7.125,2.062,33.725,33.725,0,0,1,7.1,4.665,43.65,43.65,0,0,1,6.522,6.769A.662.662,0,0,1,295.636,112.792Z" transform="translate(-250.646 -89.823)" fill="#bae1e5"/>
  <path id="Path_272" data-name="Path 272" d="M167.848,158.556a9.432,9.432,0,0,1-9.418,9.425c-.3,0-.592-.014-.882-.041a9.425,9.425,0,0,1,0-18.767c.29-.027.585-.041.882-.041A9.432,9.432,0,0,1,167.848,158.556Z" transform="translate(-135.871 -135.979)" fill="#4dd4f7"/>
  <path id="Path_273" data-name="Path 273" d="M256.1,158.556a9.432,9.432,0,0,1-9.418,9.425c-.3,0-.592-.014-.882-.041a9.425,9.425,0,0,0,0-18.767c.29-.027.585-.041.882-.041A9.432,9.432,0,0,1,256.1,158.556Z" transform="translate(-224.127 -135.979)" fill="#00c2f3"/>
  <g id="Group_359" data-name="Group 359" transform="translate(17.724 17.472)">
    <path id="Path_274" data-name="Path 274" d="M210.2,204.519a.662.662,0,0,0-.141-.205l-2.19-2.166a.662.662,0,0,0-.207-.139,4.815,4.815,0,1,0,2.539,2.51Z" transform="translate(-200.972 -201.32)" fill="#56788b"/>
    <ellipse id="Ellipse_52" data-name="Ellipse 52" cx="2.211" cy="2.212" rx="2.211" ry="2.212" transform="translate(5.496)" fill="#fff"/>
  </g>
  <g id="Group_360" data-name="Group 360" transform="translate(3.58 3.528)">
    <path id="Path_275" data-name="Path 275" d="M355.325,422.871a.661.661,0,0,0-.661-.661h-9.887a.661.661,0,0,0,0,1.323h9.887A.661.661,0,0,0,355.325,422.871Z" transform="translate(-317.347 -388.503)" fill="#90abbd"/>
    <path id="Path_276" data-name="Path 276" d="M409.385,457.21H404.79a.661.661,0,0,0,0,1.323h4.594a.661.661,0,0,0,0-1.323Z" transform="translate(-372.069 -420.416)" fill="#90abbd"/>
    <path id="Path_277" data-name="Path 277" d="M49.928,75H41.253a.661.661,0,0,0,0,1.323h8.675a.661.661,0,0,0,0-1.323Z" transform="translate(-40.592 -71.915)" fill="#90abbd"/>
    <path id="Path_278" data-name="Path 278" d="M41.253,41.325h4.594a.661.661,0,0,0,0-1.323H41.253a.661.661,0,0,0,0,1.323Z" transform="translate(-40.592 -40.002)" fill="#90abbd"/>
  </g>
  <g id="Group_361" data-name="Group 361" transform="translate(0.013 37.121)">
    <path id="Path_279" data-name="Path 279" d="M25.994,426.1a2.852,2.852,0,0,1-2.846,2.852H2.991a2.852,2.852,0,0,1,0-5.7h.248l1.487-2.055a.659.659,0,0,1,1.07,0l1.487,2.055H23.148A2.852,2.852,0,0,1,25.994,426.1Z" transform="translate(-0.145 -420.92)" fill="#09eaa3"/>
    <path id="Path_280" data-name="Path 280" d="M245.608,450.181a2.852,2.852,0,0,1-2.846,2.852H241a2.852,2.852,0,0,0,0-5.7h1.762A2.852,2.852,0,0,1,245.608,450.181Z" transform="translate(-219.759 -445.001)" fill="#14bb87"/>
  </g>
  <g id="Group_362" data-name="Group 362" transform="translate(22.794 0)">
    <path id="Path_281" data-name="Path 281" d="M280.82,2.852A2.852,2.852,0,0,1,277.974,5.7h-1.762l-1.487,2.055a.659.659,0,0,1-1.07,0L272.168,5.7H261.306a2.852,2.852,0,0,1,0-5.7h16.668a2.852,2.852,0,0,1,2.846,2.852Z" transform="translate(-258.46 0)" fill="#fbdf63"/>
    <path id="Path_282" data-name="Path 282" d="M464.36,2.852A2.852,2.852,0,0,1,461.514,5.7h-1.762a2.852,2.852,0,0,0,0-5.7h1.762a2.852,2.852,0,0,1,2.846,2.852Z" transform="translate(-442 0)" fill="#ffa402"/>
  </g>
</svg>
