<svg id="stats" xmlns="http://www.w3.org/2000/svg" width="12.842" height="12.842" viewBox="0 0 12.842 12.842">
  <g id="Group_360" data-name="Group 360" transform="translate(0 4.825)">
    <g id="Group_359" data-name="Group 359">
      <path id="Path_338" data-name="Path 338" d="M12.653,200.016H11.434v-7.451a.188.188,0,0,0-.188-.188H9.236a.188.188,0,0,0-.188.188v7.451H7.615v-5.24a.188.188,0,0,0-.188-.188H5.416a.188.188,0,0,0-.188.188v5.24H3.795v-4.235a.188.188,0,0,0-.188-.188H1.6a.188.188,0,0,0-.188.188v4.235H.188a.188.188,0,0,0,0,.377H12.653a.188.188,0,1,0,0-.377Zm-9.236,0H1.784V195.97H3.418v4.046Zm3.82,0H5.6v-5.051H7.238Zm3.82,0H9.424v-7.263h1.633v7.263Z" transform="translate(0 -192.376)"/>
    </g>
  </g>
  <g id="Group_362" data-name="Group 362" transform="translate(0.201 0)">
    <g id="Group_361" data-name="Group 361">
      <path id="Path_339" data-name="Path 339" d="M20.056.147A.59.59,0,0,0,19.592,0l-1.608.2a.591.591,0,0,0,.147,1.172l.131-.016a14.255,14.255,0,0,1-5.979,4.066,13.634,13.634,0,0,1-3.693.805.591.591,0,0,0,.018,1.181h.018a14.446,14.446,0,0,0,4.025-.863,15.839,15.839,0,0,0,3.534-1.777.188.188,0,0,0-.211-.313,15.459,15.459,0,0,1-3.45,1.734,14.032,14.032,0,0,1-3.91.842H8.607A.214.214,0,0,1,8.6,6.609a13.931,13.931,0,0,0,3.808-.827,14.583,14.583,0,0,0,6.449-4.549.19.19,0,0,0-.17-.305l-.6.076A.214.214,0,1,1,18.03.579l1.608-.2a.216.216,0,0,1,.24.212V2.2a.214.214,0,0,1-.427,0V1.711a.189.189,0,0,0-.335-.119,14.573,14.573,0,0,1-2.382,2.32.188.188,0,1,0,.23.3,14.938,14.938,0,0,0,2.11-1.985A.591.591,0,0,0,20.256,2.2V.59A.591.591,0,0,0,20.056.147Z" transform="translate(-8.017 0)"/>
    </g>
  </g>
</svg>
