<svg xmlns="http://www.w3.org/2000/svg" width="11.031" height="12.41" viewBox="0 0 11.031 12.41">
  <g id="noun_Survey_1868401" transform="translate(-4 -2)">
    <path id="Path_3127" data-name="Path 3127" d="M12.962,3.379H10.894a1.379,1.379,0,1,0-2.758,0H6.068A2.068,2.068,0,0,0,4,5.447v6.894A2.068,2.068,0,0,0,6.068,14.41h6.894a2.068,2.068,0,0,0,2.068-2.068V5.447a2.068,2.068,0,0,0-2.068-2.068Zm1.379,8.962a1.38,1.38,0,0,1-1.379,1.379H6.068a1.38,1.38,0,0,1-1.379-1.379V5.447A1.38,1.38,0,0,1,6.068,4.068h.689a.689.689,0,0,0,.689.689h4.137a.689.689,0,0,0,.689-.689h.689a1.38,1.38,0,0,1,1.379,1.379ZM6.758,8.894H8.137A.689.689,0,0,0,8.826,8.2V6.826a.689.689,0,0,0-.689-.689H6.758a.689.689,0,0,0-.689.689V8.2A.689.689,0,0,0,6.758,8.894Zm0-2.068H8.137V8.2H6.758Zm2.032,3.35-.834.807.769.769a.345.345,0,1,1-.487.487l-.777-.777-.807.781a.345.345,0,1,1-.479-.5l.8-.773-.8-.8a.345.345,0,1,1,.487-.487l.811.811.843-.815a.345.345,0,1,1,.479.5Zm4.173-2.661a.689.689,0,0,1-.689.689H10.894a.689.689,0,0,1,0-1.379h1.379A.689.689,0,0,1,12.962,7.515Zm0,3.447a.689.689,0,0,1-.689.689H10.894a.689.689,0,0,1,0-1.379h1.379A.689.689,0,0,1,12.962,10.962Z" fill="#181d3d"/>
  </g>
</svg>
