<svg xmlns="http://www.w3.org/2000/svg" width="141.069" height="53.765" viewBox="0 0 141.069 53.765">
  <g id="Group_857" data-name="Group 857" transform="translate(-117.111 -457.931)">
    <path id="Icon_ionic-md-star" data-name="Icon ionic-md-star" d="M21.889,32.147l11.18,6.745L30.111,26.168l9.869-8.556L26.97,16.5l-5.081-12-5.082,12L3.8,17.613l9.869,8.556L10.708,38.892Z" transform="translate(113.314 472.804)" fill="#fec539"/>
    <path id="Icon_ionic-md-star-2" data-name="Icon ionic-md-star" d="M28.594,42.393l15.324,9.245L39.864,34.2,53.39,22.473,35.558,20.941,28.594,4.5,21.628,20.941,3.8,22.473,17.324,34.2,13.269,51.638Z" transform="translate(159.203 453.431)" fill="#fec539"/>
    <path id="Icon_ionic-md-star-half" data-name="Icon ionic-md-star-half" d="M39.977,17.612,26.968,16.495,21.887,4.5,16.805,16.495,3.8,17.612l9.868,8.555L10.707,38.89l11.18-6.745L33.066,38.89,30.109,26.167ZM23.367,29.691l-1.48-.893V11.847l2.442,5.766L25,19.2l1.72.148,6.255.537L28.232,24l-1.305,1.132.391,1.683,1.422,6.117Z" transform="translate(218.203 472.5)" fill="#fec539"/>
  </g>
</svg>
