<svg xmlns="http://www.w3.org/2000/svg" width="52" height="52" viewBox="0 0 52 52">
  <g id="Group_920" data-name="Group 920" transform="translate(-244 -435.5)">
    <g id="Ellipse_3" data-name="Ellipse 3" transform="translate(244 435.5)" fill="#fff" stroke="#e0e0e0" stroke-width="1">
      <circle cx="26" cy="26" r="26" stroke="none"/>
      <circle cx="26" cy="26" r="25.5" fill="none"/>
    </g>
    <path id="Icon_awesome-twitter" data-name="Icon awesome-twitter" d="M22.571,8.473c.016.223.016.447.016.67a14.569,14.569,0,0,1-14.67,14.67A14.57,14.57,0,0,1,0,21.5a10.666,10.666,0,0,0,1.245.064,10.326,10.326,0,0,0,6.4-2.2,5.165,5.165,0,0,1-4.821-3.576,6.5,6.5,0,0,0,.974.08,5.453,5.453,0,0,0,1.357-.176,5.157,5.157,0,0,1-4.134-5.06v-.064a5.193,5.193,0,0,0,2.331.654,5.164,5.164,0,0,1-1.6-6.9,14.656,14.656,0,0,0,10.631,5.4,5.82,5.82,0,0,1-.128-1.181,5.161,5.161,0,0,1,8.923-3.528,10.151,10.151,0,0,0,3.272-1.245,5.142,5.142,0,0,1-2.267,2.841,10.336,10.336,0,0,0,2.969-.8A11.083,11.083,0,0,1,22.571,8.473Z" transform="translate(257.422 447.903)" fill="#00acee"/>
  </g>
</svg>
