<svg xmlns="http://www.w3.org/2000/svg" width="374.706" height="226.615" viewBox="0 0 374.706 226.615">
  <g id="Group_1015" data-name="Group 1015" transform="translate(0 -306.364)">
    <g id="Group_1013" data-name="Group 1013" transform="translate(0 333.95)">
      <path id="Path_2690" data-name="Path 2690" d="M11.234,3.556,7.262,12.322,0,28.35V0Z" transform="translate(106.31 60.087) rotate(-16)" fill="#9f616a"/>
      <path id="Path_2683" data-name="Path 2683" d="M1.7,125.735,0,158.466S72.109,89.835,81.092,69.754,73.166,0,73.166,0L35.646,20.609Z" transform="translate(51.965 33.614) rotate(-16)" fill="#9f616a"/>
      <path id="Path_2685" data-name="Path 2685" d="M1.057,0l11.1,1.057S17.967,13.739,0,14.8Z" transform="translate(160.472 8.547) rotate(-16)" fill="#9f616a"/>
      <path id="Path_2686" data-name="Path 2686" d="M1.057,0l11.1,1.057S17.967,13.739,0,14.8Z" transform="translate(166.298 28.866) rotate(-16)" fill="#9f616a"/>
      <path id="Path_2687" data-name="Path 2687" d="M1.057,0l11.1,1.057S17.967,13.739,0,14.8Z" transform="translate(169.077 50.059) rotate(-16)" fill="#9f616a"/>
      <path id="Path_2695" data-name="Path 2695" d="M0,163.655l59.148-67.48,2.114-43.332L83.456,15.853,89.8,0s14.8,1.585,2.642,31.706l-5.02,16.117h0c4.525,9.747,3.46,20.363,3.46,31.11v36.933c0,8.7-38.033,56.067-42.857,63.3h0Z" transform="translate(0 26.801) rotate(-16)" fill="#9f616a"/>
      <path id="Path_2696" data-name="Path 2696" d="M4.413,16.606,0,14.437l.15-.306,4.077,2L10.381,0,10.7.122Z" transform="translate(81.061 6.035) rotate(-16)" opacity="0.2"/>
    </g>
    <g id="Group_1014" data-name="Group 1014" transform="translate(189.006 333.95)">
      <path id="Path_2690-2" data-name="Path 2690" d="M6.834,3.418l1.4,9.521L10.8,30.348,18.613,3.1Z" transform="translate(60.778 56.991)" fill="#9f616a"/>
      <path id="Path_2683-2" data-name="Path 2683" d="M87.862,143.471,80.479,175.4s-3.15-5.366-7.923-13.754-11.17-19.8-17.663-31.893S41.809,104.893,36.648,93.782s-8.892-20.56-9.667-26,.515-12.221,2.887-19.323a147.785,147.785,0,0,1,9.374-21.277c3.55-6.747,7.2-12.814,9.955-17.194S53.827,2.91,53.827,2.91L84.212,33.062Z" transform="translate(9.578 10.537)" fill="#9f616a"/>
      <path id="Path_2685-2" data-name="Path 2685" d="M15.608,3.306,4.649,1.263A10.834,10.834,0,0,0,3.5,3.011,10.128,10.128,0,0,0,2.23,7.3a7.686,7.686,0,0,0,1.918,5.412c1.536,1.832,4.152,3.613,8.4,5.1Z" transform="translate(8.605 4.95)" fill="#9f616a"/>
      <path id="Path_2686-2" data-name="Path 2686" d="M15.608,3.306,4.649,1.263A10.834,10.834,0,0,0,3.5,3.011,10.128,10.128,0,0,0,2.23,7.3a7.686,7.686,0,0,0,1.918,5.412c1.536,1.832,4.152,3.613,8.4,5.1Z" transform="translate(2.778 25.269)" fill="#9f616a"/>
      <path id="Path_2687-2" data-name="Path 2687" d="M15.608,3.306,4.649,1.263A10.834,10.834,0,0,0,3.5,3.011,10.128,10.128,0,0,0,2.23,7.3a7.686,7.686,0,0,0,1.918,5.412c1.536,1.832,4.152,3.613,8.4,5.1Z" transform="translate(0 46.461)" fill="#9f616a"/>
      <path id="Path_2695-2" data-name="Path 2695" d="M97.742,184.116,59.485,102.948,69.4,60.712,58.258,19.036,56.533,2.049a6.669,6.669,0,0,0-2.238.106,8.806,8.806,0,0,0-4.67,2.655C48,6.51,46.488,9.219,45.589,13.522s-1.181,10.2-.336,18.277l.383,16.877h0a34.637,34.637,0,0,0-4.412,6.5,51.406,51.406,0,0,0-3.067,7.15c-.863,2.466-1.6,5-2.3,7.564s-1.379,5.157-2.12,7.739l-10.18,35.5c-.6,2.09.42,7.159,2.328,13.715s4.7,14.6,7.656,22.644,6.064,16.083,8.6,22.63,4.5,11.6,5.163,13.673h0Z" transform="translate(42.85)" fill="#9f616a"/>
      <path id="Path_2696-2" data-name="Path 2696" d="M6.044,17.7l4.839-.868-.06-.336-4.471.8L4.883.088l-.34.029Z" transform="translate(89.777 3.085)" opacity="0.2"/>
    </g>
    <g id="Group_1012" data-name="Group 1012" transform="translate(112.381 340.254)">
      <path id="Path_2688" data-name="Path 2688" d="M76.414,36.418h-.842V13.351A13.351,13.351,0,0,0,62.222,0H13.351A13.351,13.351,0,0,0,0,13.351V139.9a13.351,13.351,0,0,0,13.351,13.351H62.222A13.351,13.351,0,0,0,75.572,139.9V52.837h.842Z" transform="translate(0 76.414) rotate(-90)" fill="#3f3d56"/>
      <path id="Path_2689" data-name="Path 2689" d="M69.046,9.969V136.332a9.968,9.968,0,0,1-9.971,9.969H9.969A9.969,9.969,0,0,1,0,136.331V9.969A9.969,9.969,0,0,1,9.97,0h5.959a4.736,4.736,0,0,0,4.385,6.526h28A4.738,4.738,0,0,0,52.7,0h6.379a9.969,9.969,0,0,1,9.969,9.97Z" transform="translate(3.474 72.73) rotate(-90)" fill="#f1f1f1"/>
    </g>
    <path id="Path_2697" data-name="Path 2697" d="M-675.356,4301.663s27.224-22.576,51.527,0" transform="translate(838.487 -3971.668)" fill="none" stroke="#fec62d" stroke-linecap="round" stroke-width="6"/>
    <path id="Path_2699" data-name="Path 2699" d="M0,10.034s27.224-22.576,51.527,0" transform="translate(214.658 436.96) rotate(180)" fill="none" stroke="#fec62d" stroke-linecap="round" stroke-width="6"/>
    <path id="Path_2698" data-name="Path 2698" d="M-675.356,4307.157s42.13-34.937,79.738,0" transform="translate(824.382 -3982.178)" fill="none" stroke="#fec62d" stroke-linecap="round" stroke-width="6"/>
    <path id="Path_2700" data-name="Path 2700" d="M0,15.528s42.13-34.937,79.738,0" transform="translate(228.763 447.47) rotate(180)" fill="none" stroke="#fec62d" stroke-linecap="round" stroke-width="6"/>
  </g>
</svg>
