<svg xmlns="http://www.w3.org/2000/svg" width="73" height="25.606" viewBox="0 0 73 25.606">
  <path id="Exclusion_3" data-name="Exclusion 3" d="M-3294.285,25.606a2.084,2.084,0,0,1-.344-.029L-3308.3,23.3a2.008,2.008,0,0,1-1.712-1.953V1.986A2.065,2.065,0,0,1-3307.931,0h49a2.064,2.064,0,0,1,2.077,1.986V21.345a2.008,2.008,0,0,1-1.711,1.953l-13.657,2.28a2.1,2.1,0,0,1-.344.028,2.057,2.057,0,0,1-1.7-.882l-3.4-4.961a6.972,6.972,0,0,0-5.772-3.012,6.973,6.973,0,0,0-5.773,3.012l-3.393,4.961A2.042,2.042,0,0,1-3294.285,25.606Zm-11.677-17.463v5.9h44.924v-5.9ZM-3247,18.882h-3.887V4.142H-3247V18.881Zm-69.113,0H-3320V4.142h3.887V18.881Z" transform="translate(3320 0)" fill="#fec62d"/>
</svg>
