<svg xmlns="http://www.w3.org/2000/svg" width="245.109" height="257.272" viewBox="0 0 245.109 257.272">
  <g id="Group_853" data-name="Group 853" transform="translate(5610.109 1861.136)">
    <rect id="Rectangle_437" data-name="Rectangle 437" width="237" height="247" transform="translate(-5602 -1856)" fill="#fec733"/>
    <path id="Subtraction_29" data-name="Subtraction 29" d="M272.238,291.09H27.129V33.818h245.11V291.089ZM98.615,208.625h0L58.945,260.954a7.119,7.119,0,0,0,1.415,10.008,7.221,7.221,0,0,0,10.07-1.407L83.893,251.8a6.149,6.149,0,0,1,.63-1.023l28.322-37.358a6.24,6.24,0,0,1,.815-.885l.339-.446c-.044.086-.086.173-.127.266a6.25,6.25,0,0,1,3.936-1.393,6.2,6.2,0,0,1,6.145,5.319,6.1,6.1,0,0,1-1.191,4.567l-13,17.152a7.17,7.17,0,0,0,7.036,8.611,7.216,7.216,0,0,0,3.712-1.016l17.893-23.6a7.143,7.143,0,0,1,2.028-1.821l.059-.077-.012.023-.019.037a7.239,7.239,0,0,1,3.691-1.009,7.181,7.181,0,0,1,7.116,6.158,7.068,7.068,0,0,1-1.379,5.29l-1.687,2.224a7.171,7.171,0,0,0,7.081,8.372,7.354,7.354,0,0,0,1.936-.258l13.473-17.77a7.845,7.845,0,0,1,14.084,5.3l-14.948,19.716a7.765,7.765,0,0,0,1.544,10.918,7.874,7.874,0,0,0,10.984-1.534l79.065-104.289a7.765,7.765,0,0,0-1.544-10.918,7.875,7.875,0,0,0-10.984,1.535l-22.312,29.43a7.933,7.933,0,0,1-2.129.291,7.831,7.831,0,0,1-7.761-6.718,7.711,7.711,0,0,1,1.5-5.77L230.108,145.4a7.2,7.2,0,0,0-11.057-6.62l-4.149,5.474a7.2,7.2,0,0,1-12.863-3.313,7.07,7.07,0,0,1,1.378-5.29l10.968-14.467a7.2,7.2,0,0,0-11.66-6.6l-16.778,22.13a6.216,6.216,0,0,1-11.109-2.861,6.1,6.1,0,0,1,1.191-4.567l27.823-36.7a7.2,7.2,0,0,0-11.221-7.454l-17.3,22.783a4.948,4.948,0,0,1-4.077,1.83,8.429,8.429,0,0,1-4.982-1.764,8.01,8.01,0,0,1-3.256-5.138,4.649,4.649,0,0,1,.837-3.537l33.7-44.364a7.179,7.179,0,0,0-7.076-5.909,7.316,7.316,0,0,0-2.063.294l-43.979,57.961a6.014,6.014,0,0,1-4.87,2.291,7.849,7.849,0,0,1-4.662-1.6,7.614,7.614,0,0,1-3.026-4.951,5.8,5.8,0,0,1,1.077-4.348l7.207-9.5c-.1.075-.195.157-.3.254l4.874-6.43A7.117,7.117,0,0,0,143.308,73a7.23,7.23,0,0,0-8.82.125l-7.1,9.321a3.1,3.1,0,0,1-2.588,1.062,9.824,9.824,0,0,1-5.591-2.164c-2.071-1.556-3.511-3.624-3.757-5.4a2.787,2.787,0,0,1,.463-2.118l8.234-10.811a7.17,7.17,0,0,0-6.979-8.86A7.162,7.162,0,0,0,111.421,57L47.7,141.059a7.12,7.12,0,0,0,1.415,10.009,7.252,7.252,0,0,0,7.573.677l7.507-9.86a3.334,3.334,0,0,1,2.787-1.158,9.631,9.631,0,0,1,5.51,2.1,8.976,8.976,0,0,1,3.684,5.373,3.023,3.023,0,0,1-.508,2.3L48.213,186.559l-10.166,13.41a7.119,7.119,0,0,0,1.415,10.008,7.162,7.162,0,0,0,4.322,1.439,7.266,7.266,0,0,0,3.334-.8l23.571-31.046a5.179,5.179,0,0,1,4.207-1.926,7.808,7.808,0,0,1,4.626,1.615,7.488,7.488,0,0,1,3.015,4.834,4.921,4.921,0,0,1-.891,3.694l-.645.85.055-.033.024-.014L65.14,209.609a7.121,7.121,0,0,0,1.417,10.008,7.152,7.152,0,0,0,4.321,1.44,7.269,7.269,0,0,0,3.351-.814l26.691-35.206a6.216,6.216,0,0,1,11.109,2.86,6.1,6.1,0,0,1-1.191,4.569l-12.285,16.2.03-.021.032-.022Z" transform="translate(-5637.238 -1894.954)" fill="#fff"/>
  </g>
</svg>
