<svg xmlns="http://www.w3.org/2000/svg" xmlns:xlink="http://www.w3.org/1999/xlink" width="345" height="176" viewBox="0 0 345 176">
  <defs>
    <filter id="Rectangle_290" x="0" y="0" width="345" height="176" filterUnits="userSpaceOnUse">
      <feOffset dy="2" input="SourceAlpha"/>
      <feGaussianBlur stdDeviation="5" result="blur"/>
      <feFlood flood-opacity="0.161"/>
      <feComposite operator="in" in2="blur"/>
      <feComposite in="SourceGraphic"/>
    </filter>
    <radialGradient id="radial-gradient" cx="0.5" cy="0.5" r="0.5" gradientTransform="translate(0)" gradientUnits="objectBoundingBox">
      <stop offset="0" stop-color="#74aaf8"/>
      <stop offset="1" stop-color="#4072ee" stop-opacity="0.2"/>
    </radialGradient>
    <filter id="Combined_Shape" x="111.5" y="39.5" width="28.051" height="19.376" filterUnits="userSpaceOnUse">
      <feOffset input="SourceAlpha"/>
      <feGaussianBlur stdDeviation="1.5" result="blur-2"/>
      <feFlood flood-color="#cbd1df" flood-opacity="0.502"/>
      <feComposite operator="in" in2="blur-2"/>
      <feComposite in="SourceGraphic"/>
    </filter>
    <filter id="Path_2" x="19.449" y="63.634" width="306.787" height="66.844" filterUnits="userSpaceOnUse">
      <feOffset dy="2" input="SourceAlpha"/>
      <feGaussianBlur stdDeviation="1.75" result="blur-3"/>
      <feFlood flood-color="#fec733"/>
      <feComposite operator="in" in2="blur-3"/>
      <feComposite in="SourceGraphic"/>
    </filter>
  </defs>
  <g id="Group_862" data-name="Group 862" transform="translate(-15 -610)">
    <g id="Ellipse_135" data-name="Ellipse 135" transform="translate(151 693)" fill="none" stroke="#fec62d" stroke-width="2">
      <circle cx="6" cy="6" r="6" stroke="none"/>
      <circle cx="6" cy="6" r="5" fill="none"/>
    </g>
    <g transform="matrix(1, 0, 0, 1, 15, 610)" filter="url(#Rectangle_290)">
      <rect id="Rectangle_290-2" data-name="Rectangle 290" width="315" height="146" rx="5" transform="translate(15 13)" fill="#fff"/>
    </g>
    <line id="Line_35" data-name="Line 35" x2="314.894" transform="translate(30.105 741.5)" fill="none" stroke="#181d3d" stroke-width="0.2"/>
    <line id="Line_34" data-name="Line 34" x2="315" transform="translate(30 720.125)" fill="none" stroke="#181d3d" stroke-width="0.2"/>
    <line id="Line_33" data-name="Line 33" x2="315" transform="translate(30 698.75)" fill="none" stroke="#181d3d" stroke-width="0.2"/>
    <line id="Line_32" data-name="Line 32" x2="315" transform="translate(30 677.375)" fill="none" stroke="#181d3d" stroke-width="0.2"/>
    <line id="Line_31" data-name="Line 31" x2="315" transform="translate(30 656)" fill="none" stroke="#181d3d" stroke-width="0.2"/>
    <g id="Rectangle_8" data-name="Rectangle 8" transform="translate(-489 416)" opacity="0.102" fill="url(#radial-gradient)">
      <path d="M 629.8780517578125 270.3562622070313 C 627.3428955078125 270.3562622070313 624.9617919921875 269.3713073730469 623.17333984375 267.5828247070313 C 621.3848266601563 265.7943420410156 620.39990234375 263.4132080078125 620.39990234375 260.8780822753906 C 620.39990234375 258.3429565429688 621.3848266601563 255.9618072509766 623.17333984375 254.17333984375 C 624.9617919921875 252.3848571777344 627.3428955078125 251.3998870849609 629.8780517578125 251.3998870849609 C 632.4132080078125 251.3998870849609 634.7943115234375 252.3848571777344 636.5828247070313 254.17333984375 C 638.371337890625 255.9618225097656 639.3562622070313 258.3429565429688 639.3562622070313 260.8780822753906 C 639.3562622070313 263.4132080078125 638.371337890625 265.7943115234375 636.5828247070313 267.5827941894531 C 634.7943115234375 269.3713073730469 632.4132080078125 270.3562622070313 629.8780517578125 270.3562622070313 Z" stroke="none"/>
      <path d="M 629.8780517578125 251.7998657226563 C 627.4497680664063 251.7998657226563 625.1690673828125 252.7432250976563 623.4561767578125 254.4561767578125 C 621.7432250976563 256.1691284179688 620.7998657226563 258.4497985839844 620.7998657226563 260.8780822753906 C 620.7998657226563 263.3063659667969 621.7432250976563 265.5870361328125 623.4561767578125 267.2999572753906 C 625.1690673828125 269.0128784179688 627.4497680664063 269.9562377929688 629.8780517578125 269.9562377929688 C 632.3063354492188 269.9562377929688 634.5870361328125 269.0128784179688 636.2999877929688 267.2999572753906 C 638.012939453125 265.5870361328125 638.956298828125 263.3063659667969 638.956298828125 260.8780822753906 C 638.956298828125 258.4497985839844 638.012939453125 256.1691284179688 636.2999877929688 254.4561767578125 C 634.5870361328125 252.7432250976563 632.3063354492188 251.7998657226563 629.8780517578125 251.7998657226563 M 629.8780517578125 250.9998779296875 C 635.3406982421875 250.9998779296875 639.7562866210938 255.4154357910156 639.7562866210938 260.8780822753906 C 639.7562866210938 266.3406982421875 635.3406982421875 270.7562255859375 629.8780517578125 270.7562255859375 C 624.4154052734375 270.7562255859375 619.9998779296875 266.3406982421875 619.9998779296875 260.8780822753906 C 619.9998779296875 255.4154357910156 624.4154052734375 250.9998779296875 629.8780517578125 250.9998779296875 Z" stroke="none" fill="#31394d"/>
    </g>
    <g transform="matrix(1, 0, 0, 1, 15, 610)" filter="url(#Combined_Shape)">
      <path id="Combined_Shape-2" data-name="Combined Shape" d="M9.4,10.337l-.657-.812H2a2,2,0,0,1-2-2V2A2,2,0,0,1,2,0H17.051a2,2,0,0,1,2,2V7.526a2,2,0,0,1-2,2H10.205l-.657.812a.093.093,0,0,1-.15,0Z" transform="translate(116 44)" fill="#31394d"/>
    </g>
    <text id="_120xp" data-name="+120xp" transform="translate(141 660)" fill="#fff" font-size="3" font-family="Roboto-Bold, Roboto" font-weight="700"><tspan x="-5.008" y="0">+120xp</tspan></text>
    <text id="Your_Excercises" data-name="Your Excercises" transform="translate(46 642)" fill="#181d3d" font-size="11" font-family="TTCommons-DemiBold, TT Commons" font-weight="300"><tspan x="0" y="0">Your Excercises</tspan></text>
    <text id="Jan" transform="translate(43.715 751.422)" fill="#181d3d" font-size="9" font-family="TTCommons-DemiBold, TT Commons" font-weight="300"><tspan x="0" y="6">Jan</tspan></text>
    <text id="Feb_" data-name="Feb " transform="translate(74.35 751.422)" fill="#181d3d" font-size="9" font-family="TTCommons-DemiBold, TT Commons" font-weight="300"><tspan x="0" y="6">Feb </tspan></text>
    <text id="Mar" transform="translate(105.429 751.422)" fill="#181d3d" font-size="9" font-family="TTCommons-DemiBold, TT Commons" font-weight="300"><tspan x="0" y="6">Mar</tspan></text>
    <text id="Apr" transform="translate(135.509 751.422)" fill="#181d3d" font-size="9" font-family="TTCommons-DemiBold, TT Commons" font-weight="300"><tspan x="0" y="6">Apr</tspan></text>
    <text id="May" transform="translate(164.589 751.422)" fill="#181d3d" font-size="9" font-family="TTCommons-DemiBold, TT Commons" font-weight="300"><tspan x="0" y="6">May</tspan></text>
    <text id="Jun" transform="translate(194.669 751.422)" fill="#181d3d" font-size="9" font-family="TTCommons-DemiBold, TT Commons" font-weight="300"><tspan x="0" y="6">Jun</tspan></text>
    <text id="Jul" transform="translate(223.75 751.422)" fill="#181d3d" font-size="9" font-family="TTCommons-DemiBold, TT Commons" font-weight="300"><tspan x="0" y="6">Jul</tspan></text>
    <text id="Aug" transform="translate(253.829 751.422)" fill="#181d3d" font-size="9" font-family="TTCommons-DemiBold, TT Commons" font-weight="300"><tspan x="0" y="6">Aug</tspan></text>
    <text id="Sep" transform="translate(283.91 751.422)" fill="#181d3d" font-size="9" font-family="TTCommons-DemiBold, TT Commons" font-weight="300"><tspan x="0" y="6">Sep</tspan></text>
    <text id="Oct" transform="translate(313.989 751.422)" fill="#181d3d" font-size="9" font-family="TTCommons-DemiBold, TT Commons" font-weight="300"><tspan x="0" y="6">Oct</tspan></text>
    <g transform="matrix(1, 0, 0, 1, 15, 610)" filter="url(#Path_2)">
      <path id="Path_2-2" data-name="Path 2" d="M489.58,268.873c-9.917,13.084-13.284,22.826-27.621,17.862s-12.048-17.675-29.926-22.393-27.042,22.17-36.139,23.848-24.008-20.475-39.012-20.475-22.919,31.037-31.845,31.037-16.326-34.41-30.183-34.41-23.058,50.8-32.949,50.8-20.244-36.583-32.8-36.048-34.435,39.872-34.435,39.872" transform="translate(-169.29 -196.41)" fill="none" stroke="#fec733" stroke-linecap="round" stroke-linejoin="round" stroke-width="1"/>
    </g>
    <g id="Rectangle_8-2" data-name="Rectangle 8" transform="translate(-494 411)" fill="#fff">
      <path d="M 634.93896484375 270.1280822753906 C 632.6290283203125 270.1280822753906 630.7498168945313 268.2488708496094 630.7498168945313 265.9389953613281 C 630.7498168945313 263.6291198730469 632.6290283203125 261.7499084472656 634.93896484375 261.7499084472656 C 637.248779296875 261.7499084472656 639.1279907226563 263.6291198730469 639.1279907226563 265.9389953613281 C 639.1279907226563 268.2488708496094 637.248779296875 270.1280822753906 634.93896484375 270.1280822753906 Z" stroke="none"/>
      <path d="M 634.93896484375 262.4999084472656 C 633.0426635742188 262.4999084472656 631.4998168945313 264.0426940917969 631.4998168945313 265.9389953613281 C 631.4998168945313 267.8352966308594 633.0426635742188 269.3780822753906 634.93896484375 269.3780822753906 C 636.8352661132813 269.3780822753906 638.3779907226563 267.8352966308594 638.3779907226563 265.9389953613281 C 638.3779907226563 264.0426940917969 636.8352661132813 262.4999084472656 634.93896484375 262.4999084472656 M 634.93896484375 260.9999084472656 C 637.670166015625 260.9999084472656 639.8779907226563 263.2077331542969 639.8779907226563 265.9389953613281 C 639.8779907226563 268.6703491210938 637.670166015625 270.8780822753906 634.93896484375 270.8780822753906 C 632.2075805664063 270.8780822753906 629.9998168945313 268.6703491210938 629.9998168945313 265.9389953613281 C 629.9998168945313 263.2077331542969 632.2075805664063 260.9999084472656 634.93896484375 260.9999084472656 Z" stroke="none" fill="#31394d"/>
    </g>
  </g>
</svg>
