<svg xmlns="http://www.w3.org/2000/svg" xmlns:xlink="http://www.w3.org/1999/xlink" width="50.74" height="38.426" viewBox="0 0 50.74 38.426">
  <defs>
    <linearGradient id="linear-gradient" y1="0.5" x2="1" y2="0.5" gradientUnits="objectBoundingBox">
      <stop offset="0" stop-color="#b0772a"/>
      <stop offset="0.09" stop-color="#dfb863"/>
      <stop offset="0.14" stop-color="#f5d77f"/>
      <stop offset="0.26" stop-color="#fcfad9"/>
      <stop offset="0.36" stop-color="#f5d77f"/>
      <stop offset="0.49" stop-color="#b0772a"/>
      <stop offset="0.57" stop-color="#dfb863"/>
      <stop offset="0.61" stop-color="#f5d77f"/>
      <stop offset="0.74" stop-color="#fcfad9"/>
      <stop offset="0.84" stop-color="#f5d77f"/>
      <stop offset="1" stop-color="#b0772a"/>
    </linearGradient>
    <linearGradient id="linear-gradient-2" x1="0" y1="0.5" x2="1" y2="0.5" xlink:href="#linear-gradient"/>
    <linearGradient id="linear-gradient-4" x1="0" y1="0.5" x2="1" y2="0.5" xlink:href="#linear-gradient"/>
    <linearGradient id="linear-gradient-5" x1="0" y1="0.5" x2="1" y2="0.5" xlink:href="#linear-gradient"/>
    <linearGradient id="linear-gradient-7" x1="0" y1="0.5" x2="1" y2="0.5" xlink:href="#linear-gradient"/>
    <linearGradient id="linear-gradient-15" x1="0" y1="0.5" x2="1" y2="0.5" xlink:href="#linear-gradient"/>
    <linearGradient id="linear-gradient-16" x1="0" y1="0.5" x2="1" y2="0.5" xlink:href="#linear-gradient"/>
    <linearGradient id="linear-gradient-17" x1="-0.003" y1="0.5" x2="0.997" y2="0.5" xlink:href="#linear-gradient"/>
    <linearGradient id="linear-gradient-18" x1="0" y1="0.5" x2="1" y2="0.5" xlink:href="#linear-gradient"/>
    <linearGradient id="linear-gradient-21" x1="0" y1="0.501" x2="1.001" y2="0.501" xlink:href="#linear-gradient"/>
    <linearGradient id="linear-gradient-22" x1="0.001" y1="0.501" x2="1" y2="0.501" xlink:href="#linear-gradient"/>
    <linearGradient id="linear-gradient-23" x1="0.196" y1="0.947" x2="1.196" y2="0.947" xlink:href="#linear-gradient"/>
  </defs>
  <g id="_05" data-name="05" transform="translate(0 0.05)">
    <path id="Path_924" data-name="Path 924" d="M97.905,118.03c-3.236-1.232-6.168-2.49-8.1-3.46-.09-.045-.175-.1-.263-.15-13.676-7.354-12.021-21.561-1.6-26.149l.063.137c-9.016,4.154-10.892,15.677-2.418,22.567,2.895,2.407,7.662,4.513,12.322,6.206,4.664-1.687,9.427-3.8,12.32-6.206,8.475-6.887,6.6-18.41-2.416-22.567l.062-.137c10.423,4.589,12.076,18.8-1.6,26.149-.089.048-.173.1-.263.15C104.078,115.54,101.14,116.8,97.905,118.03Z" transform="translate(-72.535 -83.28)" fill="url(#linear-gradient)"/>
    <path id="Path_925" data-name="Path 925" d="M102.728,133.729q-1.265-.462-2.639-.991a33.2,33.2,0,0,1-8.785-4.464c-7.2-5.533-7.762-14.079-2.106-19.633l.105.108a12.206,12.206,0,0,0,1.643,18.532l.438.339c2.4,1.837,6.751,3.74,11.344,5.354,4.592-1.614,8.947-3.517,11.342-5.354l.438-.339a12.207,12.207,0,0,0,1.644-18.532l.105-.108c5.654,5.555,5.094,14.1-2.106,19.633a33.414,33.414,0,0,1-8.786,4.464Q103.993,133.268,102.728,133.729Z" transform="translate(-77.358 -100.585)" fill="url(#linear-gradient-2)"/>
    <path id="Path_926" data-name="Path 926" d="M140.577,288.44c-.585,3.724-6.176,2.138-10.057,3.271,1.619-.933,5.526-3.021,7.438-2.952a2.251,2.251,0,0,0-1.4.752C137.85,289.7,139.873,289.564,140.577,288.44Z" transform="translate(-115.708 -253.335)" fill="url(#linear-gradient-2)"/>
    <path id="Path_927" data-name="Path 927" d="M204,288.44c.587,3.724,6.168,2.138,10.057,3.271-1.619-.933-5.524-3.021-7.438-2.952a2.251,2.251,0,0,1,1.4.752C206.732,289.7,204.709,289.564,204,288.44Z" transform="translate(-178.134 -253.335)" fill="url(#linear-gradient-4)"/>
    <path id="Path_928" data-name="Path 928" d="M85.643,276.22c-1.016,4.682-7.771,2.47-10.862,2.291a14.145,14.145,0,0,0-2.451.011c.1-.035,1.249-.411,2.338-.737,2.188-.639,5.717-1.792,7.852-1.411a3.4,3.4,0,0,0-2,.826C81.73,277.591,84.513,277.83,85.643,276.22Z" transform="translate(-66.273 -242.953)" fill="url(#linear-gradient-5)"/>
    <path id="Path_929" data-name="Path 929" d="M240.58,276.22c1.014,4.682,7.769,2.47,10.861,2.291a14.145,14.145,0,0,1,2.451.011c-.1-.035-1.247-.411-2.338-.737-2.186-.639-5.717-1.792-7.852-1.411a3.392,3.392,0,0,1,2,.826C244.492,277.591,241.71,277.83,240.58,276.22Z" transform="translate(-209.21 -242.953)" fill="url(#linear-gradient-5)"/>
    <path id="Path_930" data-name="Path 930" d="M60.7,252.543c-2.011,4.993-7.9.187-12.57-.572,2.257-.245,7.781-.722,9.862.172a3.642,3.642,0,0,0-2.117.451C57.05,253.281,59.409,253.816,60.7,252.543Z" transform="translate(-45.714 -222.057)" fill="url(#linear-gradient-7)"/>
    <path id="Path_931" data-name="Path 931" d="M269.71,252.543c2.011,4.993,7.9.187,12.571-.572-2.257-.245-7.783-.722-9.863.172a3.642,3.642,0,0,1,2.117.451C273.364,253.281,271,253.816,269.71,252.543Z" transform="translate(-233.958 -222.057)" fill="url(#linear-gradient-7)"/>
    <path id="Path_932" data-name="Path 932" d="M43.11,214.68a3.284,3.284,0,0,1-3.829,1.192c-2.685-1.029-4.462-3.46-7.211-4.751,1.851.284,7.107,1.262,8.876,2.634a4.071,4.071,0,0,0-2.169-.039C39.929,214.807,41.729,215.509,43.11,214.68Z" transform="translate(-32.07 -187.648)" fill="url(#linear-gradient-2)"/>
    <path id="Path_933" data-name="Path 933" d="M295.94,214.68a3.286,3.286,0,0,0,3.829,1.192c2.687-1.029,4.462-3.46,7.212-4.751-1.852.284-7.109,1.262-8.884,2.634a4.074,4.074,0,0,1,2.169-.039C299.12,214.807,297.323,215.509,295.94,214.68Z" transform="translate(-256.241 -187.648)" fill="url(#linear-gradient-2)"/>
    <path id="Path_934" data-name="Path 934" d="M40.737,176.035c-3.856,3.039-6.075-3.793-8.667-6.125,0,0,.087.039.242.113,1.977.954,5.752,2.859,6.952,4.676a4.161,4.161,0,0,0-2.067-.642C37.68,175.048,39.061,176.448,40.737,176.035Z" transform="translate(-32.07 -152.637)" fill="url(#linear-gradient-2)"/>
    <path id="Path_935" data-name="Path 935" d="M311.71,176.035c3.856,3.039,6.077-3.793,8.669-6.125,0,0-.089.039-.244.113-1.977.954-5.75,2.859-6.952,4.676a4.165,4.165,0,0,1,2.067-.642C314.763,175.048,313.388,176.448,311.71,176.035Z" transform="translate(-269.639 -152.637)" fill="url(#linear-gradient-2)"/>
    <path id="Path_936" data-name="Path 936" d="M47.98,139.171c-4.425,1.592-3.8-4.723-5.77-7.811,1.307,1.062,4.635,4.24,5.048,6.281a4.385,4.385,0,0,0-1.793-1.235A3.077,3.077,0,0,0,47.98,139.171Z" transform="translate(-40.684 -119.887)" fill="url(#linear-gradient-2)"/>
    <path id="Path_937" data-name="Path 937" d="M320.84,139.171c4.423,1.592,3.8-4.723,5.768-7.811-1.307,1.062-4.635,4.24-5.048,6.281a4.395,4.395,0,0,1,1.793-1.235A3.077,3.077,0,0,1,320.84,139.171Z" transform="translate(-277.395 -119.887)" fill="url(#linear-gradient-2)"/>
    <path id="Path_938" data-name="Path 938" d="M65.378,107.321c-4.524.113-1.805-5.53-2.661-8.381.289.4,3.03,4.539,2.642,6.961A4.734,4.734,0,0,0,64,104.188,2.813,2.813,0,0,0,65.378,107.321Z" transform="translate(-58.068 -92.345)" fill="url(#linear-gradient-15)"/>
    <path id="Path_939" data-name="Path 939" d="M320.628,107.321c4.524.113,1.805-5.53,2.661-8.381-.289.4-3.03,4.539-2.642,6.961A4.751,4.751,0,0,1,322,104.188,2.816,2.816,0,0,1,320.628,107.321Z" transform="translate(-277.2 -92.345)" fill="url(#linear-gradient-16)"/>
    <path id="Path_940" data-name="Path 940" d="M80.348,83.136c-3.964-1.256.212-5.679.19-7.966.4,1.037,1.565,4.865.364,6.9A4.935,4.935,0,0,0,80.149,80,2.558,2.558,0,0,0,80.348,83.136Z" transform="translate(-71.632 -72.151)" fill="url(#linear-gradient-17)"/>
    <path id="Path_941" data-name="Path 941" d="M305.325,83.136c3.964-1.256-.211-5.679-.19-7.966-.4,1.037-1.565,4.865-.364,6.9a4.849,4.849,0,0,1,.76-2.067A2.558,2.558,0,0,1,305.325,83.136Z" transform="translate(-263.295 -72.151)" fill="url(#linear-gradient-18)"/>
    <path id="Path_942" data-name="Path 942" d="M100.847,67.264c-3.424-2.46,1.939-4.577,2.437-6.734.281,1.978.051,4.938-1.58,6.188a5.311,5.311,0,0,0-.113-2.219A2.308,2.308,0,0,0,100.847,67.264Z" transform="translate(-89.535 -59.713)" fill="url(#linear-gradient-15)"/>
    <path id="Path_943" data-name="Path 943" d="M279.791,67.264c3.424-2.46-1.938-4.577-2.437-6.734-.281,1.978-.051,4.938,1.58,6.188a5.319,5.319,0,0,1,.114-2.219A2.306,2.306,0,0,1,279.791,67.264Z" transform="translate(-240.364 -59.713)" fill="url(#linear-gradient-2)"/>
    <path id="Path_944" data-name="Path 944" d="M128.33,59.827a2.473,2.473,0,0,1-.181-.284,1.873,1.873,0,0,1,.15-2.257,2.722,2.722,0,0,1,.6-.512,12.844,12.844,0,0,1,2.063-.951,2.294,2.294,0,0,0,1.291-1.053s-.03.275-.111.694a11.679,11.679,0,0,1-.411,1.557,4,4,0,0,1-2.479,2.8,7.094,7.094,0,0,0,.469-1.437,2.612,2.612,0,0,0,.045-.763.469.469,0,0,0-.063.02c-.039.014-.1.036-.165.068a2.02,2.02,0,0,0-.239.128,2.3,2.3,0,0,0-.272.2A2.147,2.147,0,0,0,128.33,59.827Z" transform="translate(-113.436 -54.82)" fill="url(#linear-gradient-21)"/>
    <path id="Path_945" data-name="Path 945" d="M248.121,59.827a2.243,2.243,0,0,0,.181-.284,1.868,1.868,0,0,0-.15-2.257,2.7,2.7,0,0,0-.609-.512,12.783,12.783,0,0,0-2.063-.951,2.281,2.281,0,0,1-1.289-1.053s.029.275.111.694a11.428,11.428,0,0,0,.409,1.557,4,4,0,0,0,2.479,2.8,7.094,7.094,0,0,1-.471-1.429,2.719,2.719,0,0,1-.045-.763.4.4,0,0,1,.063.02,1.776,1.776,0,0,1,.167.068,2.137,2.137,0,0,1,.238.128,2.3,2.3,0,0,1,.274.2A2.15,2.15,0,0,1,248.121,59.827Z" transform="translate(-212.277 -54.82)" fill="url(#linear-gradient-22)"/>
    <path id="Path_946" data-name="Path 946" d="M155.808,97.19l1.456,3.1-.657,12.26s-1.031,5.017-8.69,7.614c-7.661-2.6-8.69-7.614-8.69-7.614l-.657-12.26,1.455-3.1Z" transform="translate(-122.547 -90.858)" fill="url(#linear-gradient-23)"/>
  </g>
</svg>
