<svg xmlns="http://www.w3.org/2000/svg" xmlns:xlink="http://www.w3.org/1999/xlink" width="68.982" height="24.931" viewBox="0 0 68.982 24.931">
  <defs>
    <linearGradient id="linear-gradient" x1="0.5" x2="0.5" y2="1" gradientUnits="objectBoundingBox">
      <stop offset="0" stop-color="#b0772a"/>
      <stop offset="0.251" stop-color="#c28f3f"/>
      <stop offset="0.565" stop-color="#fbf3c7"/>
      <stop offset="0.715" stop-color="#e2bd68"/>
      <stop offset="0.849" stop-color="#cea14f"/>
      <stop offset="1" stop-color="#fcf9d7"/>
    </linearGradient>
  </defs>
  <g id="_07" data-name="07" transform="translate(0 -2.69)">
    <path id="Path_974" data-name="Path 974" d="M163.107,132.13h.02a10.667,10.667,0,0,1,8.392,4.118,8.173,8.173,0,0,1,.672,1s.825,8.719-9.093,16.313c-9.921-7.594-9.1-16.313-9.1-16.313a8.408,8.408,0,0,1,.684-1,10.658,10.658,0,0,1,8.39-4.117Z" transform="translate(-128.748 -125.934)" fill="url(#linear-gradient)"/>
    <path id="Path_975" data-name="Path 975" d="M231.478,130.893c-1.939-6.668,2.56-8.334,6.393-9.076,5.884-1.136,15.042-2.354,16.432-5.328,0,0,.022,3.831-6.337,5.949s-8.706,2.466-11.207,5.415c-1.847,2.19-3.77,8.73-.9,10.759a16.342,16.342,0,0,1-8.213,2.714C227.663,141.323,233.267,137.051,231.478,130.893Z" transform="translate(-185.901 -113.8)" fill="url(#linear-gradient)"/>
    <path id="Path_976" data-name="Path 976" d="M276.792,129.975c-1.027.341-1.957.639-2.779.9-4.277,1.372-6.052,1.939-7.939,4.187a10.539,10.539,0,0,0-1.7,3.658c1.208-1.9,4.75-2.443,10.053-3.4,7.61-1.37,8.95-10.418,8.95-10.418h0C282.667,126.447,280.966,128.583,276.792,129.975Z" transform="translate(-214.391 -120.325)" fill="url(#linear-gradient)"/>
    <path id="Path_977" data-name="Path 977" d="M273.2,169.844l-.811.146c-3.1.554-9.479,1.405-9.838,5.023h0c1.419-.253,3.7-.269,6.48-.771a12.589,12.589,0,0,0,8.459-6.2A10.535,10.535,0,0,1,273.2,169.844Z" transform="translate(-212.979 -153.795)" fill="url(#linear-gradient)"/>
    <path id="Path_978" data-name="Path 978" d="M265.163,195.567c-.867.076-1.632.143-2.183.249.791,3.485,8.206,1.325,10.71-2.336a12.37,12.37,0,0,1-4.138,1.549C267.878,195.329,266.371,195.461,265.163,195.567Z" transform="translate(-213.312 -173.533)" fill="url(#linear-gradient)"/>
    <path id="Path_979" data-name="Path 979" d="M66.82,130.893c1.939-6.668-2.56-8.334-6.393-9.076-5.893-1.136-15.042-2.354-16.427-5.328,0,0-.022,3.831,6.337,5.949s8.706,2.466,11.207,5.415c1.847,2.19,3.77,8.73.9,10.759a16.342,16.342,0,0,0,8.213,2.714C70.635,141.323,65.031,137.051,66.82,130.893Z" transform="translate(-43.415 -113.8)" fill="url(#linear-gradient)"/>
    <path id="Path_980" data-name="Path 980" d="M47.971,129.975c1.027.341,1.957.639,2.779.9,4.274,1.372,6.052,1.939,7.939,4.187a10.581,10.581,0,0,1,1.7,3.658c-1.21-1.9-4.75-2.443-10.053-3.4-7.61-1.37-8.95-10.418-8.95-10.418h0C42.089,126.447,43.8,128.583,47.971,129.975Z" transform="translate(-41.39 -120.325)" fill="url(#linear-gradient)"/>
    <path id="Path_981" data-name="Path 981" d="M65.622,169.844l.811.146c3.1.554,9.479,1.405,9.838,5.023h0c-1.419-.253-3.7-.269-6.48-.771a12.6,12.6,0,0,1-8.461-6.2A10.559,10.559,0,0,0,65.622,169.844Z" transform="translate(-56.861 -153.795)" fill="url(#linear-gradient)"/>
    <path id="Path_982" data-name="Path 982" d="M88.306,195.567c.867.076,1.63.143,2.183.249-.8,3.485-8.195,1.325-10.71-2.336a12.37,12.37,0,0,0,4.138,1.549C85.592,195.329,87.1,195.461,88.306,195.567Z" transform="translate(-71.175 -173.533)" fill="url(#linear-gradient)"/>
  </g>
</svg>
