<svg id="true_bro" data-name="true bro" xmlns="http://www.w3.org/2000/svg" xmlns:xlink="http://www.w3.org/1999/xlink" width="49.072" height="29.22" viewBox="0 0 49.072 29.22">
  <defs>
    <linearGradient id="linear-gradient" y1="0.5" x2="1" y2="0.5" gradientUnits="objectBoundingBox">
      <stop offset="0" stop-color="#b0772a"/>
      <stop offset="0.09" stop-color="#dfb863"/>
      <stop offset="0.14" stop-color="#f5d77f"/>
      <stop offset="0.26" stop-color="#fcfad9"/>
      <stop offset="0.36" stop-color="#f5d77f"/>
      <stop offset="0.49" stop-color="#b0772a"/>
      <stop offset="0.57" stop-color="#dfb863"/>
      <stop offset="0.61" stop-color="#f5d77f"/>
      <stop offset="0.74" stop-color="#fcfad9"/>
      <stop offset="0.84" stop-color="#f5d77f"/>
      <stop offset="1" stop-color="#b0772a"/>
    </linearGradient>
    <linearGradient id="linear-gradient-2" x1="0" y1="0.5" x2="1" y2="0.5" xlink:href="#linear-gradient"/>
  </defs>
  <g id="noun_fist_hand_2491528" data-name="noun fist hand 2491528" transform="translate(19.333 12.884)">
    <path id="Path_2128" data-name="Path 2128" d="M90.117,55.071a.791.791,0,0,1,.791.791v1.054h0v.834a.791.791,0,0,1-1.538,0V55.861A.793.793,0,0,1,90.117,55.071ZM87.7,54.112a.791.791,0,0,1,.791.791V57.75a.791.791,0,0,1-.613.745,1.582,1.582,0,0,0-.923-1.272V54.9A.791.791,0,0,1,87.7,54.1Zm-3.161.256a.791.791,0,0,1,1.536,0v2.722H84.5V54.369Zm-2.459.959a.769.769,0,1,1,1.536,0h0v1.757H82.082Zm8.78,7.024-1.757,1.625a.448.448,0,0,0-.132.307v5.054H83.094V64.421a.448.448,0,0,0-.132-.295l-1.888-1.975a1.5,1.5,0,0,1-.4-1.054V59.461a1.493,1.493,0,0,1,1.493-1.493H86.3a.769.769,0,1,1,0,1.538H84.589a1.843,1.843,0,0,0-1.843,1.843v.043a.439.439,0,0,0,.439.441h0a.439.439,0,0,0,.446-.441h0a.959.959,0,0,1,.923-1.009H86.31a1.625,1.625,0,0,0,1.438-.959A1.627,1.627,0,0,0,88.89,58.9a1.627,1.627,0,0,0,1.975.352Z" transform="translate(-80.678 -53.766)" fill="url(#linear-gradient)"/>
  </g>
  <g id="_11" data-name=" 11">
    <path id="Path_1092" data-name="Path 1092" d="M100.2,28.957a73.8,73.8,0,0,0,6.293-7.268s-.211,1.438.695,1.459c1.3.019,2.593-3.793,0-7.021-3.681-4.591,1.615-6.743,1.615-6.743L125.261,0l-.793,3.793a9.619,9.619,0,0,1-4.486,6.29l-4.608,2.751a2.732,2.732,0,0,0-1.3,1.9l9.8-5.08L122.019,14.6a4.793,4.793,0,0,1-2.89,2.825l-4.282,1.5c-.851.3-1.529,1.558-1.862,2.4l7.97-2.9-3.278,4.848a4.481,4.481,0,0,1-4.313,1.934l-1.256-.168a2.4,2.4,0,0,0-2.006.676l4.026,1.232S109.515,30.139,100.2,28.957Z" transform="translate(-76.189)" fill="url(#linear-gradient-2)"/>
    <path id="Path_1093" data-name="Path 1093" d="M25.061,28.957a73.8,73.8,0,0,1-6.293-7.268s.211,1.438-.695,1.459c-1.3.019-2.593-3.793,0-7.021,3.686-4.591-1.615-6.743-1.615-6.743L0,0,.793,3.793a9.626,9.626,0,0,0,4.493,6.288l4.608,2.751a2.732,2.732,0,0,1,1.3,1.9l-9.8-5.078L3.249,14.6a4.776,4.776,0,0,0,2.89,2.825l4.275,1.5c.851.3,1.529,1.558,1.862,2.4l-7.963-2.9L7.584,23.28A4.479,4.479,0,0,0,11.9,25.212l1.256-.165a2.38,2.38,0,0,1,2,.676l-4.026,1.232S15.746,30.139,25.061,28.957Z" fill="url(#linear-gradient-2)"/>
  </g>
</svg>
